<svg width="24" height="24" viewBox="0 0 24 24" xmlns="http://www.w3.org/2000/svg">
<path d="M16.8751 11.125L12.2751 15.725C12.1751 15.825 12.0667 15.8957 11.9501 15.937C11.8334 15.979 11.7084 16 11.5751 16C11.4417 16 11.3167 15.979 11.2001 15.937C11.0834 15.8957 10.9751 15.825 10.8751 15.725L6.27506 11.125C6.09173 10.9417 6.00006 10.7083 6.00006 10.425C6.00006 10.1417 6.09173 9.90833 6.27506 9.725C6.45839 9.54167 6.69173 9.45 6.97506 9.45C7.25839 9.45 7.49173 9.54167 7.67506 9.725L11.5751 13.625L15.4751 9.725C15.6584 9.54167 15.8917 9.45 16.1751 9.45C16.4584 9.45 16.6917 9.54167 16.8751 9.725C17.0584 9.90833 17.1501 10.1417 17.1501 10.425C17.1501 10.7083 17.0584 10.9417 16.8751 11.125V11.125Z" />
</svg>
