<svg width="656" height="326" viewBox="0 0 656 326" xmlns="http://www.w3.org/2000/svg">
<path d="M218.511 202.355L226.143 204.76C225.339 207.432 224 210.906 222.126 215.182C220.519 219.458 217.038 227.074 211.682 238.031C206.594 248.721 201.373 258.074 196.017 266.091C190.929 274.109 184.77 281.19 177.54 287.337C170.31 293.216 163.348 295.488 156.653 294.152C148.887 292.548 142.728 284.798 138.176 270.902C133.624 257.005 130.678 242.173 129.339 226.406C128 210.639 125.59 196.342 122.109 183.514C118.628 170.687 113.942 164.273 108.05 164.273C103.23 164.273 99.4813 169.618 96.8035 180.307C94.1257 190.997 91.8495 203.958 89.975 219.191C88.1006 234.156 85.5566 249.255 82.3432 264.488C79.1298 279.453 73.3725 292.147 65.0712 302.57C56.77 312.992 46.0587 318.07 32.9373 317.802C24.3682 318.07 17.4059 313.126 12.0502 302.971C6.96235 292.548 3.61507 278.919 2.00837 262.083C0.669457 245.247 0 226.406 0 205.561C0 184.449 0.93724 163.204 2.81172 141.825C4.6862 120.445 6.15901 100.001 7.23014 80.4928C8.56905 60.7171 9.64018 44.0145 10.4435 30.3853C11.5147 16.756 11.2469 7.13533 9.64018 1.52327C11.5147 0.988797 13.9247 0.587934 16.8703 0.320681C20.0837 -0.213793 25.4394 -0.080167 32.9373 0.72156C40.703 1.25603 47.3976 2.99309 53.021 5.93273C58.6444 8.60515 63.5984 13.95 67.883 21.9672C72.1675 29.7171 73.7742 39.7387 72.703 52.0317C68.1507 111.359 65.339 161.066 64.2679 201.152C74.4436 153.316 89.3056 129.398 108.854 129.398C119.297 129.398 127.331 136.747 132.954 151.445C138.845 165.876 142.327 181.911 143.398 199.549C144.469 217.186 146.209 233.755 148.619 249.255C151.297 264.755 155.18 273.173 160.268 274.509C166.427 276.113 174.327 270.902 183.967 258.876C193.607 246.85 201.774 234.423 208.469 221.596L218.511 202.355Z" />
<path d="M403.086 180.307L407.906 188.725C406.568 189.794 404.693 191.13 402.283 192.734C402.015 193.001 401.48 193.402 400.676 193.936C399.873 194.204 399.337 194.471 399.07 194.738L395.455 197.143C395.187 197.411 394.517 197.811 393.446 198.346C392.643 198.88 391.973 199.281 391.438 199.549C390.902 199.816 390.099 200.35 389.028 201.152C387.957 201.954 387.153 202.488 386.618 202.755C383.672 204.092 381.932 205.027 381.396 205.561C380.86 206.096 379.923 206.764 378.584 207.566C377.245 208.1 376.308 208.501 375.773 208.768C375.505 209.036 374.969 209.436 374.166 209.971C373.63 210.238 373.229 210.372 372.961 210.372C371.89 210.906 371.354 211.173 371.354 211.173C371.086 211.173 370.819 211.307 370.551 211.574C370.283 211.842 370.015 211.975 369.747 211.975C368.676 212.242 367.605 212.777 366.534 213.579C365.463 213.846 364.392 214.38 363.321 215.182C360.375 216.518 355.689 218.523 349.262 221.195C345.245 222.798 340.291 224.535 334.4 226.406C333.597 226.673 332.392 227.074 330.785 227.609C329.446 227.876 328.509 228.01 327.973 228.01C327.17 232.82 325.965 237.63 324.358 242.441C317.664 263.285 306.283 279.32 290.216 290.544C274.149 301.501 257.948 304.44 241.613 299.363C225.279 294.285 213.764 282.66 207.069 264.488C200.375 246.048 200.375 226.273 207.069 205.161C213.764 184.316 225.145 168.415 241.212 157.458C257.279 146.234 273.48 143.161 289.814 148.238C300.793 151.712 309.764 158.794 316.726 169.484C323.689 179.906 327.706 192.066 328.777 205.962H329.982C336.676 204.626 341.229 203.691 343.639 203.156C345.781 202.889 350.199 201.686 356.894 199.549C358.501 199.014 359.572 198.613 360.107 198.346C361.714 197.811 362.785 197.544 363.321 197.544C364.392 197.01 364.927 196.742 364.927 196.742C365.195 196.742 365.463 196.742 365.731 196.742C365.998 196.475 366.266 196.342 366.534 196.342C366.802 196.074 367.204 195.807 367.739 195.54C368.542 195.273 369.078 195.139 369.346 195.139L375.371 192.734C376.978 192.199 378.718 191.531 380.593 190.73C382.735 189.661 384.342 188.992 385.413 188.725C387.555 187.656 389.028 186.988 389.831 186.721C390.099 186.454 390.635 186.186 391.438 185.919C392.509 185.385 393.178 184.984 393.446 184.717L397.061 183.514L403.086 180.307ZM301.864 188.725C296.777 187.122 291.019 188.725 284.592 193.536C285.128 194.605 286.199 195.941 287.806 197.544C289.948 199.682 292.224 201.286 294.634 202.355C295.973 203.423 297.446 204.092 299.053 204.359C302.266 205.161 304.007 205.561 304.275 205.561C307.488 206.363 310.701 206.764 313.915 206.764C312.04 196.609 308.023 190.596 301.864 188.725ZM272.141 281.725C278.835 283.863 285.931 281.19 293.429 273.708C300.927 265.958 306.685 255.669 310.701 242.841C311.772 239.635 312.844 235.359 313.915 230.014C308.559 230.548 304.408 230.682 301.463 230.415C300.927 230.415 299.99 230.415 298.651 230.415C297.58 230.148 296.509 230.014 295.438 230.014C294.634 229.747 293.831 229.479 293.028 229.212C291.153 228.945 288.341 228.277 284.592 227.208C280.04 225.872 275.354 223.467 270.534 219.992C268.927 218.923 267.856 218.122 267.32 217.587C266.785 218.923 265.446 222.264 263.304 227.609C259.287 240.436 258.082 252.195 259.689 262.884C261.563 273.307 265.714 279.587 272.141 281.725Z" />
<path d="M647.966 184.717L656 187.122C655.732 187.924 655.464 188.859 655.197 189.928C654.929 190.997 654.125 193.268 652.787 196.742C651.448 200.217 649.841 203.29 647.966 205.962C646.092 208.367 643.414 211.441 639.933 215.182C636.72 218.656 632.971 221.195 628.686 222.798C624.402 224.135 619.18 225.471 613.021 226.807C607.13 227.876 600.435 227.342 592.937 225.204C591.063 237.229 588.786 247.251 586.109 255.268C582.627 265.958 578.745 274.777 574.46 281.725C570.176 289.208 565.088 295.889 559.196 301.768C555.715 305.777 551.565 309.384 546.745 312.591C539.247 317.936 530.276 322.078 519.832 325.018C512.067 326.889 505.104 326.087 498.945 322.613C492.786 319.139 487.698 313.527 483.682 305.777C479.933 298.027 476.853 289.876 474.443 281.324C472.033 272.505 470.025 262.35 468.418 250.859C453.69 287.203 429.723 307.38 396.518 311.389C384.736 312.992 375.497 309.518 368.803 300.966C362.108 292.147 357.958 280.389 356.351 265.691C354.744 250.725 353.807 235.492 353.539 219.992C353.539 204.492 353.271 189.26 352.736 174.294C352.468 159.329 351.129 148.906 348.719 143.027C349.523 142.76 350.728 142.359 352.334 141.825C353.941 141.29 357.02 140.756 361.573 140.221C366.393 139.419 370.945 139.019 375.23 139.019C379.514 139.019 384.2 139.82 389.288 141.424C394.644 142.76 399.196 145.031 402.945 148.238C406.962 151.445 410.309 156.256 412.987 162.669C415.933 169.083 417.673 176.833 418.209 185.919C418.477 193.669 418.878 204.492 419.414 218.389C420.217 249.389 422.092 266.759 425.037 270.501C428.251 274.509 434.142 270.1 442.711 257.272C452.351 242.574 459.581 227.609 464.401 212.376C462.795 195.005 461.724 184.717 461.188 181.51C462.795 180.708 464.803 179.906 467.213 179.105C469.891 178.036 474.577 176.967 481.272 175.898C487.966 174.829 493.991 174.962 499.347 176.299C504.97 177.368 510.46 180.975 515.816 187.122C521.171 193.001 524.653 201.419 526.259 212.376C531.347 245.781 536.301 268.363 541.121 280.122C544.602 277.182 548.217 272.906 551.966 267.294C555.983 261.682 559.598 254.867 562.812 246.85C566.293 237.497 568.703 228.945 570.042 221.195C570.042 220.928 570.042 220.393 570.042 219.592C570.309 218.79 570.577 218.255 570.845 217.988C564.15 214.781 559.598 212.51 557.188 211.173C552.1 208.501 547.816 205.561 544.335 202.355C539.514 198.079 536.033 193.402 533.891 188.324C532.552 185.385 531.615 182.044 531.079 178.303C530.811 175.363 531.079 171.889 531.883 167.881C534.025 160.665 538.176 155.053 544.335 151.044C550.494 146.234 557.322 144.23 564.82 145.031C568.837 145.031 572.586 146.1 576.067 148.238C579.28 149.575 582.36 151.98 585.305 155.454C587.18 158.126 589.054 161.199 590.929 164.674C591.732 166.812 592.669 170.018 593.74 174.294C594.544 177.501 594.946 180.574 594.946 183.514C595.213 184.583 595.347 186.186 595.347 188.324V192.333C595.347 199.816 594.946 207.165 594.142 214.38C595.213 214.648 596.686 214.915 598.561 215.182C600.703 215.449 604.452 215.583 609.807 215.583C615.431 215.316 620.385 214.38 624.669 212.777C629.222 211.173 633.774 207.967 638.326 203.156C642.879 198.346 646.092 192.199 647.966 184.717ZM574.46 187.924V184.717C574.46 181.777 574.326 179.505 574.058 177.902C572.987 173.092 571.782 169.618 570.443 167.48C568.301 164.54 565.891 162.937 563.213 162.669C560 162.135 556.786 162.937 553.573 165.074C550.627 166.678 548.485 169.217 547.146 172.691C546.343 175.898 546.477 179.105 547.548 182.311C548.619 185.251 550.761 188.592 553.975 192.333C558.259 196.074 561.606 198.747 564.017 200.35L572.853 205.561C572.853 205.294 572.987 203.423 573.255 199.949C573.791 196.208 574.058 193.402 574.058 191.531C574.326 190.997 574.46 189.794 574.46 187.924Z" />
</svg>
