<svg width="791" height="529" viewBox="0 0 791 529" fill="none" xmlns="http://www.w3.org/2000/svg">
<path fill-rule="evenodd" clip-rule="evenodd" d="M755.97 436.079C756.015 432.795 755.653 430.407 755.176 427.858C754.397 423.676 753.009 419.699 752.082 415.597C750.668 409.349 747.904 403.614 745.691 397.689C744.966 395.756 744.275 393.618 743.094 391.747C741.951 389.94 740.86 388.038 740.169 385.959C740.092 385.73 739.795 384.978 738.901 385.62C739.124 386.525 739.076 387.413 739.655 388.581C741.848 392.999 743.234 397.778 745.034 402.37C746.964 407.285 748.507 412.315 749.876 417.373C750.607 420.07 751.466 422.808 752.24 425.455C753.199 428.733 753.528 432.386 755.97 436.079M498.536 257.169C499.913 257.108 500.394 258.485 502.021 257.921C503.636 257.359 504.633 256.251 505.969 255.503C507.834 254.454 508.558 252.634 508.646 250.757C508.72 249.161 510.027 249.722 510.718 248.979C510.841 245.748 510.677 242.536 507.222 239.82C504.478 245.813 499.494 250.136 498.536 257.169M613.272 686.423C605.598 690.166 588.824 703.324 586.537 710.237C588.575 708.958 590.87 708.709 591.577 706.037C591.835 705.06 593.308 704.47 593.921 703.508C594.804 702.126 596.448 703.429 597.438 702.17C598.462 700.864 600.447 700.14 601.085 698.739C601.96 696.817 603.988 696.874 605.077 695.495C606.105 694.196 607.211 692.602 608.634 692.064C610.303 691.432 610.488 689.075 612.349 689.211C614.323 689.355 613.812 686.406 615.762 686.738C617.469 684.753 620.159 683.983 621.752 681.825C622.317 681.056 622.603 680.479 621.787 679.652C619.553 679.982 618.018 681.699 616.403 682.775C615.224 682.606 614.804 681.062 613.569 681.92C613.492 682.005 613.289 682.125 613.287 682.248C613.263 683.581 613.272 684.913 613.272 686.423M655.432 706.274C650.614 708.016 647.944 712.31 643.899 714.868C639.711 717.52 635.893 720.643 632.08 723.767C628.153 726.988 624.395 730.414 620.589 733.73C621.387 734.134 622.436 734.344 623.164 733.592C625.864 730.807 630.512 730.947 632.572 727.252C635.366 727.21 636.626 724.865 638.506 723.408C639.839 722.374 641.473 721.692 642.76 721.788C643.961 719.755 645.111 718.541 647.032 717.658C648.616 716.928 649.507 714.934 651.444 714.499C650.152 711.764 650.358 711.512 654.379 710.417C654.265 709.79 653.286 709.671 653.589 708.382C654.027 707.883 654.729 707.078 655.432 706.274M526.824 559.803C532.784 552.127 537.461 543.828 541.894 535.406C547.233 525.266 552.288 514.974 557.544 504.788C558.134 503.645 558.178 502.799 557.382 501.649C546.387 520.082 536.831 539.109 526.859 557.908C526.594 558.406 526.824 559.167 526.824 559.803M160.56 297.568C158.855 299.274 157.148 300.738 155.746 302.452C154.367 304.132 152.495 305.21 151.032 306.847C149.075 309.038 147.668 311.631 145.52 313.66C141.257 317.683 137.754 322.361 134.108 326.939C128.397 334.113 124.014 342.1 119.321 349.903C118.239 351.7 117.444 353.672 116.517 355.565C131.694 336.868 144.664 316.598 160.893 298.845C161.004 298.723 160.751 298.268 160.56 297.568M388.041 816.908C388.406 818.412 388.62 819.304 388.836 820.196C386.158 820.327 387.807 823.74 385.246 824.449C382.526 824.625 379.28 824.134 376.138 825.397C374.689 825.977 374.822 826.477 375.5 827.466C377.905 827.417 380.378 827.927 382.293 826.414C383.462 826.866 382.678 828.157 383.738 828.476C386.853 828.476 390.279 829.232 393.133 828.275C396.288 827.218 399.269 827.695 402.311 827.512C405.474 827.324 408.658 827.472 411.834 827.472C412.668 827.472 413.505 827.507 414.336 827.452C414.62 827.433 414.891 827.19 415.167 827.048C415.184 826.254 415.477 825.437 414.974 824.687C412.014 825.839 412.093 825.701 410.083 823.919C409.023 822.979 410.153 822.374 409.963 821.755C409.408 819.925 407.361 820.848 406.384 819.947C405.468 819.332 407.081 817.99 405.433 817.52C404.735 819.099 406.067 821.403 403.596 822.286C400.933 821.027 400.933 821.027 399.162 823.784C399.077 825.045 401.067 823.871 401.032 825.38C399.79 825.205 398.36 826.383 398.004 823.991C397.897 823.279 395.966 822.837 395.339 822.514C394.178 822.428 394.165 823.651 393.369 823.15C392.063 822.323 391.952 820.867 391.283 819.822C391.862 818.961 392.872 818.607 393.028 817.715C391.39 816.693 390.957 818.974 389.634 818.397C389.319 818.102 388.959 817.765 388.041 816.908M419.938 689.652C420.091 686.086 422.483 683.323 423.296 679.997C424.293 675.911 425.633 671.921 426.718 667.855C427.643 664.385 428.736 660.987 429.398 657.424C430.076 653.772 431.552 650.292 432.441 646.645C433.36 642.871 434.127 639.019 435.417 635.352C436.141 633.295 436.952 631.305 437.398 629.146C437.899 626.712 438.412 624.207 439.451 621.983C440.507 619.722 439.558 616.736 442.134 615.024C442.757 614.611 442.47 613.496 442.23 612.722C442.109 612.335 441.556 611.744 441.613 611.69C443.732 609.698 442.949 606.757 444.219 604.206C443.257 604.39 442.709 604.206 442.324 605.393C440.555 610.835 438.441 616.165 436.722 621.622C436.117 623.537 434.952 625.405 435.349 627.58C432.962 631.548 432.509 636.194 431.556 640.514C430.575 644.957 429.273 649.354 428.121 653.709C425.574 663.331 423.517 673.102 420.27 682.534C420.847 684.95 418.202 687.031 419.938 689.652M95.8081 634.864C95.2036 633.673 94.8553 632.345 94.0057 631.561C93.5376 631.13 92.7912 631.272 92.4982 630.201C91.3095 625.865 90.0969 621.51 88.4493 617.338C87.6071 615.204 87.3417 612.808 85.6794 610.948C81.2269 605.974 76.8978 600.888 72.5375 595.833C72.1283 595.357 71.4299 595.112 71.4336 594.279C71.4372 593.118 70.3296 592.696 69.6643 592.027C69.082 591.443 68.6784 590.451 67.1488 590.376C70.1748 597.421 73.8349 603.7 77.5889 609.914C81.155 615.814 84.804 621.665 88.5746 627.433C90.2904 630.058 91.691 632.829 93.1838 635.564C93.3773 635.916 93.8233 636.13 94.0168 636.294C94.6397 635.797 95.1594 635.382 95.8081 634.864M373.274 353.751C375.396 353.406 374.856 351.36 376.059 350.349C377.25 349.348 378.228 348.052 379.174 346.696C382.743 341.573 386.765 336.757 390.659 331.86C393.469 328.331 396.407 324.833 398.965 321.193C401.528 317.546 404.584 314.273 406.937 310.501C409.175 306.92 412.866 304.336 413.985 299.998C411.611 298.317 409.792 298.31 407.905 300.604C405.176 303.922 402.695 307.447 400.178 310.934C398.423 313.367 396.967 316.03 395.062 318.328C391.302 322.856 388.322 327.92 385.189 332.837C381.402 338.784 377.635 344.75 373.774 350.649C373.048 351.762 372.873 352.626 373.274 353.751M579.543 725.887C581.454 723.934 584.017 723.121 586.351 721.875C589.109 720.401 591.631 718.488 594.353 716.936C595.385 716.348 595.062 714.347 596.85 714.721C599.522 709.885 603.853 706.792 608.263 703.65C608.867 704.061 609.359 704.397 609.822 704.714C610.309 704.251 610.791 703.792 611.26 703.348C610.924 702.978 610.611 702.627 610.305 702.29C610.97 701.111 612.61 702.616 613.196 701.153C612.588 700.921 612.013 700.702 611.435 700.482C611.599 697.423 611.595 697.408 614.405 696.802C614.958 696.682 615.294 696.468 615.285 695.871C615.417 695.046 614.651 694.788 614.295 694.284C614.839 693.138 617.105 692.749 616.081 690.997C612.876 692.027 611.132 694.714 608.755 696.572C605.991 698.73 603.068 700.681 600.423 703.035C597.867 705.309 595.27 707.565 592.629 709.71C589.651 712.126 586.321 714.125 583.61 716.901C582.674 717.857 581.872 719.23 580.735 719.634C579.215 720.174 578.337 721.25 577.294 722.231C576.176 723.277 575.118 724.389 574.097 725.412C576.082 727.175 577.879 723.401 579.543 725.887M537.898 851.158C538.877 851.829 539.774 851.713 540.71 851.287C544.662 849.488 548.834 848.204 552.89 846.739C560.198 844.094 567.273 840.983 574.3 837.745C586.304 832.216 598.059 826.179 609.418 819.41C614.273 816.518 619.094 813.555 623.767 810.383C628.769 806.99 633.507 803.207 638.494 799.79C643.28 796.511 647.545 792.593 652.154 789.105C656.028 786.173 659.209 782.411 663.383 779.831C664.214 779.317 664.841 778.456 665.526 777.721C666.201 776.997 667.106 776.403 667.461 775.545C666.321 774.899 665.847 775.351 665.379 775.867C663.284 778.174 660.703 780.041 658.239 781.774C652.322 785.937 646.955 790.762 641.181 795.078C638.096 797.385 635.166 800.046 631.959 802.02C624.739 806.467 617.846 811.408 610.596 815.822C600.849 821.758 590.709 826.918 580.818 832.552C578.472 833.888 575.805 834.31 573.542 835.613C568.546 838.488 563.408 841.086 557.982 842.946C553.869 844.358 550.137 846.595 545.88 847.778C543.248 848.508 540.357 849.468 537.898 851.158M43.8213 328.886C44.4092 328.27 44.8534 327.808 45.3012 327.34C44.2157 326.518 44.1383 325.183 43.4822 324.196C44.1107 322.273 46.8327 324.555 47.2566 322.31C46.8695 321.461 45.5408 322.277 45.327 321.147C45.0229 319.419 46.3388 318.256 46.8401 316.833C47.6473 316.619 48.5521 317.215 49.2469 316.422C48.4434 315.381 47.7449 314.301 48.6388 312.998C50.4172 310.412 50.9129 307.014 53.6147 305.024C54.5951 304.299 54.1897 302.777 55.371 302.226C54.6836 299.849 56.4085 298.288 57.4111 296.548C60.686 290.861 63.8853 285.116 67.4827 279.635C72.2596 272.36 77.053 265.051 82.4675 258.254C86.2013 253.565 89.537 248.477 94.0669 244.432C94.7783 243.798 94.8594 243.11 94.2107 242.609C75.9307 258.42 63.4725 278.404 52.8922 299.769C52.2675 299.112 51.7699 298.374 50.7434 298.82C49.9472 300.472 49.328 302.278 48.2868 303.789C46.9986 305.658 46.9967 307.285 48.4397 308.702C47.4298 310.611 46.5728 312.231 45.7804 313.731C44.964 313.813 43.9153 313.65 43.731 313.977C42.4281 316.293 40.27 318.37 41.4477 321.468C39.1993 321.315 39.4886 323.457 38.4068 324.229C39.2306 325.924 36.1345 327.039 37.8558 329.072C39.0832 330.522 38.3792 331.973 36.5178 332.642C36.2764 332.398 36.0387 332.163 35.7033 331.825C35.8783 333.344 33.6281 333.945 34.369 335.522C35.1946 336.383 35.4987 334.135 36.3925 335.618C35.3273 338.194 34.4888 341.082 32.9812 343.565C31.9769 345.222 32.1943 346.427 32.6145 348.277C33.7829 346.255 34.0354 344.101 36.2156 343.395C35.519 342.695 34.7136 342.144 35.6996 340.94C36.5952 339.844 37.666 339.966 38.8067 339.873C39.2177 339.842 39.2841 339.433 39.0519 339.197C38.4713 338.991 37.889 338.784 37.032 338.48C38.9523 334.851 40.2682 331.061 42.7653 327.83C43.1302 328.195 43.3661 328.431 43.8213 328.886M88.4092 307.849C92.2111 305.752 93.8956 302.246 96.4517 299.633C98.6448 297.39 100.532 294.678 102.485 292.136C104.597 289.39 107.2 287.123 109.266 284.42C112.316 280.422 115.327 276.42 118.906 272.876C119.855 271.938 121.165 271.136 121.643 269.993C122.925 266.919 125.76 265.34 127.815 263.034C129.875 260.723 131.263 257.872 133.773 255.913C134.436 255.396 135.249 255.475 135.922 254.446C138.699 250.219 143.174 247.373 145.816 242.954C147.855 242.67 147.997 240.503 149.281 239.439C150.584 238.361 151.706 237.064 153.019 235.752C150.599 234.703 150.12 236.828 148.995 237.493C144.053 240.411 139.39 243.811 135.142 247.666C126.831 255.206 119.416 263.619 112.483 272.417C110.762 274.601 108.72 276.492 107.124 278.712C101.678 286.289 96.3725 293.97 91.1625 301.71C90.0144 303.419 88.8828 305.306 88.4092 307.849M268.791 127.15C266.86 125.699 265.655 126.523 264.429 127.43V130.863C261.394 131.016 262.077 134.818 259.282 136.034C256.987 137.035 255.325 139.484 253.405 141.27C253.887 142.391 255.474 141.536 255.834 142.962C257.518 141.471 258.697 139.23 261.399 139.759V137.382C263.379 136.864 264.547 135.262 265.903 133.91C267.188 132.627 269.639 132.514 269.761 130.069C272.164 130.297 272.053 127.513 273.804 126.707C275.374 125.989 276.513 124.308 277.807 123.016C279.178 121.649 280.212 119.877 281.511 118.613C282.821 117.338 283.728 115.676 285.225 114.632C286.793 113.541 288.827 112.869 289.535 110.965C290.296 108.923 291.831 108 293.693 107.178C292.919 103.96 295.508 103.796 297.788 103.354C297.266 102.834 297.029 102.596 296.782 102.349C296.844 101.14 298.177 102.09 298.547 101.299C299.559 99.1408 300.478 96.7082 302.498 95.4642C304.769 94.0691 305.895 91.8005 307.655 90.0478C314.577 83.1571 321.628 76.412 328.911 69.9065C329.407 69.4642 329.807 68.6846 330.36 68.5685C333.655 67.8774 335.317 65.0725 337.713 63.2056C340.299 61.1894 342.481 58.5706 345.166 56.9028C349.211 54.3946 353.16 51.8661 356.336 48.5119C356.999 48.7534 357.053 49.5016 357.41 49.3228C359.336 47.5426 360.836 45.0565 362.793 44.6178C365.431 44.0281 366.216 42.058 368.576 40.5634C363.805 41.0628 363.805 41.0628 361.26 43.5453C359.677 42.3529 358.035 44.7395 356.185 43.4715C355.753 45.2942 356.056 47.7582 353.037 47.4025C352.444 47.3325 351.999 47.6329 351.81 48.0494C350.405 51.1492 347.136 52.0596 344.729 53.9265C342.829 55.399 340.785 57.2603 338.172 56.5655C337.114 59.0756 335.601 60.6163 333.57 61.6649C333.03 61.1618 332.669 60.8264 332.243 60.4302C331.663 61.7128 331.086 62.9826 330.496 64.2856C328.756 64.3427 327.273 65.2089 325.763 66.0529V68.0451C324.155 68.2829 323.229 69.4845 322.273 70.557C321.394 71.5449 319.813 71.5043 319.33 73.2827C318.989 74.5451 317.338 75.4537 316.272 76.5171C315.143 76.7622 313.847 76.2185 312.528 77.0921C313.455 77.4551 314.03 77.68 315.297 78.1757C312.609 78.266 312.607 80.3964 311.39 81.4672C309.38 83.2345 307.568 85.2249 305.674 87.1194C306.509 89.1503 303.505 88.0059 303.599 89.7235C303.709 91.7175 301.146 89.6424 300.775 91.2144C301.059 91.5738 301.323 91.9055 301.068 91.5867C298.685 93.9751 296.472 96.1922 294.26 98.411C293.743 99.1058 293.61 97.1579 292.814 98.0996C291.402 99.526 295.101 100.07 293.28 101.531C292.609 101.736 292.591 100.446 291.737 101.006C291.245 101.798 292.108 102.993 291.068 103.728C290.552 103.074 290.024 102.407 289.559 102.58C288.459 103.053 288.584 103.597 288.592 104.078C288.627 106.214 288.208 108.086 285.894 108.908C285.862 110.967 283.647 110.812 282.718 112.016C281.701 113.331 280.085 114.234 279.259 115.631C276.59 120.141 272.237 123.016 268.791 127.15M5.07926 415.798C3.63624 414.894 3.80764 413.305 4.17069 412.203C6.46882 405.22 7.62803 397.95 9.69395 390.897C10.7794 387.189 11.688 383.263 12.1672 379.329C12.5468 376.212 14.1004 373.404 14.5685 370.26C15.0716 366.876 16.5128 363.692 17.2555 360.317C17.8821 357.472 19.5223 354.921 20.2576 352.017C21.321 347.809 22.7585 343.688 24.2457 339.605C25.1967 336.993 25.7956 334.177 27.6699 331.99C28.1638 331.415 28.055 330.79 28.2651 330.213C29.1626 327.742 29.9864 325.255 31.1917 322.878C33.711 317.906 35.7493 312.689 38.3404 307.759C40.2239 304.18 41.8825 300.509 43.6536 296.885C45.3601 293.399 47.1367 289.943 48.9815 286.528C53.305 278.523 57.9879 270.723 63.2162 263.28C67.3057 257.456 71.8467 251.99 76.5812 246.644C80.42 242.313 84.1408 237.853 88.4938 234.095C91.9862 231.08 95.0602 227.542 98.7571 224.897C102.244 222.404 105.618 219.702 109.019 217.136C116.895 211.199 124.987 205.602 133.282 200.318C138.166 197.207 143.15 194.179 147.967 191.002C153.617 187.276 159.649 184.216 165.309 180.508C168.622 178.339 172.345 176.533 175.85 174.546C179.245 172.622 182.885 171.185 186.158 169.049C189.427 166.917 193.027 165.288 196.453 163.52C199.676 161.86 202.737 159.342 206.616 158.99C208.277 156.255 211.544 156.261 213.986 154.897C216.404 153.546 218.993 152.313 221.303 150.832C223.684 149.304 226.153 147.811 228.551 146.364C233.422 143.429 237.981 140.047 242.815 137.117C245.767 135.327 247.959 132.782 250.673 130.792C255.841 127.003 260.597 122.585 264.95 117.805C266.694 115.89 268.605 114.098 270.835 112.797C272.532 111.804 272.586 109.808 274.012 108.619C276.319 106.699 278.304 104.392 280.468 102.293C281.187 101.594 281.819 100.905 281.629 99.8341C282.667 99.7217 283.457 99.6351 284.189 99.5559C284.959 98.7984 283.702 98.8906 283.781 98.2677C284.587 97.3222 285.215 96.093 286.671 95.6489C288.039 95.2305 287.797 93.5811 288.877 92.7444C291.229 90.9199 291.793 87.2267 295.261 86.4711C296.227 83.6864 298.578 81.8859 300.213 79.573C301.033 78.4138 302.126 77.3854 303.665 77.0463C304.988 76.757 304.107 74.282 306.061 74.5529C308.088 69.9842 312.634 67.8722 316.121 64.9015C321.713 60.1393 326.976 54.9257 333.417 51.0795C336.638 49.1555 339.429 46.2234 342.672 44.1998C349.967 39.6533 356.962 34.6019 364.804 30.9381C368.044 29.4233 370.948 27.1841 374.199 25.7005C381.095 22.5491 387.997 19.3867 395.126 16.7716C396.46 16.2832 397.698 15.5442 399.272 15.8169C400.962 16.1081 401.552 14.1657 403.069 13.6625C404.864 13.0636 406.771 13.3953 408.597 12.4204C409.604 11.8823 411.393 11.7735 412.563 11.1525C416.364 9.13263 420.855 9.54176 424.605 7.43345C426.024 6.6373 427.817 6.94139 429.33 6.84555C434.472 6.51936 439.183 3.85817 444.361 4.23044C447.198 4.43501 449.807 3.80104 452.293 2.7045C453.093 2.3525 453.911 1.94521 454.567 2.22349C456.858 3.20209 459.081 2.19585 461.29 2.07053C463.653 1.93784 465.946 0.983202 468.421 1.13617C470.923 1.28913 473.636 1.76829 475.914 1.03849C479.994 -0.268145 484.049 0.268147 488.105 0.233131C490.134 0.216545 492.338 -0.66806 494.268 1.12142C495.283 2.06131 496.136 -1.04955 497.657 0.609088C498.558 1.59321 499.579 1.30571 500.742 0.701235C501.805 0.148356 503.042 1.93968 504.067 1.10852C505.078 0.292105 506.719 -0.362135 507.085 0.244189C508.003 1.76645 509.413 -0.32159 510.075 0.988731C510.128 1.09378 510.358 1.17671 510.493 1.16012C514.945 0.62936 519.16 2.59945 523.653 2.28799C526.279 2.10555 529.084 2.73767 531.62 3.57067C534.051 4.3705 536.572 4.68196 539.003 5.05791C543.24 5.70847 547.095 7.61037 551.303 8.21116C552.442 8.37518 552.716 11.1672 554.546 9.28928C555.468 10.7397 556.994 9.88086 558.16 10.2808C559.03 10.5756 559.701 11.4492 560.676 12.2398C563.035 12.0168 565.226 13.1023 567.644 14.0643C572.273 15.9054 576.8 17.9455 581.121 20.3376C587.065 23.6254 593.246 26.6736 598.002 31.7159C598.981 32.7553 600.188 31.9038 601.141 32.7203C606.692 37.464 612.705 41.6216 617.41 47.3881C619.382 49.8005 622.307 51.5863 624.347 54.0448C628.444 58.982 633.173 63.3294 636.601 68.9319C638.635 72.2566 641.26 75.3656 643.423 78.7087C647.914 85.651 652.137 92.7555 654.864 100.603C656.904 106.471 659.07 112.296 660.64 118.335C661.18 120.412 660.979 122.581 661.663 124.434C662.37 126.354 662.586 128.18 662.496 130.097C662.426 131.614 663.933 132.535 663.627 134.221C663.39 135.537 663.106 137.05 664.394 138.425C664.982 139.055 664.532 140.664 664.54 141.831C664.547 143.506 664.797 145.236 664.46 146.84C664.182 148.158 666.309 149.263 664.611 150.518C666.198 151.807 665.398 153.587 665.522 155.159C665.636 156.657 665.546 158.172 665.546 159.68V164.707C665.546 166.213 665.157 167.858 665.629 169.2C666.543 171.788 665.852 174.43 666.41 177.056C667.026 179.941 666.652 183.063 666.521 186.072C666.406 188.698 667.98 190.989 667.628 193.707C667.291 196.345 666.95 199.249 667.717 201.689C668.581 204.446 667.726 207.395 668.791 209.767C670.063 212.594 668.839 215.373 669.62 217.979C671.329 223.662 671.174 229.692 672.731 235.3C674.696 242.379 675.77 249.657 678.089 256.671C679.598 261.236 681.258 265.771 682.764 270.338C684.257 274.862 686.671 279.112 688.931 283.349C691.756 288.649 695.158 293.585 698.803 298.378C702.465 303.188 706.811 307.385 710.532 312.117C712.227 314.273 714.284 316.07 715.926 318.297C717.697 320.698 720.402 322.404 722.184 324.798C726.641 330.788 732.658 335.467 736.456 341.986C743.295 348.458 747.587 356.889 753.422 364.145C756.326 367.759 758.221 372.18 760.63 376.2C764.633 382.876 767.935 389.905 771.304 396.908C774.404 403.348 776.899 410.014 779.122 416.79C780.723 421.661 782.085 426.613 783.775 431.452C784.461 433.415 783.495 435.719 785.168 437.405C784.986 442.11 787.524 446.419 787.179 451.148C788.725 453.884 788.288 456.89 788.11 459.774C787.975 461.975 789.693 463.621 789.271 465.911C788.884 468.018 788.574 470.497 789.324 472.376C790.686 475.795 790.096 479.182 790.153 482.568C790.284 490.441 790.29 498.317 790.141 506.189C790.093 508.772 790.959 511.454 789.573 513.975C788.357 516.19 790.054 518.844 788.533 521.092C787.979 521.911 789.538 522.434 789.234 523.549C788.642 525.72 789.899 528.042 788.443 530.279C787.313 532.012 789.027 534.454 787.35 536.365C786.339 537.518 789.735 539.162 787.186 540.471C787.61 543.274 786.632 545.902 786.169 548.594C785.788 550.821 786.821 553.108 785.472 555.351C784.322 557.262 786.114 559.954 784.164 561.834C784.894 565.159 782.981 568.166 783.06 571.472C783.119 573.96 782.443 576.511 781.82 578.964C780.856 582.764 780.001 586.596 779.247 590.432C778.967 591.848 778.556 593.171 778.132 594.518C777.898 595.266 777.08 595.62 777.089 596.614C777.142 602.889 774.822 608.696 772.952 614.499C771.826 617.993 771.011 621.676 769.233 625.026C768.75 625.938 768.79 627.617 768.027 628.505C765.781 631.119 765.233 634.436 764.183 637.482C763.604 639.165 762.954 640.682 761.949 642.093C761.759 642.362 761.28 642.569 761.277 642.808C761.207 647.292 758.28 650.634 756.575 654.443C754.93 658.123 752.596 661.507 751.048 665.222C747.926 672.714 743.293 679.398 739.889 686.733C738.78 689.127 737.167 691.287 736.132 692.982C735.575 694.654 737.092 694.785 736.86 696.088C736.622 697.232 735.463 697.704 733.911 698.091C734.598 701.758 731.814 704.159 730.177 706.905C726.307 713.396 722.146 719.734 717.756 725.882C714.866 729.925 712.078 734.031 708.67 737.76C697.873 749.569 686.634 760.946 675.094 772.005C670.695 776.22 666.29 780.481 661.674 784.46C657.75 787.841 653.814 791.275 649.7 794.384C640.08 801.654 630.447 808.923 620.282 815.465C612.51 820.467 604.477 824.976 596.44 829.512C591.29 832.42 586.038 835.083 580.666 837.547C572.078 841.487 563.427 845.237 554.66 848.785C546.417 852.119 537.619 853.621 529.576 857.388C524.107 857.401 519.341 860.801 513.838 860.644C511.508 862.24 508.644 861.969 506.088 862.46C503.46 862.963 500.862 864.177 497.987 863.74C496.675 863.541 495.486 864.975 493.883 864.717C492.548 864.503 491.081 864.433 489.885 865.423C488.665 863.844 487.897 866.239 486.559 865.773C485.215 865.305 483.407 865.235 482.106 865.757C478.916 867.034 475.42 865.836 472.505 866.868C469.342 867.988 466.22 866.894 463.336 867.782C459.796 868.873 456.493 866.931 453.071 867.631C452.769 867.692 452.328 867.054 451.947 866.737C451.219 867.036 451.58 867.841 451.123 868.582C449.999 867.953 448.919 867.025 447.693 866.75C446.256 866.429 444.695 866.674 442.94 866.674C442.109 867.686 441.167 868.836 440.342 869.842C438.333 869.36 436.77 870.051 435.082 869.179C434.345 868.797 432.528 869.524 431.206 869.759C429.478 870.069 427.956 868.114 426.728 868.952C425.092 870.069 423.538 869.649 421.977 869.656C407.401 869.715 392.826 869.713 378.252 869.658C376.691 869.653 374.896 870.386 373.606 868.768C372.01 871.23 370.57 868.274 368.928 868.6C367.421 868.901 365.851 868.28 364.286 867.872C361.619 867.178 358.637 867.745 355.792 867.659C353.888 867.598 352.034 867.948 350.107 866.791C348.57 865.869 346.421 866.549 344.445 866.044C342.064 865.436 339.532 864.608 336.937 864.651C335.179 864.677 333.494 864.723 331.769 863.757C330.487 863.04 328.456 864.341 327.216 862.655C323.795 862.854 320.717 861.407 317.481 860.698C309.695 858.993 302.097 856.702 294.581 854.082C288.284 851.889 281.948 849.799 275.674 847.545C273.64 846.813 271.609 845.995 269.644 845.123C262.564 841.983 255.349 839.003 248.683 835.111C242.745 831.64 236.636 828.437 230.832 824.698C227.747 822.71 224.203 821.316 220.973 819.44C213.363 815.021 205.888 810.397 198.647 805.392C192.299 801.002 185.828 796.778 180.384 791.203C178.954 789.736 177.105 788.687 175.578 787.307C173.84 785.735 172.445 783.704 170.534 782.427C168.046 780.766 166.177 778.461 163.833 776.747C162.012 775.416 162.218 772.569 159.36 771.976C157.283 771.542 157.22 768.14 154.775 767.547C153.949 764.445 150.468 763.787 148.975 761.01C147.53 758.325 144.648 756.414 142.396 754.164C140.142 751.91 137.606 749.868 135.691 747.35C132.168 742.719 127.577 739.077 124.009 734.581C120.603 730.294 116.245 726.734 113.753 721.774C113.163 720.6 112.122 721.085 111.455 720.34C110.76 719.563 110.86 718.516 110.111 717.841C107.069 715.106 104.564 711.88 102.012 708.715C98.3848 704.217 94.8722 699.602 91.2195 695.146C85.5396 688.218 80.6098 680.819 75.7113 673.373C72.5193 668.521 69.5006 663.558 66.4322 658.626C62.8679 652.9 59.2558 647.206 55.8169 641.408C53.1981 636.987 50.876 632.39 48.3088 627.94C46.2724 624.411 44.0996 620.961 41.9231 617.516C38.9117 612.752 36.0662 607.876 33.0973 603.11C28.8678 596.328 25.1727 589.308 21.7467 582.141C20.0199 578.529 18.2562 574.911 16.9772 571.038C16.1737 568.609 15.1564 566.043 13.999 563.756C11.6327 559.081 10.6541 554.064 9.06367 549.195C8.50342 547.483 8.42048 545.747 7.99477 544.096C7.59485 542.55 7.35527 541.016 7.04013 539.468C6.09655 534.835 6.01362 530.027 4.27021 525.556C4.15779 525.267 4.08039 524.924 4.11356 524.62C4.71436 519.336 2.62079 514.257 3.03361 508.947C3.40219 504.222 1.4063 499.585 2.09187 494.794C0.376106 492.077 1.65325 488.977 1.02113 486.178C-0.679891 478.637 0.300546 471.029 0.119939 463.458C-0.056982 455.925 0.103353 448.383 0.0738658 440.844C0.0517507 435.499 1.40077 430.334 2.23746 425.114C2.41623 423.987 3.19026 422.783 3.08337 421.488C2.89723 419.274 3.66205 417.431 5.07926 415.798" fill="#D1D8EE"/>
</svg>
