<svg width="16" height="16" viewBox="0 0 16 16" xmlns="http://www.w3.org/2000/svg">
<path d="M8.35051 0.549683C8.53385 0.733016 8.62985 0.966348 8.63851 1.24968C8.64651 1.53302 8.55885 1.76635 8.37551 1.94968L3.47551 6.84968L14.6505 6.84968C14.9338 6.84968 15.1715 6.94568 15.3635 7.13768C15.5548 7.32902 15.6505 7.56635 15.6505 7.84968C15.6505 8.13302 15.5548 8.37068 15.3635 8.56268C15.1715 8.75402 14.9338 8.84968 14.6505 8.84968L3.47551 8.84968L8.37551 13.7497C8.55885 13.933 8.64651 14.1663 8.63851 14.4497C8.62985 14.733 8.53385 14.9663 8.35051 15.1497C8.16718 15.333 7.93385 15.4247 7.65051 15.4247C7.36718 15.4247 7.13385 15.333 6.95051 15.1497L0.350514 8.54968C0.250514 8.46635 0.179513 8.36235 0.137513 8.23768C0.0961795 8.11235 0.0755126 7.98301 0.0755126 7.84968C0.0755126 7.71635 0.0961796 7.59135 0.137513 7.47468C0.179513 7.35801 0.250514 7.24968 0.350514 7.14968L6.95051 0.549683C7.13385 0.366349 7.36718 0.274681 7.65051 0.274681C7.93385 0.274681 8.16718 0.36635 8.35051 0.549683V0.549683Z" />
</svg>
