<svg width="24" height="24" viewBox="0 0 24 24" xmlns="http://www.w3.org/2000/svg">
<path d="M12.3505 4.54968C12.5338 4.73302 12.6298 4.96635 12.6385 5.24968C12.6465 5.53302 12.5588 5.76635 12.3755 5.94968L7.47551 10.8497L18.6505 10.8497C18.9338 10.8497 19.1715 10.9457 19.3635 11.1377C19.5548 11.329 19.6505 11.5663 19.6505 11.8497C19.6505 12.133 19.5548 12.3707 19.3635 12.5627C19.1715 12.754 18.9338 12.8497 18.6505 12.8497L7.47551 12.8497L12.3755 17.7497C12.5588 17.933 12.6465 18.1663 12.6385 18.4497C12.6298 18.733 12.5338 18.9663 12.3505 19.1497C12.1672 19.333 11.9338 19.4247 11.6505 19.4247C11.3672 19.4247 11.1338 19.333 10.9505 19.1497L4.35051 12.5497C4.25051 12.4663 4.17951 12.3623 4.13751 12.2377C4.09618 12.1123 4.07551 11.983 4.07551 11.8497C4.07551 11.7163 4.09618 11.5913 4.13751 11.4747C4.17951 11.358 4.25051 11.2497 4.35051 11.1497L10.9505 4.54968C11.1338 4.36635 11.3672 4.27468 11.6505 4.27468C11.9338 4.27468 12.1672 4.36635 12.3505 4.54968Z" />
</svg>
