<svg width="334" height="74" viewBox="0 0 334 74" xmlns="http://www.w3.org/2000/svg">
<path fill-rule="evenodd" clip-rule="evenodd" d="M188.024 32.1502C187.882 33.2097 186.83 33.8896 185.75 33.688L175.409 31.7559C174.313 31.5511 173.614 30.5139 173.677 29.4304C173.693 29.1696 173.7 28.9059 173.7 28.6394C173.7 28.373 173.693 28.1093 173.677 27.8485C173.614 26.765 174.313 25.7278 175.409 25.523L185.75 23.5909C186.83 23.3893 187.882 24.0692 188.024 25.1287C188.178 26.2785 188.257 27.4502 188.257 28.6394C188.257 29.8287 188.178 31.0004 188.024 32.1502ZM182.082 11.6237C182.788 12.4802 182.53 13.7241 181.584 14.3223L172.852 19.8439C171.941 20.4199 170.733 20.1748 170.002 19.3928C169.611 18.9744 169.194 18.578 168.754 18.206C167.901 17.4866 167.638 16.2562 168.279 15.3527L174.1 7.14044C174.717 6.27055 175.939 6.03094 176.808 6.66433C178.78 8.10037 180.553 9.76786 182.082 11.6237ZM162.621 1.12766C163.729 1.26023 164.441 2.30246 164.219 3.36586L162.194 13.0313C161.975 14.0782 160.929 14.7454 159.832 14.6815C159.522 14.6635 159.209 14.6543 158.893 14.6543C158.576 14.6543 158.263 14.6635 157.953 14.6815C156.856 14.7454 155.81 14.0782 155.591 13.0313L153.566 3.36586C153.344 2.30246 154.056 1.26023 155.164 1.12766C156.385 0.98155 157.63 0.90625 158.893 0.90625C160.155 0.90625 161.4 0.98155 162.621 1.12766ZM12.762 58.8494V45.9063H15.3846L23.9811 58.8494H37.7501L25.6567 41.4972L37.0215 24.7139H23.1797L15.5303 36.6613H12.762V24.7139H0.377197V58.8494H12.762ZM58.2595 33.9589H64.4519V58.8494H76.8367V24.7139H46.9675C46.3118 38.3681 45.5833 49.3199 40.338 49.3199C39.7552 49.3199 39.0995 49.1776 38.371 48.8932V58.4938C40.7023 59.2761 42.815 59.6316 44.6362 59.6316C54.5441 59.6316 57.3853 48.182 58.2595 33.9589ZM107.569 42.7061L95.111 58.8494H84.2561V24.7139H96.6409V40.8571L109.099 24.7139H119.953V58.8494H107.569V42.7061ZM139.754 58.8494V45.9063H142.377L150.973 58.8494H164.742L152.649 41.4972L164.014 24.7139H150.172L142.523 36.6613H139.754V24.7139H127.369V58.8494H139.754ZM245.915 42.1642C245.915 31.2153 239.616 25.3758 231.266 25.3758C225.993 25.3758 222.697 27.7116 220.646 30.2663C220.646 27.4196 222.477 23.332 226.066 21.5802C228.769 20.2497 231.486 19.9291 234.069 19.6242C237.297 19.2434 240.317 18.8871 242.839 16.6167V5.66773C240.576 7.8539 237.269 8.37387 233.337 8.99226C228.999 9.67463 223.898 10.4768 218.595 13.7699C212.296 17.7116 207.828 24.4999 207.828 37.4197C207.828 53.4781 216.691 58.9526 226.872 58.9526C237.419 58.9526 245.915 53.4781 245.915 42.1642ZM220.646 42.1642C220.646 39.6824 221.378 34.8649 226.872 34.8649C232.365 34.8649 233.098 39.6824 233.098 42.1642C233.098 44.6459 232.365 49.4635 226.872 49.4635C221.378 49.4635 220.646 44.6459 220.646 42.1642ZM285.028 47.8576V38.0766C285.028 25.5948 277.85 21.7262 266.644 21.7262C261.444 21.7262 255.877 23.113 252.947 24.0619V34.4999C256.39 33.1131 260.638 31.7992 265.252 31.7992C270.233 31.7992 272.577 33.697 272.577 36.1788V37.4197C270.233 36.9087 267.596 36.6167 264.959 36.6167C258.148 36.6167 249.725 39.3175 249.725 48.1496C249.725 54.9379 255.218 58.9526 261.956 58.9526C266.937 58.9526 270.819 57.3467 274.188 54.719C275.799 57.2007 278.656 58.5876 282.538 58.5876C284.882 58.5876 287.152 58.1496 288.837 57.4927V49.8284C288.397 49.9744 287.885 50.0474 287.445 50.0474C286.2 50.0474 285.028 49.5365 285.028 47.8576ZM262.542 47.1277C262.542 44.354 265.179 43.3321 268.109 43.3321C269.793 43.3321 271.478 43.624 272.577 43.989V48.7336C270.672 50.1204 268.841 50.5584 266.79 50.5584C264.154 50.5584 262.542 48.9525 262.542 47.1277ZM304.963 22.8211V27.5656C306.721 24.6459 310.603 21.7262 316.902 21.7262C328.694 21.7262 333.895 31.2882 333.895 40.3394C333.895 49.3905 328.694 58.9526 316.902 58.9526C311.995 58.9526 308.552 57.2007 306.428 55.0109V73.9161H293.977V22.8211H304.963ZM313.533 48.7336C318.806 48.7336 321.077 44.427 321.077 40.3394C321.077 36.2518 318.806 31.9452 313.533 31.9452C310.09 31.9452 307.527 34.062 306.428 36.3248V44.354C307.527 46.6168 310.09 48.7336 313.533 48.7336Z" />
</svg>
