<svg width="34" height="34" viewBox="0 0 34 34" xmlns="http://www.w3.org/2000/svg">
<path fill-rule="evenodd" clip-rule="evenodd" d="M3.5415 6.67855C3.5415 4.55488 5.26308 2.83331 7.38674 2.83331H9.14482C10.2476 2.83331 11.2089 3.58385 11.4763 4.65371L12.8937 10.3231C13.1282 11.2612 12.7777 12.2484 12.0041 12.8286L10.346 14.0722C10.1739 14.2013 10.1364 14.3904 10.1848 14.5224C11.6402 18.4956 14.7959 21.6513 18.7691 23.1067C18.9011 23.1551 19.0902 23.1176 19.2193 22.9454L20.4629 21.2874C21.043 20.5138 22.0303 20.1633 22.9684 20.3978L28.6378 21.8151C29.7076 22.0826 30.4582 23.0439 30.4582 24.1467V25.9047C30.4582 28.0284 28.7366 29.75 26.6129 29.75H23.729C12.5798 29.75 3.5415 20.7117 3.5415 9.56248V6.67855Z" />
</svg>
