<svg width="24" height="24" viewBox="0 0 24 24" xmlns="http://www.w3.org/2000/svg">
<path fill-rule="evenodd" clip-rule="evenodd" d="M3.75 0C1.67893 0 0 1.67893 0 3.75V20.25C0 22.3211 1.67893 24 3.75 24H20.25C22.3211 24 24 22.3211 24 20.25V3.75C24 1.67893 22.3211 0 20.25 0H3.75ZM18.9878 19.8165C19.4953 19.9127 19.9904 19.5881 20.057 19.0823C20.1294 18.5334 20.1666 17.974 20.1666 17.4063C20.1666 16.8386 20.1294 16.2792 20.057 15.7303C19.9904 15.2245 19.4953 14.8999 18.9878 14.9962L14.1247 15.9185C13.6092 16.0163 13.2806 16.5115 13.3102 17.0287C13.3173 17.1532 13.3209 17.2791 13.3209 17.4063C13.3209 17.5335 13.3173 17.6594 13.3102 17.7839C13.2806 18.3011 13.6092 18.7963 14.1247 18.8941L18.9878 19.8165ZM17.0286 10.5714C17.4735 10.2858 17.5945 9.69198 17.2627 9.28312C16.5437 8.39715 15.7098 7.6011 14.7825 6.91554C14.3735 6.61316 13.7989 6.72755 13.5089 7.14283L10.7713 11.0633C10.4701 11.4946 10.5938 12.082 10.9946 12.4255C11.2018 12.603 11.398 12.7923 11.5819 12.9921C11.9255 13.3653 12.4934 13.4823 12.9218 13.2074L17.0286 10.5714ZM8.86201 5.34087C8.96676 4.83321 8.63151 4.33566 8.1105 4.27237C7.53633 4.20262 6.95116 4.16667 6.35723 4.16667C5.7633 4.16667 5.17813 4.20262 4.60395 4.27237C4.08295 4.33566 3.7477 4.83321 3.85245 5.34087L4.80456 9.95507C4.90769 10.4549 5.3997 10.7734 5.91558 10.7429C6.06101 10.7343 6.20825 10.7299 6.35723 10.7299C6.50621 10.7299 6.65345 10.7343 6.79888 10.7429C7.31476 10.7734 7.80677 10.4549 7.9099 9.95507L8.86201 5.34087Z" />
</svg>
