<svg width="17" height="16" viewBox="0 0 17 16" xmlns="http://www.w3.org/2000/svg">
<path d="M7.87556 15.1497C7.69223 14.9663 7.59623 14.733 7.58756 14.4497C7.57956 14.1663 7.66723 13.933 7.85056 13.7497L12.7506 8.84966H1.57556C1.29223 8.84966 1.05456 8.75366 0.862562 8.56166C0.671228 8.37032 0.575562 8.13299 0.575562 7.84966C0.575562 7.56632 0.671228 7.32866 0.862562 7.13666C1.05456 6.94532 1.29223 6.84966 1.57556 6.84966H12.7506L7.85056 1.94966C7.66723 1.76632 7.57956 1.53299 7.58756 1.24966C7.59623 0.966325 7.69223 0.732991 7.87556 0.549658C8.0589 0.366324 8.29223 0.274658 8.57556 0.274658C8.85889 0.274658 9.09223 0.366324 9.27556 0.549658L15.8756 7.14966C15.9756 7.23299 16.0466 7.33699 16.0886 7.46166C16.1299 7.58699 16.1506 7.71632 16.1506 7.84966C16.1506 7.98299 16.1299 8.10799 16.0886 8.22466C16.0466 8.34132 15.9756 8.44966 15.8756 8.54966L9.27556 15.1497C9.09223 15.333 8.85889 15.4247 8.57556 15.4247C8.29223 15.4247 8.0589 15.333 7.87556 15.1497V15.1497Z" />
</svg>
