<svg width="25" height="24" viewBox="0 0 25 24" xmlns="http://www.w3.org/2000/svg">
<path d="M11.8756 19.1497C11.6922 18.9663 11.5962 18.733 11.5876 18.4497C11.5796 18.1663 11.6672 17.933 11.8506 17.7497L16.7506 12.8497H5.57556C5.29223 12.8497 5.05456 12.7537 4.86256 12.5617C4.67123 12.3703 4.57556 12.133 4.57556 11.8497C4.57556 11.5663 4.67123 11.3287 4.86256 11.1367C5.05456 10.9453 5.29223 10.8497 5.57556 10.8497H16.7506L11.8506 5.94966C11.6672 5.76632 11.5796 5.53299 11.5876 5.24966C11.5962 4.96632 11.6922 4.73299 11.8756 4.54966C12.0589 4.36632 12.2922 4.27466 12.5756 4.27466C12.8589 4.27466 13.0922 4.36632 13.2756 4.54966L19.8756 11.1497C19.9756 11.233 20.0466 11.337 20.0886 11.4617C20.1299 11.587 20.1506 11.7163 20.1506 11.8497C20.1506 11.983 20.1299 12.108 20.0886 12.2247C20.0466 12.3413 19.9756 12.4497 19.8756 12.5497L13.2756 19.1497C13.0922 19.333 12.8589 19.4247 12.5756 19.4247C12.2922 19.4247 12.0589 19.333 11.8756 19.1497Z" />
</svg>
