<svg width="22" height="22" viewBox="0 0 22 22" fill="currentColor" xmlns="http://www.w3.org/2000/svg">
<path d="M5.93165 13.2901C6.5881 13.2881 7.21971 13.0329 7.70063 12.5754L12.3989 15.3243C12.2415 15.9541 12.3108 16.621 12.5944 17.2027C12.8779 17.7845 13.3565 18.2422 13.9427 18.4921C14.5288 18.7421 15.1833 18.7675 15.7862 18.5637C16.3892 18.3599 16.9003 17.9406 17.226 17.3825C17.5517 16.8244 17.6702 16.1649 17.5598 15.5246C17.4494 14.8844 17.1175 14.3062 16.6248 13.8961C16.1322 13.4859 15.5117 13.2712 14.8771 13.2911C14.2424 13.3111 13.636 13.5645 13.1689 14.0048L8.47066 11.2559C8.52019 11.0638 8.54721 10.8648 8.55171 10.6657L13.1674 7.9645C13.6118 8.37854 14.1818 8.62348 14.7817 8.65822C15.3816 8.69297 15.9749 8.51541 16.4622 8.15533C16.9494 7.79525 17.3008 7.27455 17.4575 6.68061C17.6142 6.08666 17.5667 5.45559 17.3229 4.89327C17.0791 4.33095 16.6538 3.8716 16.1185 3.59227C15.5831 3.31294 14.9702 3.23064 14.3826 3.35916C13.795 3.48769 13.2684 3.81922 12.8912 4.29815C12.5141 4.77707 12.3092 5.37425 12.3111 5.98949C12.3141 6.21081 12.3433 6.43137 12.3989 6.64501L8.13292 9.14028C7.88554 8.7484 7.54284 8.42916 7.1385 8.21393C6.73416 7.9987 6.2821 7.89487 5.82671 7.91266C5.37133 7.93046 4.92831 8.06925 4.54116 8.3154C4.15401 8.56155 3.83607 8.9066 3.61856 9.31665C3.40105 9.72669 3.29147 10.1876 3.30057 10.6541C3.30968 11.1207 3.43716 11.5768 3.67049 11.9776C3.90382 12.3784 4.23497 12.7102 4.63141 12.9403C5.02785 13.1704 5.47594 13.291 5.93165 13.2901V13.2901Z" />
</svg>
