<svg width="599" height="529" viewBox="0 0 599 529" fill="none" xmlns="http://www.w3.org/2000/svg">
<path fill-rule="evenodd" clip-rule="evenodd" d="M563.97 436.079C564.015 432.795 563.653 430.407 563.176 427.858C562.397 423.676 561.009 419.699 560.082 415.597C558.668 409.349 555.904 403.614 553.691 397.689C552.966 395.756 552.275 393.618 551.094 391.747C549.951 389.94 548.86 388.038 548.169 385.959C548.092 385.73 547.795 384.978 546.901 385.62C547.124 386.525 547.076 387.413 547.655 388.581C549.848 392.999 551.234 397.778 553.034 402.37C554.964 407.285 556.507 412.315 557.876 417.373C558.607 420.07 559.466 422.808 560.24 425.455C561.199 428.733 561.529 432.386 563.97 436.079ZM306.536 257.169C307.913 257.108 308.394 258.485 310.021 257.921C311.635 257.359 312.633 256.251 313.969 255.503C315.834 254.454 316.558 252.634 316.646 250.757C316.72 249.161 318.027 249.722 318.718 248.979C318.841 245.748 318.677 242.536 315.222 239.82C312.478 245.813 307.494 250.136 306.536 257.169ZM421.272 686.423C413.598 690.166 396.824 703.324 394.537 710.237C396.575 708.958 398.87 708.709 399.577 706.037C399.835 705.06 401.308 704.47 401.921 703.508C402.804 702.126 404.448 703.429 405.438 702.17C406.462 700.864 408.447 700.14 409.085 698.739C409.96 696.817 411.988 696.874 413.077 695.495C414.105 694.196 415.211 692.602 416.634 692.064C418.303 691.432 418.488 689.075 420.349 689.211C422.323 689.355 421.812 686.406 423.762 686.738C425.469 684.753 428.159 683.983 429.752 681.825C430.317 681.056 430.603 680.479 429.787 679.652C427.553 679.982 426.018 681.699 424.403 682.776C423.224 682.606 422.804 681.062 421.569 681.92C421.492 682.005 421.289 682.125 421.287 682.248C421.263 683.581 421.272 684.913 421.272 686.423ZM463.432 706.274C458.614 708.016 455.944 712.31 451.899 714.868C447.711 717.52 443.893 720.643 440.08 723.767C436.153 726.988 432.395 730.414 428.589 733.73C429.387 734.134 430.436 734.344 431.164 733.592C433.864 730.807 438.512 730.947 440.572 727.252C443.366 727.21 444.626 724.865 446.506 723.408C447.839 722.374 449.473 721.692 450.76 721.788C451.961 719.755 453.111 718.541 455.032 717.658C456.616 716.928 457.507 714.934 459.444 714.499C458.152 711.764 458.358 711.512 462.379 710.417C462.265 709.79 461.286 709.671 461.589 708.382C462.027 707.883 462.729 707.078 463.432 706.274ZM334.824 559.803C340.784 552.127 345.461 543.828 349.894 535.406C355.233 525.266 360.288 514.974 365.544 504.788C366.134 503.645 366.178 502.799 365.382 501.649C354.387 520.082 344.831 539.109 334.859 557.908C334.594 558.406 334.824 559.167 334.824 559.803ZM-31.4403 297.568C-33.145 299.274 -34.8515 300.738 -36.254 302.452C-37.6325 304.132 -39.5049 305.21 -40.9682 306.847C-42.9254 309.038 -44.3315 311.631 -46.4804 313.66C-50.7431 317.683 -54.2465 322.361 -57.8918 326.939C-63.603 334.113 -67.9855 342.1 -72.6795 349.903C-73.7613 351.7 -74.5555 353.672 -75.4825 355.565C-60.306 336.868 -47.3355 316.598 -31.1067 298.845C-30.9961 298.723 -31.2486 298.268 -31.4403 297.568ZM196.041 816.908C196.406 818.412 196.62 819.304 196.836 820.196C194.158 820.327 195.807 823.74 193.246 824.449C190.526 824.625 187.28 824.134 184.138 825.397C182.689 825.977 182.822 826.477 183.5 827.466C185.905 827.417 188.379 827.927 190.293 826.414C191.462 826.866 190.678 828.157 191.738 828.476C194.853 828.476 198.279 829.232 201.133 828.275C204.288 827.218 207.268 827.695 210.311 827.512C213.474 827.324 216.658 827.472 219.834 827.472C220.668 827.472 221.505 827.507 222.336 827.452C222.62 827.433 222.891 827.19 223.167 827.048C223.184 826.254 223.477 825.437 222.974 824.687C220.014 825.839 220.093 825.701 218.083 823.919C217.023 822.979 218.153 822.374 217.963 821.755C217.408 819.925 215.361 820.848 214.384 819.947C213.468 819.332 215.081 817.99 213.433 817.52C212.735 819.099 214.067 821.403 211.596 822.286C208.933 821.027 208.933 821.027 207.162 823.784C207.077 825.045 209.067 823.871 209.032 825.38C207.79 825.205 206.36 826.383 206.004 823.991C205.897 823.279 203.966 822.837 203.339 822.514C202.178 822.428 202.165 823.651 201.369 823.15C200.063 822.323 199.952 820.867 199.283 819.822C199.862 818.961 200.872 818.607 201.028 817.715C199.39 816.693 198.957 818.974 197.634 818.397C197.319 818.102 196.959 817.765 196.041 816.908ZM227.938 689.652C228.091 686.086 230.483 683.323 231.296 679.997C232.293 675.911 233.633 671.921 234.718 667.855C235.643 664.385 236.736 660.987 237.398 657.424C238.076 653.772 239.552 650.292 240.441 646.645C241.36 642.871 242.127 639.019 243.417 635.352C244.141 633.295 244.952 631.305 245.398 629.146C245.899 626.712 246.412 624.207 247.451 621.983C248.507 619.722 247.558 616.736 250.134 615.024C250.757 614.611 250.47 613.496 250.23 612.722C250.109 612.335 249.556 611.744 249.613 611.69C251.732 609.698 250.949 606.757 252.219 604.206C251.257 604.39 250.709 604.206 250.324 605.393C248.555 610.835 246.441 616.165 244.722 621.622C244.117 623.537 242.952 625.405 243.349 627.58C240.962 631.548 240.509 636.194 239.556 640.514C238.575 644.957 237.273 649.354 236.121 653.709C233.574 663.331 231.517 673.102 228.27 682.534C228.847 684.95 226.202 687.031 227.938 689.652ZM-96.1919 634.864C-96.7964 633.673 -97.1447 632.345 -97.9943 631.561C-98.4624 631.13 -99.2088 631.272 -99.5018 630.201C-100.69 625.865 -101.903 621.51 -103.551 617.338C-104.393 615.204 -104.658 612.808 -106.321 610.948C-110.773 605.974 -115.102 600.888 -119.463 595.833C-119.872 595.357 -120.57 595.112 -120.566 594.279C-120.563 593.118 -121.67 592.696 -122.336 592.027C-122.918 591.443 -123.322 590.451 -124.851 590.376C-121.825 597.421 -118.165 603.7 -114.411 609.914C-110.845 615.814 -107.196 621.665 -103.425 627.433C-101.71 630.058 -100.309 632.829 -98.8162 635.564C-98.6227 635.916 -98.1767 636.13 -97.9832 636.294C-97.3603 635.797 -96.8406 635.382 -96.1919 634.864ZM181.274 353.751C183.396 353.406 182.856 351.36 184.059 350.349C185.25 349.348 186.228 348.052 187.174 346.696C190.743 341.573 194.765 336.757 198.659 331.86C201.469 328.331 204.407 324.833 206.965 321.193C209.528 317.546 212.584 314.273 214.937 310.501C217.175 306.92 220.866 304.336 221.985 299.998C219.611 298.317 217.792 298.31 215.905 300.604C213.176 303.922 210.695 307.447 208.178 310.934C206.423 313.367 204.967 316.03 203.062 318.328C199.302 322.856 196.322 327.92 193.189 332.837C189.402 338.784 185.635 344.75 181.774 350.649C181.048 351.762 180.873 352.626 181.274 353.751ZM387.543 725.887C389.454 723.933 392.017 723.121 394.351 721.875C397.109 720.401 399.631 718.488 402.353 716.936C403.385 716.348 403.062 714.347 404.85 714.721C407.522 709.885 411.853 706.792 416.263 703.65C416.867 704.061 417.359 704.397 417.822 704.714C418.309 704.251 418.791 703.792 419.26 703.348C418.924 702.978 418.611 702.627 418.305 702.29C418.97 701.111 420.61 702.616 421.196 701.153C420.588 700.921 420.013 700.702 419.435 700.482C419.599 697.423 419.595 697.408 422.405 696.802C422.958 696.682 423.294 696.468 423.284 695.871C423.417 695.046 422.651 694.788 422.295 694.284C422.839 693.138 425.105 692.749 424.081 690.997C420.876 692.027 419.132 694.714 416.755 696.572C413.991 698.73 411.068 700.681 408.423 703.035C405.867 705.309 403.27 707.565 400.629 709.71C397.651 712.126 394.321 714.125 391.61 716.901C390.674 717.857 389.872 719.23 388.735 719.634C387.215 720.174 386.338 721.25 385.294 722.231C384.176 723.277 383.118 724.389 382.097 725.411C384.082 727.175 385.879 723.401 387.543 725.887ZM345.898 851.158C346.877 851.829 347.774 851.713 348.71 851.287C352.662 849.488 356.834 848.204 360.89 846.739C368.198 844.094 375.273 840.983 382.3 837.745C394.304 832.216 406.059 826.179 417.418 819.41C422.273 816.518 427.094 813.555 431.768 810.383C436.769 806.99 441.507 803.207 446.494 799.79C451.28 796.511 455.545 792.593 460.154 789.105C464.028 786.173 467.209 782.411 471.383 779.831C472.214 779.317 472.841 778.456 473.526 777.721C474.201 776.997 475.106 776.403 475.461 775.544C474.321 774.899 473.847 775.351 473.379 775.867C471.284 778.174 468.703 780.041 466.239 781.774C460.322 785.937 454.955 790.762 449.181 795.078C446.096 797.385 443.166 800.046 439.959 802.02C432.739 806.467 425.846 811.408 418.596 815.822C408.849 821.758 398.709 826.918 388.818 832.552C386.472 833.888 383.805 834.31 381.542 835.613C376.546 838.488 371.408 841.086 365.982 842.946C361.869 844.358 358.137 846.595 353.88 847.778C351.248 848.508 348.357 849.468 345.898 851.158ZM-148.179 328.886C-147.591 328.27 -147.147 327.808 -146.699 327.34C-147.784 326.518 -147.862 325.183 -148.518 324.196C-147.889 322.273 -145.167 324.555 -144.743 322.31C-145.13 321.461 -146.459 322.277 -146.673 321.147C-146.977 319.419 -145.661 318.256 -145.16 316.833C-144.353 316.619 -143.448 317.215 -142.753 316.422C-143.557 315.381 -144.255 314.301 -143.361 312.998C-141.583 310.412 -141.087 307.014 -138.385 305.024C-137.405 304.299 -137.81 302.777 -136.629 302.226C-137.316 299.849 -135.591 298.288 -134.589 296.548C-131.314 290.861 -128.115 285.116 -124.517 279.635C-119.74 272.36 -114.947 265.051 -109.532 258.254C-105.799 253.565 -102.463 248.477 -97.9331 244.432C-97.2217 243.798 -97.1406 243.111 -97.7893 242.609C-116.069 258.42 -128.528 278.404 -139.108 299.769C-139.733 299.112 -140.23 298.374 -141.257 298.82C-142.053 300.472 -142.672 302.278 -143.713 303.789C-145.001 305.658 -145.003 307.285 -143.56 308.702C-144.57 310.611 -145.427 312.231 -146.22 313.731C-147.036 313.813 -148.085 313.65 -148.269 313.977C-149.572 316.293 -151.73 318.37 -150.552 321.468C-152.801 321.315 -152.511 323.457 -153.593 324.229C-152.769 325.924 -155.866 327.039 -154.144 329.072C-152.917 330.522 -153.621 331.973 -155.482 332.642C-155.724 332.398 -155.961 332.163 -156.297 331.825C-156.122 333.344 -158.372 333.945 -157.631 335.522C-156.805 336.383 -156.501 334.135 -155.607 335.618C-156.673 338.194 -157.511 341.082 -159.019 343.565C-160.023 345.222 -159.806 346.427 -159.385 348.277C-158.217 346.255 -157.965 344.101 -155.784 343.395C-156.481 342.695 -157.286 342.144 -156.3 340.94C-155.405 339.844 -154.334 339.966 -153.193 339.873C-152.782 339.842 -152.716 339.433 -152.948 339.197C-153.529 338.991 -154.111 338.784 -154.968 338.48C-153.048 334.851 -151.732 331.061 -149.235 327.83C-148.87 328.195 -148.634 328.431 -148.179 328.886ZM-103.591 307.849C-99.7889 305.752 -98.1044 302.246 -95.5483 299.633C-93.3552 297.39 -91.468 294.678 -89.5145 292.136C-87.4025 289.39 -84.8003 287.123 -82.7344 284.42C-79.6844 280.422 -76.673 276.42 -73.094 272.876C-72.1449 271.938 -70.8346 271.136 -70.3573 269.993C-69.0746 266.919 -66.2402 265.34 -64.1853 263.034C-62.1249 260.723 -60.7372 257.872 -58.2272 255.913C-57.5637 255.396 -56.751 255.475 -56.0783 254.446C-53.301 250.219 -48.8264 247.373 -46.1836 242.954C-44.1454 242.67 -44.0034 240.503 -42.7189 239.439C-41.416 238.361 -40.2936 237.064 -38.9815 235.752C-41.4012 234.703 -41.8804 236.828 -43.0046 237.493C-47.9473 240.411 -52.6099 243.811 -56.8579 247.666C-65.1695 255.206 -72.5836 263.619 -79.5167 272.417C-81.2379 274.601 -83.2799 276.492 -84.8759 278.712C-90.3217 286.289 -95.6275 293.97 -100.837 301.71C-101.986 303.419 -103.117 305.306 -103.591 307.849ZM76.7912 127.15C74.8598 125.699 73.6545 126.523 72.429 127.43V130.863C69.3937 131.016 70.0774 134.818 67.2817 136.034C64.9872 137.035 63.3249 139.484 61.4046 141.27C61.8874 142.391 63.4742 141.536 63.8336 142.962C65.518 141.471 66.6975 139.23 69.3992 139.759V137.382C71.3785 136.864 72.5469 135.262 73.9033 133.91C75.1878 132.627 77.6389 132.514 77.7606 130.069C80.1638 130.297 80.0532 127.513 81.804 126.707C83.3741 125.989 84.5131 124.308 85.8068 123.016C87.1779 121.649 88.2118 119.877 89.5111 118.613C90.8214 117.338 91.7281 115.676 93.2246 114.632C94.7929 113.541 96.8275 112.869 97.5352 110.965C98.2963 108.923 99.8315 108 101.693 107.178C100.919 103.96 103.508 103.796 105.788 103.354C105.266 102.834 105.029 102.596 104.782 102.349C104.844 101.14 106.177 102.09 106.547 101.299C107.559 99.1408 108.478 96.7082 110.498 95.4642C112.769 94.0691 113.895 91.8005 115.655 90.0478C122.577 83.1571 129.628 76.412 136.911 69.9065C137.407 69.4642 137.807 68.6846 138.36 68.5685C141.655 67.8774 143.317 65.0725 145.713 63.2056C148.299 61.1894 150.481 58.5706 153.166 56.9028C157.211 54.3946 161.16 51.8661 164.336 48.5119C164.999 48.7534 165.053 49.5016 165.41 49.3228C167.336 47.5426 168.836 45.0565 170.793 44.6178C173.431 44.0281 174.216 42.058 176.576 40.5634C171.805 41.0628 171.805 41.0628 169.26 43.5453C167.677 42.3529 166.035 44.7395 164.185 43.4715C163.753 45.2942 164.056 47.7582 161.037 47.4025C160.444 47.3325 159.999 47.6329 159.81 48.0494C158.405 51.1492 155.136 52.0596 152.729 53.9265C150.829 55.399 148.785 57.2603 146.172 56.5655C145.114 59.0756 143.601 60.6163 141.57 61.6649C141.03 61.1618 140.669 60.8264 140.243 60.4302C139.663 61.7128 139.086 62.9826 138.496 64.2856C136.756 64.3427 135.273 65.2089 133.763 66.0529V68.0451C132.155 68.2829 131.229 69.4845 130.273 70.557C129.394 71.5449 127.813 71.5043 127.33 73.2827C126.989 74.5451 125.338 75.4537 124.272 76.5171C123.143 76.7622 121.847 76.2185 120.528 77.0921C121.455 77.4551 122.03 77.68 123.297 78.1757C120.609 78.266 120.607 80.3964 119.39 81.4672C117.38 83.2345 115.568 85.2249 113.674 87.1194C114.509 89.1503 111.505 88.0059 111.599 89.7235C111.709 91.7175 109.146 89.6424 108.775 91.2144C109.059 91.5738 109.323 91.9055 109.068 91.5867C106.685 93.9751 104.472 96.1922 102.26 98.411C101.743 99.1058 101.61 97.1579 100.814 98.0996C99.4021 99.526 103.101 100.07 101.28 101.531C100.609 101.736 100.591 100.446 99.7375 101.006C99.2454 101.798 100.108 102.993 99.0685 103.728C98.5525 103.074 98.0236 102.407 97.5591 102.58C96.4589 103.053 96.5842 103.597 96.5916 104.078C96.6266 106.214 96.2083 108.086 93.8936 108.908C93.8622 110.967 91.647 110.812 90.7182 112.016C89.7009 113.331 88.0847 114.234 87.259 115.631C84.5905 120.141 80.2375 123.016 76.7912 127.15ZM-186.921 415.798C-188.364 414.894 -188.192 413.305 -187.829 412.203C-185.531 405.22 -184.372 397.95 -182.306 390.897C-181.221 387.189 -180.312 383.263 -179.833 379.329C-179.453 376.212 -177.9 373.404 -177.432 370.26C-176.928 366.876 -175.487 363.692 -174.745 360.317C-174.118 357.472 -172.478 354.921 -171.742 352.017C-170.679 347.809 -169.242 343.688 -167.754 339.605C-166.803 336.993 -166.204 334.177 -164.33 331.99C-163.836 331.415 -163.945 330.79 -163.735 330.213C-162.837 327.742 -162.014 325.255 -160.808 322.878C-158.289 317.906 -156.251 312.689 -153.66 307.759C-151.776 304.18 -150.117 300.509 -148.346 296.885C-146.64 293.399 -144.863 289.943 -143.019 286.528C-138.695 278.523 -134.012 270.723 -128.784 263.28C-124.694 257.456 -120.153 251.99 -115.419 246.644C-111.58 242.313 -107.859 237.853 -103.506 234.095C-100.014 231.08 -96.9398 227.542 -93.2429 224.897C-89.7561 222.404 -86.3817 219.702 -82.9815 217.136C-75.1048 211.199 -67.0125 205.602 -58.7175 200.318C-53.8337 197.207 -48.8505 194.179 -44.0331 191.002C-38.3826 187.276 -32.3507 184.216 -26.6911 180.508C-23.3775 178.339 -19.6548 176.533 -16.1496 174.546C-12.7549 172.622 -9.1151 171.185 -5.84207 169.049C-2.57271 166.917 1.0265 165.288 4.45251 163.52C7.6758 161.86 10.7369 159.342 14.6163 158.99C16.2767 156.255 19.5443 156.261 21.9861 154.897C24.4041 153.546 26.9934 152.313 29.3026 150.832C31.6836 149.304 34.1531 147.811 36.5508 146.364C41.4216 143.429 45.981 140.047 50.815 137.117C53.7674 135.327 55.9586 132.782 58.6733 130.792C63.8409 127.003 68.5974 122.585 72.9504 117.805C74.6938 115.89 76.605 114.098 78.8349 112.797C80.5323 111.804 80.5857 109.808 82.0121 108.619C84.3195 106.699 86.3043 104.392 88.4679 102.293C89.1866 101.594 89.8188 100.905 89.6289 99.8341C90.6665 99.7217 91.4571 99.6351 92.1888 99.5559C92.9591 98.7984 91.7022 98.8906 91.7815 98.2677C92.5868 97.3222 93.2153 96.093 94.6712 95.6489C96.0386 95.2305 95.7972 93.5811 96.8772 92.7444C99.2287 90.9199 99.7927 87.2267 103.261 86.4711C104.227 83.6864 106.578 81.8859 108.213 79.573C109.033 78.4138 110.126 77.3854 111.665 77.0463C112.988 76.757 112.107 74.282 114.061 74.5529C116.088 69.9842 120.634 67.8722 124.121 64.9015C129.713 60.1393 134.976 54.9257 141.417 51.0795C144.638 49.1555 147.429 46.2234 150.672 44.1998C157.967 39.6533 164.962 34.6019 172.804 30.9381C176.044 29.4233 178.948 27.1841 182.199 25.7005C189.095 22.5491 195.997 19.3867 203.126 16.7716C204.46 16.2832 205.698 15.5442 207.272 15.8169C208.962 16.1081 209.552 14.1657 211.069 13.6625C212.864 13.0636 214.771 13.3953 216.597 12.4204C217.604 11.8823 219.393 11.7735 220.563 11.1525C224.363 9.13263 228.855 9.54176 232.605 7.43345C234.024 6.6373 235.817 6.94139 237.33 6.84555C242.472 6.51936 247.183 3.85817 252.361 4.23044C255.198 4.43501 257.807 3.80104 260.293 2.7045C261.093 2.3525 261.911 1.94521 262.567 2.22349C264.858 3.20209 267.081 2.19585 269.29 2.07053C271.653 1.93784 273.946 0.983202 276.421 1.13617C278.923 1.28913 281.636 1.76829 283.914 1.03849C287.994 -0.268145 292.049 0.268147 296.105 0.233131C298.134 0.216545 300.338 -0.66806 302.268 1.12142C303.283 2.06132 304.136 -1.04955 305.657 0.609088C306.558 1.59321 307.579 1.30571 308.742 0.701235C309.805 0.148356 311.042 1.93968 312.067 1.10852C313.078 0.292105 314.719 -0.362135 315.085 0.244189C316.003 1.76645 317.413 -0.32159 318.075 0.988731C318.128 1.09378 318.358 1.17671 318.493 1.16012C322.945 0.62936 327.16 2.59945 331.653 2.28799C334.279 2.10555 337.084 2.73767 339.62 3.57067C342.051 4.3705 344.572 4.68196 347.003 5.05791C351.24 5.70847 355.095 7.61037 359.303 8.21116C360.442 8.37518 360.716 11.1672 362.546 9.28928C363.468 10.7397 364.994 9.88086 366.16 10.2808C367.03 10.5756 367.701 11.4492 368.676 12.2398C371.035 12.0168 373.226 13.1023 375.644 14.0643C380.273 15.9054 384.8 17.9455 389.121 20.3376C395.065 23.6254 401.246 26.6736 406.002 31.7159C406.981 32.7553 408.188 31.9038 409.141 32.7203C414.692 37.464 420.705 41.6216 425.41 47.3881C427.382 49.8005 430.307 51.5863 432.347 54.0448C436.444 58.982 441.173 63.3294 444.601 68.9319C446.635 72.2566 449.26 75.3656 451.423 78.7087C455.914 85.651 460.137 92.7555 462.864 100.603C464.904 106.471 467.07 112.296 468.64 118.335C469.18 120.412 468.979 122.581 469.663 124.434C470.37 126.354 470.586 128.18 470.496 130.097C470.426 131.614 471.933 132.535 471.627 134.221C471.39 135.537 471.106 137.05 472.394 138.425C472.982 139.055 472.532 140.664 472.539 141.831C472.547 143.506 472.797 145.236 472.46 146.84C472.182 148.158 474.309 149.263 472.611 150.518C474.198 151.807 473.398 153.587 473.522 155.159C473.636 156.657 473.546 158.172 473.546 159.68V164.707C473.546 166.213 473.157 167.858 473.629 169.2C474.543 171.788 473.852 174.43 474.41 177.056C475.026 179.941 474.651 183.063 474.521 186.072C474.406 188.698 475.98 190.989 475.628 193.707C475.291 196.345 474.95 199.249 475.717 201.689C476.581 204.446 475.726 207.395 476.791 209.767C478.063 212.594 476.839 215.373 477.62 217.979C479.329 223.662 479.174 229.692 480.731 235.3C482.696 242.379 483.77 249.657 486.089 256.671C487.598 261.236 489.258 265.771 490.764 270.338C492.257 274.862 494.671 279.112 496.931 283.349C499.756 288.649 503.158 293.585 506.803 298.378C510.465 303.188 514.811 307.385 518.532 312.117C520.227 314.273 522.284 316.07 523.926 318.297C525.697 320.698 528.402 322.404 530.184 324.798C534.641 330.788 540.658 335.467 544.456 341.986C551.295 348.458 555.587 356.889 561.422 364.145C564.326 367.759 566.221 372.18 568.63 376.2C572.633 382.876 575.935 389.905 579.304 396.909C582.404 403.348 584.899 410.014 587.122 416.79C588.723 421.661 590.085 426.613 591.775 431.452C592.461 433.415 591.495 435.719 593.168 437.405C592.986 442.11 595.524 446.419 595.179 451.148C596.725 453.884 596.288 456.89 596.11 459.774C595.975 461.975 597.693 463.621 597.271 465.911C596.884 468.018 596.574 470.497 597.324 472.376C598.686 475.795 598.096 479.182 598.153 482.568C598.284 490.441 598.29 498.317 598.141 506.189C598.093 508.772 598.959 511.454 597.573 513.975C596.357 516.19 598.054 518.844 596.533 521.092C595.979 521.911 597.538 522.434 597.234 523.549C596.642 525.72 597.899 528.042 596.443 530.279C595.313 532.012 597.027 534.454 595.35 536.365C594.339 537.518 597.735 539.162 595.186 540.471C595.61 543.274 594.632 545.902 594.169 548.594C593.788 550.821 594.821 553.108 593.472 555.351C592.322 557.262 594.114 559.954 592.164 561.834C592.894 565.159 590.981 568.166 591.06 571.472C591.119 573.96 590.443 576.511 589.82 578.964C588.856 582.764 588.001 586.596 587.247 590.432C586.967 591.848 586.556 593.171 586.132 594.518C585.898 595.266 585.08 595.62 585.089 596.614C585.142 602.889 582.822 608.696 580.952 614.499C579.826 617.993 579.011 621.676 577.233 625.026C576.75 625.938 576.79 627.617 576.027 628.505C573.781 631.119 573.233 634.436 572.183 637.482C571.604 639.165 570.954 640.682 569.949 642.093C569.759 642.362 569.28 642.569 569.277 642.808C569.207 647.292 566.28 650.634 564.575 654.443C562.93 658.123 560.596 661.507 559.048 665.222C555.926 672.714 551.293 679.398 547.889 686.733C546.78 689.127 545.167 691.287 544.132 692.982C543.575 694.654 545.092 694.785 544.86 696.088C544.622 697.232 543.463 697.704 541.911 698.091C542.598 701.758 539.814 704.159 538.177 706.905C534.307 713.396 530.146 719.734 525.756 725.882C522.866 729.925 520.078 734.031 516.67 737.76C505.872 749.569 494.634 760.946 483.094 772.005C478.695 776.22 474.29 780.481 469.674 784.46C465.75 787.841 461.814 791.275 457.7 794.384C448.08 801.654 438.447 808.923 428.282 815.465C420.51 820.467 412.477 824.976 404.44 829.512C399.29 832.42 394.038 835.083 388.666 837.547C380.078 841.487 371.427 845.237 362.66 848.785C354.417 852.119 345.619 853.621 337.576 857.388C332.107 857.401 327.341 860.801 321.838 860.644C319.508 862.24 316.644 861.969 314.088 862.46C311.46 862.963 308.862 864.177 305.987 863.74C304.675 863.541 303.486 864.975 301.883 864.717C300.548 864.503 299.081 864.433 297.885 865.423C296.665 863.844 295.897 866.24 294.559 865.773C293.215 865.305 291.407 865.235 290.106 865.757C286.916 867.034 283.42 865.836 280.505 866.868C277.342 867.988 274.22 866.894 271.336 867.782C267.796 868.873 264.493 866.931 261.071 867.631C260.769 867.692 260.328 867.054 259.947 866.737C259.219 867.036 259.58 867.841 259.123 868.582C257.999 867.953 256.919 867.024 255.693 866.75C254.256 866.429 252.695 866.674 250.94 866.674C250.109 867.686 249.167 868.836 248.342 869.842C246.333 869.36 244.77 870.051 243.082 869.179C242.345 868.797 240.528 869.523 239.206 869.759C237.478 870.069 235.956 868.114 234.728 868.952C233.092 870.069 231.538 869.649 229.977 869.656C215.401 869.715 200.826 869.713 186.252 869.658C184.691 869.653 182.896 870.386 181.606 868.768C180.01 871.23 178.57 868.274 176.928 868.6C175.421 868.901 173.851 868.28 172.286 867.872C169.619 867.177 166.637 867.745 163.792 867.659C161.888 867.598 160.034 867.948 158.107 866.791C156.57 865.869 154.421 866.549 152.445 866.044C150.064 865.436 147.532 864.608 144.937 864.651C143.179 864.677 141.494 864.723 139.769 863.757C138.487 863.04 136.456 864.341 135.216 862.655C131.795 862.854 128.717 861.407 125.481 860.698C117.695 858.993 110.096 856.702 102.581 854.082C96.2838 851.889 89.9478 849.799 83.6744 847.545C81.6398 846.813 79.6089 845.995 77.6444 845.123C70.5638 841.983 63.3488 839.003 56.6829 835.111C50.745 831.64 44.6357 828.437 38.8323 824.698C35.7473 822.71 32.2033 821.316 28.9727 819.44C21.3632 815.021 13.8883 810.397 6.64745 805.392C0.298569 801.002 -6.17197 796.778 -11.616 791.203C-13.0461 789.736 -14.8945 788.687 -16.4223 787.307C-18.1602 785.735 -19.5553 783.704 -21.4664 782.427C-23.9544 780.766 -25.8231 778.461 -28.1673 776.747C-29.9881 775.416 -29.7817 772.569 -32.6401 771.976C-34.7171 771.542 -34.7797 768.14 -37.2253 767.547C-38.0509 764.445 -41.5322 763.787 -43.025 761.01C-44.4698 758.325 -47.3522 756.414 -49.6042 754.164C-51.8581 751.91 -54.394 749.868 -56.3088 747.35C-59.8325 742.719 -64.4232 739.077 -67.9911 734.581C-71.3968 730.294 -75.7554 726.734 -78.247 721.774C-78.8367 720.6 -79.878 721.085 -80.5451 720.34C-81.2399 719.563 -81.1404 718.516 -81.8886 717.841C-84.9313 715.107 -87.4358 711.88 -89.9883 708.715C-93.6152 704.217 -97.1278 699.602 -100.78 695.146C-106.46 688.218 -111.39 680.819 -116.289 673.373C-119.481 668.521 -122.499 663.558 -125.568 658.626C-129.132 652.9 -132.744 647.206 -136.183 641.408C-138.802 636.987 -141.124 632.39 -143.691 627.94C-145.728 624.411 -147.9 620.961 -150.077 617.516C-153.088 612.752 -155.934 607.876 -158.903 603.11C-163.132 596.328 -166.827 589.308 -170.253 582.141C-171.98 578.529 -173.744 574.911 -175.023 571.038C-175.826 568.609 -176.844 566.043 -178.001 563.756C-180.367 559.081 -181.346 554.064 -182.936 549.195C-183.497 547.483 -183.58 545.747 -184.005 544.096C-184.405 542.549 -184.645 541.016 -184.96 539.468C-185.903 534.835 -185.986 530.027 -187.73 525.556C-187.842 525.267 -187.92 524.924 -187.886 524.62C-187.286 519.336 -189.379 514.257 -188.966 508.947C-188.598 504.222 -190.594 499.585 -189.908 494.794C-191.624 492.077 -190.347 488.977 -190.979 486.178C-192.68 478.637 -191.699 471.029 -191.88 463.458C-192.057 455.925 -191.897 448.383 -191.926 440.844C-191.948 435.499 -190.599 430.334 -189.763 425.115C-189.584 423.987 -188.81 422.783 -188.917 421.488C-189.103 419.274 -188.338 417.431 -186.921 415.798Z" fill="#D1D8EE"/>
</svg>
