<svg width="197" height="172" viewBox="0 0 197 172" xmlns="http://www.w3.org/2000/svg">
<path fill-rule="evenodd" clip-rule="evenodd" d="M155.218 -53.312C154.747 -52.8397 154.355 -52.4483 153.858 -51.9516C151.297 -52.2374 148.653 -52.6471 145.993 -52.7969C143.363 -52.9436 140.715 -52.829 138.076 -52.829C135.992 -52.829 133.713 -53.3594 131.876 -52.6868C129.834 -51.9378 127.604 -52.7143 125.996 -51.8492C124.128 -50.8434 121.878 -51.9883 120.355 -50.3267C117.199 -50.637 114.579 -48.6897 111.664 -48.2311C108.385 -47.716 105.444 -46.4381 102.435 -45.2917C98.9574 -43.9665 95.3668 -42.9607 92.0331 -41.209C89.6578 -39.9617 87.0959 -39.0125 84.6319 -37.9578C80.2481 -36.0808 76.4772 -33.3631 72.6452 -30.7019C70.5465 -29.2467 68.7245 -27.3972 66.7725 -25.7326C64.9276 -24.1552 62.8656 -22.7734 61.2622 -20.9819C55.5928 -14.6416 49.5765 -8.54271 45.8989 -0.687561C43.3707 1.58078 42.3527 4.8335 41.0824 7.74078C39.8122 10.6481 37.9245 13.4101 37.5928 16.7118C34.8109 21.2928 33.7088 26.5326 32.1864 31.5462C30.9865 35.4944 29.2088 39.3998 29.2562 43.6858C27.7444 44.9346 28.6065 46.9034 27.7842 48.5083C26.9496 50.1378 26.4223 52.2227 26.7142 54.3244C26.9909 56.3192 25.5602 58.1091 25.8598 60.2353C26.115 62.0588 25.8322 63.8793 25.2101 65.7563C24.6064 67.5722 25.2835 69.7229 24.3297 71.6595C24.0989 72.1273 24.9503 73.0428 25.0389 73.7842C25.1001 74.2978 24.374 75.1064 24.5666 75.3708C25.6931 76.9131 24.7424 78.5991 25.0909 79.88C24.5391 80.9133 24.1096 81.7142 23.4875 82.8775C23.9873 83.1434 24.6782 83.5133 25.3003 83.845C25.3003 89.3432 25.2942 94.4439 25.3248 99.5431C25.3263 99.7402 25.6931 99.9359 25.8949 100.138C25.6259 100.433 25.3569 100.729 25.0878 101.026C25.7742 103.685 26.8166 106.246 26.8059 109.087C26.7998 110.639 27.2095 112.218 27.6099 113.739C28.4399 116.884 29.1079 120.09 29.6949 123.263C30.3582 126.843 32.246 129.755 33.7256 132.871C35.1838 135.948 37.1938 138.654 40.338 140.537C44.676 143.134 48.9208 145.91 53.5018 148.039C55.6906 149.055 58.0935 149.809 60.2793 150.775C62.5691 151.785 65.0086 152.224 67.2983 152.898C69.3359 153.496 71.7265 153.714 73.9796 153.916C75.8337 154.083 77.6435 153.951 79.5052 154.679C81.1698 155.328 83.2975 154.2 84.9651 155.599C85.0462 155.668 85.2357 155.608 85.3748 155.608C92.2196 155.561 99.0582 157.398 105.85 156.317C110.441 155.588 115.276 155.535 119.557 153.266C126.188 152.433 131.925 148.8 138.332 147.27C140.087 145.607 142.57 145.421 144.564 144.182C146.516 142.97 148.778 142.272 150.805 141.167C157.97 137.261 165.169 133.418 172.011 128.949C173.344 128.078 174.29 126.815 175.798 126.052C177.669 125.106 179.251 123.501 180.783 122.002C182.214 120.599 183.728 119.304 184.723 117.407C185.702 115.539 187.57 114.255 188.881 112.488C191.94 108.367 195.179 104.335 197.204 99.6409C198.463 96.7245 199.669 93.7087 200.743 90.6776C201.777 87.752 202.137 84.6658 203.367 81.7723C204.321 79.5345 204.087 76.7847 204.336 74.258C204.64 71.1796 205.01 68.1026 205.146 65.0165C205.285 61.8265 205.366 58.612 205.123 55.4357C204.882 52.2915 204.434 49.161 203.716 46.052C203.306 44.2865 202.843 42.437 202.739 40.6257C202.578 37.7887 201.414 35.34 200.357 32.8347C198.26 27.8563 195.215 23.5183 191.972 19.1727C188.39 14.3746 183.247 11.4429 179.427 7.01472C177.831 5.16673 175.545 3.82162 173.377 2.59267C171.728 1.65569 169.732 1.46461 167.949 0.611694C165.764 -0.433823 163.293 -0.880157 160.95 -1.6001C160.709 -1.67347 160.505 -1.93332 160.27 -1.95625C157.331 -2.25584 154.39 -2.5539 151.446 -2.7893C150.341 -2.87795 149.203 -2.93145 148.118 -2.76484C147.207 -2.62421 146.402 -4.12371 145.497 -2.87032C144.032 -3.99684 142.686 -2.3231 141.137 -2.72205C139.777 -3.07207 138.335 -2.61198 136.873 -2.0984C135.2 -1.51144 133.175 -2.15954 131.413 -1.16294C130.321 -0.54541 129.082 -0.190788 127.836 0.312096C127.491 -0.0333481 127 -0.525536 126.491 -1.03301C126.32 -0.90461 125.986 -0.763992 125.996 -0.646294C126.089 0.695763 125.662 1.56397 124.354 2.24264C122.049 3.43948 119.885 4.90688 117.529 6.34064C117.129 6.11136 116.572 5.79495 115.556 5.21411C115.394 5.85762 115.209 6.5898 115.071 7.13853C114.874 7.04224 115.406 7.30056 116.068 7.62003C114.046 9.60559 112.042 11.5101 110.111 13.485C105.542 18.1593 101.724 23.396 98.615 29.1433C97.0207 32.0919 95.3088 34.993 93.9377 38.044C92.2547 41.7858 90.5244 45.5094 89.2191 49.43C88.2821 52.2425 87.2549 55.0123 86.376 57.8507C85.8303 59.6132 86.1482 61.4122 85.2923 63.2312C84.2697 65.4048 84.878 68.2861 84.2009 70.6981C83.4106 73.5152 83.539 76.3047 83.4122 79.1279C83.3739 79.9962 82.894 80.8445 82.6051 81.7372C82.8619 82.0261 83.1324 82.3287 83.406 82.6359C83.244 82.8194 83.0698 83.015 82.9307 83.174C83.1065 84.3051 83.4229 85.4026 83.4229 86.5016C83.4213 89.7192 84.2636 92.7579 85.1058 95.8165C86.4325 100.625 89.7602 103.777 94.1226 105.492C99.2386 107.502 104.648 108.448 110.186 109.129C114.701 109.682 119.155 109.398 123.571 109.809C125.644 108.337 128.103 107.811 130.227 106.532C130.939 106.102 131.859 105.861 132.596 105.241C135.671 102.646 139.036 100.433 142.019 97.6783C143.354 96.4463 144.913 95.3044 146.273 94.0159C150.553 89.9668 153.225 84.9165 155.139 79.4276C155.776 77.6025 155.904 75.4931 156.913 73.9325C158.083 72.1227 156.869 69.8452 158.488 68.309C158.764 64.9523 159.356 61.5804 159.214 58.239C159.114 55.8743 158.261 53.5265 158.472 51.0763C158.52 50.5367 155.643 43.9441 155.004 43.3663C153.616 42.1099 152.111 40.9849 150.655 39.8049C149.213 40.5875 148.059 38.6386 146.311 39.5893C144.87 40.3735 142.684 40.5156 141.075 40.0662C139.256 39.5588 140.495 41.0139 139.884 41.3044C134.944 43.6507 131.79 48.2821 127.342 51.2811C127.125 51.4263 126.98 51.6801 127.203 51.4263C126.69 53.2116 126.668 54.7402 125.907 55.6558C123.68 58.3383 123.183 61.7959 121.476 64.6894C121.1 65.3283 121.081 66.2011 120.977 66.9746C120.751 68.6758 121.509 70.504 120.175 72.0814C119.9 72.4055 120.028 73.185 120.155 73.7093C120.516 75.192 120.973 76.6502 121.468 78.3851C126.907 74.6845 128.903 68.5383 132.834 63.9741H135.873C135.275 65.2917 134.733 66.487 133.839 68.4542C135.112 67.91 135.729 67.7954 136.142 67.4408C137.085 66.6261 137.929 65.6937 138.861 64.7613C140.098 65.5882 140.761 66.9776 141.917 67.9452C142.996 68.8455 143.346 70.6201 144.358 72.7173C144.398 75.8263 141.776 78.9247 140.978 82.5916C139.474 83.5836 137.778 84.1706 137.518 86.5429C137.363 87.9491 135.962 89.2178 135.327 90.219C133.542 91.0138 132.098 90.2985 130.603 91.1927C128.509 92.4461 126.269 90.2114 123.972 90.5752C120.73 88.4291 116.87 87.6037 113.561 85.4515C111.073 83.8328 109.521 81.6225 107.849 79.4474C106.69 77.9403 106.138 75.9822 105.113 74.3543C104.098 72.7463 104.098 70.8387 103.642 69.1481C102.945 66.5558 103.016 63.5476 103.566 60.8818C104.347 57.1155 105.033 53.2758 106.761 49.7205C108.916 45.2831 111.646 41.2753 115.051 37.7459C118.24 34.4412 121.448 31.19 125.503 28.8177C128.131 27.2816 131.066 26.797 133.753 25.5589C135.011 24.9781 136.173 26.4424 137.697 25.6537C138.793 25.0881 140.43 25.4351 141.805 25.5727C143.231 25.7179 145.147 25.6216 145.943 26.4745C147.722 28.3806 150.824 27.2938 152.187 29.6661C154.844 29.6707 156.481 31.6364 158.248 33.0961C162.761 36.8273 167.474 40.4591 169.615 46.2629C169.927 47.1082 170.207 47.9626 170.499 48.8033C170.883 48.8889 171.262 48.973 171.603 49.0494C172.22 51.3606 172.819 53.6091 173.435 55.9141C173.331 56.0486 173.166 56.258 172.865 56.6432C173.371 57.4457 173.932 58.3368 174.65 59.4771C173.536 59.6529 172.772 59.7752 171.936 59.9082C171.91 60.3254 171.887 60.7015 171.855 61.238H173.716C173.987 61.4871 174.088 61.5804 174.189 61.6721C173.033 62.7283 174.903 63.6913 174.314 64.6649C172.935 66.9455 173.782 69.4493 173.464 71.8277C173.223 73.6283 172.839 75.4396 172.255 77.1561C171.885 78.246 171.031 79.1692 170.401 80.1567C172.118 82.6894 168.903 85.1764 169.995 87.9094C169.686 87.9736 169.307 88.0531 168.883 88.1417C168.056 89.9439 167.197 91.8148 165.979 94.4668V97.2579C165.053 99.4896 163.995 101.15 161.857 101.758V103.597C159.565 105.845 157.358 108.393 154.735 110.394C153.694 111.189 152.675 112.054 151.622 112.854C150.678 113.572 149.57 114.113 148.752 114.946C146.021 117.725 142.56 119.38 139.178 121.056C134.439 123.404 127.669 124.446 122.454 123.877C120.554 123.671 118.712 122.92 116.623 122.36C116.169 122.535 115.349 123.194 114.747 123.034C108.127 121.276 101.316 120.456 94.8838 117.67C90.0919 115.593 85.4466 113.311 81.3058 110.305C78.287 108.117 75.6029 105.269 73.5027 101.967C71.0616 98.1292 68.593 94.3506 67.3503 89.9164C67.2479 89.5541 66.852 89.2591 66.7939 88.9014C66.4745 86.9388 66.0205 84.9715 65.9792 82.9982C65.8676 77.5811 65.6934 72.1456 66.0358 66.7484C66.2345 63.6424 66.9116 60.5043 67.4374 57.4014C67.9449 54.4131 68.6465 51.4875 69.2121 48.5236C69.8495 45.1823 71.135 42.0808 72.2325 38.9183C73.1144 36.3809 73.9016 33.6953 75.2177 31.4239C77.4876 27.5032 78.9855 23.2325 81.4404 19.3592C83.7928 15.6464 85.9877 11.7945 88.4686 8.13972C89.7311 6.27644 90.9799 4.34896 92.5482 2.75928C96.394 -1.14001 99.9662 -5.36947 104.558 -8.45558C108.531 -11.1244 112.413 -13.7993 117.075 -15.4761C121.716 -17.1438 126.289 -18.3773 131.174 -18.6769C132.044 -18.7304 132.891 -19.2012 133.791 -19.4931C134.077 -19.2425 134.383 -18.978 134.695 -18.7059C134.873 -18.8557 135.069 -19.0178 135.281 -19.1935C136.081 -19.0132 136.971 -18.9734 137.697 -18.6096C138.704 -18.1037 139.234 -19.7805 140.491 -18.8939C141.334 -18.2978 142.88 -18.7258 144.107 -18.6341C145.15 -18.5577 146.356 -19.0865 147.137 -17.905C148.332 -19.672 149.419 -17.5672 150.574 -17.8072C152.1 -18.1251 153.425 -17.4143 154.821 -16.997C156.066 -16.6256 157.363 -16.4223 158.636 -16.1441C159.911 -15.8659 161.329 -15.8552 162.434 -15.2637C167.098 -12.7691 172.686 -11.9972 176.405 -7.84416C179.228 -7.9267 180.979 -5.86471 182.979 -4.50278C190.144 0.376297 196.151 6.59743 202.011 12.8935C207.749 19.0581 212.543 26.0221 215.52 33.9414C217.101 38.1418 218.888 42.3193 219.478 46.9309C219.855 49.8886 220.717 52.8509 220.964 55.8468C221.211 58.8825 221.017 61.9549 221.017 65.0119C221.017 67.2344 221.038 69.4585 221.012 71.6809C220.986 73.9386 221.167 76.129 219.742 78.2643C218.923 79.4917 219.125 81.4009 218.866 83.0043C220.464 83.8832 217.448 85.4454 219.264 86.2418C218.081 88.5422 216.899 90.835 215.708 93.1507C215.311 92.79 215.042 92.4568 214.695 92.2657C214.492 92.1541 214.163 92.2688 213.744 92.2871C213.461 93.3128 214.657 93.4106 215.043 94.4072V97.8005C214.672 98.172 214.181 98.6642 213.587 99.2588C213.782 99.514 213.992 99.7846 214.23 100.093C212.469 101.863 212.249 104.442 211.02 106.53C209.628 108.895 208.387 111.365 206.439 113.071C205.087 112.71 204.011 112.424 202.934 112.138C202.867 112.338 202.8 112.539 202.733 112.739C203.232 112.956 203.732 113.175 204.53 113.522C203.775 114.04 203.118 114.489 202.462 114.938C202.561 115.126 202.661 115.314 202.76 115.501C203.416 115.354 204.073 115.209 204.983 115.004C205.045 115.504 205.134 116.209 205.227 116.947C204.627 117.167 204.145 117.343 203.442 117.6C203.616 118.42 203.795 119.273 204.061 120.536C203.098 121.085 201.8 121.829 200.31 122.68C199.694 124.07 198.965 125.712 198.237 127.35C198.361 127.425 198.486 127.5 198.612 127.572C195.579 130.604 192.757 133.891 189.462 136.602C185.506 139.857 181.249 142.782 176.939 145.566C170.828 149.514 164.57 153.234 158.318 156.959C157.577 157.401 156.488 157.259 155.373 157.415C153.986 159.937 150.944 160.278 148.592 161.66C146.395 162.95 143.913 163.758 141.454 164.824C141.182 164.277 140.908 163.726 140.63 163.167C139.257 166.513 135.76 166.562 133.004 167.91C132.636 167.704 132.102 167.405 131.367 166.991C131.148 167.7 131.005 168.174 130.859 168.645C130.762 168.744 130.629 168.946 130.569 168.925C128.856 168.362 127.408 169.452 125.933 169.86C118.874 171.826 111.675 171.192 104.515 171.517C99.0124 171.766 93.6319 170.774 88.1904 170.492C86.1207 170.385 83.8677 170.183 81.905 169.626C79.8782 169.052 77.8636 169.368 75.9758 168.867C73.5837 168.232 71.1915 167.67 68.781 167.118C66.1565 166.519 63.5534 165.726 61.0023 164.799C58.4619 163.876 55.8374 163.184 53.3 162.257C50.7688 161.334 48.3338 160.148 45.7949 159.249C38.3846 156.626 32.1512 151.894 25.4318 148.031C22.3716 144.519 18.7123 141.616 15.802 137.891C13.5077 134.958 11.5374 131.835 9.61754 128.72C7.54638 125.358 6.18751 121.542 5.08085 117.699C3.91764 113.667 2.84308 109.621 2.54654 105.4C2.46553 104.252 1.98404 103.137 1.75323 101.992C1.51936 100.841 2.25917 99.4865 0.990491 98.5388C0.846808 98.4318 0.926292 98.0222 0.909478 97.7547C0.631285 93.0071 0.241509 88.2625 0.105469 83.5103C-0.0336278 78.651 0.0550273 73.7857 0.106997 68.9235C0.113112 68.4756 0.577786 68.0338 0.829995 67.589C0.593072 67.3231 0.322521 67.0204 0 66.6582C0.301121 65.955 0.935463 65.2076 0.854451 64.5473C0.350035 60.4202 1.91373 56.469 1.76546 52.3801C1.72877 51.3468 1.31148 50.1301 2.51444 49.3674C1.21824 48.4625 2.71468 47.6493 2.63214 46.7444C2.53737 45.7279 2.43343 44.7222 3.12433 43.6247C4.01088 42.2138 2.85378 40.132 4.24321 38.6875C4.26156 34.2762 6.32202 30.3646 7.26513 26.1887C7.98812 22.9894 9.19108 20.0669 10.4858 17.0893C11.5527 14.6391 12.1442 11.9733 13.0995 9.42522C15.3648 3.38598 18.1514 -2.40105 21.0036 -8.13917C22.902 -11.9559 25.7512 -15.282 27.668 -19.14C30.1825 -20.3338 30.6808 -23.1968 32.4997 -25.0585C34.3599 -26.96 36.0291 -29.1428 37.9352 -31.0703C39.8887 -33.0451 41.7901 -35.0796 43.843 -36.949C47.1935 -40.0045 51.0149 -42.5113 54.4449 -45.4324C57.9101 -48.384 61.9164 -50.3497 65.6735 -52.7082C69.2182 -54.9337 73.2902 -56.4715 77.3133 -57.7264C80.1457 -58.6083 82.79 -59.9733 85.7309 -60.6046C89.3841 -61.3872 92.9273 -62.6712 96.5438 -63.6449C98.0601 -64.0545 100.026 -63.7458 101.103 -64.614C102.716 -65.9117 104.618 -64.588 106.073 -65.8246C107.343 -66.9022 109.405 -65.2942 110.59 -66.9939C110.635 -67.0596 110.859 -67.0229 110.993 -67C114.426 -66.384 117.657 -68.0211 121.071 -67.8682C124.398 -67.7199 127.833 -68.3359 131.05 -67.7215C136.244 -66.7295 141.655 -66.6744 146.493 -63.7641C150.136 -61.5722 153.22 -59.1678 154.851 -55.189C155.097 -54.5898 155.11 -53.8974 155.218 -53.312Z" />
</svg>
