<svg width="34" height="34" viewBox="0 0 34 34" xmlns="http://www.w3.org/2000/svg">
<path fill-rule="evenodd" clip-rule="evenodd" d="M2.66644 16.2566C5.2686 14.805 8.17331 13.5936 10.8873 12.3759C15.5565 10.3815 20.2442 8.42162 24.9792 6.59701C25.9004 6.28611 27.5558 5.98217 27.7181 7.36476C27.6293 9.3218 27.2637 11.2674 27.0129 13.213C26.3764 17.4915 25.6405 21.7554 24.9232 26.0198C24.676 27.4402 22.9189 28.1756 21.7946 27.2666C19.0927 25.4183 16.3699 23.5881 13.7025 21.6969C12.8286 20.7977 13.639 19.5066 14.4192 18.8645C16.6446 16.6433 19.0047 14.7566 21.1138 12.4208C21.6828 11.0294 20.0018 12.202 19.4473 12.5613C16.4007 14.6874 13.4287 16.9433 10.2166 18.8119C8.57585 19.7266 6.66355 18.9449 5.02356 18.4345C3.55312 17.818 1.39837 17.1968 2.66625 16.2567L2.66644 16.2566Z" />
</svg>
