<svg width="26" height="22" viewBox="0 0 26 22" xmlns="http://www.w3.org/2000/svg">
<path fill-rule="evenodd" clip-rule="evenodd" d="M0.666283 10.2565C3.26845 8.80496 6.17316 7.5935 8.88718 6.37585C13.5564 4.38142 18.2441 2.42156 22.9791 0.596946C23.9003 0.28605 25.5557 -0.0178949 25.718 1.3647C25.6291 3.32174 25.2635 5.26733 25.0127 7.21292C24.3763 11.4914 23.6404 15.7553 22.9231 20.0197C22.6758 21.4401 20.9188 22.1755 19.7945 21.2665C17.0925 19.4182 14.3698 17.588 11.7023 15.6969C10.8284 14.7976 11.6389 13.5065 12.4191 12.8645C14.6445 10.6433 17.0046 8.7565 19.1137 6.42074C19.6826 5.02932 18.0016 6.20189 17.4472 6.56126C14.4006 8.68737 11.4285 10.9433 8.21642 12.8119C6.57569 13.7265 4.66339 12.9449 3.02341 12.4345C1.55296 11.8179 -0.601781 11.1967 0.666098 10.2567L0.666283 10.2565Z" />
</svg>
