<svg width="36" height="36" viewBox="0 0 36 36" xmlns="http://www.w3.org/2000/svg">
<path fill-rule="evenodd" clip-rule="evenodd" d="M18 0.125C8.12791 0.125 0.125 8.12791 0.125 18C0.125 27.8721 8.12791 35.875 18 35.875C27.8721 35.875 35.875 27.8721 35.875 18C35.875 8.12791 27.8721 0.125 18 0.125ZM18.9723 10.1527C18.7144 9.89487 18.3647 9.75 18 9.75C17.6353 9.75 17.2856 9.89487 17.0277 10.1527L11.5277 15.6527C10.9908 16.1897 10.9908 17.0603 11.5277 17.5973C12.0647 18.1342 12.9353 18.1342 13.4723 17.5973L16.625 14.4445L16.625 24.875C16.625 25.6344 17.2406 26.25 18 26.25C18.7594 26.25 19.375 25.6344 19.375 24.875L19.375 14.4445L22.5277 17.5973C23.0647 18.1342 23.9353 18.1342 24.4723 17.5973C25.0092 17.0603 25.0092 16.1897 24.4723 15.6527L18.9723 10.1527Z" />
</svg>
