<svg width="24" height="24" viewBox="0 0 24 24" fill="currentColor" xmlns="http://www.w3.org/2000/svg">
<path d="M16.6801 17.3563C16.4208 17.3563 16.1879 17.2592 15.9815 17.065C15.7755 16.8703 15.6725 16.6433 15.6725 16.3841V9.45442L7.77055 17.3563C7.5702 17.5567 7.33426 17.6569 7.06273 17.6569C6.79215 17.6569 6.55668 17.5567 6.35633 17.3563C6.15599 17.156 6.05558 16.9203 6.05511 16.6492C6.05558 16.3782 6.15599 16.1425 6.35633 15.9421L14.2583 8.0402L7.32861 8.0402C7.06933 8.0402 6.84235 7.9372 6.64766 7.7312C6.45344 7.52472 6.35633 7.29185 6.35633 7.03257C6.35633 6.7733 6.45651 6.54349 6.65685 6.34315C6.8572 6.1428 7.08701 6.04263 7.34628 6.04263L16.6801 6.04263C16.8097 6.03084 16.9335 6.05417 17.0513 6.11263C17.1692 6.17203 17.2752 6.24886 17.3695 6.34315C17.4638 6.43743 17.5376 6.54043 17.5908 6.65215C17.6436 6.76435 17.67 6.89115 17.67 7.03258V16.3664C17.67 16.6257 17.5699 16.8555 17.3695 17.0558C17.1692 17.2562 16.9394 17.3563 16.6801 17.3563Z" />
</svg>

