<svg width="12" height="12" viewBox="0 0 12 12" xmlns="http://www.w3.org/2000/svg">
<path d="M10.6801 11.3563C10.4208 11.3563 10.1879 11.2592 9.98147 11.065C9.77547 10.8703 9.67246 10.6433 9.67246 10.3841V3.45442L1.77055 11.3563C1.5702 11.5567 1.33426 11.6569 1.06273 11.6569C0.792147 11.6569 0.556681 11.5567 0.356334 11.3563C0.155987 11.156 0.0555775 10.9203 0.0551061 10.6492C0.0555775 10.3782 0.155987 10.1425 0.356334 9.94212L8.25825 2.0402L1.32861 2.0402C1.06933 2.0402 0.842352 1.9372 0.647662 1.7312C0.453443 1.52472 0.356334 1.29185 0.356334 1.03257C0.356334 0.773302 0.456507 0.543493 0.656854 0.343146C0.857201 0.142799 1.08701 0.0426253 1.34628 0.0426253L10.6801 0.042626C10.8097 0.0308409 10.9335 0.0541747 11.0513 0.112629C11.1692 0.172026 11.2752 0.248864 11.3695 0.343145C11.4638 0.437426 11.5376 0.540428 11.5908 0.652151C11.6436 0.764345 11.67 0.891154 11.67 1.03258V10.3664C11.67 10.6257 11.5699 10.8555 11.3695 11.0558C11.1692 11.2562 10.9394 11.3563 10.6801 11.3563V11.3563Z" fill="currentColor"/>
</svg>
