<svg width="34" height="34" viewBox="0 0 34 34" xmlns="http://www.w3.org/2000/svg">
<path d="M30.8729 9.99819C31.0869 9.27497 30.8729 8.74268 29.843 8.74268H26.4352C25.5673 8.74268 25.1681 9.19975 24.954 9.7089C24.954 9.7089 23.2183 13.9383 20.7651 16.6808C19.9724 17.4734 19.6079 17.728 19.174 17.728C18.9599 17.728 18.6301 17.4734 18.6301 16.7502V9.99819C18.6301 9.13032 18.3871 8.74268 17.6697 8.74268H12.3121C11.7682 8.74268 11.4442 9.14768 11.4442 9.52376C11.4442 10.3453 12.6708 10.5363 12.7981 12.8506V17.8726C12.7981 18.9719 12.6014 19.1744 12.1674 19.1744C11.0103 19.1744 8.19838 14.9277 6.53208 10.0676C6.1965 9.12454 5.86671 8.74268 4.99306 8.74268H1.58523C0.61322 8.74268 0.416504 9.19975 0.416504 9.7089C0.416504 10.6115 1.57366 15.0955 5.80307 21.0201C8.62074 25.0644 12.5898 27.2572 16.2001 27.2572C18.3698 27.2572 18.6359 26.7712 18.6359 25.9322C18.6359 22.0673 18.4392 21.7028 19.5269 21.7028C20.0303 21.7028 20.8982 21.9574 22.9232 23.9072C25.2375 26.2215 25.6194 27.2572 26.9154 27.2572H30.3232C31.2952 27.2572 31.787 26.7712 31.5035 25.8107C30.8555 23.7915 26.4757 19.6373 26.279 19.3596C25.7756 18.7116 25.9202 18.4223 26.279 17.8437C26.2847 17.8379 30.4447 11.9827 30.8729 9.99819Z" />
</svg>
