<svg width="32" height="20" viewBox="0 0 32 20" xmlns="http://www.w3.org/2000/svg">
<path d="M30.873 1.99819C31.0871 1.27497 30.873 0.742676 29.8431 0.742676H26.4353C25.5675 0.742676 25.1682 1.19975 24.9542 1.7089C24.9542 1.7089 23.2184 5.93831 20.7653 8.68077C19.9726 9.47342 19.6081 9.728 19.1742 9.728C18.9601 9.728 18.6303 9.47342 18.6303 8.7502V1.99819C18.6303 1.13032 18.3873 0.742676 17.6699 0.742676H12.3122C11.7684 0.742676 11.4444 1.14768 11.4444 1.52376C11.4444 2.34534 12.6709 2.53627 12.7982 4.85058V9.87264C12.7982 10.9719 12.6015 11.1744 12.1676 11.1744C11.0104 11.1744 8.19853 6.92768 6.53223 2.06762C6.19665 1.12454 5.86686 0.742676 4.99321 0.742676H1.58538C0.613373 0.742676 0.416656 1.19975 0.416656 1.7089C0.416656 2.61148 1.57381 7.09547 5.80322 13.0201C8.6209 17.0644 12.5899 19.2572 16.2003 19.2572C18.3699 19.2572 18.6361 18.7712 18.6361 17.9322C18.6361 14.0673 18.4394 13.7028 19.5271 13.7028C20.0305 13.7028 20.8983 13.9574 22.9234 15.9072C25.2377 18.2215 25.6195 19.2572 26.9155 19.2572H30.3234C31.2954 19.2572 31.7872 18.7712 31.5037 17.8107C30.8557 15.7915 26.4758 11.6373 26.2791 11.3596C25.7757 10.7116 25.9204 10.4223 26.2791 9.84371C26.2849 9.83793 30.4449 3.98271 30.873 1.99819Z" />
</svg>
