<svg width="34" height="34" viewBox="0 0 34 34"  xmlns="http://www.w3.org/2000/svg">
<path d="M28.0556 10.0123C24.1663 3.9998 16.2257 2.21229 10.0676 5.94982C4.07165 9.68735 2.12701 17.8124 6.01629 23.825L6.3404 24.3125L5.04397 29.1875L9.90557 27.8875L10.3917 28.2125C12.4984 29.35 14.7672 30 17.0359 30C19.4667 30 21.8975 29.35 24.0042 28.05C30.0002 24.15 31.7828 16.1874 28.0556 10.0123V10.0123ZM24.6524 22.5249C24.0042 23.4999 23.194 24.15 22.0596 24.3125C21.4114 24.3125 20.6011 24.6375 17.36 23.3374C14.6051 22.0374 12.3364 19.9249 10.7158 17.4874C9.74352 16.3499 9.25736 14.8874 9.09531 13.4249C9.09531 12.1249 9.58147 10.9874 10.3917 10.1748C10.7158 9.84985 11.0399 9.68735 11.3641 9.68735H12.1743C12.4984 9.68735 12.8225 9.68735 12.9846 10.3374C13.3087 11.1499 14.119 13.0999 14.119 13.2624C14.281 13.4249 14.281 13.7499 14.119 13.9124C14.281 14.2374 14.119 14.5624 13.9569 14.7249C13.7949 14.8874 13.6328 15.2124 13.4707 15.3749C13.1466 15.5374 12.9846 15.8624 13.1466 16.1874C13.7949 17.1624 14.6051 18.1374 15.4154 18.9499C16.3877 19.7624 17.36 20.4124 18.4944 20.8999C18.8185 21.0624 19.1426 21.0624 19.3047 20.7374C19.4667 20.4124 20.277 19.5999 20.6011 19.2749C20.9252 18.9499 21.0873 18.9499 21.4114 19.1124L24.0042 20.4124C24.3283 20.5749 24.6524 20.7374 24.8145 20.8999C24.9765 21.3874 24.9765 22.0374 24.6524 22.5249V22.5249Z" />
</svg>
