<svg width="437" height="162" viewBox="0 0 437 162" fill="none" xmlns="http://www.w3.org/2000/svg">
<path d="M179.316 52.3599L183.829 54.4868C183.6 54.9357 183.36 55.4633 183.108 56.0697C182.856 56.676 182.182 57.9439 181.087 59.8732C179.992 61.8025 178.775 63.4719 177.436 64.8814C176.121 66.1334 174.274 67.7082 171.895 69.6058C169.698 71.3695 167.268 72.5347 164.606 73.1014C161.968 73.5105 158.778 73.8369 155.038 74.0805C151.478 74.1903 147.588 73.2841 143.367 71.3619C141.2 78.284 138.975 83.9893 136.69 88.478C133.697 94.4707 130.632 99.3253 127.498 103.042C124.315 107.074 120.732 110.562 116.746 113.507C114.344 115.562 111.583 117.322 108.465 118.786C103.582 121.274 97.9387 122.923 91.5359 123.733C86.8028 124.15 82.7786 123.063 79.4635 120.471C76.1484 117.88 73.6524 114.123 71.9757 109.201C70.4564 104.302 69.3664 99.2261 68.7056 93.9732C68.0685 88.5628 67.7858 82.4003 67.8577 75.4858C55.9789 95.6055 40.0969 105.381 20.2118 104.811C13.1398 104.715 8.01335 101.852 4.83252 96.2205C1.67533 90.4317 0.274551 83.135 0.630183 74.3304C1.00946 65.3684 1.80615 56.3079 3.02024 47.1491C4.39183 38.0139 5.58228 29.0126 6.59157 20.1451C7.75837 11.3013 7.89313 5.04045 6.99586 1.36255C7.49202 1.276 8.23626 1.14616 9.22857 0.97304C10.2209 0.799923 12.0795 0.756865 14.8043 0.843878C17.7103 0.797037 20.4233 0.962799 22.9434 1.34117C25.4634 1.71954 28.1488 2.6059 30.9995 4.00023C34.0313 5.26071 36.5078 7.0015 38.4291 9.22262C40.5079 11.4674 42.051 14.598 43.0585 18.6146C44.2234 22.6548 44.5614 27.3761 44.0724 32.7785C43.5441 37.3697 42.8226 43.7841 41.9079 52.0215C39.6372 70.3628 39.2026 80.7661 40.6041 83.2312C42.1394 85.8776 45.9946 83.799 52.1698 76.9956C59.1406 69.1843 64.7175 61.0026 68.9005 52.4506C69.4926 42.071 69.773 35.9126 69.7418 33.9752C70.7578 33.6446 72.01 33.3495 73.4985 33.0898C75.1681 32.6962 78.019 32.4801 82.0512 32.4413C86.0833 32.4025 89.6153 33.0133 92.6471 34.2738C95.8601 35.4004 98.7697 38.0115 101.376 42.107C104.006 46.045 105.308 51.3138 105.284 57.9134C105.32 78.0505 106.236 91.797 108.03 99.1528C110.338 97.7277 112.843 95.5269 115.544 92.5504C118.403 89.5976 121.133 85.9005 123.732 81.4592C126.607 76.254 128.782 71.4268 130.255 66.9774C130.279 66.8199 130.326 66.5049 130.397 66.0324C130.625 65.5835 130.83 65.2922 131.011 65.1583C127.358 62.6771 124.881 60.9363 123.582 59.9359C120.826 57.9116 118.566 55.8007 116.802 53.6032C114.345 50.6575 112.712 47.5938 111.901 44.412C111.373 42.5613 111.118 40.5097 111.134 38.2574C111.237 36.5012 111.701 34.4773 112.529 32.1857C114.427 28.1223 117.365 25.1813 121.342 23.3626C125.391 21.0715 129.584 20.4933 133.923 21.6279C136.286 21.9826 138.396 22.9437 140.255 24.5112C142.027 25.5825 143.625 27.2719 145.05 29.5796C145.916 31.3202 146.747 33.297 147.542 35.5101C147.825 36.841 148.093 38.8139 148.344 41.4285C148.533 43.3895 148.497 45.2362 148.237 46.9688C148.3 47.6224 148.237 48.5793 148.048 49.8393L147.693 52.2018C147.031 56.6119 146.144 60.9078 145.033 65.0894C145.64 65.3415 146.482 65.6291 147.561 65.9521C148.798 66.2988 150.991 66.7086 154.141 67.1816C157.472 67.5207 160.469 67.4069 163.131 66.8403C165.95 66.2973 168.911 64.8093 172.015 62.3763C175.118 59.9432 177.552 56.6044 179.316 52.3599ZM135.798 47.7585L136.082 45.8684C136.342 44.1359 136.464 42.7853 136.449 41.8167C136.244 38.887 135.843 36.733 135.245 35.3548C134.245 33.4331 132.969 32.2752 131.418 31.8812C129.575 31.2824 127.614 31.4712 125.535 32.4474C123.66 33.1323 122.176 34.4394 121.081 36.3687C120.324 38.1878 120.119 40.0896 120.466 42.0743C120.835 43.9014 121.8 46.0594 123.359 48.5482C125.548 51.1316 127.28 53.0022 128.556 54.1601L133.292 58.0118C133.316 57.8543 133.56 56.7636 134.025 54.7397C134.671 52.582 135.077 50.9518 135.243 49.8493C135.447 49.5579 135.633 48.861 135.798 47.7585Z" fill="#FDDFF5"/>
<path d="M288.31 66.0672L290.4 71.4542C289.518 71.966 288.297 72.588 286.738 73.3202C286.557 73.454 286.206 73.643 285.686 73.887C285.19 73.9736 284.851 74.0838 284.67 74.2177L282.331 75.3159C282.15 75.4498 281.721 75.6269 281.044 75.8474C280.524 76.0914 280.095 76.2686 279.756 76.3788C279.417 76.489 278.897 76.733 278.196 77.1109C277.495 77.4889 276.976 77.7329 276.637 77.8431C274.786 78.3705 273.68 78.7681 273.317 79.0358C272.955 79.3035 272.345 79.6145 271.486 79.9687C270.651 80.1655 270.065 80.319 269.726 80.4292C269.545 80.563 269.194 80.752 268.675 80.9961C268.336 81.1063 268.088 81.1495 267.93 81.1259C267.253 81.3463 266.914 81.4565 266.914 81.4565C266.757 81.4329 266.588 81.488 266.406 81.6218C266.225 81.7557 266.056 81.8108 265.898 81.7871C265.245 81.8501 264.567 82.0705 263.867 82.4484C263.213 82.5113 262.536 82.7317 261.835 83.1096C259.984 83.637 257.05 84.4044 253.034 85.4119C250.529 86.0022 247.462 86.5885 243.831 87.1708C243.335 87.2573 242.591 87.3872 241.598 87.5603C240.787 87.5995 240.224 87.5955 239.909 87.5482C239.011 90.3123 237.876 93.041 236.506 95.7341C230.724 107.428 222.611 115.873 212.167 121.07C201.748 126.108 191.959 126.41 182.8 121.975C173.642 117.54 167.898 109.672 165.568 98.3702C163.263 86.9113 165.013 75.2561 170.818 63.4045C176.601 51.7105 184.701 43.3441 195.121 38.3054C205.565 33.1092 215.366 32.7286 224.524 37.1637C230.674 40.1808 235.324 45.1468 238.473 52.0618C241.646 58.8193 242.932 66.3404 242.333 74.6252L243.041 74.7316C247.097 74.5353 249.857 74.386 251.322 74.2839C252.606 74.3155 255.311 73.997 259.438 73.3281C260.43 73.155 261.096 73.0134 261.434 72.9032C262.427 72.73 263.08 72.6671 263.395 72.7144C264.073 72.494 264.411 72.3838 264.411 72.3838C264.569 72.4074 264.726 72.4311 264.884 72.4547C265.065 72.3209 265.234 72.2658 265.392 72.2894C265.573 72.1556 265.833 72.0336 266.172 71.9234C266.668 71.8368 266.995 71.8053 267.152 71.829L270.909 70.9435C271.901 70.7704 272.984 70.5304 274.157 70.2234C275.512 69.7826 276.516 69.5307 277.17 69.4678C278.524 69.027 279.45 68.7633 279.946 68.6767C280.127 68.5429 280.466 68.4327 280.962 68.3461C281.639 68.1257 282.068 67.9485 282.25 67.8147L284.482 67.4252L288.31 66.0672ZM228.029 62.0896C225.178 60.6952 221.65 61.1318 217.444 63.3993C217.665 64.0766 218.176 64.9587 218.98 66.0456C220.05 67.4948 221.247 68.6409 222.57 69.4837C223.263 70.232 224.07 70.7558 224.992 71.0552C226.811 71.8115 227.799 72.2014 227.957 72.2251C229.776 72.9814 231.63 73.5014 233.52 73.7852C233.316 67.6345 231.486 63.736 228.029 62.0896ZM202.316 114.276C206.065 116.127 210.475 115.179 215.547 111.431C220.643 107.525 224.94 101.97 228.438 94.7643C229.351 92.9689 230.36 90.5434 231.463 87.488C228.265 87.33 225.812 87.0422 224.103 86.6246C223.788 86.5773 223.237 86.4945 222.45 86.3763C221.843 86.1242 221.225 85.9508 220.595 85.8562C220.146 85.6278 219.697 85.3993 219.249 85.1709C218.17 84.8478 216.575 84.2058 214.465 83.2447C211.905 82.0552 209.362 80.2238 206.834 77.7506C205.984 76.9787 205.425 76.4116 205.157 76.0493C204.724 76.7895 203.641 78.6401 201.908 81.6009C198.41 88.8064 196.661 95.6301 196.66 102.072C196.84 108.38 198.726 112.448 202.316 114.276Z" fill="#FDDFF5"/>
<path d="M431.952 90.2916L436.464 92.4186C436.236 92.8675 435.995 93.3951 435.743 94.0015C435.491 94.6078 434.818 95.8756 433.723 97.8049C432.628 99.7342 431.411 101.404 430.072 102.813C428.757 104.065 426.91 105.64 424.531 107.538C422.333 109.301 419.904 110.467 417.242 111.033C414.604 111.442 411.414 111.769 407.673 112.012C404.114 112.122 400.223 111.216 396.002 109.294C393.836 116.216 391.61 121.921 389.326 126.41C386.332 132.402 383.268 137.257 380.133 140.974C376.951 145.006 373.367 148.494 369.382 151.439C366.98 153.494 364.219 155.253 361.1 156.718C356.217 159.206 350.574 160.855 344.171 161.665C339.438 162.082 335.414 160.994 332.099 158.403C328.784 155.812 326.288 152.055 324.611 147.132C323.092 142.234 322.002 137.158 321.341 131.905C320.704 126.495 320.421 120.332 320.493 113.418C308.614 133.537 292.732 143.312 272.847 142.742C265.775 142.647 260.649 139.784 257.468 134.152C254.311 128.363 252.91 121.067 253.266 112.262C253.645 103.3 254.442 94.2397 255.656 85.0809C257.027 75.9457 258.218 66.9444 259.227 58.0769C260.394 49.2331 260.529 42.9722 259.631 39.2943C260.128 39.2078 260.872 39.0779 261.864 38.9048C262.856 38.7317 264.715 38.6886 267.44 38.7757C270.346 38.7288 273.059 38.8946 275.579 39.2729C278.099 39.6513 280.784 40.5377 283.635 41.932C286.667 43.1925 289.143 44.9333 291.065 47.1544C293.143 49.3991 294.687 52.5298 295.694 56.5464C296.859 60.5866 297.197 65.3079 296.708 70.7103C296.18 75.3015 295.458 81.7159 294.543 89.9533C292.273 108.295 291.838 118.698 293.24 121.163C294.775 123.809 298.63 121.731 304.805 114.927C311.776 107.116 317.353 98.9344 321.536 90.3824C322.128 80.0028 322.409 73.8443 322.377 71.907C323.393 71.5764 324.646 71.2812 326.134 71.0216C327.804 70.628 330.654 70.4119 334.687 70.3731C338.719 70.3342 342.251 70.9451 345.283 72.2056C348.496 73.3322 351.405 75.9433 354.011 80.0388C356.641 83.9768 357.944 89.2456 357.919 95.8451C357.956 115.982 358.871 129.729 360.666 137.085C362.974 135.66 365.478 133.459 368.18 130.482C371.039 127.529 373.768 123.832 376.368 119.391C379.243 114.186 381.417 109.359 382.891 104.909C382.914 104.752 382.961 104.437 383.032 103.964C383.261 103.515 383.466 103.224 383.647 103.09C379.993 100.609 377.517 98.8681 376.217 97.8677C373.461 95.8434 371.201 93.7325 369.437 91.535C366.981 88.5893 365.347 85.5256 364.536 82.3438C364.009 80.493 363.753 78.4415 363.769 76.1891C363.872 74.433 364.337 72.4091 365.164 70.1175C367.063 66.0541 370.001 63.1131 373.978 61.2944C378.026 59.0033 382.22 58.425 386.559 59.5597C388.922 59.9144 391.032 60.8755 392.89 62.4429C394.662 63.5142 396.261 65.2037 397.686 67.5114C398.552 69.252 399.382 71.2288 400.177 73.4419C400.461 74.7728 400.728 76.7456 400.98 79.3603C401.169 81.3213 401.133 83.168 400.873 84.9005C400.936 85.5542 400.873 86.511 400.683 87.7711L400.329 90.1336C399.666 94.5437 398.78 98.8396 397.669 103.021C398.275 103.273 399.118 103.561 400.197 103.884C401.433 104.231 403.626 104.64 406.776 105.113C410.108 105.452 413.104 105.339 415.766 104.772C418.586 104.229 421.547 102.741 424.65 100.308C427.753 97.875 430.187 94.5362 431.952 90.2916ZM388.434 85.6903L388.717 83.8002C388.977 82.0677 389.1 80.7171 389.084 79.7484C388.88 76.8188 388.478 74.6648 387.88 73.2866C386.88 71.3648 385.605 70.207 384.053 69.813C382.21 69.2142 380.249 69.4029 378.17 70.3792C376.296 71.0641 374.811 72.3712 373.716 74.3005C372.96 76.1196 372.755 78.0214 373.101 80.006C373.471 81.8332 374.435 83.9911 375.994 86.48C378.183 89.0634 379.916 90.934 381.191 92.0919L385.928 95.9436C385.951 95.7861 386.196 94.6954 386.661 92.6715C387.307 90.5137 387.713 88.8836 387.878 87.7811C388.083 87.4897 388.268 86.7928 388.434 85.6903Z" fill="#FDDFF5"/>
</svg>
