<svg width="28" height="19" viewBox="0 0 28 19" xmlns="http://www.w3.org/2000/svg">
<path d="M26.7749 3.45744C26.624 2.91888 26.3299 2.43129 25.9239 2.04652C25.5065 1.64991 24.995 1.3662 24.4375 1.22218C22.3511 0.672257 13.9922 0.672257 13.9922 0.672257C10.5075 0.63261 7.02363 0.806989 3.56029 1.19441C3.00279 1.34907 2.49217 1.63911 2.07382 2.03874C1.66276 2.43424 1.36503 2.92195 1.20949 3.45633C0.835867 5.46911 0.654335 7.51283 0.667342 9.55995C0.654011 11.6052 0.835097 13.6483 1.20949 15.6636C1.36169 16.1957 1.65832 16.6812 2.07049 17.0734C2.48265 17.4656 2.99592 17.7488 3.56029 17.8988C5.67445 18.4476 13.9922 18.4476 13.9922 18.4476C17.4814 18.4873 20.9697 18.313 24.4375 17.9255C24.995 17.7815 25.5065 17.4978 25.9239 17.1012C26.3297 16.7165 26.6235 16.2288 26.7738 15.6902C27.1572 13.6782 27.3436 11.6337 27.3304 9.5855C27.3593 7.52867 27.1731 5.47446 26.7749 3.45633V3.45744ZM11.3348 13.3639V5.75713L18.2894 9.56106L11.3348 13.3639Z" />
</svg>
