<svg width="34" height="34" viewBox="0 0 34 34" xmlns="http://www.w3.org/2000/svg">
<path d="M29.7748 10.4574C29.6238 9.91882 29.3297 9.43123 28.9238 9.04646C28.5064 8.64985 27.9948 8.36614 27.4373 8.22212C25.3509 7.6722 16.9921 7.6722 16.9921 7.6722C13.5073 7.63255 10.0235 7.80693 6.56013 8.19435C6.00264 8.34901 5.49201 8.63905 5.07367 9.03868C4.66261 9.43418 4.36487 9.92189 4.20934 10.4563C3.83571 12.469 3.65418 14.5128 3.66719 16.5599C3.65386 18.6052 3.83494 20.6482 4.20934 22.6635C4.36154 23.1957 4.65817 23.6812 5.07033 24.0733C5.4825 24.4655 5.99577 24.7488 6.56013 24.8988C8.67429 25.4476 16.9921 25.4476 16.9921 25.4476C20.4812 25.4873 23.9695 25.3129 27.4373 24.9254C27.9948 24.7814 28.5064 24.4977 28.9238 24.1011C29.3296 23.7164 29.6233 23.2287 29.7737 22.6902C30.1571 20.6782 30.3435 18.6336 30.3303 16.5854C30.3591 14.5286 30.1729 12.4744 29.7748 10.4563V10.4574ZM14.3346 20.3638V12.7571L21.2893 16.561L14.3346 20.3638Z" />
</svg>
