<svg width="408" height="251" fill="none" xmlns="http://www.w3.org/2000/svg"><path d="m91.98 120.7 6.02 3.01c-7.89 13.76-16.34 25.37-25.37 34.82-8.88 9.32-17.34 15.77-25.36 19.35-7.88 3.73-15.34 4.87-22.36 3.44-6.88-1.43-12.4-5.52-16.55-12.25-3.72-5.45-6.16-14.98-7.3-28.6a335.98 335.98 0 0 1-.87-37.4C.77 91.61 1.84 76.2 3.42 56.86c1.57-19.35 2.5-31.39 2.8-36.12.28-6.73 3-11.82 8.16-15.26C19.68 2.04 26.2.25 33.94.11c7.74-.29 15.4 0 23 .86 7.74.71 14.9 1.57 21.5 2.58 6.59.86 10.6 1.07 12.03.64.15.57.22 1.3.22 2.15.14.86.21 2.58.21 5.16.15 2.44.15 4.8 0 7.1a31.61 31.61 0 0 1-1.5 7.3c-.86 2.58-2 4.8-3.44 6.67-1.43 1.72-3.51 3.08-6.24 4.08-2.57 1-5.66 1.22-9.24.65-12.9-1.87-21.92-2.94-27.08-3.23a1150.17 1150.17 0 0 0-3.01 43.64c1.15.43 2.86.93 5.16 1.5.43.15.93.29 1.5.43a6.1 6.1 0 0 0 1.5.22 3 3 0 0 0 1.3.21c.14.15.35.22.64.22.29 0 .5.07.65.21.28 0 .71.07 1.29.22h1.29c.28.14.64.21 1.07.21.57 0 .93.07 1.08.22h4.51l.86 8.6h-.86a1.9 1.9 0 0 1-.86.21h-6.67a3.69 3.69 0 0 0-1.5-.21c-.72 0-1.22-.08-1.5-.22h-1.5a3.69 3.69 0 0 0-1.51-.21l-3.23-.65a13.7 13.7 0 0 0-1.93-.43 9.25 9.25 0 0 0-1.72-.21c-1.58 32.96-1.3 55.24.86 66.85 2 10.6 8.6 11.6 19.77 3 9.75-7.44 20.2-19.84 31.39-37.18Z" fill="#FDDFF5"/><path d="M208.77 97.27h7.1c-.58 2-1.44 4.66-2.59 7.95-1.15 3.16-3.72 8.89-7.74 17.2a157.81 157.81 0 0 1-12.9 21.93c-4.58 6.3-10.67 12.03-18.26 17.2-7.6 5.15-15.48 7.73-23.65 7.73-5.3 0-9.46-1.86-12.47-5.59a27.63 27.63 0 0 1-5.15-13.75c-.58-5.3-.65-11.83-.22-19.57-10.03 9.75-20.63 13.69-31.81 11.83-7.02-1.3-11.54-4.8-13.54-10.54-2.01-5.73-1.58-11.9 1.29-18.48 3-6.6 7.6-11.83 13.75-15.7 10.18-6.3 21.71-8.38 34.61-6.23.43-6.6.29-11.4-.43-14.4.57-.14 1.29-.29 2.15-.43.86-.14 2.5-.22 4.94-.22 2.58-.14 4.95-.07 7.1.22 2.29.29 4.73 1 7.3 2.15a19.65 19.65 0 0 1 6.88 4.73c1.87 1.86 3.3 4.58 4.3 8.17 1.15 3.58 1.5 7.8 1.08 12.68-2.15 29.8-.5 44.78 4.94 44.93 2.15.14 4.8-1.58 7.95-5.16a110.84 110.84 0 0 0 14.84-21.28c4.3-7.89 7.16-14.12 8.6-18.7l1.93-6.67Zm-99.3 21.07c-.3 7.3 2.79 9.88 9.23 7.73 5.16-1.86 10.46-5.73 15.91-11.6.57-5.45 1.07-9.53 1.5-12.26-2.29 0-4.65.22-7.09.65-2.3.29-5.09.93-8.38 1.93-3.15.86-5.8 2.51-7.95 4.95-2.01 2.3-3.08 5.16-3.23 8.6Z" fill="#FDDFF5"/><path d="m289.07 107.8.86 5.16c-.86-.43-2.08-1-3.66-1.72-1.57-.86-4.58-2.08-9.02-3.65a62.24 62.24 0 0 0-12.26-3.23c-3.87-.71-8.1-.78-12.68-.21-4.44.57-8.1 2.15-10.96 4.73 1.58 2.43 3.8 5.8 6.66 10.1 3.01 4.16 5.38 7.6 7.1 10.32 1.86 2.58 4 5.88 6.44 9.89a81.54 81.54 0 0 1 5.8 9.89 94.65 94.65 0 0 1 3.88 9.02c1.43 3.3 2.15 6.24 2.15 8.82.14 2.43-.07 4.94-.65 7.52a14.3 14.3 0 0 1-3.44 7.1 25.45 25.45 0 0 1-6.88 5.8c-10.17 4.87-18.77 6.52-25.79 4.94h-.22c-.43 0-.71-.07-.85-.21a23 23 0 0 1-5.38-1.5c-2-.58-4.51-1.8-7.52-3.66a33.79 33.79 0 0 1-8.17-7.31 34.48 34.48 0 0 1-6.02-11.6c0-.3-.07-.58-.21-.87v-.86l-.22-.43v-.43l-.21-.86-.22-.64v-.86a5.6 5.6 0 0 1-.21-1.72 35.03 35.03 0 0 1-.65-6.88c0-5.16.58-9.96 1.72-14.4a71.33 71.33 0 0 1 5.6-13.55c0-.14.06-.21.2-.21l.22-.43c-2.3-3.15-4.66-6.6-7.1-10.32-4-6.3-6.8-12.1-8.38-17.41-1.43-5.45-1.79-9.96-1.07-13.54a30.84 30.84 0 0 1 4.08-9.68 22.4 22.4 0 0 1 7.1-6.66 87.76 87.76 0 0 1 7.52-4.3 24.83 24.83 0 0 1 6.23-2.15l2.58-.64c-3.72 9.02.07 22.64 11.4 40.84a35.8 35.8 0 0 1 14.4-4.3c5.3-.57 10.03-.36 14.18.64 4.3 1 8.24 2.23 11.83 3.66a49.86 49.86 0 0 1 8.6 4.08l3.22 1.72Zm-66.2 64.92a31.16 31.16 0 0 0 5.8 4.73l1.29.65c4.87 1.72 7.88.71 9.03-3.01 1.14-3.87.93-8.03-.65-12.47a46.67 46.67 0 0 0-5.59-12.04c-2.3-3.44-5.8-8.31-10.53-14.62-.72-.86-1.22-1.5-1.5-1.93a41.07 41.07 0 0 0-2.8 8.38 49.07 49.07 0 0 0-1.07 11.83l.64 5.58c.14.43.29 1 .43 1.72a40.55 40.55 0 0 0 .86 3.44c.72 2.73 2.08 5.3 4.08 7.74Z" fill="#FDDFF5"/><path d="m403.7 98.34 4.3 2.58-36.97 46.87c3.73 15.62 6.02 29.66 6.88 42.13.86 12.47.64 22.07-.65 28.8-1.14 6.88-3 12.69-5.59 17.41-2.58 4.88-4.8 8.1-6.66 9.68a17.63 17.63 0 0 1-5.16 3.22c-2.15 1-4.73 1.65-7.74 1.94-5.59.43-10.1-3.37-13.54-11.4-3.3-8.02-5.37-18.2-6.23-30.52-.86-12.33-1.5-25.72-1.94-40.2-.28-14.47-.14-27.94.43-40.41-7.73 21.93-19.56 32.6-35.46 32.03-6.45-.29-11.32-2.94-14.62-7.96-3.15-5.01-4.87-11.17-5.16-18.48-.14-7.45.15-14.83.86-22.14.72-7.31 1.5-14.12 2.37-20.42 1-6.31 1.29-10.18.86-11.61.43-.15 1-.22 1.71-.22.87-.14 2.37-.21 4.52-.21a29.2 29.2 0 0 1 6.23.21c2 .15 4.16.65 6.45 1.5 2.3.72 4.23 1.8 5.8 3.23 1.58 1.3 2.73 3.23 3.44 5.8.86 2.44 1.08 5.38.65 8.82-3.73 26.23-3.94 40.7-.65 43.42 2.01 1.58 5.3 0 9.9-4.73 8.02-8.17 12.03-21.85 12.03-41.05l-.43-8.6c.57-.15 1.29-.29 2.15-.43.86-.29 2.5-.5 4.94-.65 2.44-.28 4.8-.36 7.1-.21 2.29.14 4.8.79 7.52 1.93 2.72 1 5.01 2.5 6.88 4.52 2 2 3.65 4.94 4.94 8.8 1.43 3.73 2.08 8.25 1.94 13.55 0 2.58-.08 7.17-.22 13.76v15.48A591.88 591.88 0 0 0 385 121.56a560.6 560.6 0 0 0 14.4-17.41l4.3-5.8ZM366.73 214a87.75 87.75 0 0 0 4.08-28.37c0-10.03-.64-17.7-1.93-23a149 149 0 0 0-4.3-14.62c-.29 29.1.43 51.09 2.15 66Z" fill="#FDDFF5"/></svg>