<svg width="1216" height="392" fill="#050509" xmlns="http://www.w3.org/2000/svg"><path d="m1069.44 356.96-2.07-3.1c.13-1 2.21-2.15-.39-3.02-.26-.09.07-1.33.13-2.04.83.07 1.86-.1 2.45.23 3.76 2.12 3.64 6.4-.12 7.93Zm60-8.03-.13-.13c-1.07 1.82-2.11 3.66-3.3 5.43-.07.1-1.84-.3-1.97-.67-.45-1.3 3.35-4.43 5.4-4.63Z"/><path d="M1177.16 360.14c-1.19-4.75-2.11-9.4-3.57-13.86-.85-2.58-2.9-4.2-5.9-2.57a245.97 245.97 0 0 0-8.79 5.08c-.14.08.13.8.17 1.22.07.8.37 1.68.14 2.37-1.4 4.13-3.55 8.1-4.28 12.33-1.69 9.84.41 16.9 13.02 16.34.38-.02.78-.1 1.13-.03 2.18.52 3.37-.48 3.84-2.52 1.41-6.05 2.8-12.1 4.24-18.36Zm-23.96-19.37-.83-.8c-3.77 3.31-8.01 6.23-11.21 10.03-9.19 10.9-17.19 22.57-20.13 36.94-1.51 7.4-1.77 14.84 4.24 20.3 5.81 5.26 13.04 4.43 19.97 2.13 8.71-2.89 15-8.96 20.24-16.23 3.16-4.38 3.07-4.45-2.22-5.78-12.37-3.12-19.29-11.05-19.03-22.76a36.93 36.93 0 0 1 5.86-18.85l3.11-4.98Zm-83.94 17.26c-.84 4.94-1.8 9.87-2.46 14.83a209.8 209.8 0 0 0-1.6 16c-.28 4.84-.25 9.7-.06 14.54.07 1.9 1.15 3.75 1.37 5.67.25 2.2-.24 4.5.14 6.68.44 2.48 1.3 4.92 2.29 7.25 4.93 11.63 10.47 22.92 21.1 30.52 15.23 10.89 31.98 12.85 49.37 6.56 17.19-6.22 29.96-18.58 41.47-32.29a112.32 112.32 0 0 0 22.59-43.4 89.15 89.15 0 0 0 2.86-28.77c-.5-8.18-3.66-16.54-11.2-21.8-6.87-4.8-14.6-4.34-22.39-3.44-1.33.15-2.77-.34-4.04-.04a9.16 9.16 0 0 0-4.04 1.96c-.97.9-1.15 2.25 1.03 2.31 8.91.26 18.26 10.2 18.98 20.3.37 5.16 1.38 10.22-.45 15.41-.51 1.46.78 3.68 1.6 5.37.15.3 2.04-.23 3.28-.4.74 3.4-1.39 6.15-3.69 7.76-5.13 3.6-7.34 9.12-10.47 14.01-5.35 8.36-11.51 15.73-21.05 19.48-15.59 6.13-35.83.34-42.69-16.33a29.37 29.37 0 0 1-.15-21.85c2.63-6.98 6.14-13.63 9.36-20.37.62-1.29 1.54-3 3.26-.79.15.19 1.13.07 1.36-.2a771.23 771.23 0 0 0 15.99-20.24l-12.88 11.93.13.14c.49-1.4.64-3.1 1.52-4.17 8.98-10.88 19.54-19.5 33.58-23.01 11.07-2.77 21.41-1.48 31.5 4.34 8.8 5.07 15.06 11.92 18.44 21.36 1.69 4.7 2 9.62 2.19 14.71.21 5.3.56 10.56-.14 15.8a102.27 102.27 0 0 1-20.76 49.82c-3.65 4.73-6.9 9.83-10.98 14.14-4.12 4.34-9 7.97-13.65 11.79-2.87 2.34-5.89 4.5-8.9 6.65-17.72 12.6-36.98 13.38-57 7.12-20.3-6.36-33.69-19.97-41.3-39.71a99.44 99.44 0 0 1-5.38-52.75c1.38-8.36 3.99-16.52 6.25-25.62l3.78 5.33 1.84 3.4Zm29.1-57.74-.83-.87-6.46 7.38.72.66 6.57-7.17Zm-24.72 44.58-1.92-3.18c-.22.9-.32 1.84-.69 2.67-.28.64-.89 1.13-1.28 1.6-4.02-3.3-1.71-6.29-.13-9.54 10.84-22.22 26.51-40.16 46.27-54.36 10.98-7.88 22.83-13.71 36.89-11.64 2.63.4 5.2 1.36 7.74 2.25.53.18.8 1.17 1.19 1.78-.78.2-1.58.63-2.34.57-3.32-.24-6.63-.83-9.95-.9-8.56-.21-15.54 4.07-22.28 8.74-5.72 3.96-12.04 7.45-16.7 12.49-8.79 9.5-16.57 19.96-24.82 29.98-.64.78-1.73 1.14-2.56 1.78-.4.31-.79.77-.95 1.24-.57 1.7-.76 3.6-1.6 5.13-2.07 3.77-4.43 7.39-6.87 11.4Zm68.97-161.41-.4 1.63 8.75 2.9.5-1.56-8.85-2.97Zm-23.63-35.47-1.1 1.03 11.22 12.32 1.25-1.16-11.37-12.19Zm16.35-42.54-1.03 1c2.42 7.95 9.58 11.26 15.5 15.79l.87-.85-15.34-15.94Zm-29.45 41.96c2.81 8.28 14.97 20.47 23.02 23.75l-23.02-23.75Zm27.38-117.82c6.34-4.75 13.76-7.22 21.96-7.69 5.84-.33 10.6 1.38 13.37 6.7 2.37 4.52 3.58 9.17-.39 13.73-1.02 1.16-.99 3.2-1.89 4.53-.65.98-.78 4.73-3.4 1.4-.61.54-1.72 1.04-1.75 1.6-.37 6.05-4.24 9.67-9.97 10.38-3.63.44-7.42 1.7-10.5 3.62-1.71 1.07-2.99 4.29-2.93 6.5.26 10.2 4.26 19.07 11.24 26.47 18.83 20 40.42 35.29 68.8 37.44 8.69.66 17.53-.82 26.3-1.27 4.31-.23 8.63-.63 12.91-.4 4.67.25 7.97 2.86 9.9 7.24 2.5 5.64 1.93 7.52-3.76 9.85-2.25.91-3.29 1.69-2.05 4.36.45.98-.48 3.19-1.45 4.15-9.12 9.02-20.14 15.3-31.89 19.94-12.31 4.87-24.86 9.47-37.69 12.62-12.49 3.05-25.47 5.18-38.34 1.3-12.58-3.79-23.45-10.6-32.95-19.59-13.61-12.9-24.35-27.67-28.84-46.22-.83-3.42-.6-7.14-.57-10.72.05-4.72-.28-9.58.75-14.11 1.68-7.34.9-15.1 6.05-21.94 3.36-4.47 3.33-11.33 5.71-16.73 6.42-14.61 16.71-25.8 31.38-33.16ZM-76.91 628.8l.05-.26h-8.15v.26h8.1Zm6.9-1.88c3.66.65 5.4.32 6.02-1.4-1.67 2.69-3.91.18-6.02 1.4ZM28.12 456.2a36.42 36.42 0 0 0 9.83-5.31l-9.83 5.31Zm106.62-86.65c.43.53.53.73.6.72a44.7 44.7 0 0 1 9.46-.3c.28.02.57-.08.62-.4.07-.48-.3-.6-.64-.58-3.23.16-6.47.36-10.04.56ZM94.58 678.5c-9.19.26-18.07-1.77-26.99-3.55a64.32 64.32 0 0 0 27 3.55ZM-107.3 479.08c-7.7 4.13-14.9 8.9-20.16 16.07a112.68 112.68 0 0 1 20.16-16.07ZM-.07 457.15a98.3 98.3 0 0 0 27.14-10.74A298.35 298.35 0 0 1-.07 457.15Zm146.93-87.52c8.5.79 16.67 2.92 24.61 6.01a51.01 51.01 0 0 0-24.6-6.01ZM-30.89 624.47a95.19 95.19 0 0 0-22.51-3.25c-9.13-.29-18.26-.12-27.38.15-4.93.15-9.86.09-14.8.25-1.2.03-2.44-.89-3.75.12 3.53.57 6.97.63 10.37.59 10.83-.15 21.67-.65 32.5-.42 8.59.19 17.14.86 25.57 2.56ZM152.24 376.7l-.08-.3c-1.99-.09-3.98-.32-5.96-.26-6.45.19-12.9.15-19.07 2.78-1.62.69-3.7.52-5.42 1.43-2.37 1.25-5.08 1.38-7.53 2.68-3.79 2-7.66 3.9-11.6 5.59-2.62 1.12-4.81 2.87-7.2 4.3-1.86 1.11-3.52 2.65-5.26 3.98a72.6 72.6 0 0 0-9.12 8.16 226.78 226.78 0 0 0-8.16 9.34c-2.62 3.14-5.1 6.39-7.79 9.47a111.07 111.07 0 0 0-8.8 11.34c-1.33 1.98-3.28 3.25-4.66 5.17-1.15 1.6-2.36 3.37-3.95 4.73a74.65 74.65 0 0 1-8.92 6.65c-10.54 6.59-21.97 11.12-33.85 14.58-3.66 1.07-7.29 2.4-11.22 2.3a9.13 9.13 0 0 0-3.62.44 22.3 22.3 0 0 1-6.74 1.54c-4.86.39-9.63 1.42-14.48 1.93a400.8 400.8 0 0 1-23.6 1.93c-4.8.22-9.52 1.1-14.35 1.2-3.08.07-6.15 1.2-9.22 1.89-14.49 3.29-27.69 9.17-38.35 19.8-1.35 1.35-3.27 1.26-4.4 2.81a466.94 466.94 0 0 1-15.9 20.58c-5.8 7.03-8.93 15.64-13.47 23.41-.92 1.59-.85 1.62-2.75 2.45-.19.09-.27.45-.38.7-2.24 4.87-4.9 9.55-6.7 14.63-1.13 3.17-2.53 6.3-2.58 9.73-.18 11.98 4.77 21.58 13.85 29.13 5.12 4.26 11.02 7.26 17.06 10a96.27 96.27 0 0 0 39.4 8.67c13.68.1 27.34-.76 41.04-.19 13.54.57 26.4 3.5 38.66 9.22 14.7 6.86 28.35 15.55 41.93 24.35 9.3 6.04 18.81 11.73 29.08 16.01 14.44 6.03 29.49 8.04 45.06 6.81 9.42-.73 18.75-2.07 27.95-4.09 25.24-5.53 49.19-14.5 71.52-27.63 10.18-5.99 19.59-12.91 27.28-21.98 5.2-6.11 9.91-12.53 12.99-20 1.8-4.4 2.95-8.9 2.25-13.7a49.35 49.35 0 0 0-5.62-16.75c-5.82-10.59-13.93-19.45-21.76-28.52-7.68-8.9-15.18-17.87-19.53-29.09a71.74 71.74 0 0 1-4.77-19.94c-1.5-17.55-.33-35.08.72-52.6.5-8.1 1.69-16.16 1.08-24.3-.4-5.47-1.37-10.8-3.86-15.74a41.9 41.9 0 0 0-20.93-19.27c-.25-.1-.54-.2-.73-.38-2.22-2.2-5.14-2.44-8-2.86-.74-.11-1.71-.08-2.15-.52-1.57-1.62-3.75-.3-5.56-1.35-.8-.46-2.64.12-4.03-.11l2.2-.15Zm-50.65 309.8 1.17.27c-7.15.6-14.27.46-21.34-.63a103.19 103.19 0 0 1-28.81-9.05 211.13 211.13 0 0 1-25.72-14.84c-12.05-8-24.2-15.84-37.06-22.51a90.7 90.7 0 0 0-33.99-10.1c-4.72-.43-9.45-.77-14.3-.84.54-.9 1.3-.18 2.17-.68-1.43 0-2.83-.42-3.55.1-1 .72-2.1.88-2.8.5-2.98-1.58-6.04-.4-9.03-.47-2.37-.07-4.67 1.06-7.12.93-3.12-.17-6.23.4-9.38-.56-1.4-.43-3.2.02-4.83.46-1.51.4-3.48.54-4.81-.1-2.24-1.09-4.51-.38-6.74-.78-5.49-.99-10.9-2.13-16.22-3.76a112.93 112.93 0 0 1-21.68-9.48c-11.5-6.38-18.9-16.21-23.88-28.08-4.97-11.9-5.18-23.79.32-35.63 2.9-6.24 5.78-12.48 9.22-18.44a50.5 50.5 0 0 1 7.91-10.51c2.78-2.79 4.47-6.24 6.25-9.63 4.68-8.96 10.2-17.3 17.5-24.36 7.38-7.12 16.05-12.27 25.48-16.14 12.54-5.16 25.74-7.3 39.16-8.6 19.3-1.88 38.63-3.7 57.38-9.12 13.2-3.81 25.97-8.68 37.57-16.25 5.13-3.35 9.3-7.7 13.3-12.3 7.03-8.1 13.58-16.62 21-24.38 5.34-5.57 10.84-10.98 17.27-15.32 11.26-7.6 23.28-13.67 36.63-16.58 14.3-3.12 28.62-3.68 42.71 1.3 13.42 4.75 24.32 12.56 30.56 25.76 3.42 7.22 4.5 15.01 4.54 22.92.07 14.52-1.31 29.01-1.19 43.54.09 9.84-.22 19.7 1.34 29.47 1.9 11.95 7.21 22.28 14.77 31.6 5.08 6.25 10.44 12.27 15.64 18.43 6.23 7.39 11.98 15.1 16.12 23.9 7.28 15.48 6.05 30.6-1.9 45.42a97.1 97.1 0 0 1-17.66 23.23c-2.97 2.93-6.15 5.61-9.28 8.33a57.23 57.23 0 0 1-9.27 6.55c-2.63 1.5-4.94 3.54-7.59 5.1a250.22 250.22 0 0 1-29.74 15.1 249.29 249.29 0 0 1-18.77 6.83 162.16 162.16 0 0 1-15.44 4.22c-4.3.97-8.63 2.06-12.98 2.86-2.33.44-4.79.02-7.2.39-4.8.73-9.61 1.35-14.48 1.37-.49 0-.98.04-1.23.57-3.09-.58-6.16-.1-9.23-.02 3.07.27 6.14.4 9.2.01ZM-93.47 39.86c-.17-.65-.5-1-1.13-.89-1.06.2-1.65.86-1.71 1.96-.04.6.32.72.82.63 1.03-.18 1.5-.99 2.02-1.7Zm-5.44 193.37c1.05-2.95 1.73-6 2.62-9a16.07 16.07 0 0 0-2.62 9Zm7.79-199.5c4.38-4.71 8.95-9.25 13.6-13.72-5.65 3.49-10 8.23-13.6 13.73ZM-4.78-13c9.05-4.1 16.57-10.22 23.75-16.83C11.47-24.2 4-18.58-4-13.67c-.29.18-.52.44-.78.66ZM98.67 214.3c-2.63 8.99-7.85 16.6-10.48 25.32 3.3-2.33 11.84-22.39 10.48-25.32Zm-106.1 89.3c1.77 0 3.55.16 5.3-.02 7.15-.74 14.2-2.1 21.26-3.43 10.47-1.98 20.13-6.43 30.03-10.08 4.57-1.69 8.95-3.99 12.04-8.04 10.24-13.4 18.48-27.83 24.33-43.75 4.67-12.7 10.74-24.9 15.73-37.5a106.04 106.04 0 0 0 6.85-28.08c.85-8.05.38-16.13.44-24.2.04-6.64-.08-13.28.34-19.94.3-4.69-.76-9.57-1.16-14.38-.7-8.46-.58-16.82 2-25.02a104.26 104.26 0 0 1 9.57-21.6c8.09-13.79 18.22-26.07 28.85-37.94 5.71-6.37 11.31-12.8 16.03-19.94a73.94 73.94 0 0 0 12.5-43.36c-.28-12.28-5.67-21.82-16.26-28.3-18.42-11.26-37.87-14.87-58.74-8-16.17 5.3-30.57 13.74-43.74 24.46-8.2 6.7-15.7 14.18-23.9 20.88C22.9-15.5 11.55-6.64-1.59-.43c-10.16 4.8-20.85 8.2-31.6 11.37a118.85 118.85 0 0 0-26.2 11.19c-9.54 5.55-17.6 12.65-23.17 22.32-.66 1.15-.69 1.14-2.2 1.17-.46 0-.48.39-.64.7a20.08 20.08 0 0 0-2.34 8.83c-.03 2.13.8 5.17.07 6.2-2.34 3.28-.58 6.46-.15 9.23.53 3.44 1.43 7 2.49 10.44 2.64 8.64 5.67 17.12 9.97 25.05 3.95 7.28 7.77 14.62 8.9 22.87.33 2.39 3.21 5.12.14 7.67 0 0 .22.23.3.38a16.34 16.34 0 0 1 2.59 8.27c.12 2.78 1.11 5.39 1.23 8.14.2 4.44 1.84 8.76.9 13.33-.44 2.07-.34 4.28-.34 6.42-.01 4.78-1.63 9.33-1.88 14.12-.1 1.8-1.66 4.08-2.53 6.13-3.1 7.36-8.58 12.97-13.4 19.12-4.53 5.78-9.62 11.45-10.1 19.37-.2 3.2-1.14 6.57.5 9.57 4.44 8.06 6.78 17.2 12.86 24.43 4.74 5.63 7.92 12.44 13.7 17.33 5.64 4.78 11.03 9.93 17.55 13.46 3.2 1.74 6.45 3.5 10.2 4.34 9.03 2 18.12 2.71 27.31 2.58ZM67.3-68.47c.5-.16 1.04-.23 1.49-.47 11.27-6 23.01-10.74 35.47-13.66.45-.1 1.07-.09 1.34-.78-.84.12-1.64.22-2.42.35-10.35 1.8-19.93 5.75-29.25 10.42-2.32 1.17-4.85 2.07-6.58 4.19-2.78.2-4.48 2.54-6.88 3.5a.96.96 0 0 0-.23 1.58c.21.22.5.36.64.1 1.4-2.66 4.79-2.87 6.42-5.23ZM35.8-27.9c3.23-2 5.8-4.75 8.35-7.5-2.76 2.53-6.09 4.42-8.3 7.55-2.35.84-3.86 2.75-5.54 4.43a17.2 17.2 0 0 0 5.5-4.48Zm71.15 256.48c-1.88 5.12-3.67 10.2-7.46 14.42a37.89 37.89 0 0 0-5.62 8.7c-.55 1.13-1.55 1.46-2.13 2.47-1.33 2.34-1.82 4.98-3.53 7.26-3.86 5.12-7.67 10.27-11.7 15.27-2.65 3.3-5.13 6.78-7.9 10-5.14 6-11.7 10.04-19 12.9-8.41 3.32-16.75 6.92-25.36 9.67-16.04 5.12-32.41 7.19-49.36 5.16-10.2-1.21-20.15-3.14-28.9-8.36-13.99-8.33-25.52-19.44-33.67-33.76-.3-.54-.7-1.03-1.06-1.53-3.33-4.53-6.34-9.2-7.87-14.72a48.34 48.34 0 0 0-3.1-7.92c-3.67-7.63-2.97-15.32-.01-22.98 2.98-7.7 7.95-14.25 13.51-20.05 7.43-7.76 10.92-16.75 12.03-27.14 1.03-9.66-.66-19.02-2.39-28.42-1.05-5.76-2-11.55-3.13-17.3-1.83-9.27-6.1-17.53-10.47-25.81a134.9 134.9 0 0 1-12.7-34.1c-2.2-10.03-1.11-19.86 2.3-29.3 1.97-5.45 4.52-10.79 8.66-15.2 4.03-4.29 8.1-8.49 12.9-11.92C-67.43 7.68-54.7 1.9-41.2-2.3c15.42-4.8 30.43-10.48 43.6-20.16a332.8 332.8 0 0 0 27.97-23.1c12.15-11.15 24.87-21.52 39.57-29.2C84.19-82.2 99.08-88 115.37-87.85c24.51.23 45.5 8.89 60.38 29.06 11 14.91 12.78 32 9.19 49.85-.65 3.22-1.3 6.45-2.06 9.64a64.3 64.3 0 0 1-10.19 22.7c-2.86 4.05-5.94 7.91-8.8 11.9-3.37 4.7-7.11 9-10.98 13.18a145.64 145.64 0 0 0-12.22 15.45c-1.32 1.88-3.4 3.02-4.67 5.04-4.81 7.64-9.8 15.17-13.24 23.57-1.85 4.53-3.74 8.96-4.1 14.07-.23 3.13-.04 6.26-.31 9.37-.41 4.67.4 9.26 1.13 13.82.29 1.75-1.83 3.17-1.38 3.3 2.48.65.74 2.04.79 3.05.03.6-.35 1.25-.21 1.8 2.3 9.32 1.3 18.83 1.5 28.24.18 8.74.94 17.64-1.42 26.2-.86 3.13-1.5 6.33-2.4 9.45-1.1 3.75-3.1 7.26-3.44 11.16-.47 5.5-3.25 10.12-5.26 15.04-.1.27-.51.42-.79.63.26-2.93 2.66-5.11 2.74-8.12-2.05 4.36-4.62 8.5-5.68 13.32l3-5.3Z"/><path d="M16.65 14.88c5.75-3.37 10.4-8 14.76-12.95-4.9 4.34-9.72 8.77-14.76 12.95Zm33.2-28.85-.57-.6C44.25-9.99 38.79-5.86 34.43-.52l15.42-13.46ZM-65.83 229.64c-2.95 2.93-4.3 12-2.36 13.88.55-4.6.57-9.37 2.36-13.88Zm22.32-182.9C-50.42 51.45-56.6 56.83-59.59 65A110.9 110.9 0 0 1-43.5 46.75ZM59.3-22.3C70.87-31.37 83-39.4 96.58-45.12 87.67-43.94 63-27.64 59.3-22.31Zm-4.06 216.14c-2.77 5.52-4.48 11.43-6.1 17.33-1.67 6.03-3.92 11.86-5.87 17.78-1.84 5.6-4.5 10.93-6.8 16.38 9.84-15.9 13.52-33.97 18.77-51.5Zm-98.98-88.63c.05-.34-.03-.83.16-.99.35-.28.54.15.77.41.66.72.35 1.82 1.25 2.54a11.84 11.84 0 0 1 3.65 5.14c.71 1.81 2.65 3.13 3.96 4.73.3.35.67.95.29 1.46-.7.94-.14 1.24.63 1.46.96.27 1.47 1 1.8 1.84 1.18 3.01 2.74 5.87 3.1 9.2.22 2.14.56 4.7 1.36 6.26 2.2 4.36 2.29 8.95 2.08 13.31-.2 3.95-.95 8-.77 11.96.16 3.41-1.56 6.2-2.04 9.39-.58 3.85-3.25 7.22-3.78 11.22-.32 2.46-2.92 4.33-2.9 6.28.05 4.5-3.94 6.93-4.64 11-.23 1.28-.76 3.22-1.88 4.45-2.31 2.52-2.99 6.01-5.38 8.53-3 3.16-4.57 7.4-7.78 10.54-1.93 1.9-3.44 4.33-5.12 6.5-1.53 1.97-1.4 5.01-1.9 7.61-.73 3.76 1.42 6.7 2.4 10 2.33 7.9 7.18 14.42 12.86 19.69C-34.54 278-21.26 281.39-6.5 276c1.5-.55 3-1.1 4.5-1.6 8.88-2.98 16.54-7.9 23.65-13.95 9.32-7.9 13.73-18.92 18.89-29.36 1.8-3.65 2.5-8.12 3.86-12.17.94-2.78 1.94-5.55 2.58-8.4.65-2.87 1.53-5.66 2.4-8.45.85-2.8 2.06-5.5 2.74-8.33.6-2.51 1.84-4.76 2.36-7.37.7-3.5 1.84-6.97 2.78-10.45a263.76 263.76 0 0 0 7.5-38.1c.84-7.14 1.46-14.36 2.94-21.38 4.78-22.7 15.24-42.76 29.64-60.78 6.43-8.06 13.26-15.8 20-23.62 9.64-11.18 14.88-24.5 18.82-38.46A39.94 39.94 0 0 0 135-32.06c-1.82-4.78-4.52-8.77-10.23-9.7-5.32-.89-10.51.37-15.54 1.3-3 .56-6.25 1.98-9.25 3.43-7.2 3.48-14.5 6.77-20.76 11.84-1.5 1.21-3.35 1.37-4.84 2.58-1.9 1.54-3.24 3.62-5.32 5-1.2.8-2.62.88-3.72 1.9C58.36-9.27 50.47-3.84 44.17 3.4c-2.19 2.51-4.9 4.57-7.28 6.92A86.33 86.33 0 0 1 5.8 30.04a180.82 180.82 0 0 0-40.35 21.02c-4.8 3.3-9.95 6.43-13.39 11.46-2 2.92-4.56 5.9-4.87 9.23-.46 4.95-.97 10.11.72 15.04.4 1.19-.32 2.84-.07 3.25.97 1.56 1.56 3.32 2.62 4.82 2.28 3.23 5.42 6 5.8 10.34Zm-2.73 95.35c.76-.29.95-1.05 1.2-1.65 2.5-5.77 5.18-11.46 6.85-17.53.97-3.56 2.68-6.95 2.63-10.76-1.72 6.74-4.72 13.03-6.85 19.62-1.13 3.5-3.24 6.65-3.77 10.37-3.04 4-4.54 8.83-7 13.14 2.6-4.25 5.66-8.26 6.94-13.2ZM66.4 184.52c-.1-.65 0-1.23-.65-1.56-.11 1-.91 1.96.4 2.83.77.51.05 1.34-.14 1.95-1.77 5.53-3.5 11.08-5.2 16.62-1.63 5.27-3.58 10.47-4.8 15.87-.6 2.7-1.92 5.15-2.92 7.7a9.65 9.65 0 0 0-.84 3.57c0 2.6-.18 2.67-2.58 1.3-.2-.11-.5-.04-.83-.06 0 .29-.09.57.01.74 1.53 2.55 1.2 5.6-.59 8.04a14.85 14.85 0 0 0-2.78 5.37c-.77 3.2-2.96 5.7-5.5 7.8-.23.2-.76.11-.78.56-.14 2.63-2.26 3.9-3.86 5.46-1.53 1.5-3.4 2.59-4.84 4.23a31.64 31.64 0 0 1-8.58 7.02c-1.55.87-3.13 2.51-4.86 3.19-6.38 2.5-12.65 5.3-19.12 7.64-10.93 3.94-21.69 2.78-32.54.15a47.97 47.97 0 0 1-17.42-8.32c-2.02-1.5-3.65-3.33-5.3-5.18a55.92 55.92 0 0 1-13-24.39 22.99 22.99 0 0 1 2.42-16.97c.78-1.4 1.38-3.23 4-2.91 1.14.14 2.27-1.99 3.16-3.34a159.3 159.3 0 0 0 15.46-30.3c4.31-11.2 8.08-22.52 9.54-34.54 1.05-8.72-.13-17.1-2.25-25.52-1.7-6.74-5.23-12.38-9.25-17.87-3-4.11-5.7-8.46-8.68-12.6-1.05-1.47.28-2.4.6-4.3-1.63 2.22-1.9 1.77-2.6-.05-.69-1.82-1.96-3.52-2.96-5.28a25.02 25.02 0 0 1-3.41-12.14c-.02-1.6-.86-2.95-.64-4.47.27-1.92.4-3.9.95-5.74.96-3.26 1.56-6.7 4.75-8.93.88-.6.36-2.5 1.36-3.58 4.29-4.61 8.33-9.52 13.7-12.93A262.07 262.07 0 0 1-4.06 22.7C5.7 18.64 15.01 13.5 22.7 5.96a537.4 537.4 0 0 1 35.44-31.6c11.6-9.54 24.03-17.72 38.28-22.83a68.18 68.18 0 0 1 18.46-3.86c9.06-.63 15.83 3.49 21.1 10.33 10.1 13.15 12.46 27.94 8.58 43.84a119.24 119.24 0 0 1-11.89 30.56c-2.55 4.5-4.97 9.07-9.18 12.5-2 1.63-3.08 4.4-4.62 6.61-5.26 7.6-11.9 14.1-17.14 21.74-2.33 3.4-4.3 6.98-6.5 10.44-4.81 7.56-8.1 15.9-11.7 24.02-3.17 7.14-4.32 14.93-5.46 22.65a1116.2 1116.2 0 0 1-3.95 24.93c-.82 4.8-1.39 9.74-3.1 14.23-1.18 3.12-1.22 6.44-2.64 9.46-.81 1.73.06 4.1-1.97 5.54Z"/><path d="m36.92 150.38.8.42c.86-2.27 3.29-3.89 2.17-6.98-1 2.18-1.98 4.37-2.97 6.56Zm-50.97-85.36c-5.55 1.04-11.25 6.26-10.67 9.8 2.7-4.38 6.59-7.2 10.67-9.8Zm47.03-33.55-.49-.65-22.18 19.23.47.55 22.2-19.13Zm21.35-20.4c6.96-5.14 14.1-9.97 21.78-14A458.28 458.28 0 0 1 99.7-14.46C83.51-7.86 67.52-.89 54.33 11.07ZM4.38 218.67c1.87-3.05 4.14-5.74 5.66-9.07 3.46-7.55 7.47-14.84 10.75-22.47 4.9-11.38 10.06-22.64 16.1-33.47.38-.67.73-1.36-.27-2.34-12.02 22.03-20.57 45.44-32.24 67.35ZM55.04 22.82c-3.14 1.4-4.69 4.44-6.94 6.75-2.95 1.72-4.58 4.8-7.21 6.88-4.54 3.58-9.19 7.04-13.43 10.94a119.7 119.7 0 0 1-29.2 19.87c-4 1.93-8.65 2.35-12.06 5.68-2.08 2.04-4.62 3.7-4.8 6.89-.28 4.73.46 9.3 2.74 13.56 4.21 7.86 9.9 14.74 14.86 22.1 5.16 7.65 9.77 15.43 10.94 24.95 1.12 9.12.45 18.15-.09 27.2-.1 1.83-1.35 3.57-1.41 5.7-.1 2.96-.13 6.25-2.01 8.68-3.4 4.38-4.52 9.73-6.74 14.6-.73 1.59-.29 3.94-1.69 5.16-1.87 1.63-2.37 3.78-3.26 5.83a7.2 7.2 0 0 1-1.45 2.2c-2.03 2.02-3.3 4.68-4.71 6.98a54.22 54.22 0 0 1-9.74 12.04c-1.12 1.02-2.9.9-3.57 2.49-.67 1.59-1.9 2.77-3.2 3.86-1.33 1.12-2 2.58-2.54 4.3.98.27 1.6-.12 2.24-.36 4.03-1.47 7.47-4.08 11.36-5.84A43.95 43.95 0 0 0 .26 219.65c3.41-4.5 5.73-9.6 8.17-14.62 4.83-9.96 9.75-19.89 14.28-29.98a376.23 376.23 0 0 1 8-16.77 471.38 471.38 0 0 0 12.88-28 128.74 128.74 0 0 0 7.7-23.41c1.54-7.05 4.21-13.73 6.83-20.43C63.1 73.7 68.17 61 76.38 49.85 83.76 39.84 91.23 29.9 97.9 19.37c4.97-7.86 9.3-15.98 11.41-25.12.23-.98.96-2.26.12-2.98-.7-.61-1.85.2-2.74.54-9.35 3.7-18.35 8.1-27.06 13.15-1.58.9-2.97 2.97-5.38 1.96-.34-.14-1.05.34-.84.74.73 1.45-.69 1.43-1.23 1.79a331.5 331.5 0 0 0-10.15 6.97c-2.61 1.87-4.43 4.53-7 6.4Zm-69.02 184.6c.76-.05.97-.66 1.25-1.2 3.5-6.88 6.1-14.16 9.29-21.18 1.52-3.36 1-7.4 3.56-10.4.44-.51.3-1.02-.3-1.28-.81-.34-1.24.2-1.33.85-.35 2.55-1.57 4.8-2.42 7.18-2.19 6.13-4.06 12.36-6.99 18.24-1.21 2.44-2.56 5.02-3 7.85a35.09 35.09 0 0 0-4.9 9.42c1.5-3.21 4.41-5.71 4.84-9.48ZM81 58.33c.95 1.6.63 2.62 0 4.17-1.56 3.8-4.74 6.78-5.34 11.01-.21 1.51-1.39 2.66-2.1 3.93-1.83 3.23-2.19 7-3.83 10.15-1.56 3-2.23 6.27-3.82 9.2-.85 1.55-.55 3.48-1.65 4.98-.75 1.02-2.58 7.33-2.8 8.55-.53 3.06-1.15 6.1-1.77 9.15-.1.52-.34 1.06-1.05.94-.74-.11-1.1.22-.81.87 1.05 2.45-.2 4.64-1.14 6.55-2.73 5.58-5.1 11.3-7.5 17.02-.48 1.13-2.68.82-1.9 3.08.4 1.13-.88 3.1-1.77 4.58-.86 1.44-1.44 3.04-2.22 4.53a556.42 556.42 0 0 0-16.07 33.52c-2.78 6.3-6.1 12.34-9.03 18.57-.74 1.58-1.23 3.34-1.73 5.03-.45 1.55-1.12 3.76-3.01 4.73-.35.19-.57.34-.69.7-2.3 7.28-8.51 11.08-14.05 15.34-3.96 3.05-8.8 4.86-13.29 6.96-2.78 1.3-5.34 3.38-8.58 3.84-3.25.46-6.47 1.05-9.77 1.11-3.2.07-6.15-.68-8.8-2.52-1.38-.96-1.59-2.18-.98-3.72 1.5-3.83 3.76-7.03 7.24-9.31 1.33-.87 2.75-1.63 3.64-3.05.64-1.02 1.7.26 2.88-.9 4.17-4.1 6.76-9.07 9.43-14.08 5.53-10.36 9.65-21.32 13.61-32.34 1.72-4.77 2.61-9.75 3.39-14.75.5-3.15.82-6.31 1.04-9.5.1-1.47.69-2.68 2.5-1.78 1.08.53 1.41-.25 1.92-.81.36-.4.29-.85-.06-1.18-.63-.6-1.18.03-1.68.27-2.02.98-2.69.4-2.58-1.82.28-6.12.44-12.23-1.15-18.24-.8-3-1.9-5.86-3.35-8.58-4.22-7.93-9.68-15.09-14.5-22.64-3.54-5.53-7.17-11.06-7.9-17.8-.18-1.58-1.43-3.5.74-4.77.12-.07.23-.3.22-.44-.42-6.17-.23-6.32 3.97-10.65 2.72-2.81 6.04-4.76 9.42-6.32C-1.48 56.19 9.02 47.86 19.3 38.94c12.5-10.85 23.89-22.96 36.88-33.2 14.23-11.2 30.5-18.9 47.78-24.2 9.12-2.8 15.88 4 13.89 13.47a92.86 92.86 0 0 1-10.33 26.7c-5.46 9.67-11.72 18.82-17.78 28.09-1.67 2.54-3.08 5.3-5.1 7.65-1.05 1.21-1.83 2.28-3.64.88Z"/><path d="M55.03 22.82c-1.57 3-4.04 5.1-6.93 6.75 2.25-2.31 3.8-5.35 6.93-6.75ZM305.5 316.1c.1-.38.12-.69.26-.92.61-1 1.3-1.94 1.55-3.11.8-.19.63-1.02.95-1.52 1.73-2.63 3.57-5.19 5.34-7.98l-1.18.16c-.4.57-.22 1.33-.73 1.9-.48.51-1.02.97-1.38 1.6-.16.27-.76.33-.83.58-.42 1.48-1.8 2.36-2.29 3.81-.27.81-1.02 1.44-1.21 2.33-.21.95-1.08 1.63-1.08 2.66 0 .1.05.21.07.32l.53.18Zm70.27-76.15c.18-.2.35-.42.55-.6l.74-.65c.73-.63 1.04-1.54 1.7-2.2 1.07-1.1 1.85-2.4 2.75-3.63 1.38-1.88 2.43-3.98 3.95-5.78.4-.47 1.12-1 .86-1.9-.74.73-1.39 1.48-2.14 2.1-.9.74-1.33 1.88-2.24 2.6-.34 1.44-1.44 2.46-2.2 3.65a35.61 35.61 0 0 1-2.5 3.6 5.56 5.56 0 0 0-1.47 2.8Zm-7.34-4.38c1.26-1.37 2.57-2.48 3.47-3.86 1.43-2.21 3.28-4.06 4.85-6.14.65-.87 1.38-1.74 2.26-2.36.97-.69 1.29-1.98 2.44-2.45a45.2 45.2 0 0 1 5.12-4.9c.38-.31.47-.6.35-1.03-.48-.26-.78.06-1.04.35-.7.77-1.42 1.54-2.16 2.23-.86.79-1.58 1.68-2.4 2.49l-2.47 2.41c-1.86 1.85-3.37 3.98-5.02 6-1.4 1.73-2.8 3.47-4.27 5.15-.48.56-1.07 1.1-1.13 2.1Zm-4.93-6.6c.09-.55.45-.98.8-1.37.56-.6 1-1.42 1.65-1.79.79-.45.87-1.53 1.82-1.7 1.1-1.36 2.15-2.74 3.29-4.04 1.68-1.92 3.32-3.91 5.2-5.64 2.1-1.95 4.3-3.77 6.34-5.8.38-.37.8-.7 1.07-1.48-.89.5-1.62.77-2.15 1.26a93.05 93.05 0 0 0-6.57 6.63c-1.5 1.73-3.13 3.35-4.73 4.97-1.12 1.13-2.28 2.25-3.25 3.47-1.3 1.66-2.72 3.23-4 4.92-.05.08-.01.22-.02.28.08.27.29.21.55.3Zm-60.68 67.29c-1.45.21-1.84 1.81-3.1 2.29-.4.93-1.25 1.5-1.8 2.3-.7 1.03-1.31 2.13-1.93 3.21-.5.88-.58 1.99-.88 3.09 1.3-.66 1.68-1.94 2.55-2.8.87-.88 1.58-1.93 2.27-2.96.7-1.05 1.68-1.83 2.38-2.88.69-1.02 1.3-2.1 2.3-3.08-.58-.1-.79.22-1.06.33-.34.14-.66-.3-.99 0l.26.5Zm31.13 47.92c2.03.68 4.16.24 6.25.4 1.64.13 3.28-.09 4.92 0 1.7.1 3.4 0 5.08.06 1.65.06 3.3-.12 4.95.05 1.06.1 2.17 0 3.46.07-.95-.7-1.87-.31-2.63-.57-.84-.29-1.7.09-2.51-.26-.7-.3-1.54.47-2.33-.26l-.76.56c-.5-.13-.98-.4-1.4-.35-1.14.16-2.29-.02-3.43.03-1.07.05-2.24.07-3.28-.14-1.13-.23-2.3.05-3.37-.46-.24-.12-.43.06-.64.09-.43.06-.9.07-1.3.04-.37-.02-.98.42-1.26-.24-.67.54-1.34-.35-1.95-.04-.86.45-1.65.14-2.44-.06-.87.69-1.9.36-2.9.48.77.81 1.74.17 2.47.53.74.37 1.68-.3 2.27.53l.8-.46Zm36.8-136.27c-1.62 1-2.78 2.48-4.01 3.87-1.24 1.39-2.76 2.56-3.84 4.38.89-.04 1.39-.26 1.76-.85.47-.73.94-1.49 1.56-2.08.5-.47.94-.88 1.26-1.51.3-.58 1.21-.6 1.53-1.28.04-.1.23-.1.28-.2.8-1.4 2.16-2.3 3.2-3.49a5.32 5.32 0 0 1 1.88-1.45c.74-.3 1.13-1.23 2.06-1.24 1.34-1.36 3.25-2.02 4.39-3.62 1.48-.76 2.42-2.27 4-2.88.26-.66 1.25-.71 1.28-1.63-.3.05-.47.3-.71.42-1.02.47-1.82 1.43-3.13 1.27-.27-.04-.8.26-.87.5-.23.8-.72 1.1-1.47 1.12-1.45 1.61-3.56 2.47-4.83 4.3-.37.53-1.04.84-1.43 1.37-.17.22-1.1-.53-.6.5.1.24-.73.34-.9.86-.2.64-.77.93-1.46.91-.07 0-.14.1-.2.15l.25.58Zm79.65 73.38c-.95.4-1.17-.77-1.9-.69-1.06-1.33-2.7-2.1-3.59-3.64-.25-.44-.72-1.03-1.66-.86l1.53 1.7c1.56 1.76 3.53 3.08 5.23 4.68.72.68 1.72 1 2.2 1.98.18.38.8.36 1.2.54.8.36 1.05 1.25 1.94 1.53.73.23 1.38.85 2.01 1.37.6.47 1.22.97 1.83 1.34.68.4 1.26.88 1.87 1.33 1.1.8 2.16 1.65 3.26 2.45 1.58 1.15 2.99 2.52 4.54 3.72 1.05.82 2.05 1.8 2.97 2.82.52.56.5.58 1.67.72l-2.36-2.45.58-.36a44.88 44.88 0 0 1 3.93 4.18 14.06 14.06 0 0 0 4.9 3.23c.47.14.63.72 1.12.69.67-.05.85.72 1.47.79.52.05 1.02.33 1.54.37.63.05.86.72 1.46.8.52.06 1.03.24 1.54.4 1.36.4 2.74.6 4.16.4.11 0 .24.03.34.07 1.34.59 2.88.18 4.2.78.6.28 1.1-.2 1.67.04.6.25 1.24.46 1.87.48.46.02.9.15 1.38.12.5-.02 1.05.13 1.51.35.63.3 1.55-.6 1.95.5.72-.42 1.27-.14 1.75.43.67-.5 1.03.03 1.43.42.34.34.85-.28 1.16.19.19.3.54-.31.76.21.1.25.71.29 1.1.4.33.11.68.2 1.02.29.34.09.67.2 1.02.26 1.76.35 3.25 1.46 5.04 1.76.48.08.93.56 1.33.92.41.37.79.42 1.23.1.37.71 1.04.93 1.74 1.22 1.14.48 2.4.72 3.37 1.58.23.21.66.2 1 .3 1.42.38 2.84.77 4.26 1.13.53.13 1.07.48 1.64.1.3.66.97.56 1.5.74.55.19 1.12.3 1.7.46.56.15 1.14.27 1.7.47.46.16 1.06.05 1.35.65.1.21.37.08.6.04.94-.15 1.7.13 2.05 1.12.45-.43 1.13-.25 1.28 0 .37.6.92.32 1.35.5.51.22 1.23-.17 1.63.39.4.56 1.06.37 1.69.77.12.1-.28.47.1.68.78-.07 1.6-.26 2.28.53.4.46 1.3.1 1.6.84.9.11 1.36 1.02 2.1 1.26.77.25 1.32.9 2.13 1 .45.04.63.45.94.66 2.31 1.62 4.65 3.2 6.9 4.92a69 69 0 0 1 7.88 7.4c.51.52.94 1.15 1.31 1.73 1.28 2 2.84 3.85 3.82 6.02a42.38 42.38 0 0 1 3.43 10.56c.2 1.29.47 2.6.52 3.87.07 1.63.48 3.3.02 4.94-.03.1-.1.24-.06.33.53 1.52-.17 2.9-.44 4.34-.33 1.75-.45 3.54-1.05 5.23.47.76-.34 1.17-.49 1.76-.28 1.2-.63 2.39-.95 3.58l-.63 2.39c-.92.31-.35 1.59-1.25 1.92-.24 1.32-1.32 2.16-1.9 3.25-.6 1.15-1.45 2.05-2.13 3.1-1.52 2.32-3.72 3.99-5.54 6.02-.3.33-1 .39-1.17.74-.36.77-1.37.71-1.68 1.62-.22.67-1.2.83-1.85 1.22-.5.3-.4 1.06-1.08 1.25-.5.14-.9.58-1.39.75-2.1.75-4.14 1.64-6.26 2.34-1.57.51-3.26.64-4.75 1.44-1.08-.14-2 .47-3.03.64-1.02.18-2.05.21-3.08.42-1.1.22-2.24.38-3.39.43-1.36.04-2.7.29-4.09.22-.83-.03-1.72.16-2.6.16-.6 0-1.24.19-1.78.02-.51-.16-1.08.19-1.52-.24l-.08-.13c-1.15.61-2.41 0-3.58.34-.55.15-.88-.02-1.12-.5l-.86.45-.32-.36c-.77.8-1.73.1-2.6.3-.48.1-1.12-.01-1.63-.1-.63-.1-1.28.29-1.82-.07-.48-.31-1.09.23-1.47-.32-1.2.69-2.38-.18-3.58-.06a15.9 15.9 0 0 1-3.45-.14c-1-.1-2.07.14-3.03-.35-.48-.25-.95.27-1.5 0-.41-.22-.96-.53-1.47-.08-.2-.72-.73-.1-1.09-.26-.45-.2-.96-.12-1.47-.12-.88.01-1.74-.55-2.68-.29-1.34-.57-2.86-.17-4.21-.75-.74-.32-1.56.1-2.34-.25a5.17 5.17 0 0 0-2.2-.57c-1.92.08-3.59-.92-5.41-1.1-3.74-.37-7.24-1.7-10.85-2.58-3.6-.89-7.16-1.9-10.74-2.87-.54-.15-1.13-.16-1.6-.58-.39-.34-.92.11-1.36-.2-1.25-.88-2.85-.9-4.16-1.55-1.1-.55-2.25-.8-3.37-1.23-.56-.2-1-.67-1.64-.8-.53-.12-1.09-.15-1.58-.63-.4-.39-1.23-.31-1.76-.63-2.7-1.63-5.8-2.46-8.33-4.4-1.18-.25-2.1-1-3.12-1.55-1.5-.8-2.94-1.7-4.41-2.55-.72-.4-1.58-.66-2.1-1.27-.58-.66-1.38-.92-2.05-1.35-1.34-.86-2.43-2.03-3.83-2.79-.52-.28-.95-.75-1.48-1-1.07-.52-1.65-1.57-2.64-2.2a20.2 20.2 0 0 1-3.77-3.1c-1.66-1.76-3.52-3.3-5.1-5.14-1.18-1.37-2.6-2.5-3.84-3.82-.34-.36-.76-.62-1.03-1.1-.58-1.05-1.86-1.3-2.71-2.06-.04-.04-.15-.07-.17-.05-.35.46-.6-.2-.89-.08-.55.24-1.02-.09-1.5-.22-.42-.1-.92.3-1.28-.3-.22-.35-.8.18-1.02-.07-.3-.33-.5-.21-.85-.23-1.46-.07-2.83-.64-4.23-1.02-.23-.63-.86-.61-1.32-.66-.6-.06-.76-.7-1.3-.74-.88-.08-1.42-.97-2.32-.99-.42-.89-1.69-.4-2.1-1.3-1.42-.09-2.28-1.35-3.6-1.74-.74-.22-1.34-.91-1.96-1.44-1.22-1.02-2.64-1.73-3.94-2.63-.27-.19-.71-.13-1-.3-.3-.2-.58.47-.85-.06-.2-.4-.41.2-.72.05-.28-.13-.61-.2-.99-.18a12 12 0 0 1-2.47-.06c-.78-.1-1.51-.48-2.34-.26-.28.07-.55-.17-.61-.53-.37.61-.98.63-1.54.67-.13.02-.3-.3-.52-.55-1.1.66-2.33 0-3.52.24-.82.16-1.64-.23-2.46.04-.08.02-.24-.2-.41-.38-.72.44-1.58.35-2.44.38a6.8 6.8 0 0 1-2.66-.38c-.47.25-.84.51-1.46.4-1.01-.2-2.08.2-3.12-.06-.49.5-.56-.6-1.09-.27-.34.22-.83.24-1.26.27-.45.02-.87-.43-1.34-.16-.42.24-.92-.3-1.3.16-1.19-.42-2.42-.21-3.64-.23-1.92-.03-3.84-.29-5.77-.11-.33.02-.68-.14-1.01-.23-.6-.16-1.2-.41-1.76-.02l-.35-.53c-.67.44-1.38.37-2.11.16-1.09-.3-2.15-.79-3.33-.22-.24.11-.66-.15-1-.21-.9-.16-1.72-.74-2.68-.36-.41-.8-1.18-.4-1.76-.44-1.86-.14-3.75-.14-5.51-.81-.52-.2-.87.16-1.33.06-.44-.09-.86-.59-1.1-.5-.53.18-.92-.08-1.34-.2-.46-.12-.82.3-1.33.07-.74-.33-1.57-.45-2.37-.67-1.55-.42-3.18-.32-4.73-.87-1.5-.53-3.07-.8-4.58-1.29-.49-.16-1.12.6-1.47-.32-.22-.56-.94.29-1.29-.27-1.22.36-2.01-.69-3.05-.94-1.14-.28-2.26-.63-3.4-.9-.53-.11-.71-.7-1.3-.75-.42-.04-.93-.04-1.25-.5-.24-.36-.6.29-.85-.04-.18-.23-.3-.44-.63-.54a14.74 14.74 0 0 1-4.27-2.18 6.1 6.1 0 0 0-1.94-.98c-.72-.18-1.37-.68-2-1.12a80.25 80.25 0 0 1-7.65-5.82c-.9-.79-1.58-1.8-2.58-2.53-.48-.34-.68-.98-.74-1.61l-.34.2c-.6-.62-1.15-1.29-1.72-1.92a13.56 13.56 0 0 1-1.82-2.49c-.58-1.04-1.06-2.15-1.96-3.04-.48-.48-.54-1.34-.89-2a52.51 52.51 0 0 1-2-4.28 38.17 38.17 0 0 1-1.45-4.28c-.78-2.7-1.52-5.47-1.58-8.32-.01-.88-.3-1.75-.06-2.63.23-.83-.06-1.65-.03-2.45.03-.94.3-1.89.42-2.84.14-1.06-.01-2.16.4-3.2.38-.99.57-2.04.84-3.07.64-2.46 2.09-4.5 3.5-6.55 1-1.43 2.15-2.74 3.07-4.23.54-.88 1.52-1.4 2.19-2.21 1.6-1.94 3.6-3.44 5.55-5 .64-.5 1.53-.74 1.9-1.58.04-.09.17-.15.26-.2.46-.27.9-.6 1.38-.78.51-.2 1.03-.31 1.13-.96.65.2.78-.5 1.2-.7.47-.23.93-.5 1.37-.8 3.28-2.23 6.73-4.18 10.18-6.14 1.09-.62 2.26-1.08 3.36-1.68 1.2-.63 2.3-1.46 3.53-1.99 1.95-.83 3.76-1.95 5.72-2.73a89.3 89.3 0 0 0 5.11-2.2c1.6-.73 3.25-1.36 4.86-2.08 1.47-.66 2.95-1.35 4.5-1.84.86-.27 1.65-.77 2.47-1.15 1.25-.58 2.5-1.21 3.75-1.76 2.69-1.17 5.15-2.72 7.63-4.22a65.72 65.72 0 0 0 9.1-6.76c2.62-2.28 4.94-4.85 7.44-7.23 3.65-3.47 6.77-7.42 10.24-11.04 1.82-1.9 3.43-4 5.46-5.69.4-.32.7-.83 1.1-1.21.13-.14.32-.33.4-.5.4-.84 1.72-.79 1.82-1.9.7-.46 1.26-1.09 1.9-1.6.32-.24.6-.39.88-.74.5-.63.96-1.39 1.78-1.73.2-.08.47-.22.54-.4.53-1.3 1.78-1.92 2.68-2.87.87-.92 1.81-1.78 2.82-2.57.93-.72 1.78-1.53 2.76-2.2 1.48-1.01 2.73-2.34 4.53-2.93.67-.22 1.24-.76 1.96-1.08 2.78-1.24 6.2-2.78 10.12-2.95 1.63-.7 3.52-.27 5.1-1.17 1.2.12 2.36-.35 3.6-.2 1.91.24 3.82.33 5.7.82 1.63.43 1.96.53 3.14 1.37 1.15.82 2.37 1.56 3.56 2.32 1.88 1.2 3.74 2.43 5.17 4.26 1.74 2.25 2.12 4.09 3.3 7.13.5 1.27.85 2.61 1.13 3.95.26 1.22.3 2.48.5 3.72.2 1.34.44 2.67.5 4.05.02.7-.43 1.48.05 2.1.5.67-.4 1.38.19 1.97-.7 1.66-.05 3.5-.63 5.2-.18.52.05 1.18.06 1.78.03 1.7.06 3.4-.1 5.1a36.7 36.7 0 0 0-.13 4.63c.03.74.1 1.55.52 2.22.9 1.47 1.07 3.12 1.22 4.78.05.54.68.77.62 1.34 1.24 1.11 1.1 1.18 1.71 2.36 1 1.97.99 4.19 1.74 6.2.47 1.25.86 2.52 1.32 3.77.65 1.72 1.4 3.42 1.96 5.17.28.87.75 1.64 1.08 2.47.69 1.7 1.32 3.51 2.53 4.92 1.44 1.68 2.06 3.96 3.9 5.34 1.17 2.07 3 3.54 4.67 5.15.22.95 1.56 1.09 1.58 2.18.79-.38.67.7 1.14.73.68.06.71.7 1.07 1.03.4.37.79.79 1.25 1.04.36.2.36.52.65.73Zm5.57-273.01c-1.14-.35-2.15.33-2.82-.58-.7-.95-1.28-1.91-1.26-3.2.05-4.06.07-8.11-.02-12.17-.02-.95.34-1.65.7-2.43 1-2.1 2.06-4.16 3.58-5.95a6.39 6.39 0 0 1 2.58-1.93c.56-.22 1.04.48 1.77-.18.58-.53 1.29.97 2.16.9.53 1.35-.58 1.96-1.3 2.8.93.42 1.9.39 2.76.9.84.5 1.5.97 1.3 1.99-.24 1.26.79 1.73 1.36 2.48-.25.33-.83.55-.64 1.07 1.54 4.22.42 7.1-.93 10.56-.38.96-.93 2.1-.98 2.93-.14 2.02-1.52 3.48-1.85 5.37-.24 1.4-1.15 2.24-2.75 2.16-.3-.02-.56.68-1.35.52-.22-.23-.91-.64-.9-1.02.05-1.25-.11-2.22-1.39-2.8-.16-.09-.02-.84-.02-1.42Zm-67.32 101.38c1.4.36 3.13-.7 4.25.95l-1.36 2.72c.6.6.97.32 1.53.1 2.08-.81 2.57-.54 3.3 1.54.11.3.06.75.4.82 2.37.47 1.83 2.85 2.81 4.22-1.01 1.2.69 2.4.13 3.37-.63 1.1-.43 2.63-1.72 3.36-.39.22-.2.6-.25.92-.44 2.73-1.62 4.9-4.45 5.83-.38.12-.55.73-1.35.5l-1.25-2.56c-.7-.23-1.97.42-1.78-1.28h-3.87c-.24-1.84.02-3.8-1.46-5.18-.12-.11-.13-.48-.03-.64.87-1.58.3-3.45.96-5.02.33-.79.57-1.37.1-2.1-1.16-1.74 0-3.1.91-4.34.85-1.18 2.03-2.1 3.13-3.2Zm33.3-86.82c-.48 1.1-1.5.81-2.56 1.05.22 1.42-.5 2.94.64 4.3-1.06.03-1.06.03-1.62-.39-.76.44-1.02 1.26-1.57 2.06a5.63 5.63 0 0 0-2.59-5.4c-.8-.16-.91.44-1.3.59-1.33-2.46-1.37-3.68-.31-10.12.55-3.34 2.27-6.1 4.71-8.87.74-.16 1.94 1.96 3.05-.06 1.08 1.91-.9 2.97-1.01 4.81 1.08-.48 2.12-.87 3.21-.49.57.5-.17 1.3.45 1.84 1 .84 1.87 1.75.52 3.01 1.46 1.09-.36 2.04-.14 3.13.21 1.06.04 2.2.04 3.33-1.06-.21-1.26-1.47-2.41-1.27-.99 1.3.75 1.5.9 2.48ZM297.77 93.28c-.43-.81-1.53-.33-2.24-.64v-1.51c-.08-.1-.18-.26-.23-.25-1.86.62-2.83-1.33-4.46-1.53-1.56-.2-2.46-1.37-2.76-2.92-.13-.63.15-1.09.7-1.38-2.67-2.24-1-4.47-.13-6.74 1.1-2.91 3.4-3.26 5.97-3.12.52 1.46.23 2.66-.75 3.56 2.03 1.33 2.63-.65 3.92-1.02l1.12 2.14c-.02.75-1.1 1.01-.58 1.85.91 1.09 1.23-.67 2.18-.38 1.28 1.15 1.13 2.9 1.1 4.49l1.3.34c-.18.84-1.35 1.08-1.32 2 0 .98 1.04.23 1.34.96-1.6 1.32-2.7 3.31-5.16 4.15Zm78.61-47.18h2.77c.57.56.42 2.08-.34 3.68 1.6 1.31 2.23-.59 3.1-1 1.04-.04 1.1.85 1.55.96.3.99-.89 1.2-.5 2.21.7.42 2.23.03 2.54 1.24.22.87.43 2-.66 2.77l1.23.43c-.09.96-1.38 1.68-.61 2.93-1.46 1.94-3.93 2.72-5.82 4.27-.34.28-1.07 1.26-2.03.61-.39-.52.5-.52.43-.99-.95-.6-2.14.13-3.17-.4-.32-.75.18-1.86-1.03-2.32-1.43.68-2.87.96-4.13-1.02 1.65-1.08 3.87-1.45 4.24-3.92-1.38-.04-2.23 1.18-3.54 1.37l-1.03-.93c-.1-.07.07-.16.2-.4.77-1.46 3.15-1.26 3.32-3.29 1.51-.6 1.4-2.28 1.67-3.33.31-1.22.96-1.9 1.8-2.88Zm-57.31 77.3c.39-.9 1.17-1.11.54-2.15-.43-.45-1.43.28-2.3-.2l-.2-.96c-.1-.16-.3-.24-.41-.06-.37.55-.91.53-1.48.52-1.66-.03-2.01-.51-2.15-2.2-.06-.75.55-1.08.6-1.8l-1.8-.13c-.54-2.5.92-4.71 1.39-7.02.24-1.17 2.05-1.74 3.5-1.73.53.24.37.76.44.96.25.48.33.39.58.18.75-.64 1.65-.8 2.26.08.62.91 1.5.77 2.32.92.47.48.12 1.07.24 1.6.42.57 1.03.22 1.65.4 1.27.86.67 2.73 1.74 3.8-3.56 5.64-4.42 6.64-6.92 7.78ZM429.5 76.8c-.5-.42-.83-.92-1.64-.98-2.05-.17-2.05-.25-2.54-2.52-1.5-.5-2.91 0-4.17.58-.64-.65-.2-1.24-.47-1.8l1.35-.47v-3.88l-2.25.71c-.36.03-.47-.74-.99-.9.75-1.96 2.32-3.17 3.69-4.55 1.67.37 3.47-1.49 4.97.47-.06.12-.16 2.35-.03 2.8l-.95.12-.66.04c-.55.5-.12 1.4-.88 1.9 1.7-.6 3.18-1.32 4.29-2.64.47.56.93 1.01 1.8.78-1.48 1.2.5 2.72-1.25 3.83 1.33.05 1.47-.82 2-1 .49-.17 1.04-.17 1.53-.24.6 1.25 1.44 2.33.78 3.95-.86.74-2.91.57-3.25 2.7a6.26 6.26 0 0 0 3.3-1.93c.96.18.87.65.84 1.09-1.71-.12-1.55 2-2.99 2.43-1.16.33-2.13 1.33-3.58 2.3.15-1.3.64-2.04 1.1-2.78Zm-78.29-65.1c-.46.74-1.19.48-1.77.52-1.62-1.45-.58-3.75-1.8-5.32 2.02-3.93 2.02-3.93 5.44-5.51.7.17 1.09.65 1.34 1.28.2.74-1.1.9-.67 1.76.65.74 1.13.27 1.6-.25 1.95.76 1.47 3.28 3.16 4.31-.19 1.4.23 2.84-.22 4.26l-2.81 3.49-1.32.06c-.4-.68-1.21-2.87-1.1-3.1-.57-.48-1.17-.96-1.85-1.5Zm-37.01 1.2c-.68.3-.05 1.24-.57 1.28-.98.21-1.35-.3-1.62-.74-.57-.9.15-2.11-.32-2.88-.6-.98-.83-1.6-.11-2.61.6-.84.26-1.99.76-3.05 1.2-2.56 1.13-2.77 3.92-2.75.08.08.22.16.23.24.02.45 0 .9 0 1.44.9.52 2.3.13 2.8 1.68.38 1.17 1.6 1.99 1.31 3.52-.2 1.16.08 2.32-1.05 3.33a3.41 3.41 0 0 0-1.06 2.57c.02.79-.64 1.27-1.55 1.38-.84.1-1.3-.4-1.63-.93-.48-.76-.76-1.65-1.12-2.47Zm21.54 23.7h2.75c.72.45.1 1.25.48 1.8.47.45 1.06.1 1.6.24.78 1.57 1.78 3.08 2.28 4.75.55 1.8-.27 3.59-.87 5.28-1.37.57-2-.49-2.78-1.24h-2.7c-.47-1.3-1.11-2.37-2.76-2.02-.77-.9.28-2.33-.95-3.03a6.23 6.23 0 0 0 1.34-2.79c.14-1.06.7-1.97 1.6-3Zm-70.61 10.45c1.23-1.66 3.03-2.2 4.98-2.36 1.32 1.6-.93 1.92-1.1 2.96 1.44 1.37 2.63-.93 4-.06.8.74-.28 1.05-.45 1.58.48.64 1.3-.02 1.79.39.55 1.4-.38 2.96.8 4.3-1.11 1-.9 2.93-2.48 3.72-1.48-.26-2.38-1.36-3.48-2.22-.97-.76-2.55-.62-3.36-2.5.52-1.66-1.32-3.56-.7-5.81ZM469 41.47c-1.13-.67-2.26-.86-3-2.13l1.58-.96c-1.53-.47-2.77.97-4.12-.05.74-1.3 2.34-1.29 3.34-2.17.1-.78-.37-.78-.97-.97-.98-.31-1.17 1.22-2.1.7-.37-.34-.54-.89-.13-1.12 2.18-1.26 3.96-3 5.87-4.6a5.45 5.45 0 0 1 3.3-1.51c-.13.69-.8.94-1.19 1.47.9.98 1.66.15 2.46-.2.12 1.39 1.24 2.55.7 4.45-2.12 1.75-3.26 4.84-5.73 7.1Zm130.55 95.1c-.12 1.47.3 2.83.83 4.36 1.71-2-1.17-2.85-.83-4.36Zm92.8-126.25a15.28 15.28 0 0 0 4.04-6.2l-4.03 6.2Zm-17 4.94c3.42-2.95 6.63-6.08 8.6-10.25-2.84 3.44-5.81 6.76-8.6 10.25Zm-59.82 48.39c-10.61 11.93-18.6 45.63-16.67 61.36 1.03-10.85 2.06-21.4 4.62-31.73 2.6-10.44 6.22-20.48 12.05-29.63Zm-5.52 35.58c-1.5 2.7-1.88 5.75-2.34 8.7-1.22 7.8-2.09 15.66-1.6 23.58.4 6.6.6 13.2 1.65 19.74.37 2.3.31 2.3-1.93 2.6-.16.03-.32.18-.46.3-1.27 1.06-3.01.6-3.66-1.04-1.92-4.88-2.95-9.99-3.88-15.11-1.64-9.06-1.64-18.18-.68-27.28.57-5.51 1.5-11 2.78-16.4 2.14-8.93 4.54-17.76 9.17-25.8a91.79 91.79 0 0 1 23.79-27.28c9.08-6.98 19.32-12.19 28.67-18.72 18.74-13.08 29.52-30.55 27.49-54.26-.42-4.92-1.5-9.78-2.2-14.68-.3-1.96.12-3.7 1.98-4.83 1.64-.98 3.93-.39 6.15 1.42 2.46 2.02 3.7 4.77 4.63 7.64a76.55 76.55 0 0 1 3.78 19.16c.88 14.76-3.57 27.54-13.55 38.56-8.32 9.18-18.22 16-29.28 21.39-7.8 3.8-14.8 8.9-21.77 14.04-5.35 3.93-9.73 8.83-13.9 13.89a33.58 33.58 0 0 0-5.46 9.13c-.15.37-.45.68-.66 1-.73-.22.14-.74-.31-1-2.42 3.28-3.38 7.25-5.04 10.88-.33.7-.39.43-1.36.79-.9.33-1.42 1.45-1.06 2.76.66-.53.45-1.44 1.51-1.84 0 1.97-.7 3.63-1.08 5.34-.5 2.26-1.52 4.42-1.37 6.82v.5Zm3.87-87.49c-1.78 0-3.57.04-5.35-.02a5.14 5.14 0 0 1-2.99-1.28c-.55-.44-.9-1.07-.7-1.83.25-1 .83-.3 1.37-.32 10.33-.35 20.54-1.93 30.77-3.29a53.7 53.7 0 0 1 7.18-.35c.75 0 1.93-.15 2 1.23.05 1.17-.77 1.51-1.67 1.76-4.65 1.26-9.45 1.76-14.2 2.49-5.43.83-10.92 1.2-16.4 1.6Zm400.37-1.94-.82-.5-3.62 8.09c1.83-2.38 3.75-4.7 4.44-7.6Zm2.8-10.17c1.64-3.36 3.13-7.01 2.91-11.1l-2.91 11.1ZM852.07-94.9c.46-.52.94-1.04 1.4-1.58a220.01 220.01 0 0 1 31-30.27c6.37-5.12 13.92-8.64 20.1-13.85 6.85-5.78 13.7-11.21 22.14-14.42.07-.02 0-.37 0-.93-17.44 1.44-32.75 8.1-45.92 19.23-13.25 11.2-24.14 24.33-28.72 41.82Zm203.77 29.52c-.22-23.28-7.75-43.7-24.62-60.14-14.98-14.6-31.82-25.86-53.44-27.92 38.61 18.28 64.6 47.54 78.06 88.06Zm-73.57-76.98c2.2 3.04 5.55 4.6 8.28 6.93 15.72 13.39 26.38 30.08 33.45 49.39 6.98 19.04 8.32 38.68 6.82 58.56-.94 12.45-4.02 24.6-8.52 36.33-.35.91-1.48 2.08-.17 2.9 1.1.7 1.63-.71 2.31-1.29 7.09-6.06 12.79-13.35 17.43-21.35 4.25-7.33 7.87-14.8 7.35-23.94-2.3-40.81-19.14-73.8-51.9-98.44-4.7-3.53-9.63-6.73-15.05-9.1Zm58.16 152.74c-1.65-.1-2.59.52-3.24 1.32-3.53 4.41-8.09 7.41-12.78 10.47-2.69 1.77-5.42 3.5-8.19 5.18-4.49 2.73-6.89 7.32-10.05 11.29-9.4 11.8-20.2 22.11-33.02 30.28-15.3 9.76-31.52 16.1-49.95 16.92-9.86.43-19.15-.48-28.57-3.44-15.22-4.78-27.5-13.71-37.94-25.3-15.64-17.33-23.63-38.33-28.07-60.9-.33-1.7-.84-3.38-1.27-5.07-1.19 4.22-1.01 8.33-1.08 12.43-.3 17.12 4.24 33.23 12.7 47.73a77.87 77.87 0 0 0 35.43 31.97c13.73 6.27 28.1 9.32 43.18 8.53 16.58-.86 32.36-5.12 47.51-11.81 25.7-11.35 48-27.1 64.54-50.2a91.37 91.37 0 0 0 10.8-19.4Zm-149.69-128.7c-.81.35-1.29.43-1.62.7-9.55 7.9-17.99 16.94-25.95 26.4-6.12 7.26-11.33 15.23-16.08 23.42-3.24 5.58-6.34 11.33-7.06 17.98-1.75 16.16-1.43 32.22 1.82 48.2C846.5 21.14 855.04 42 871.38 59.1a68.05 68.05 0 0 0 29.65 18.4c18.49 5.65 35.81.92 52.52-7.1 10.82-5.19 20.32-12.4 29.18-20.38 4.03-3.63 7.9-7.63 11.1-12.86-5.7.65-10.63 1.9-15.69 2.44-17.23 1.82-33.4-1.67-48.5-9.7C909.08 18.97 895.3 2 887.52-19.82c-9.9-27.8-9.18-55.87-1.45-84 1.3-4.75 3.02-9.4 4.67-14.5Zm44.54-25.1c-6.9 1.14-12.2 3.3-16.85 7.06-4.7 3.8-7.53 8.9-10.58 14.03-4.18 7.04-7.06 14.64-9.27 22.26a124.76 124.76 0 0 0-4.1 20.98c-1.9 16.92-2.17 33.61 2.67 50.18 5.05 17.27 13.37 32.42 27.05 44.4 22.17 19.43 49.7 22.72 75.73 11.05 1.7-.76 3.26-1.7 4.23-3.34a120.75 120.75 0 0 0 13.75-34.33c3.83-16.32 4.4-32.94 2.2-49.62-3.15-23.89-11.77-45.36-28.34-63.15-8.58-9.22-17.93-17.59-30.96-20.06-3.88-.74-8.22-2.22-11.37 1.01-3.44 3.53-6.7 7.51-9 11.85-9.73 18.41-11.77 37.81-5.85 57.84 2.3 7.78 7.23 13.8 14.12 18.2 1.31.83 4 1.38 3.1 3.3-.8 1.7-3.33 1.2-5.18.68a8 8 0 0 1-1.96-.95c-7.71-4.8-14.04-10.96-17.49-19.48-7.32-18.07-6.5-36.36-.8-54.66 1.85-5.94 4.89-11.3 8.9-17.25Zm-84.75 26.6c-1.04.03-1.42.88-1.82 1.58-3.83 6.6-7.34 13.36-9.7 20.62-.8 2.48-3.01 4.61-2.4 7.67 1.46-.76 2.1-1.8 2.17-3.26.12-2.5 1.38-4.6 2.4-6.8 3.1-6.62 6.19-13.25 9.27-19.87l13.21-17.32c-3 2.68-5.92 5.4-8.15 8.75-1.85 2.78-4.54 5.05-4.98 8.63ZM814 1.01c.27-12.64 2-25.1 6.39-36.91 4.6-12.4 6.93-25.24 9.8-38.03 5.2-23.3 14.15-44.96 30.91-62.61 14.02-14.76 30.98-24.32 51.2-27.3 14.75-2.19 29.46-1.36 43.82 3.16 1.49.47 3.02.9 4.63.62 14-2.36 27.3.13 40.17 5.67 15.73 6.77 29.65 16.13 41.24 28.8 8.89 9.73 15.91 20.73 20.04 33.23 4.68 14.22 6.74 28.82 3.85 43.83-.68 3.53-.41 7.45-1.43 10.71-1.26 4.02-1.81 8.17-3.12 12.11-2.24 6.74-3.01 13.77-4.55 20.64-1.93 8.64-5.21 16.82-9.06 24.74-5.36 11-12.12 21.24-20.82 29.78-7.75 7.6-15.75 14.99-25.39 20.56-6.9 3.99-13.49 8.54-20.64 12.13-23.12 11.58-47.48 17.66-73.43 16.07-20.06-1.23-38.54-7.37-54.82-19.32-22.74-16.7-35.21-39.32-38.06-67.32-.36-3.5-.5-7.04-.73-10.56Zm-12.2 307.01c1.79-1.23 3.55-5.84 3.08-7.79-.08-.35-.19-.75-.6-.65-.27.07-.7.48-.67.66.5 2.81-1.28 5.1-1.8 7.78Zm64-85.96a11.87 11.87 0 0 0 4.57-6.78c.2-.72 1.22-1.89-.12-2.16-1.23-.25-.39 1.19-.73 1.77-.18.3-.38.6-.48.92-.75 2.27-2.62 3.94-3.24 6.25Zm-64.13 20.62c-1.72.86-5.72 7.56-5.46 8.97.04.22.2.54.38.6.64.2.98-.3 1.18-.76 1.3-2.88 2.56-5.78 3.9-8.81Zm-75 92.88c-1.2.79-1.37 1.46-1.53 2.14a90.95 90.95 0 0 0-2.67 18.25c-.26 8.4.03 16.8-.8 25.19-.14 1.4-1.17 2.83-.17 4.74a25.73 25.73 0 0 0 1.56-8.49c.08-6.25.06-12.51.24-18.76.21-7.66 1.4-15.2 3.37-23.07Zm-63.1 60.64c.87-2.75 2.04-3.2 4.19-1.27 3.51 3.15 6.67 6.67 8.83 10.91.55 1.1 1.56.9 2.3 1.42 1.6 1.14 2.94 2.6 4.52 3.78 5.2 3.92 10.32 2.4 15.59.48 11.02-4 15.74-12.88 18.53-23.45 2.07-7.81 1.68-15.71 1.65-23.62-.02-8.7.6-17.35 2.55-25.85 3.32-14.36 15.12-23.38 30.41-23.55a68.03 68.03 0 0 1 22.8 3.87c7.81 2.66 13.84.13 19.07-5.26 7.03-7.24 8.27-16.07 6.43-25.66-1.4-7.35-3.93-14.38-5.88-21.58-4.22-15.6.63-24.8 12.46-34.6 4.33-3.6 9.06-3.56 14.04-2.28 4.47 1.15 8.9 2.46 13.34 3.7 1 .29 2 .62 3.07.27 8.28-2.74 16.51-5.63 23.27-11.44 6.96-5.97 10.6-18.08 5.74-28.06-3.62-7.44-7.12-14.93-10.69-22.39-.53-1.1-1.04-2.24-.98-3.46a2.84 2.84 0 0 1 1.83-2.62c1.15-.5 1.6 0 1.96.94.13.35.45.58.82.47 4.2-1.2 6.34 1.84 8.31 4.43 4.4 5.78 7.03 12.6 10.34 19 1.55 3 3.05 6.02 4.14 9.25 2.43 7.19 1.76 14.04-1.83 21.05-.24-1.97 1.27-3.24.96-4.9-1.55 3.08-3.03 6.17-4.88 9.1.85.33.78-1.04 1.86-.48-1.84 2.37-3.31 5-6.49 5.75-.53.13-.53.35-.76.7-1.53 2.26-4.05 3.26-6.25 4.64-.92.57-1.77.14-2.32-1.08.02 2.45-1.55 3.07-3.3 3.7-2.7.96-5.3 2.18-7.98 3.18-6.01 2.25-12.14 2-18.24.48a178.1 178.1 0 0 1-10.05-2.9c-1.48-.47-2.66-.15-3.9.72-8.72 6.12-11.82 13.85-9.67 24.25 1.3 6.32 3.57 12.37 5.25 18.58 1.94 7.2 3.24 14.46 1.12 21.86-.84 2.9-2.48 5.42-3.9 8.06a24.77 24.77 0 0 1-8.36 9.28c-10.38 6.87-21.45 8.95-33.5 5.05-4.2-1.36-8.57-2.23-12.86-3.31-7.47-1.9-14.57 2.85-17.9 8.66-3.8 6.63-4.71 14-5.25 21.38-.6 8.24-.34 16.55-1.17 24.76-1 9.8-4.04 19.1-10.43 26.78-3.2 3.85-7.08 7.11-12.02 9.1-2.75 1.1-5.42 2.57-8.2 3.75a37.04 37.04 0 0 1-12.94 2.84c-8.21.34-15.08-2.75-20.3-9.23-2.7-3.33-4.62-7.1-6.3-11.02a12.32 12.32 0 0 1-.85-3.8c-.06-.57-.28-1.57.72-1.67.85-.1.03 1.23 1.1 1.29Zm66.61-278.68c-2.5-.1-4.76.53-6.64 2.27l6.64-2.27Zm15.7 50.73a14.1 14.1 0 0 0 7.99-3.32l-8 3.32Zm-7.9 9.47c-10.8.44-20.1-5.08-27.73-13.8-5.23-5.97-6.38-13.23-5.66-20.91.85-9 5.12-16.25 11.75-22.05 6.41-5.61 13.93-7.55 22.32-5.25 2.86.79 4.63 2.78 5.83 5.35.36.75.55 1.63-.13 2.32-.66.66-1.26-.03-1.88-.22-3.44-1.07-6.67-.02-9.8 1.18-5.72 2.16-10 6.1-13.61 10.97-4.05 5.47-5.77 11.56-5.78 18.26 0 3.32 1.43 5.76 4.08 7.67 8.08 5.85 17.14 6.67 26.42 4.52a39.73 39.73 0 0 0 23.33-15.39c5.99-8.08 6.5-16.75 1.04-25.4-.92-1.48-.45-2.88-.57-4.3-.07-.85.78-1.28 1.8-1.18 2.26.24 3.72 1.55 4.96 3.31 2.85 4.02 4.28 8.57 5.07 13.35 1.43 8.6.04 16.63-4.87 23.94-.34.5-.63 1-1.26 1.29a3.82 3.82 0 0 0-2.15 2.49c-.32 1-1.45 1.79-2.32 2.54-8.5 7.33-18.2 11.5-30.84 11.3Zm195.67 112.41c-1.17-1.45-4.14-.55-3.7-3.24.55-3.29 3.36-4.03 6-4.3 4.47-.46 8.98-.58 13.47-.71 5.72-.17 11.44-.18 17.16-.32 4.5-.12 4.47-.16 3.6-4.76-1.87-9.85-2.93-19.76-2.55-29.8.17-4.39.66-8.74 1.82-13a24.28 24.28 0 0 1 3.05-7c3.92-5.97 9.19-6.49 14.82-2.13 2.77 2.14 4.97 4.3 6.2 7.6.88 2.37.1 3.93-1.88 4.79-2.65 1.16-3.3 3.28-3.67 5.8-1.35 9.26-.37 18.47.39 27.69.17 2.05.61 4.1.62 6.14.02 3.02 1.62 3.6 4.22 3.4 6.42-.5 12.88-.6 19.15-2.34.66-.18 1.41-.53 1.98.26.25 1.35-1.48 1.43-1.78 2.41.96.82 1.74.1 2.53.1 1.22-.01 3.81-2.35 2.82 1.58 2.1.32 3 1.6 3.33 3.65.31 1.9.25 3.43-1.84 4.14-8 2.73-16.34 3.8-24.64 4.99-2.49.35-2.8 1.2-2.28 3.23 1.76 6.85 3.24 13.82 9.47 18.38 1.15.84 1.16 2.37 1.73 3.56.88 1.81-.63 2.68-1.5 3.75-.88 1.1-1.92.42-2.98.11-11.18-3.22-17.5-11.22-21.66-21.54-2.15-5.35-2.3-5.05-8.29-4.35-5.9.7-11.86.82-17.8 1.26-5.06.38-9.56-1.11-13.7-3.88-1.01-.68-1.96-1.57-3.23-1.5-1.5.1-2.3-.67-2.7-1.92-.49-1.45 1.22-1.42 1.84-2.05Zm-95.57 110.65c1.28-2.9 1.86-5.9 4.12-8.01.35-.33.65-.75 1.06-.95.97-.47 2.2-1.23 3.05-.5.73.62.61 1.95.24 3.04-.18.52-.85 1.23-.08 1.62.64.32 1.01-.51 1.42-.94.24-.25.42-.56.67-.8.46-.43.69-1.37 1.56-1.02.7.27 1.32.78 1.42 1.64.1.8.1 1.53 1.33 1 .63-.28 1.07.54 1.41 1 3.78 5.1 4.56 10.39-.35 15.6-1.5 1.58-3.04 3.14-4.56 4.7-.84.87-1.85.86-2.86.5-1.15-.4.09-1.34-.42-2.08-1.17 1.87-2.29 1.62-3.78.27-.92-.83-2.03-1.88-3.76-1.18-.64.26-1.86-.45-2.6-1-3.75-2.75-6-6.4-6.09-11.14-.03-1.88.58-3.55 2.49-4.4.36-.16 1.1-.34 1.12-.28.88 1.96 3.42 1.18 4.6 2.93Z"/></svg>