<svg width="656" height="326" fill="#fff" xmlns="http://www.w3.org/2000/svg"><path d="m218.51 202.35 7.63 2.41a97.16 97.16 0 0 1-4.01 10.42c-1.61 4.28-5.1 11.9-10.45 22.85a223.68 223.68 0 0 1-15.66 28.06 93.45 93.45 0 0 1-18.48 21.25c-7.23 5.88-14.2 8.15-20.89 6.81-7.76-1.6-13.92-9.35-18.47-23.25a195.7 195.7 0 0 1-8.84-44.5c-1.34-15.76-3.75-30.06-7.23-42.89-3.48-12.82-8.17-19.24-14.06-19.24-4.82 0-8.57 5.35-11.25 16.04-2.67 10.69-4.95 23.65-6.83 38.88a551.48 551.48 0 0 1-7.63 45.3c-3.21 14.96-8.97 27.66-17.27 38.08-8.3 10.42-19.01 15.5-32.13 15.23-8.57.27-15.53-4.67-20.89-14.83-5.09-10.42-8.43-24.05-10.04-40.89A717.7 717.7 0 0 1 0 205.56c0-21.11.94-42.36 2.81-63.74C4.7 120.44 6.16 100 7.23 80.5c1.34-19.77 2.41-36.48 3.21-50.1 1.07-13.63.8-23.25-.8-28.87a40.4 40.4 0 0 1 7.23-1.2c3.21-.53 8.57-.4 16.07.4C40.7 1.26 47.4 3 53.02 5.93c5.62 2.68 10.58 8.02 14.86 16.04 4.29 7.75 5.9 17.77 4.82 30.06-4.55 59.33-7.36 109.04-8.43 149.12 10.17-47.83 25.04-71.75 44.58-71.75 10.45 0 18.48 7.35 24.1 22.04 5.9 14.44 9.38 30.47 10.45 48.1a535.31 535.31 0 0 0 5.22 49.72c2.68 15.5 6.56 23.91 11.65 25.25 6.16 1.6 14.06-3.6 23.7-15.63a229.16 229.16 0 0 0 24.5-37.28l10.04-19.25Z"/><path d="m403.09 180.3 4.82 8.42a83.77 83.77 0 0 1-5.63 4.01c-.26.27-.8.67-1.6 1.2a4.6 4.6 0 0 0-1.61.8l-3.62 2.41a9.3 9.3 0 0 1-2 1.2c-.8.54-1.48.94-2.01 1.2-.54.28-1.34.81-2.41 1.61s-1.88 1.34-2.41 1.6c-2.95 1.34-4.69 2.28-5.22 2.81-.54.54-1.48 1.2-2.82 2-1.33.54-2.27.94-2.8 1.2-.27.28-.81.68-1.61 1.21-.54.27-.94.4-1.2.4l-1.62.8c-.26 0-.53.14-.8.4-.27.27-.54.4-.8.4-1.07.27-2.14.8-3.22 1.6a9.19 9.19 0 0 0-3.2 1.61 536.2 536.2 0 0 1-14.07 6.01 223.5 223.5 0 0 1-14.86 5.22l-3.61 1.2c-1.34.27-2.28.4-2.82.4a94 94 0 0 1-3.61 14.43c-6.7 20.85-18.08 36.88-34.14 48.1-16.07 10.96-32.27 13.9-48.6 8.82-16.34-5.07-27.86-16.7-34.55-34.87-6.7-18.44-6.7-38.22 0-59.33 6.7-20.84 18.08-36.75 34.14-47.7 16.07-11.23 32.27-14.3 48.6-9.22 10.98 3.47 19.95 10.55 26.92 21.24 6.96 10.43 10.98 22.59 12.05 36.48h1.2a787.8 787.8 0 0 0 13.66-2.8c2.14-.27 6.56-1.47 13.25-3.61 1.61-.54 2.68-.94 3.22-1.2 1.6-.54 2.68-.8 3.21-.8l1.6-.8h.81c.27-.28.54-.4.8-.4.27-.28.67-.54 1.2-.81a6.6 6.6 0 0 1 1.62-.4l6.02-2.4a67.2 67.2 0 0 0 5.22-2.01 26.7 26.7 0 0 1 4.82-2 41.75 41.75 0 0 1 4.42-2c.27-.28.8-.54 1.6-.81a9.3 9.3 0 0 0 2.02-1.2l3.61-1.2 6.03-3.21Zm-101.23 8.42c-5.08-1.6-10.84 0-17.27 4.82a17.2 17.2 0 0 0 3.22 4 22.78 22.78 0 0 0 6.82 4.81 9.5 9.5 0 0 0 4.42 2c3.22.81 4.96 1.21 5.22 1.21 3.22.8 6.43 1.2 9.65 1.2-1.88-10.15-5.9-16.16-12.06-18.03Zm-29.72 93c6.7 2.14 13.8-.53 21.29-8.01 7.5-7.75 13.25-18.04 17.27-30.87 1.07-3.2 2.14-7.48 3.22-12.83-5.36.54-9.51.67-12.46.4h-2.8c-1.08-.26-2.15-.4-3.22-.4l-2.41-.8a70.08 70.08 0 0 1-8.44-2c-4.55-1.34-9.24-3.74-14.06-7.22a23.92 23.92 0 0 1-3.21-2.4l-4.02 10.02c-4.01 12.83-5.22 24.58-3.61 35.27 1.87 10.43 6.02 16.7 12.45 18.85Z"/><path d="m647.97 184.72 8.03 2.4a38 38 0 0 0-.8 2.8 77.99 77.99 0 0 1-2.41 6.82 42.71 42.71 0 0 1-4.82 9.22 151 151 0 0 1-8.04 9.22 29 29 0 0 1-11.24 7.62 187.25 187.25 0 0 1-15.67 4c-5.89 1.08-12.59.54-20.08-1.6-1.88 12.03-4.15 22.05-6.83 30.07-3.48 10.69-7.37 19.5-11.65 26.46a94.4 94.4 0 0 1-15.26 20.04 61.4 61.4 0 0 1-12.46 10.82c-7.5 5.35-16.46 9.49-26.9 12.43-7.77 1.87-14.74 1.07-20.9-2.4-6.15-3.48-11.24-9.1-15.26-16.84a148.56 148.56 0 0 1-9.24-24.46 245.5 245.5 0 0 1-6.02-30.46c-14.73 36.34-38.7 56.52-71.9 60.53-11.78 1.6-21.02-1.87-27.72-10.42-6.7-8.82-10.84-20.58-12.45-35.28a510.55 510.55 0 0 1-2.81-45.7c0-15.5-.27-30.73-.8-45.7-.27-14.96-1.61-25.38-4.02-31.26l3.61-1.2c1.61-.54 4.69-1.07 9.24-1.6a82.62 82.62 0 0 1 13.66-1.21c4.28 0 8.97.8 14.06 2.4a32.92 32.92 0 0 1 13.65 6.82c4.02 3.2 7.37 8.02 10.05 14.43 2.94 6.41 4.68 14.16 5.22 23.25.27 7.75.67 18.57 1.2 32.47.8 31 2.68 48.37 5.63 52.11 3.21 4 9.1-.4 17.67-13.23 9.64-14.7 16.87-29.66 21.7-44.9-1.62-17.37-2.69-27.65-3.22-30.86 1.6-.8 3.61-1.6 6.02-2.4 2.68-1.07 7.37-2.14 14.06-3.21 6.7-1.07 12.72-.94 18.08.4 5.62 1.07 11.11 4.67 16.47 10.82 5.35 5.88 8.83 14.3 10.44 25.26 5.09 33.4 10.04 55.98 14.86 67.74 3.48-2.94 7.1-7.21 10.85-12.83 4.01-5.6 7.63-12.42 10.84-20.44 3.48-9.35 5.9-17.9 7.23-25.66v-1.6c.27-.8.54-1.34.8-1.6a295.3 295.3 0 0 1-13.65-6.82 60.12 60.12 0 0 1-12.86-8.81c-4.82-4.28-8.3-8.96-10.44-14.04a36.6 36.6 0 0 1-2.81-10.02c-.27-2.94 0-6.41.8-10.42a29.42 29.42 0 0 1 12.46-16.84c6.15-4.8 12.98-6.81 20.48-6a21.1 21.1 0 0 1 11.25 3.2c3.21 1.33 6.29 3.74 9.23 7.21a92.85 92.85 0 0 1 5.63 9.22c.8 2.14 1.74 5.35 2.81 9.62a38.1 38.1 0 0 1 1.2 9.22c.27 1.07.4 2.68.4 4.81v4.01c0 7.49-.4 14.83-1.2 22.05 1.07.27 2.55.53 4.42.8 2.14.27 5.9.4 11.25.4a49 49 0 0 0 14.86-2.8c4.55-1.6 9.1-4.81 13.66-9.62 4.55-4.81 7.76-10.96 9.64-18.44Zm-73.51 3.2v-3.2a44 44 0 0 0-.4-6.82c-1.07-4.8-2.28-8.28-3.62-10.42-2.14-2.94-4.55-4.54-7.23-4.81-3.21-.53-6.42.27-9.64 2.4a14.03 14.03 0 0 0-6.42 7.62c-.8 3.2-.67 6.41.4 9.62 1.07 2.94 3.21 6.28 6.43 10.02 4.28 3.74 7.63 6.42 10.04 8.02l8.83 5.21c0-.27.14-2.14.4-5.61.54-3.74.8-6.55.8-8.42.28-.53.41-1.74.41-3.6Z"/></svg>