<svg width="67" height="64" fill="#050509" xmlns="http://www.w3.org/2000/svg"><path fill-rule="evenodd" clip-rule="evenodd" d="M64.05 36.36c1.17.22 2.32-.52 2.47-1.68a29.12 29.12 0 0 0 0-7.69c-.15-1.16-1.3-1.9-2.47-1.68l-11.26 2.11a2.4 2.4 0 0 0-1.89 2.55 14.92 14.92 0 0 1 0 1.73 2.4 2.4 0 0 0 1.89 2.55l11.26 2.11Zm-4.54-21.2a2 2 0 0 0 .54-2.95 31.42 31.42 0 0 0-5.74-5.43 2.1 2.1 0 0 0-2.95.52l-6.34 8.99c-.7.99-.4 2.34.52 3.12.48.41.93.84 1.36 1.3.8.86 2.11 1.13 3.1.5l9.51-6.05Zm-18.9-12A2.03 2.03 0 0 0 38.85.73a33.97 33.97 0 0 0-8.11 0A2.03 2.03 0 0 0 29 3.17l2.2 10.58c.24 1.14 1.38 1.87 2.57 1.8a17.5 17.5 0 0 1 2.05 0c1.2.07 2.33-.66 2.57-1.8l2.2-10.58ZM13.96 49.75V63.9H.48V26.54h13.49v13.08h3.01l8.33-13.08h15.07L28.01 44.9l13.16 19H26.18l-9.36-14.17h-2.85Z"/></svg>