<svg width="375" height="700" fill="none" xmlns="http://www.w3.org/2000/svg"><g clip-path="url(#a)"><path d="M0 32A32 32 0 0 1 32 0h311a32 32 0 0 1 32 32v668H0V32Z" fill="#fff"/><g clip-path="url(#b)"><path fill="#fff" d="M0 0h375v44H0z"/><path d="M106-2h164a4.3 4.3 0 0 0-2.71 3.89l-.05 1.86A25.25 25.25 0 0 1 242 29H134a25.25 25.25 0 0 1-25.25-25.25l-.05-1.86A4.3 4.3 0 0 0 106-2Z" fill="#000"/><path opacity=".35" d="M334.67 17.83h16.66c1.2 0 2.17.97 2.17 2.17v6c0 1.2-.97 2.17-2.17 2.17h-16.66c-1.2 0-2.17-.97-2.17-2.17v-6c0-1.2.97-2.17 2.17-2.17Z" stroke="#000"/><path opacity=".4" d="M355 21v4a2.17 2.17 0 0 0 0-4" fill="#000"/><path d="M334 20.43c0-.6.5-1.1 1.1-1.1h15.8c.6 0 1.1.5 1.1 1.1v5.14c0 .6-.5 1.1-1.1 1.1h-15.8c-.6 0-1.1-.5-1.1-1.1v-5.14Z" fill="#000"/><path fill-rule="evenodd" clip-rule="evenodd" d="M319.33 19.6c2.22 0 4.35.86 5.95 2.39a.3.3 0 0 0 .44 0l1.15-1.17a.32.32 0 0 0 0-.46 10.9 10.9 0 0 0-15.08 0 .32.32 0 0 0 0 .46l1.15 1.16a.3.3 0 0 0 .44 0 8.64 8.64 0 0 1 5.95-2.37Zm0 3.8c1.22 0 2.4.46 3.3 1.27.12.12.3.12.43 0l1.15-1.17a.32.32 0 0 0 0-.46 7.16 7.16 0 0 0-9.75 0 .32.32 0 0 0 0 .46l1.14 1.17c.12.12.32.12.44 0a4.9 4.9 0 0 1 3.29-1.27Zm2.31 2.56a.3.3 0 0 1-.1.23l-1.99 2.01a.31.31 0 0 1-.44 0l-2-2.01a.31.31 0 0 1 .01-.46 3.42 3.42 0 0 1 4.42 0c.06.06.1.14.1.23Zm-15.97-8.29h-1a1 1 0 0 0-1 1v8.66a1 1 0 0 0 1 1h1a1 1 0 0 0 1-1v-8.66a1 1 0 0 0-1-1ZM300 20h1a1 1 0 0 1 1 1v6.33a1 1 0 0 1-1 1h-1a1 1 0 0 1-1-1V21a1 1 0 0 1 1-1Zm-3.67 2.33h-1a1 1 0 0 0-1 1v4a1 1 0 0 0 1 1h1a1 1 0 0 0 1-1v-4a1 1 0 0 0-1-1Zm-4.66 2h-1a1 1 0 0 0-1 1v2a1 1 0 0 0 1 1h1a1 1 0 0 0 1-1v-2a1 1 0 0 0-1-1Z" fill="#000"/><circle cx="297" cy="11" r="3" fill="#34C759"/><path d="m35.15 25.54 1.24-.13c.09.6.26 1.03.52 1.29.26.25.56.38.92.38.5 0 .98-.22 1.41-.66a5.9 5.9 0 0 0 1.42-2.78 5.6 5.6 0 0 1-1.19.71 2.64 2.64 0 0 1-2.81-.45c-.69-.57-1.03-1.39-1.03-2.46 0-1.2.4-2.24 1.19-3.1a3.25 3.25 0 0 1 2.5-1.12c.89 0 1.62.33 2.2.99.6.65.89 1.58.89 2.78 0 1.17-.2 2.32-.59 3.46a6.35 6.35 0 0 1-1.88 2.96c-.65.51-1.37.77-2.18.77a2.5 2.5 0 0 1-1.82-.69 2.93 2.93 0 0 1-.8-1.95Zm1.76-4.25c0 .67.18 1.21.54 1.61.36.4.79.6 1.28.6.37 0 .73-.12 1.1-.37.35-.25.66-.62.92-1.11.26-.5.39-1.01.39-1.53 0-.41-.09-.8-.26-1.15a1.8 1.8 0 0 0-.7-.79c-.3-.18-.59-.27-.9-.27-.29 0-.57.08-.86.24-.28.15-.54.38-.79.68a3.68 3.68 0 0 0-.72 2.09Zm7.25.43.31-1.5h1.5l-.31 1.5h-1.5ZM42.84 28l.32-1.5h1.5l-.32 1.5h-1.5Zm7.3 0 .58-2.74h-4.38l.28-1.31 6.02-6.69h1.08l-1.43 6.83h1.51l-.24 1.17h-1.51L51.47 28h-1.32Zm.83-3.91.93-4.48-4 4.48h3.07ZM57.12 28l1.7-8.1a8.44 8.44 0 0 1-3.09 1.38l.25-1.2c.66-.27 1.3-.61 1.95-1.04.64-.42 1.13-.8 1.45-1.11.2-.2.38-.43.56-.71h.76L58.46 28h-1.34Z" fill="#000"/></g><g filter="url(#c)"><path d="M26 700c0-.93 0-1.4.03-1.78a10 10 0 0 1 9.19-9.19c.39-.03.85-.03 1.78-.03h301c.93 0 1.4 0 1.79.03a10 10 0 0 1 9.18 9.19c.03.39.03.85.03 1.78H26Z" fill="#fff"/></g></g><defs><clipPath id="a"><path d="M0 32A32 32 0 0 1 32 0h311a32 32 0 0 1 32 32v668H0V32Z" fill="#fff"/></clipPath><clipPath id="b"><path fill="#fff" d="M0 0h375v44H0z"/></clipPath><filter id="c" x="6" y="673" width="363" height="51" filterUnits="userSpaceOnUse" color-interpolation-filters="sRGB"><feFlood flood-opacity="0" result="BackgroundImageFix"/><feColorMatrix in="SourceAlpha" values="0 0 0 0 0 0 0 0 0 0 0 0 0 0 0 0 0 0 127 0" result="hardAlpha"/><feOffset dy="4"/><feGaussianBlur stdDeviation="10"/><feColorMatrix values="0 0 0 0 0 0 0 0 0 0 0 0 0 0 0 0 0 0 0.1 0"/><feBlend in2="BackgroundImageFix" result="effect1_dropShadow_975_241"/><feBlend in="SourceGraphic" in2="effect1_dropShadow_975_241" result="shape"/></filter></defs></svg>