<svg width="213" height="192" fill="#050509" xmlns="http://www.w3.org/2000/svg"><path fill-rule="evenodd" clip-rule="evenodd" d="M82.3 166.97c.47-.6-.1-1.46.67-1.84.95-.46.96-1.5 1.47-2.22.55-.79 1-1.66 1.5-2.48 1.62-2.67 4.31-4.54 5.54-7.51.1-.24.4-.38.61-.57 1.86-1.73 2.93-4.18 5.05-5.68 1.36-2.7 4.04-4.32 5.66-6.84.6-.96 1.68-1.58 2.32-2.65.63-1.05 1.9-1.59 2.53-2.84.64-1.26 2.24-1.72 3-3.18.68-1.28 2.16-2.15 3.15-3.4 1.18-1.48 2.9-2.47 4.06-4.12.92-1.31 2.5-2.06 3.41-3.56.66-1.08 1.9-1.88 3.03-2.56 1.18-.72 1.34-2.2 2.5-2.9.63-.38 1.17-.95 1.76-1.43.66-.55 1.27-1.16 1.99-1.62.62-.4.92-1.51 1.25-1.47 1.41.16.84-1.24 1.52-1.68 1.35-.87 2.39-2.3 3.8-2.98 1.52-.72 1.4-2.93 3.25-3.14.86-1.28 2.12-2.13 3.27-3.1.8-.68 1.62-1.34 2.41-2.02.8-.68 1.58-1.4 2.63-1.7.05-1.2 1.6-1.22 1.85-2.3-.43-.24-1.21.09-1.16-.85.05-1.03-.54-1.49-1.55-1.5-.36-.01-.76.03-.98-.37-.53-.5 1.39-1.5-.37-1.76.03.77-.52 1.29-.72 1.94-.16-.1-.3-.2-.47-.27-2-.94-3.3-2-4.64-3.81-1.86-.19-1.86-.19-3.13.48-.64-.27-.85-1.2-1.72-1.1l.03-.3 1-.81c-1.5.46-1.55-.66-2.32-.93l-1.13.73c-.5-.18-.95-.46-1.47-.62-.91-.28-1.75-.82-2.6-1.3-.33-.18.37-.93-.49-.96-.53-.02-.92-.46-1.49-.57-1.3-.25-2.43-1.06-3.64-1.52-1.1-.42-1.5-1.56-2.6-1.87-2.75-.77-4.91-2.6-7.37-3.91l.65-1.08c-.95-.5-1.8.37-2.7.08a7.95 7.95 0 0 0-3.4-2.13c-.11-.04-.14-.32-.2-.48.17-.74.9-.3 1.31-.65-.1-.37-.26-.67-.72-.67l-1.62 1.2-1.9-2.3c-.79-.24-1.55.14-2.05-.64-.18-.19.36-.64-.16-.83-.26.12-.52.36-.73.32-.47-.09-6.48-3.99-6.7-4.25-.03-.05-.04-.13-.06-.2l.55-.92c-.8-.32-1 .87-1.73.59.1-.67.85-1.18.47-1.97-.44.07-.93-.3-1.42.18l-.28.9c-1.04-.37-1.02-1.58-1.67-2.15a6.53 6.53 0 0 0-2.6-1.48c-.6.1-.73.76-1.32.67-.23-.38.16-.93-.7-1.4-.02 0-.4-.02-.77.05-.38.08-.11.9-.38.72-.78-.57-1.23.02-1.87.14-.82.16-1.46.44-1.89 1-.45.6-1.41.23-1.74 1.28-.23.76-1.3 1.33-2.1 1.84-2.34 1.46-3.84 3.77-5.73 5.67-1 1.01-1.92 2.2-3.06 3.1-1.28 1.03-1.18 1.08-2 2.33-.33.49-.05 1.38-.95 1.54-1.23.2-1.39 1.71-2.46 2.13-1.19 3.1-3.97 5.04-5.65 7.75-.76 1.23-2.12 1.85-2.66 3.06-.92 2-2.72 3.33-3.73 5.19-.7 1.28-2.12 1.88-2.7 3.04-1.3 2.6-3.8 4.27-4.94 6.93-1.42.79-1.94 2.4-3.14 3.44-1.17 1.03-1.83 2.63-2.95 3.75-.57.56-.39 1.4-1.15 1.83-.63.35-1.44.9-1.59 1.5-.21.9-.85 1.23-1.4 1.64-.65.47-.44 1.38-1.19 1.8-1.58.85-1.97 2.9-3.63 3.72-.3 1.43-1.85 1.82-2.47 2.88-.73 1.26-1.86 2-2.79 3-1.08 1.16-2.16 2.39-1.86 4.2.77-.15 1.1.4 1.36.87 1.26 2.13 3.44 3.36 5.11 5.08.72.73 1.84 1.23 2.37 2.17.63 1.15 1.95 1.32 2.72 2.27 1.07 1.34 2.52 2.27 3.94 3.22 1.13.74 1.61 2.25 3.08 2.65.27.08-.25.68.2.89l1.02-.39c0 .34-.06.83 0 .84 1.46.39 2.4 1.5 3.55 2.34.42.31 1 .23.97 1.02-.02.68.8.6 1.15.78a30.29 30.29 0 0 1 6.74 4.72c.66.65 1.37.45 2.06.63 0 .1-.04.2-.02.28.02.22-.22.52.28.57.9.1 1.34 1.17 2.44 1.06.96-.1 1.03 1.61 2.22 1.38 2.45 2.1 5.46 3.22 8.32 4.57 3.35 1.58 6.68 3.3 9.55 3.93 2.17 0 1.72-2.15 3.3-2.11Zm9.52 1.13c-.67 1.43-.7 3.12-2.69 3.2-.38.02-.14.43-.25.64-.94 1.89-2.67 3-4.17 4.37-.75.68-1.67.59-2.52.8-.63.18-.75-.24-.6-.77-.65.08-1-.76-1.62-.56-.47.25-.42.65-.45 1.02-.55.3-.65-.48-1.14-.45-.81.06-.9-.88-1.44-1.2-1.24-.72-2.23-2.21-4.04-1.34a.86.86 0 0 1-1.04-.32c-.54-.55.39-.7.37-1.14.03-.2-.12-.34-.34-.22-1.74.91-1.74.92-3.4-.73l-.93.34c-.85-.3-.19-1.08-.6-1.48-3.61-1.1-4.88-1.08-7.84-4.63l-.14.8c-.44-.16-1.44.41-1.12-.83-.67-.22-1.36-.38-1.99-.68-1.43-.69-2.7-1.54-2.67-3.35-.89-.2-1.68.65-2.42-.09-.38-.3-.08-.7-.22-1.23-.63-.25-1.26-.89-2.24-.52-.6.23-.77-.4-1.05-.71-.32-.35.16-.94-.37-1.29-1.6-.36-3.41-.51-3.91-2.41l-2.3-.21c-.8-.99-1.03-2.13-2.25-2.39-.88-.18-1.02-1.82-2.32-1.76-.74-1.48-2.5-1.85-3.4-3.18a12.1 12.1 0 0 0-4.7-4.06c-.16-.08-.32-.2-.41-.34-1.49-2.3-4.02-3.56-5.62-5.79-1.11-1.55-2.22-3.17-4.04-4.14-.78-.42-1.78-1.45-1.73-2.13.08-1.22-2-.93-1.23-2.25-.59-.73-1.42-1.4-1.67-2.24-.15-.53-.72-1.2-.3-1.82.63-.92.06-1.88.24-2.81.5-.12.99-.1 1.44-.52 1.1-1.03 2.8-1.74 3.36-2.99.59-1.32 2.3-1.66 2.37-3.25 0-.25.52-.53.84-.72 2.04-1.21 2.94-3.6 4.94-4.85 2.04-3.17 5.15-5.5 7.03-8.8 2.37-1.64 3.55-4.36 5.63-6.3.81-.76 1.83-1.64 2.3-2.62.56-1.17 1.97-1.64 2.2-2.69.29-1.34 2.17-1.36 1.98-2.86 1.35-.85 2.27-2.14 3.13-3.41 1.4-2.08 3.77-3.37 4.67-5.88.22-.62 1-1.12 1.64-1.5.71-.43.55-1.27 1.15-1.8 2.04-1.82 3.36-4.3 5.53-6 .3-1.76 2.32-2.06 2.95-3.52.64-1.48 2.1-2.1 3.23-3.04.75-.62.77-1.64 1.6-2.17a9.72 9.72 0 0 0 1.98-1.63c.46-.5 1.42-.37 1.52-.76.18-.64.59-.92.98-1.3-.66-2.44.17-4.37 1.94-6.07 1.59-1.53 3.5-2.6 5.6-2.33 2.92.4 5.95.48 8.72 1.78 3.83 1.79 7.54 3.77 11.16 5.97 2.92 1.78 5.92 3.45 8.85 5.22 5.42 3.3 10.81 6.62 16.22 9.92 3.76 2.29 7.54 4.54 11.3 6.83 1.2.74 2.33 1.6 3.53 2.34 2.1 1.3 4.25 2.5 6.32 3.82 2.82 1.82 5.6 3.7 8.35 5.62.76.54 1.5.91 2.42 1.1 1.37.27 1.35.34 1.41 2.12l-.85-.04c.15.98.6 1.07 1.23.49.66.01.73.62 1.08.88.13.46-.31.62-.46.9.06.77.81 1.04 1.03 1.69-.47.55-.54 1.2-.13 1.9l-5.28 4.4-1.61-.11c-.13 1.91-.69 3.5-2.8 4 .14.8-1.08.46-1.1 1.36 0 .43-.88.97-1.46 1.24-.77.36-.35 1.47-1.2 1.7-.6-.15-.02-.63-.3-.85-1.52.1-.25 1.06-.46 1.56l-.8-.04-.13.77-1.47-.13c-.64 1.26-1.15 2.67-2.45 3.4-1.22.67-1.42 2.09-2.48 2.9-.99.76-2.35 1.26-2.6 2.8-.04.27-.56.46-.84.73-.64.62-1.58.74-2.1 1.66a5.74 5.74 0 0 1-2.16 1.83c-1.03.6-1.08 1.86-2.03 2.55-.84.61-2.14 1-2.14 2.43 0 .06-.13.13-.2.17-2.36 1.43-3.64 3.97-5.8 5.6-.85.64-1.79 1.2-2.2 2.42-.27.83-1.67.88-2.25 1.87-.3.52-.54 1.14-.95 1.58-.36.4-.74 1.02-1.34.92-1.06-.18-.31 1.22-1.12 1.17-.25 1.25-1.72 1.41-2.2 2.53-.46 1.09-1.53 1.8-2.2 2.71-1.72 2.33-4.13 4.06-5.59 6.58-1.5.32-1.82 1.95-2.97 2.75-1.14.8-2.25 2-2.74 3.26-.35.92-1.34.59-1.39 1.15-.05.8-1 .82-1.02 1.58-.04.87-.98 1.05-1.45 1.6-.3.34-.76.5-.83 1.07-.12 1.12-1.15.94-1.97 1.21Z"/><path fill-rule="evenodd" clip-rule="evenodd" d="M96.09 96.87c.75-.1.96-1.1 1.77-.82 1 .34 1.74-.38 2.61-.53.95-.17 1.88-.48 2.82-.7 3.03-.74 6.26-.16 9.22-1.4.24-.1.56.03.84.04 2.54.09 5.02-.89 7.59-.44 2.87-.96 5.9-.2 8.83-.85 1.11-.24 2.3.08 3.52-.23 1.19-.29 2.46.22 3.8-.21 1.34-.44 2.8.36 4.37-.13 1.38-.43 3.04 0 4.62-.17 1.89-.22 3.81.3 5.79-.05 1.58-.28 3.23.3 4.93-.1 1.23-.3 2.67.01 3.95.32 1.34.33 2.5-.6 3.8-.28.74.18 1.52.16 2.28.23.85.08 1.72.08 2.55.26.72.16 1.72-.4 1.92-.15.89 1.12 1.47-.28 2.27-.11 1.57.34 3.3.06 4.79.58 1.6.56 3.06-1.08 4.52.07 1.51-.29 3 0 4.5.12l3.13.29c1.05.08 2.1.12 3.06.66.9-.83 2 .26 2.94-.32-.13-.48-.91-.8-.22-1.43.77-.7.67-1.44-.03-2.16-.25-.26-.56-.52-.43-.95-.03-.73 2.04-.08.98-1.5-.53.56-1.28.54-1.88.86-.05-.18-.08-.36-.14-.52a11.32 11.32 0 0 1-.6-5.98c-1.18-1.45-1.18-1.45-2.54-1.88-.26-.64.25-1.45-.44-2l.23-.18 1.28.12c-1.4-.73-.62-1.55-.98-2.28l-1.31-.29c-.23-.48-.35-1-.6-1.48-.45-.84-.67-1.81-.93-2.74-.1-.37.92-.41.34-1.04-.37-.38-.33-.97-.65-1.46-.75-1.09-.97-2.46-1.5-3.64-.49-1.09.03-2.17-.53-3.17-1.4-2.48-1.63-5.3-2.44-7.97l1.23-.3c-.33-1.03-1.54-1.02-1.97-1.87a7.96 7.96 0 0 0-.9-3.9c-.05-.1.13-.32.2-.48.64-.4.85.43 1.4.47.18-.33.27-.66-.04-.98l-2-.3.27-2.97c-.38-.72-1.18-1-.98-1.9 0-.26.7-.2.47-.7-.27-.1-.63-.12-.75-.3-.26-.39-1.76-7.4-1.73-7.73.01-.06.07-.13.1-.2l1.05-.25c-.35-.79-1.33-.09-1.65-.81.55-.4 1.44-.23 1.73-1.06-.37-.27-.44-.87-1.14-.88l-.82.44c-.49-1 .38-1.84.33-2.7a6.54 6.54 0 0 0-.79-2.89c-.5-.35-1.06.02-1.4-.45.1-.43.76-.55.47-1.49 0 0-.26-.3-.57-.5-.32-.23-.72.55-.77.23-.15-.95-.88-.85-1.43-1.22-.68-.47-1.34-.72-2.03-.63-.76.1-1.17-.83-2.14-.32-.7.37-1.87.01-2.79-.2-2.68-.61-5.38-.04-8.06-.03-1.43 0-2.9.19-4.36.03-1.63-.18-1.6-.07-3.06.23-.58.12-1.01.94-1.75.42-1.03-.73-2.2.23-3.26-.24-3.03 1.36-6.37.76-9.47 1.5-1.4.32-2.8-.2-4.04.27-2.07.77-4.28.43-6.31 1.03-1.4.41-2.83-.17-4.06.24-2.75.92-5.7.34-8.4 1.41-1.56-.45-3.06.33-4.64.22-1.56-.11-3.16.56-4.75.56-.79 0-1.26.72-2.1.48-.7-.2-1.65-.39-2.18-.06-.79.48-1.47.27-2.16.16-.79-.12-1.28.68-2.1.43-1.73-.51-3.46.67-5.21.07-1.22.8-2.6-.02-3.78.3-1.4.36-2.73.1-4.1.14-1.57.06-3.2.16-4.29 1.66.66.43.5 1.05.36 1.57-.62 2.4.06 4.8.02 7.2-.01 1.03.44 2.18.14 3.22-.36 1.26.45 2.3.31 3.52-.18 1.7.18 3.4.52 5.07.27 1.32-.45 2.73.3 4.05.14.25-.66.3-.48.77l1 .45c-.25.23-.64.54-.6.6.76 1.3.64 2.75.85 4.16.08.51.55.87-.03 1.4-.5.47.15.99.26 1.37a30.29 30.29 0 0 1 1.42 8.1c.02.93.65 1.29 1.01 1.9-.07.06-.15.11-.21.19-.14.17-.51.2-.2.6.57.7.12 1.77.97 2.47.75.61-.4 1.87.6 2.55.25 3.22 1.58 6.14 2.65 9.1 1.26 3.5 2.4 7.07 3.98 9.55 1.54 1.53 2.73-.3 3.83.84Zm5.93 7.54c-1.49.53-2.7 1.7-4.17.36-.28-.26-.4.2-.62.27-2 .67-4.02.23-6.04.14-1.01-.05-1.6-.76-2.35-1.2-.57-.34-.36-.71.12-1-.51-.38-.16-1.23-.75-1.53-.5-.15-.75.17-1.04.4-.59-.17-.12-.79-.49-1.11-.61-.54-.01-1.27-.17-1.87-.36-1.39 0-3.14-1.9-3.8a.86.86 0 0 1-.51-.97c0-.77.77-.22 1.06-.54.16-.12.16-.32-.08-.4-1.87-.59-1.88-.58-1.89-2.92-.32-.14-.63-.3-.9-.41-.39-.82.63-.9.63-1.48-1.78-3.33-2.7-4.22-2.28-8.82l-.66.48c-.2-.44-1.3-.74-.2-1.39-.32-.62-.7-1.23-.93-1.89-.52-1.5-.82-3 .49-4.25-.5-.77-1.65-.73-1.66-1.78-.05-.48.45-.55.71-1.02-.26-.63-.26-1.52-1.21-1.95-.58-.26-.26-.82-.24-1.25.02-.47.78-.55.65-1.17-.88-1.4-2.05-2.78-1.06-4.48l-1.48-1.77c.13-1.27.78-2.22.1-3.27-.5-.76.57-2.01-.4-2.9.53-1.56-.45-3.07-.15-4.64.4-2.1.23-4.17-.45-6.2a1.06 1.06 0 0 1-.05-.53c.57-2.68-.33-5.36.12-8.06.3-1.89.67-3.82.07-5.8-.26-.84-.24-2.28.28-2.73.92-.8-.76-2.07.72-2.45.1-.94-.01-2 .4-2.76.27-.49.35-1.37 1.08-1.5 1.1-.2 1.37-1.3 2.16-1.82.43.26.76.63 1.38.65 1.52.05 3.22.75 4.49.26 1.36-.52 2.8.45 3.97-.62.2-.18.75-.01 1.11.08 2.3.59 4.62-.47 6.92.06 3.69-.8 7.53-.24 11.2-1.25 2.84.52 5.59-.57 8.44-.47 1.1.04 2.45.13 3.47-.23 1.22-.42 2.56.24 3.46-.34 1.15-.75 2.5.57 3.42-.63 1.56.36 3.12.1 4.63-.2 2.46-.47 5.05.3 7.46-.85.6-.28 1.5-.08 2.21.1.81.2 1.3-.51 2.1-.46 2.72.16 5.41-.66 8.15-.34 1.45-1.03 3.1.2 4.57-.4 1.5-.59 2.97.02 4.43.14.97.09 1.71-.62 2.67-.4.83.2 1.7.27 2.55.24.68-.02 1.26.75 1.62.54.57-.32 1.06-.23 1.6-.22 1.26-2.2 3.22-2.97 5.68-2.92 2.2.04 4.31.63 5.6 2.31 1.78 2.35 3.87 4.55 4.9 7.42 1.45 3.97 2.67 8 3.67 12.11.8 3.33 1.76 6.63 2.57 9.96 1.5 6.15 2.97 12.32 4.46 18.48 1.04 4.27 2.12 8.54 3.15 12.81.33 1.38.52 2.78.85 4.16.56 2.4 1.24 4.77 1.76 7.17.71 3.28 1.36 6.57 1.94 9.88.15.92.41 1.7.93 2.48.77 1.16.72 1.2-.5 2.5l-.57-.63c-.6.8-.34 1.18.52 1.22.46.48.08.95.15 1.38-.24.42-.67.22-.97.32-.5.58-.16 1.3-.47 1.92-.72.06-1.22.46-1.43 1.26l-6.85-.64-1.06-1.21c-1.44 1.26-2.96 1.99-4.81.84-.47.67-1.09-.43-1.73.2-.31.3-1.31.06-1.92-.16-.8-.29-1.29.8-2.05.35-.32-.53.43-.46.4-.82-1.15-1-.93.58-1.44.78l-.53-.58-.65.45-.94-1.14c-1.34.45-2.7 1.08-4.13.67-1.34-.39-2.49.48-3.81.3-1.23-.16-2.55-.77-3.8.14-.24.17-.74-.06-1.12-.07-.9-.02-1.65-.6-2.67-.32-.86.24-1.91.01-2.82-.23-1.15-.3-2.08.55-3.24.37-1.03-.16-2.22-.8-3.22.2-.04.05-.19 0-.28-.02-2.67-.66-5.37.23-8.06-.14-1.05-.15-2.1-.42-3.25.16-.79.4-1.81-.56-2.92-.27-.59.15-1.19.43-1.79.45-.53.02-1.25.2-1.6-.3-.62-.88-1.08.64-1.62.03-1.06.7-2.21-.22-3.33.24-1.1.44-2.37.18-3.49.35-2.86.44-5.78-.04-8.6.71-1.3-.84-2.66.08-4.04-.16-1.37-.24-3-.18-4.24.37-.9.4-1.37-.54-1.8-.17-.6.52-1.28-.13-1.84.39-.64.6-1.44.06-2.16.11-.45.03-.89-.19-1.34.17-.88.7-1.48-.15-2.25-.53Z"/></svg>