<svg width="791" height="529" fill="none" xmlns="http://www.w3.org/2000/svg"><path fill-rule="evenodd" clip-rule="evenodd" d="M755.97 436.08c.04-3.28-.32-5.67-.8-8.22-.77-4.18-2.16-8.16-3.09-12.26-1.41-6.25-4.18-11.99-6.39-17.91-.72-1.93-1.42-4.07-2.6-5.94a26.75 26.75 0 0 1-2.92-5.8c-.08-.22-.38-.97-1.27-.33.22.9.18 1.8.75 2.96 2.2 4.42 3.58 9.2 5.38 13.79 1.93 4.92 3.48 9.94 4.85 15 .73 2.7 1.59 5.44 2.36 8.08.96 3.28 1.29 6.94 3.73 10.63M498.54 257.17c1.37-.06 1.85 1.31 3.48.75 1.62-.56 2.61-1.67 3.95-2.42 1.86-1.05 2.59-2.87 2.68-4.74.07-1.6 1.38-1.04 2.07-1.78.12-3.23-.04-6.44-3.5-9.16-2.74 6-7.73 10.32-8.68 17.35m114.73 429.25c-7.67 3.75-24.45 16.9-26.73 23.82 2.04-1.28 4.33-1.53 5.04-4.2.25-.98 1.73-1.57 2.34-2.53.88-1.38 2.53-.08 3.52-1.34 1.02-1.3 3-2.03 3.64-3.43.88-1.92 2.9-1.87 4-3.25 1.02-1.3 2.13-2.89 3.55-3.43 1.67-.63 1.86-2.98 3.72-2.85 1.97.14 1.46-2.8 3.41-2.47 1.7-1.99 4.4-2.76 6-4.91.56-.77.84-1.35.03-2.18-2.24.33-3.77 2.05-5.39 3.13-1.18-.17-1.6-1.72-2.83-.86-.08.09-.28.2-.28.33-.03 1.33-.02 2.66-.02 4.17m42.16 19.85c-4.82 1.75-7.49 6.04-11.53 8.6-4.19 2.65-8 5.77-11.82 8.9-3.93 3.22-7.69 6.64-11.5 9.96.8.4 1.86.61 2.58-.14 2.7-2.78 7.35-2.64 9.41-6.34 2.8-.04 4.06-2.38 5.94-3.84 1.33-1.04 2.96-1.72 4.25-1.62 1.2-2.03 2.35-3.25 4.27-4.13 1.59-.73 2.48-2.73 4.41-3.16-1.29-2.74-1.08-2.99 2.94-4.08-.12-.63-1.1-.75-.8-2.04l1.85-2.1M526.83 559.8c5.95-7.67 10.63-15.97 15.06-24.4 5.34-10.13 10.4-20.43 15.65-30.61.6-1.15.64-2-.16-3.14-11 18.43-20.55 37.46-30.52 56.26-.27.5-.04 1.26-.04 1.9M160.56 297.56c-1.7 1.7-3.41 3.17-4.81 4.88-1.38 1.68-3.25 2.76-4.72 4.4-1.96 2.19-3.36 4.78-5.51 6.81-4.26 4.02-7.77 8.7-11.41 13.28-5.71 7.17-10.1 15.16-14.79 22.96-1.08 1.8-1.88 3.77-2.8 5.67 15.17-18.7 28.14-38.97 44.37-56.72.11-.13-.14-.58-.33-1.28M388.04 816.9l.8 3.29c-2.68.13-1.03 3.54-3.6 4.25-2.71.17-5.96-.32-9.1.95-1.45.58-1.32 1.08-.64 2.07 2.4-.05 4.88.46 6.8-1.06 1.16.46.38 1.75 1.44 2.07 3.11 0 6.54.75 9.4-.2 3.15-1.06 6.13-.58 9.17-.77 3.16-.19 6.35-.04 9.52-.04.84 0 1.68.04 2.5-.02.29-.02.56-.26.84-.4.01-.8.3-1.61-.2-2.36-2.96 1.15-2.88 1.01-4.89-.77-1.06-.94.07-1.55-.12-2.16-.55-1.84-2.6-.91-3.58-1.81-.91-.62.7-1.96-.95-2.43-.7 1.58.64 3.88-1.83 4.77-2.67-1.26-2.67-1.26-4.44 1.5-.08 1.25 1.9.08 1.87 1.59-1.24-.17-2.67 1-3.03-1.39-.1-.71-2.03-1.15-2.66-1.48-1.16-.08-1.17 1.14-1.97.64-1.3-.83-1.42-2.28-2.09-3.33.58-.86 1.6-1.21 1.75-2.1-1.64-1.03-2.07 1.25-3.4.68l-1.59-1.5m31.9-127.25c.15-3.56 2.54-6.33 3.36-9.65 1-4.09 2.33-8.08 3.42-12.14.92-3.48 2.02-6.87 2.68-10.44.68-3.65 2.15-7.13 3.04-10.77.92-3.78 1.69-7.63 2.98-11.3.72-2.06 1.53-4.05 1.98-6.2.5-2.44 1.01-4.94 2.05-7.17 1.06-2.26.1-5.24 2.68-6.96.63-.4.34-1.52.1-2.3-.12-.38-.67-.98-.62-1.03 2.12-2 1.34-4.93 2.6-7.48-.95.18-1.5 0-1.89 1.18-1.76 5.45-3.88 10.77-5.6 16.23-.6 1.92-1.77 3.78-1.37 5.96-2.39 3.97-2.84 8.61-3.8 12.93-.98 4.45-2.28 8.84-3.43 13.2-2.55 9.62-4.6 19.4-7.85 28.82.58 2.42-2.07 4.5-.33 7.12M95.8 634.86c-.6-1.19-.95-2.51-1.8-3.3-.47-.43-1.22-.29-1.51-1.36-1.2-4.34-2.4-8.69-4.05-12.86-.84-2.14-1.1-4.53-2.77-6.4-4.45-4.97-8.78-10.05-13.14-15.1-.41-.48-1.11-.73-1.1-1.56 0-1.16-1.11-1.58-1.78-2.25-.58-.59-.98-1.58-2.51-1.65 3.02 7.04 6.68 13.32 10.44 19.53 3.56 5.9 7.21 11.75 10.98 17.52 1.72 2.63 3.12 5.4 4.61 8.13.2.36.64.57.84.73l1.79-1.43m277.46-281.1c2.13-.35 1.59-2.4 2.79-3.41 1.19-1 2.17-2.3 3.11-3.65 3.57-5.13 7.6-9.94 11.49-14.84 2.8-3.53 5.75-7.03 8.3-10.67 2.57-3.64 5.62-6.92 7.98-10.69 2.24-3.58 5.93-6.16 7.05-10.5-2.38-1.68-4.2-1.69-6.09.6-2.72 3.32-5.2 6.85-7.72 10.33-1.76 2.44-3.21 5.1-5.12 7.4-3.76 4.53-6.74 9.59-9.87 14.5-3.79 5.95-7.56 11.92-11.42 17.82-.72 1.11-.9 1.98-.5 3.1M579.54 725.9c1.91-1.96 4.48-2.77 6.81-4.01 2.76-1.48 5.28-3.4 8-4.94 1.03-.6.71-2.6 2.5-2.22 2.67-4.84 7-7.93 11.41-11.07l1.56 1.06 1.44-1.36-.96-1.06c.67-1.18 2.31.33 2.9-1.14l-1.77-.67c.17-3.06.17-3.07 2.98-3.68.55-.12.88-.33.88-.93.13-.82-.64-1.08-1-1.59.55-1.14 2.82-1.53 1.8-3.28-3.21 1.03-4.96 3.71-7.34 5.57-2.76 2.16-5.68 4.11-8.33 6.46a229.04 229.04 0 0 1-7.8 6.68c-2.97 2.42-6.3 4.41-9.01 7.2-.94.95-1.74 2.32-2.88 2.72-1.51.54-2.4 1.62-3.44 2.6-1.11 1.05-2.17 2.16-3.2 3.18 2 1.76 3.79-2 5.45.48M537.9 851.16c.98.67 1.87.55 2.81.13 3.95-1.8 8.12-3.09 12.18-4.55 7.3-2.65 14.38-5.76 21.41-9a372.8 372.8 0 0 0 35.12-18.33c4.85-2.9 9.67-5.86 14.35-9.03 5-3.39 9.74-7.17 14.72-10.59 4.79-3.28 9.05-7.2 13.66-10.68 3.88-2.94 7.06-6.7 11.23-9.28.83-.51 1.46-1.37 2.15-2.1.67-.73 1.58-1.33 1.93-2.19-1.14-.64-1.61-.19-2.08.33-2.1 2.3-4.68 4.17-7.14 5.9-5.92 4.17-11.28 9-17.06 13.3-3.08 2.31-6.01 4.98-9.22 6.95-7.22 4.45-14.11 9.39-21.36 13.8-9.75 5.94-19.9 11.1-29.78 16.73-2.35 1.34-5.02 1.76-7.28 3.06a89.75 89.75 0 0 1-15.56 7.34c-4.11 1.4-7.84 3.64-12.1 4.83-2.63.73-5.52 1.69-7.98 3.38M43.82 328.89l1.48-1.55c-1.08-.82-1.16-2.16-1.82-3.14.63-1.93 3.35.36 3.78-1.89-.39-.85-1.72-.03-1.93-1.16-.3-1.73 1-2.9 1.51-4.32.8-.21 1.71.38 2.4-.4-.8-1.05-1.5-2.13-.6-3.43 1.78-2.59 2.27-5.99 4.97-7.98.99-.72.58-2.24 1.76-2.8-.69-2.37 1.04-3.93 2.04-5.67 3.28-5.69 6.48-11.43 10.07-16.92 4.78-7.27 9.57-14.58 14.99-21.38 3.73-4.69 7.07-9.77 11.6-13.82.7-.63.79-1.32.14-1.82-18.28 15.81-30.74 35.8-41.32 57.16-.62-.66-1.12-1.4-2.15-.95-.8 1.65-1.41 3.46-2.45 4.97-1.3 1.87-1.3 3.5.15 4.91l-2.66 5.03c-.82.08-1.86-.08-2.05.25-1.3 2.31-3.46 4.39-2.28 7.49-2.25-.16-1.96 1.99-3.04 2.76.82 1.7-2.28 2.8-.55 4.84 1.22 1.45.52 2.9-1.34 3.57l-.82-.81c.18 1.51-2.07 2.12-1.33 3.7.82.85 1.13-1.4 2.02.09-1.06 2.57-1.9 5.46-3.4 7.94-1.01 1.66-.8 2.87-.38 4.72 1.17-2.02 1.43-4.18 3.6-4.88-.7-.7-1.5-1.26-.51-2.46.9-1.1 1.97-.97 3.1-1.07.42-.03.48-.44.25-.67l-2.02-.72c1.92-3.63 3.24-7.42 5.74-10.65l1.05 1.06m44.59-21.04c3.8-2.1 5.49-5.6 8.04-8.22 2.2-2.24 4.08-4.95 6.03-7.5 2.12-2.74 4.72-5 6.79-7.71 3.05-4 6.06-8 9.64-11.54.95-.94 2.26-1.74 2.73-2.89 1.28-3.07 4.12-4.65 6.17-6.96 2.06-2.3 3.45-5.16 5.96-7.12.67-.51 1.48-.44 2.15-1.46 2.78-4.23 7.25-7.08 9.9-11.5 2.03-.28 2.18-2.45 3.46-3.51 1.3-1.08 2.43-2.38 3.74-3.69-2.42-1.05-2.9 1.08-4.03 1.74a84.66 84.66 0 0 0-13.85 10.18c-8.3 7.54-15.72 15.95-22.66 24.75-1.72 2.18-3.76 4.07-5.36 6.3a910.83 910.83 0 0 0-15.96 22.99 15.9 15.9 0 0 0-2.75 6.14m180.38-180.7c-1.93-1.45-3.14-.63-4.36.28v3.43c-3.04.16-2.35 3.96-5.15 5.17-2.3 1-3.95 3.45-5.87 5.24.48 1.12 2.06.27 2.42 1.7 1.69-1.5 2.87-3.74 5.57-3.21v-2.38c1.98-.52 3.15-2.12 4.5-3.47 1.29-1.28 3.74-1.4 3.86-3.84 2.4.23 2.3-2.56 4.04-3.36 1.57-.72 2.71-2.4 4-3.7 1.38-1.36 2.41-3.13 3.71-4.4 1.31-1.27 2.22-2.93 3.72-3.98 1.56-1.09 3.6-1.76 4.3-3.66.77-2.05 2.3-2.97 4.16-3.8-.77-3.21 1.82-3.37 4.1-3.82l-1-1c.05-1.21 1.39-.26 1.76-1.05 1-2.16 1.93-4.6 3.95-5.84 2.27-1.4 3.4-3.66 5.15-5.41a541.53 541.53 0 0 1 21.26-20.14c.5-.45.9-1.23 1.45-1.34 3.3-.7 4.96-3.5 7.35-5.36 2.59-2.02 4.77-4.64 7.46-6.3 4.04-2.52 7.99-5.04 11.17-8.4.66.24.71 1 1.07.81 1.93-1.78 3.43-4.26 5.38-4.7 2.64-.6 3.43-2.56 5.79-4.06-4.77.5-4.77.5-7.32 2.99-1.58-1.2-3.22 1.19-5.07-.08-.44 1.82-.13 4.29-3.15 3.93-.6-.07-1.04.23-1.23.65-1.4 3.1-4.67 4.01-7.08 5.88-1.9 1.47-3.94 3.33-6.56 2.64a9.54 9.54 0 0 1-4.6 5.1l-1.33-1.24-1.74 3.86c-1.74.05-3.23.92-4.74 1.76v2c-1.6.23-2.53 1.43-3.49 2.5-.88 1-2.46.95-2.94 2.73-.34 1.27-2 2.17-3.06 3.24-1.13.24-2.42-.3-3.74.57l2.77 1.09c-2.7.09-2.7 2.22-3.91 3.29-2.01 1.76-3.82 3.75-5.72 5.65.84 2.03-2.17.89-2.07 2.6.1 2-2.45-.08-2.83 1.5l.3.37-6.81 6.82c-.52.7-.65-1.25-1.45-.31-1.4 1.43 2.3 1.97.47 3.43-.67.2-.69-1.08-1.54-.52-.5.79.37 1.98-.67 2.72-.52-.66-1.05-1.32-1.51-1.15-1.1.47-.98 1.02-.97 1.5.04 2.13-.38 4-2.7 4.83-.03 2.06-2.24 1.9-3.17 3.1-1.02 1.32-2.64 2.22-3.46 3.62-2.67 4.51-7.02 7.39-10.47 11.52M5.08 415.8c-1.44-.9-1.27-2.5-.9-3.6 2.29-6.98 3.45-14.25 5.51-21.3 1.09-3.71 2-7.64 2.48-11.57.38-3.12 1.93-5.93 2.4-9.07.5-3.38 1.94-6.57 2.69-9.94.62-2.85 2.26-5.4 3-8.3a126.2 126.2 0 0 1 3.99-12.41c.95-2.62 1.55-5.43 3.42-7.62.5-.57.38-1.2.6-1.78.9-2.47 1.72-4.95 2.92-7.33 2.52-4.97 4.56-10.2 7.15-15.12 1.88-3.58 3.54-7.25 5.31-10.88a290.9 290.9 0 0 1 5.33-10.35c4.33-8 9-15.8 14.24-23.25a189.37 189.37 0 0 1 13.36-16.64c3.84-4.33 7.56-8.79 11.91-12.54 3.5-3.02 6.57-6.56 10.27-9.2 3.48-2.5 6.86-5.2 10.26-7.76a374.82 374.82 0 0 1 24.26-16.82c4.89-3.11 9.87-6.14 14.69-9.32 5.65-3.72 11.68-6.78 17.34-10.5 3.31-2.16 7.03-3.97 10.54-5.95 3.4-1.93 7.03-3.37 10.3-5.5 3.28-2.13 6.88-3.76 10.3-5.53 3.23-1.66 6.29-4.18 10.17-4.53 1.66-2.74 4.92-2.73 7.37-4.1 2.41-1.34 5-2.58 7.31-4.06 2.38-1.53 4.85-3.02 7.25-4.47 4.87-2.93 9.43-6.31 14.26-9.24 2.96-1.8 5.15-4.34 7.86-6.33a97.13 97.13 0 0 0 14.28-12.98 25.58 25.58 0 0 1 5.88-5.01c1.7-1 1.76-3 3.18-4.18 2.3-1.92 4.3-4.23 6.46-6.33.72-.7 1.35-1.39 1.16-2.46l2.56-.27c.77-.76-.49-.67-.4-1.3.8-.94 1.42-2.17 2.88-2.61 1.37-.42 1.13-2.07 2.2-2.9 2.36-1.83 2.92-5.52 6.4-6.28.96-2.78 3.3-4.58 4.94-6.9a5.82 5.82 0 0 1 3.46-2.52c1.32-.3.44-2.77 2.4-2.5 2.02-4.57 6.56-6.68 10.05-9.65 5.6-4.76 10.86-9.97 17.3-13.82 3.22-1.92 6-4.86 9.25-6.88 7.3-4.55 14.3-9.6 22.13-13.26 3.24-1.52 6.15-3.76 9.4-5.24 6.9-3.15 13.8-6.31 20.93-8.93 1.33-.49 2.57-1.23 4.14-.95 1.7.29 2.28-1.65 3.8-2.16 1.8-.6 3.7-.26 5.53-1.24 1-.54 2.8-.65 3.96-1.27 3.8-2.02 8.3-1.6 12.05-3.72 1.41-.8 3.2-.49 4.72-.58 5.14-.33 9.85-3 15.03-2.62 2.84.2 5.45-.43 7.93-1.53.8-.35 1.62-.75 2.28-.48 2.29.98 4.51-.02 6.72-.15 2.36-.13 4.66-1.09 7.13-.93 2.5.15 5.22.63 7.5-.1 4.07-1.3 8.13-.77 12.19-.8 2.02-.02 4.23-.9 6.16.88 1.01.94 1.87-2.17 3.39-.51.9.98 1.92.7 3.08.1 1.06-.56 2.3 1.23 3.33.4 1-.82 2.65-1.47 3.01-.87.92 1.53 2.33-.56 3 .75.05.1.28.19.41.17 4.46-.53 8.67 1.44 13.16 1.13 2.63-.18 5.43.45 7.97 1.28 2.43.8 4.95 1.11 7.38 1.49 4.24.65 8.1 2.55 12.3 3.15 1.14.17 1.42 2.96 3.25 1.08.92 1.45 2.44.6 3.61 1 .87.29 1.54 1.16 2.52 1.95 2.36-.22 4.55.86 6.96 1.82 4.63 1.85 9.16 3.89 13.48 6.28 5.95 3.29 12.13 6.33 16.88 11.38.98 1.04 2.19.18 3.14 1 5.55 4.74 11.57 8.9 16.27 14.67 1.97 2.41 4.9 4.2 6.94 6.65 4.1 4.94 8.82 9.29 12.25 14.9 2.03 3.32 4.66 6.43 6.82 9.77 4.5 6.94 8.72 14.05 11.44 21.9 2.04 5.86 4.21 11.69 5.78 17.72.54 2.08.34 4.25 1.02 6.1a14 14 0 0 1 .84 5.67c-.07 1.51 1.43 2.44 1.13 4.12-.24 1.32-.52 2.83.76 4.2.6.64.14 2.24.15 3.41 0 1.68.26 3.4-.08 5.01-.28 1.32 1.85 2.42.15 3.68 1.59 1.29.79 3.07.91 4.64.12 1.5.03 3.01.03 4.52v5.03c0 1.5-.4 3.15.08 4.49.91 2.59.22 5.23.78 7.86.62 2.88.24 6 .11 9.01-.11 2.63 1.46 4.92 1.1 7.64-.33 2.63-.67 5.54.1 7.98.86 2.76 0 5.7 1.07 8.08 1.27 2.82.05 5.6.83 8.2 1.7 5.7 1.55 11.72 3.11 17.33 1.97 7.08 3.04 14.36 5.36 21.37 1.5 4.57 3.17 9.1 4.67 13.67 1.5 4.52 3.91 8.77 6.17 13a112.9 112.9 0 0 0 9.87 15.04c3.67 4.8 8.01 9 11.73 13.74 1.7 2.15 3.75 3.95 5.4 6.18 1.77 2.4 4.47 4.1 6.25 6.5 4.46 5.99 10.48 10.67 14.28 17.19 6.83 6.47 11.13 14.9 16.96 22.15 2.9 3.62 4.8 8.04 7.21 12.06 4 6.68 7.3 13.7 10.67 20.7a162.2 162.2 0 0 1 7.82 19.89c1.6 4.87 2.97 9.82 4.65 14.66.7 1.97-.27 4.27 1.4 5.95-.18 4.71 2.35 9.02 2 13.75 1.56 2.73 1.12 5.74.94 8.62-.13 2.2 1.58 3.85 1.16 6.14-.39 2.1-.7 4.59.05 6.47 1.37 3.42.78 6.8.83 10.19.13 7.87.14 15.75 0 23.62-.06 2.58.8 5.26-.58 7.79-1.21 2.21.48 4.86-1.04 7.11-.55.82 1 1.34.7 2.46-.59 2.17.67 4.5-.79 6.73-1.13 1.73.59 4.17-1.09 6.09-1.01 1.15 2.38 2.8-.16 4.1.42 2.8-.56 5.43-1.02 8.12-.38 2.23.65 4.52-.7 6.76-1.15 1.91.64 4.6-1.3 6.48.72 3.33-1.19 6.34-1.11 9.64.06 2.49-.62 5.04-1.24 7.5-.96 3.8-1.82 7.63-2.57 11.46a38.1 38.1 0 0 1-1.12 4.09c-.23.75-1.05 1.1-1.04 2.1.05 6.27-2.27 12.08-4.14 17.88-1.12 3.5-1.94 7.18-3.72 10.53-.48.9-.44 2.59-1.2 3.48-2.25 2.6-2.8 5.93-3.85 8.97a17.53 17.53 0 0 1-2.23 4.61c-.2.27-.67.48-.67.72-.07 4.48-3 7.82-4.7 11.63-1.65 3.68-3.98 7.07-5.53 10.78-3.12 7.5-7.76 14.18-11.16 21.51-1.11 2.4-2.72 4.56-3.76 6.25-.55 1.67.96 1.8.73 3.1-.24 1.15-1.4 1.62-2.95 2.01.69 3.67-2.1 6.07-3.73 8.81a275.38 275.38 0 0 1-12.42 18.98c-2.9 4.04-5.68 8.15-9.09 11.88a726.5 726.5 0 0 1-33.58 34.25c-4.4 4.21-8.8 8.47-13.42 12.45-3.92 3.38-7.86 6.81-11.97 9.92-9.62 7.27-19.25 14.54-29.42 21.09-7.77 5-15.8 9.5-23.84 14.04a212.41 212.41 0 0 1-15.77 8.04 621.03 621.03 0 0 1-26.01 11.24c-8.24 3.33-17.04 4.83-25.08 8.6-5.47.01-10.24 3.41-15.74 3.25-2.33 1.6-5.2 1.33-7.75 1.82-2.63.5-5.23 1.72-8.1 1.28-1.31-.2-2.5 1.24-4.1.98-1.34-.22-2.8-.29-4 .7-1.22-1.58-2 .82-3.33.35a6.86 6.86 0 0 0-4.45-.01c-3.2 1.27-6.69.08-9.6 1.1-3.17 1.13-6.29.03-9.17.92-3.54 1.1-6.85-.85-10.27-.15-.3.06-.74-.58-1.12-.9-.73.3-.37 1.11-.83 1.85-1.12-.63-2.2-1.56-3.43-1.83-1.43-.32-3-.08-4.75-.08l-2.6 3.17c-2-.48-3.57.21-5.26-.66-.73-.38-2.55.34-3.87.58-1.73.3-3.25-1.65-4.48-.8-1.64 1.1-3.2.69-4.75.7-14.58.06-29.15.05-43.73 0-1.56 0-3.35.73-4.64-.9-1.6 2.47-3.04-.49-4.68-.16-1.5.3-3.08-.32-4.64-.73-2.67-.7-5.65-.13-8.5-.21-1.9-.06-3.76.29-5.68-.87-1.54-.92-3.69-.24-5.67-.75-2.38-.6-4.9-1.43-7.5-1.39-1.76.03-3.45.07-5.17-.9-1.28-.71-3.31.6-4.55-1.1-3.43.2-6.5-1.24-9.74-1.95-7.79-1.7-15.38-4-22.9-6.62-6.3-2.2-12.63-4.28-18.9-6.54a90.47 90.47 0 0 1-6.04-2.42c-7.08-3.14-14.3-6.12-20.96-10-5.94-3.48-12.04-6.68-17.85-10.42-3.08-1.99-6.63-3.38-9.86-5.26a335.05 335.05 0 0 1-22.32-14.05c-6.35-4.39-12.82-8.61-18.27-14.19-1.43-1.46-3.28-2.51-4.8-3.9-1.74-1.56-3.14-3.6-5.05-4.87-2.48-1.66-4.35-3.97-6.7-5.68-1.82-1.33-1.61-4.18-4.47-4.77-2.08-.44-2.14-3.84-4.59-4.43-.82-3.1-4.3-3.76-5.8-6.54-1.44-2.68-4.32-4.6-6.57-6.85-2.26-2.25-4.8-4.3-6.7-6.81-3.53-4.63-8.12-8.27-11.7-12.77-3.4-4.29-7.75-7.85-10.25-12.8-.59-1.18-1.63-.7-2.3-1.44-.69-.78-.59-1.82-1.34-2.5-3.04-2.73-5.55-5.96-8.1-9.13-3.63-4.5-7.14-9.1-10.8-13.56-5.67-6.93-10.6-14.33-15.5-21.78-3.2-4.85-6.2-9.81-9.28-14.74-3.56-5.73-7.17-11.42-10.61-17.22-2.62-4.42-4.94-9.02-7.51-13.47a299.33 299.33 0 0 0-6.39-10.42c-3-4.77-5.85-9.64-8.82-14.41a213.13 213.13 0 0 1-11.35-20.97c-1.73-3.61-3.5-7.23-4.77-11.1-.8-2.43-1.82-5-2.98-7.28-2.37-4.68-3.35-9.7-4.94-14.56-.56-1.72-.64-3.45-1.07-5.1-.4-1.55-.63-3.08-.95-4.63-.94-4.63-1.03-9.44-2.77-13.91a2.08 2.08 0 0 1-.16-.94c.6-5.28-1.49-10.36-1.08-15.67.37-4.73-1.62-9.37-.94-14.16-1.71-2.71-.44-5.81-1.07-8.61-1.7-7.54-.72-15.15-.9-22.72-.18-7.53-.02-15.08-.05-22.62-.02-5.34 1.33-10.5 2.17-15.73.18-1.12.95-2.33.84-3.62a7.43 7.43 0 0 1 2-5.7" fill="#D1D8EE"/></svg>