<svg width="198" height="173" fill="#582ef5" xmlns="http://www.w3.org/2000/svg"><path fill-rule="evenodd" clip-rule="evenodd" d="m153.54 143.53.22.86 4.74-1.43-.16-.62-4.8 1.19ZM331.82-37.84l.03-.68-25.6-1.28-.05.82 25.62 1.14ZM192.25 104.15c36.68-5.87 72.76-14.04 107.27-28.2a761.09 761.09 0 0 1-107.27 28.2Zm-11.92-12.33.17.73c8.4-1.57 16.83-3.03 25.21-4.71 22.14-4.44 44.21-9.16 65.9-15.5 8.77-2.57 17.46-5.42 26.16-8.26 4.41-1.44 8.74-3.14 13.11-4.71l5.05-1.79-.3-.9c-44.03 15.84-89.33 26.76-135.3 35.14Zm118.08-.57-.49-.78c-3.36 1.81-6.64 3.78-10.09 5.4a626.45 626.45 0 0 1-24.04 10.97 916.57 916.57 0 0 1-29.15 11.64c-1.52.58-3.26 2.3-5.12.4-.05-.04-.64.45-.98.7-1.07.77-2.04 1.89-3.24 2.26-18.36 5.79-36.75 11.48-55.13 17.18-2.68.83-5.4 1.57-8.1 2.35 1.58.22 3.03-.02 4.43-.45a17611.1 17611.1 0 0 0 58.67-17.82c1.94-.59 2.8-.45 2.52 1.86-.1.76.43 1.6.67 2.4.43-.72.93-1.41 1.27-2.17.78-1.73.4-3.81 3.02-4.77 9.9-3.6 19.74-7.4 29.5-11.4 6.44-2.65 12.71-5.75 19.04-8.69 4.12-1.9 8.25-3.81 12.3-5.86 1.74-.89 3.29-2.14 4.92-3.22ZM39.93 73.8l.35.6c3.73-2.4 7.4-4.9 11.21-7.2 13.45-8.1 27.4-15.27 42.1-20.82 12.92-4.88 25.87-9.87 39.15-13.56 16.68-4.63 33.67-8.21 50.62-11.81 7.12-1.52 14.47-1.95 21.71-2.83 4.24-.51 8.48-.95 12.73-1.4 4.27-.45 8.55-.87 12.83-1.3-3.32-.38-6.62-.7-9.83-.32-9.82 1.16-19.63 2.5-29.41 3.93-25.6 3.77-50.86 9.13-75.27 17.8-14.46 5.15-28.69 11.01-42.82 17.02A139.51 139.51 0 0 0 39.94 73.8ZM256.01-40.45C217.33-41 156.05-32.12 85.7 3.71c-17.86 9.1-34.82 19.82-50.39 32.56 66.51-47.23 140.17-73.64 220.71-76.72Zm102.55 13.83c-.45.43-.95 1.29-1.33 1.24-3.76-.49-7.5-1.14-11.26-1.7-.7-.1-1.44-.01-2.16-.02.48.53.87 1.2 1.44 1.57 3.32 2.19 6.78 4.17 10.02 6.47C366.2-11.3 372.9-.8 374.8 12.51c.51 3.62.08 7.37.08 11.79 7.93-5.9 14.4-12.02 18.11-20.38 1.81-4.07 2.14-8.66-.82-12.57-5.98-7.9-15.02-10.72-23.76-14.03-3.35-1.26-7.44-.67-9.86-3.94Zm-157.24 52.8 1.63-1.99c-.72-.1-1.3-.33-1.78-.2-1.07.3-2.09.77-3.12 1.18l3.37.91c-.7.53-1.36 1.41-2.1 1.5-1.44.17-3-.43-4.37-.13-2 .41-3.83 1.6-5.82 2.01-15.36 3.2-30.78 6.1-46.08 9.52-6.03 1.36-11.88 3.66-17.7 5.85-9.87 3.7-20.33 5.77-29.83 10.55-.8.4-1.84.3-2.66.67-3.1 1.38-6.19 2.8-9.21 4.34-2.8 1.42-5.43 3.16-8.25 4.5-2.73 1.3-5.66 2.16-8.44 3.36-7.46 3.22-13.49 8.62-19.79 13.53-3.48 2.72-6.42 6.18-9.39 9.5-1.55 1.74-2.73 3.84-3.93 5.88-1.29 2.2-.18 3.36 2.02 3.61 6.48.74 12.97 1.98 19.45 1.98 30.45.02 60.52-4.3 90.53-8.8 16.79-2.52 33.5-5.63 50.18-8.77 27.6-5.2 55-11.35 81.98-19.24 19-5.54 37.77-11.7 56.08-19.25 2.33-.96 2.09-1.84.71-3.36-4.57-5.05-10.54-8.26-16.65-10.43-7.85-2.8-16.23-4.07-24.37-6.08-.58-.14-.96-1-1.5-1.42-.66-.51-1.4-.91-2.1-1.36l-.82 1.01 2.25.42-.53.7c-1.45-.25-2.95-.89-4.34-.7-4.35.63-8.51-.77-12.82-.78-7.33-.02-14.65-.67-21.98-1.07-1.92-.1-3.84-.4-5.76-.41-1.72-.01-3.44.24-5.17.38-1.28.1-2.56.21-3.84.35-1.2.12-2.72.83-3.52.33-2.37-1.46-4.53-.55-6.71.04-1.9.52-3.64 1.34-4.78-1.17-.19-.4-1.05-.52-1.62-.7-.08-.01-.48.56-.42.69 1.16 2.22-.8 1.2-1.47 1.38-.9.25-1.86.35-2.79.5-1.6.23-3.2.47-4.8.67-1.93.26-4.17-.04-5.74.85-1.74 1-2.73.33-4-.36ZM78.35 27.3c-3.26 1.46-6.64 2.71-9.76 4.43A176.69 176.69 0 0 0 29.58 60.6c-4.03 3.97-7.1 8.9-10.68 13.35a31.26 31.26 0 0 0-7.11 18.43c-.1 2 .36 4.58 1.6 6 2.81 3.23 6.69 5.09 11.25 6.24-3.11-5.68-4.42-11.33-1.17-16.82a50.77 50.77 0 0 1 8.25-10.53c9.7-9.39 21.34-15.98 33.2-22.16 18.59-9.7 38.1-17.15 58.08-23.44 25.89-8.15 52.28-13.97 79.28-16.84 9.35-1 18.73-1.76 28.1-2.38 19.1-1.27 38.11-.43 57.02 2.43 10.28 1.56 20.4 3.68 30.17 7.55 9.94 3.95 18.97 8.65 23.83 18.84.6 1.24 1.28 1.66 2.63.96 3.23-1.69 6.57-3.16 9.76-4.9 2.6-1.44 5.6-2.67 7.44-4.82 4.14-4.81 6.74-10.53 7.13-17.03.3-5.09-.53-10.18-3.47-14.18-3.52-4.8-7.18-9.9-12.79-12.47-2.71-1.24-3.78-4.93-7.38-4.57-.3.03-.66-.92-1.03-1.38-1.14-1.43-3.59-.9-4.37-2.89-.16.08-.32.2-.5.23-.76.12-1.63.5-2.28.27-7.85-2.73-15.62-5.66-23.81-7.32-7.5-1.51-14.97-2.4-22.7-1.9-4.8.3-9.67 1.9-14.6.12-.95-.34-2.4 1.1-3.7 1.26-8.43 1.05-16.86 2.18-25.33 2.87-8.25.68-16.18 3.83-24.68 2.84-1.94-.23-4.55-.24-6.41 2.07-.84 1.03-3.2-.33-5.14.66-2.08 1.07-4.89.69-7.38.95-.08 0-.16.1-.24.12-5.48 1.3-10.77 3.32-16.13 4.85-20.3 5.8-40.53 11.77-60.25 19.36-4.45 1.71-8.8 3.72-13.34 5.1-6.06 1.85-12.29 3.05-17.62 6.9-2 1.44-4.67 1.92-6.98 2.95-.9.4-1.67 1.07-2.5 1.63l-7.38 4.36Zm181.35 73.2c-.75.46-1.44 1.16-2.25 1.36-13.97 3.37-27.86 7.14-41.95 9.86-17.95 3.47-36.06 6.14-54.13 9-4.58.72-9.25.78-13.87 1.31-2.9.34-5.77 1.17-8.68 1.47-7.6.79-15.2 1.45-22.82 2.05-1.33.1-2.7-.5-4.05-.47-.82.03-1.62.94-2.44.97-7.14.22-14.3.5-21.44.42-9.72-.1-19.47-.04-29.14-.9-14.73-1.3-29.36-3.63-41.92-12.39C8.78 107.46 1.63 100.9.25 90c-1-7.86 1.07-14.9 5.21-21.32 3.13-4.85 6.94-9.25 10.33-13.94.94-1.3 1.34-2.97 2.22-4.32 1.36-2.1 2.65-4.34 4.43-6.05 10-9.62 21.15-17.82 32.85-25.2A398.47 398.47 0 0 1 81.82 3.6c28.96-15.26 59.04-27.74 90.91-35.6 21.3-5.26 42.84-9.26 64.73-10.58 13.21-.8 26.51-.22 39.77-.16 10.74.05 21.48.25 32.22.38 19.68.22 39.13 2.33 58.02 8.1 9.45 2.9 18.3 7.03 25.35 14.32 8.1 8.38 10.7 23.27 5.46 33.73a55.4 55.4 0 0 1-18.22 20.93c-4.1 2.86-8.37 5.54-12.2 8.74-3.25 2.73-5.78 6.34-8.99 9.13-5.02 4.37-10.44 8.29-15.51 12.6-1.63 1.39-2.6 3.52-4.05 5.14-3.95 4.4-7.56 9.25-12.11 12.92-6.98 5.64-14.56 10.55-22.03 15.55-3.99 2.67-8.28 4.88-12.44 7.3-3.02.17-5.59 1.22-7.38 3.8-4.84 2.19-9.68 4.4-14.54 6.57-1.04.46-2.15.8-3.21 1.19l-11.71 4.67c-1.3.87-2.48 2.02-3.9 2.56a696.04 696.04 0 0 1-87.16 26.98c-18.68 4.44-37.3 9.25-56.12 12.99-16.5 3.27-33.26 5.31-49.93 7.8-2.66.4-5.4.21-8.1.4-3.12.2-5.78-.73-8.07-2.83a4.08 4.08 0 0 0-.9-.6c-.86-.45-1.73-.86-2.59-1.28l2.35-1.73c-.2-.17-.37-.37-.58-.48-.83-.42-1.68-.81-2.52-1.22.96-.58 1.88-1.6 2.87-1.67 33.37-2.28 65.49-11.03 97.7-19.13 37.68-9.47 74.87-20.66 111.1-34.79 8.35-3.25 16.6-6.77 24.76-10.46a142.48 142.48 0 0 0 17.33-9.38c-2.94 1-5.85 2.03-8.8 2.97-6.23 1.97-12.47 3.85-18.68 5.85-.84.26-1.53.98-2.29 1.48l-2.66.71Z"/></svg>