<svg width="198" height="173" fill="#ff76d9" xmlns="http://www.w3.org/2000/svg"><path fill-rule="evenodd" clip-rule="evenodd" d="m112 71.73-1.06-2.18-33.58 12 .64 1.68 34-11.5Zm55.16-19.28.62 1.69 161.5-40.07-.4-1.6-161.72 39.98ZM121.4 31.38l-.81-1.62C84.04 42.18 47.73 55.2 13.4 76.1c36.82-15.25 72.4-29.99 108-44.72Zm3.94 136.01-5.66 4.66-12.81-2.31-.16-1.75-5.22 4.68c-6.44-5.7-12.34-11-9.5-21.4 5.56-20.38 10.29-40.98 15.33-61.49 1.1-4.5 2.1-9.03 3.5-15.03-8.41 2.83-15.74 4.87-22.7 7.79-4.77 2-9 5.24-13.5 7.87a20.2 20.2 0 0 1-3.77 1.77c-12.17 4.05-24.33 8.14-36.56 12.03-4.88 1.56-9.92 2.65-14.88 3.96l.53-2.6c-3.66-2.68-7.06-5.86-11.03-7.96-9.73-5.15-12.36-18.64-3.56-25.44 9.96-7.7 20.55-15.21 32-20.27 26.6-11.78 53.82-22.2 80.95-32.77 4.91-1.91 7.35-4.21 8.78-9.47A307.98 307.98 0 0 1 138.9-25.7c1.79-4.37 6.4-7.65 9.96-11.2.84-.83 2.9-1.33 3.94-.9 4.17 1.79 8.17 3.99 12.22 6.05 10.11 5.17 13.12 13.83 12.2 24.53-.23 2.47-.04 4.99-.04 8.29 17.06-4.02 33.1-8.48 49.41-11.53 48.3-9.01 96.64-17.73 145.07-25.97 12-2.03 24.36-1.94 36.58-2.55 2.84-.14 5.74.88 8.6 1.37l.47 2.73c-6.01 1.75-11.94 4.65-18.04 5.06-38.56 2.59-76.34 10.11-114 18.1-34.5 7.32-68.73 15.83-103.07 23.86-2.38.55-4.66 1.5-6.99 2.27l.42 1.88c1.8-.27 3.62-.45 5.4-.84 51-11.14 101.83-23.05 153.03-33.16 26.46-5.22 53.55-7.31 80.37-10.62 2.52-.31 5.2.79 7.8 1.23-1.25 2.1-2.5 4.19-3.94 6.57 12.95-2.48 4.51 8.05 6.37 12.87l-7.53 3.9 4.67 1.13.16 1.08-31.87 6.16-.48-1.62 10.32-2.5-.41-1.49-47.7 9.04.14 1.61 13.48-1.78.37 1.5c-4.94 1.17-9.89 2.3-14.81 3.51-60.29 14.91-120.57 29.85-180.87 44.73-4.5 1.1-7.72 2.9-8.17 8.2-.14 1.51-2.44 2.82-3.71 4.27-.6.67-1.72 1.8-1.54 2.08 6.02 9.9-3.41 17.48-3.97 26.37-.13 2.05-.68 4.5-1.96 5.94-1.47 1.67.85 7.88-5.03 4.7l-3.06 9.2c-4.78 11.8-9.76 23.5-14.25 35.4-1.63 4.32-2.1 9.08-3.09 13.63Z"/></svg>