<svg width="197" height="172" fill="#b7fe02" xmlns="http://www.w3.org/2000/svg"><path fill-rule="evenodd" clip-rule="evenodd" d="m155.22-53.31-1.36 1.36c-2.56-.29-5.2-.7-7.87-.85-2.63-.14-5.28-.03-7.91-.03-2.09 0-4.37-.53-6.2.14-2.05.75-4.28-.02-5.88.84-1.87 1-4.12-.14-5.64 1.52-3.16-.3-5.78 1.64-8.7 2.1-3.27.51-6.22 1.8-9.22 2.94-3.48 1.32-7.07 2.33-10.4 4.08-2.38 1.25-4.94 2.2-7.4 3.25-4.4 1.88-8.16 4.6-12 7.26-2.1 1.45-3.92 3.3-5.87 4.97-1.84 1.57-3.9 2.96-5.5 4.75-5.68 6.34-11.7 12.44-15.37 20.3-2.53 2.26-3.55 5.51-4.82 8.42-1.27 2.9-3.16 5.67-3.49 8.97-2.78 4.58-3.88 9.82-5.4 14.84-1.2 3.94-2.98 7.85-2.93 12.14-1.52 1.24-.65 3.21-1.48 4.82a9.98 9.98 0 0 0-1.07 5.81c.28 2-1.15 3.79-.85 5.92.25 1.82-.03 3.64-.65 5.52-.6 1.81.07 3.96-.88 5.9-.23.47.62 1.38.7 2.12.07.52-.66 1.33-.46 1.6 1.12 1.53.17 3.22.52 4.5l-1.6 3 1.81.97c0 5.5 0 10.6.02 15.7 0 .19.37.39.57.59l-.8.89c.68 2.66 1.73 5.22 1.72 8.06-.01 1.55.4 3.13.8 4.65.83 3.14 1.5 6.35 2.08 9.52.67 3.58 2.56 6.5 4.04 9.61 1.45 3.08 3.46 5.78 6.6 7.67 4.35 2.6 8.6 5.37 13.17 7.5 2.2 1.02 4.6 1.77 6.78 2.74 2.29 1 4.73 1.44 7.02 2.12 2.04.6 4.43.81 6.68 1.02 1.85.16 3.66.03 5.53.76 1.66.65 3.79-.48 5.46.92.08.07.27 0 .4 0 6.85-.04 13.69 1.8 20.48.72 4.6-.73 9.43-.78 13.7-3.05 6.64-.84 12.38-4.47 18.78-6 1.76-1.66 4.24-1.85 6.23-3.09 1.96-1.21 4.22-1.9 6.25-3.01 7.16-3.9 14.36-7.75 21.2-12.22 1.33-.87 2.28-2.13 3.79-2.9 1.87-.94 3.45-2.55 4.98-4.05 1.43-1.4 2.95-2.7 3.94-4.6.98-1.86 2.85-3.15 4.16-4.91 3.06-4.12 6.3-8.16 8.32-12.85 1.26-2.92 2.47-5.93 3.54-8.96 1.04-2.93 1.4-6.01 2.63-8.9.95-2.25.72-5 .97-7.52.3-3.08.67-6.16.8-9.24.15-3.2.23-6.4-.02-9.58a63.01 63.01 0 0 0-1.4-9.39c-.41-1.76-.88-3.61-.98-5.42-.16-2.84-1.33-5.29-2.38-7.8-2.1-4.97-5.15-9.31-8.39-13.66-3.58-4.8-8.72-7.73-12.54-12.16-1.6-1.84-3.89-3.19-6.05-4.42-1.65-.93-3.65-1.13-5.43-1.98-2.19-1.04-4.66-1.49-7-2.21-.24-.07-.44-.33-.68-.36-2.94-.3-5.88-.6-8.82-.83a14.5 14.5 0 0 0-3.33.03c-.91.14-1.72-1.36-2.62-.11-1.47-1.13-2.81.55-4.36.15-1.36-.35-2.8.1-4.27.62-1.67.59-3.7-.06-5.46.94-1.09.61-2.33.97-3.57 1.47l-1.35-1.34c-.17.13-.5.27-.5.38.1 1.35-.33 2.21-1.64 2.9-2.3 1.19-4.46 2.66-6.82 4.1l-1.97-1.14-.49 1.93 1 .48c-2.02 1.99-4.03 3.89-5.96 5.86a69.76 69.76 0 0 0-11.5 15.66c-1.59 2.95-3.3 5.85-4.67 8.9-1.69 3.75-3.42 7.47-4.72 11.39-.94 2.81-1.97 5.58-2.84 8.42-.55 1.76-.23 3.56-1.09 5.38-1.02 2.17-.41 5.06-1.09 7.47-.79 2.82-.66 5.6-.79 8.43-.04.87-.52 1.71-.8 2.6.25.3.52.6.8.9l-.48.54c.18 1.14.5 2.23.5 3.33 0 3.22.83 6.26 1.68 9.32 1.32 4.8 4.65 7.96 9.01 9.67 5.12 2.01 10.53 2.96 16.07 3.64 4.51.55 8.97.27 13.38.68 2.07-1.47 4.53-2 6.66-3.28.7-.43 1.63-.67 2.37-1.29 3.07-2.6 6.44-4.8 9.42-7.56 1.33-1.23 2.9-2.38 4.25-3.66 4.28-4.05 6.95-9.1 8.87-14.6.64-1.82.76-3.93 1.77-5.49 1.17-1.8-.04-4.08 1.58-5.62.27-3.36.87-6.73.72-10.07-.1-2.37-.95-4.71-.74-7.16.05-.54-2.83-7.14-3.47-7.71-1.38-1.26-2.89-2.39-4.34-3.57-1.45.79-2.6-1.16-4.35-.21a7.64 7.64 0 0 1-5.24.48c-1.81-.51-.57.94-1.19 1.23-4.94 2.35-8.09 6.98-12.54 9.98-.22.15-.36.4-.14.15-.51 1.78-.53 3.31-1.3 4.23-2.22 2.68-2.72 6.14-4.42 9.03-.38.64-.4 1.51-.5 2.28-.23 1.7.53 3.53-.8 5.11-.28.33-.15 1.1-.03 1.63.37 1.48.82 2.94 1.32 4.68 5.44-3.7 7.43-9.85 11.36-14.42h3.04l-2.03 4.48c1.27-.54 1.89-.65 2.3-1 .95-.82 1.79-1.76 2.72-2.69 1.24.83 1.9 2.22 3.06 3.19 1.08.9 1.43 2.67 2.44 4.77.04 3.1-2.58 6.2-3.38 9.87-1.5 1-3.2 1.58-3.46 3.95-.16 1.4-1.56 2.68-2.2 3.68-1.78.8-3.22.08-4.72.97-2.1 1.26-4.33-.98-6.63-.61-3.24-2.15-7.1-2.98-10.4-5.13-2.5-1.62-4.05-3.83-5.72-6-1.16-1.51-1.71-3.47-2.74-5.1-1.01-1.6-1.01-3.51-1.47-5.2-.7-2.6-.62-5.6-.07-8.27.78-3.76 1.46-7.6 3.2-11.16a46.07 46.07 0 0 1 8.28-11.97c3.19-3.3 6.4-6.56 10.45-8.93 2.63-1.54 5.57-2.02 8.25-3.26 1.26-.58 2.42.88 3.95.1 1.1-.57 2.73-.22 4.1-.09 1.43.15 3.35.05 4.14.9 1.78 1.91 4.88.82 6.25 3.2 2.65 0 4.3 1.97 6.06 3.43 4.51 3.73 9.22 7.36 11.37 13.16l.88 2.54 1.1.25 1.84 6.86-.57.73 1.78 2.84-2.71.43-.09 1.33h1.87l.47.43c-1.16 1.06.71 2.02.12 3-1.38 2.28-.53 4.78-.85 7.16-.24 1.8-.62 3.61-1.2 5.33-.38 1.09-1.23 2-1.86 3 1.72 2.53-1.5 5.02-.4 7.75l-1.12.23-2.9 6.33v2.79c-.93 2.23-1.98 3.89-4.12 4.5v1.84c-2.3 2.25-4.5 4.8-7.13 6.8-1.04.79-2.05 1.65-3.1 2.45-.95.72-2.06 1.26-2.88 2.1-2.73 2.77-6.19 4.43-9.57 6.1-4.74 2.35-11.51 3.4-16.73 2.83-1.9-.2-3.74-.96-5.83-1.52-.45.17-1.27.83-1.87.67-6.62-1.75-13.43-2.57-19.87-5.36-4.79-2.08-9.43-4.36-13.57-7.36a30.62 30.62 0 0 1-7.8-8.34c-2.45-3.84-4.92-7.62-6.16-12.05-.1-.37-.5-.66-.56-1.02-.32-1.96-.77-3.93-.81-5.9-.11-5.42-.29-10.85.06-16.25.2-3.1.87-6.25 1.4-9.35.5-2.99 1.2-5.91 1.77-8.88.64-3.34 1.93-6.44 3.02-9.6.88-2.54 1.67-5.22 2.99-7.5 2.27-3.92 3.77-8.19 6.22-12.06 2.35-3.71 4.55-7.57 7.03-11.22 1.26-1.86 2.51-3.8 4.08-5.38 3.84-3.9 7.42-8.13 12-11.22 3.98-2.66 7.86-5.34 12.53-7.02 4.64-1.66 9.2-2.9 14.1-3.2.86-.05 1.71-.52 2.61-.81l.9.78.6-.48c.8.18 1.68.22 2.4.58 1.01.5 1.54-1.17 2.8-.28.84.6 2.39.16 3.62.26 1.04.07 2.25-.46 3.03.72 1.2-1.76 2.28.34 3.43.1 1.53-.32 2.86.4 4.25.81 1.25.37 2.54.58 3.82.86 1.27.27 2.69.28 3.8.88 4.66 2.5 10.25 3.26 13.97 7.42 2.82-.09 4.57 1.98 6.57 3.34C190.14.38 196.15 6.6 202 12.9c5.74 6.16 10.53 13.12 13.51 21.04 1.58 4.2 3.37 8.38 3.96 13 .38 2.95 1.24 5.91 1.48 8.9.25 3.04.06 6.11.06 9.17 0 2.22.02 4.45 0 6.67-.03 2.26.15 4.45-1.28 6.58-.82 1.23-.62 3.14-.87 4.74 1.6.88-1.42 2.45.4 3.24l-3.56 6.91c-.4-.36-.67-.7-1.02-.88-.2-.12-.53 0-.95.02-.28 1.02.92 1.12 1.3 2.12v3.4l-1.45 1.45.64.83c-1.76 1.77-1.98 4.35-3.21 6.44-1.4 2.36-2.63 4.83-4.58 6.54l-3.5-.93-.2.6 1.79.78-2.07 1.42.3.56 2.22-.5.25 1.95-1.79.65.62 2.94-3.75 2.14-2.07 4.67.37.22c-3.03 3.03-5.85 6.32-9.15 9.03a134.33 134.33 0 0 1-12.52 8.97c-6.11 3.94-12.37 7.66-18.62 11.39-.74.44-1.83.3-2.95.45-1.38 2.53-4.43 2.87-6.78 4.25-2.2 1.29-4.68 2.1-7.14 3.16l-.82-1.65c-1.37 3.34-4.87 3.4-7.63 4.74l-1.63-.92-.51 1.66c-.1.1-.23.3-.3.28-1.7-.57-3.15.52-4.63.93-7.06 1.97-14.26 1.33-21.42 1.66-5.5.25-10.88-.75-16.32-1.03-2.07-.1-4.32-.3-6.28-.86-2.03-.58-4.05-.26-5.93-.76-2.4-.64-4.79-1.2-7.2-1.75-2.62-.6-5.23-1.4-7.78-2.32-2.54-.92-5.16-1.62-7.7-2.54-2.53-.93-4.97-2.11-7.5-3.01-7.42-2.62-13.65-7.36-20.37-11.22-3.06-3.51-6.72-6.41-9.63-10.14a99.02 99.02 0 0 1-6.18-9.17c-2.07-3.36-3.43-7.18-4.54-11.02-1.16-4.03-2.24-8.08-2.53-12.3-.08-1.15-.57-2.26-.8-3.4-.23-1.16.5-2.51-.76-3.46-.14-.1-.06-.52-.08-.79-.28-4.74-.67-9.49-.8-14.24-.14-4.86-.05-9.72 0-14.59 0-.44.47-.89.72-1.33L0 66.66c.3-.7.94-1.45.85-2.11-.5-4.13 1.06-8.08.92-12.17-.04-1.03-.46-2.25.74-3.01-1.3-.9.2-1.72.12-2.63-.1-1.01-.2-2.02.5-3.12.88-1.4-.28-3.49 1.11-4.93.02-4.41 2.08-8.33 3.03-12.5a50.2 50.2 0 0 1 3.22-9.1c1.06-2.45 1.65-5.12 2.61-7.66A187.84 187.84 0 0 1 21-8.14c1.9-3.82 4.75-7.14 6.67-11 2.51-1.2 3.01-4.06 4.83-5.92 1.86-1.9 3.53-4.08 5.44-6.01 1.95-1.98 3.85-4.01 5.9-5.88 3.35-3.05 7.17-5.56 10.6-8.48 3.47-2.95 7.48-4.92 11.23-7.28 3.55-2.22 7.62-3.76 11.64-5.02 2.84-.88 5.48-2.24 8.42-2.87 3.65-.79 7.2-2.07 10.81-3.04 1.52-.41 3.49-.1 4.56-.97 1.62-1.3 3.52.02 4.97-1.21 1.27-1.08 3.34.53 4.52-1.17.05-.07.27-.03.4-.01 3.44.62 6.67-1.02 10.08-.87 3.33.15 6.76-.47 9.98.15 5.2.99 10.6 1.05 15.44 3.96 3.65 2.19 6.73 4.6 8.36 8.57.25.6.26 1.3.37 1.88Z"/></svg>