<svg width="437" height="162" fill="none" xmlns="http://www.w3.org/2000/svg"><path d="m179.32 52.36 4.5 2.13a46.33 46.33 0 0 1-2.74 5.39 25.5 25.5 0 0 1-3.64 5 87.4 87.4 0 0 1-5.54 4.73 17.25 17.25 0 0 1-7.3 3.5c-2.63.4-5.82.73-9.56.97-3.56.11-7.45-.8-11.67-2.72-2.17 6.92-4.4 12.63-6.68 17.12-3 6-6.06 10.85-9.2 14.56a56.29 56.29 0 0 1-10.74 10.47 36.55 36.55 0 0 1-8.28 5.28 51.46 51.46 0 0 1-16.93 4.94c-4.74.42-8.76-.67-12.08-3.26-3.31-2.59-5.8-6.35-7.48-11.27a88.67 88.67 0 0 1-3.27-15.23c-.64-5.4-.92-11.57-.85-18.48C55.98 95.6 40.1 105.39 20.2 104.8c-7.07-.1-12.2-2.96-15.38-8.59C1.68 90.43.27 83.14.63 74.33c.38-8.96 1.18-18.02 2.39-27.18a763.17 763.17 0 0 0 3.57-27C7.76 11.3 7.9 5.04 7 1.36L9.24.97c1-.17 2.85-.21 5.57-.13 2.91-.04 5.62.12 8.14.5 2.52.38 5.2 1.27 8.06 2.66 3.03 1.26 5.5 3 7.43 5.22 2.08 2.25 3.62 5.38 4.63 9.4 1.16 4.03 1.5 8.76 1.01 14.16-.53 4.59-1.25 11-2.16 19.24-2.27 18.34-2.7 28.75-1.3 31.21 1.53 2.65 5.38.57 11.56-6.23 6.97-7.82 12.55-16 16.73-24.55.6-10.38.87-16.54.84-18.47 1.02-.34 2.27-.63 3.76-.89 1.67-.4 4.52-.61 8.55-.65 4.03-.04 7.57.57 10.6 1.83 3.21 1.13 6.12 3.74 8.73 7.84 2.63 3.94 3.93 9.2 3.9 15.8.04 20.14.96 33.89 2.75 41.24 2.3-1.42 4.81-3.62 7.51-6.6a57.97 57.97 0 0 0 8.2-11.1 86.75 86.75 0 0 0 6.52-14.47l.14-.95c.22-.45.43-.74.61-.87a182.97 182.97 0 0 1-7.43-5.22 35.76 35.76 0 0 1-6.78-6.34c-2.45-2.94-4.09-6-4.9-9.19-.53-1.85-.78-3.9-.77-6.15.1-1.76.57-3.78 1.4-6.07 1.9-4.07 4.83-7 8.81-8.83a16.3 16.3 0 0 1 12.58-1.73c2.37.35 4.48 1.31 6.34 2.88a14.86 14.86 0 0 1 4.79 5.07 55.8 55.8 0 0 1 2.5 5.93c.27 1.33.54 3.3.8 5.92.18 1.96.15 3.8-.11 5.54.06.65 0 1.6-.2 2.87l-.35 2.36a119.1 119.1 0 0 1-2.66 12.89c.61.25 1.45.54 2.53.86 1.24.35 3.43.76 6.58 1.23 3.33.34 6.33.23 9-.34 2.81-.54 5.77-2.03 8.88-4.46 3.1-2.44 5.53-5.78 7.3-10.02Zm-43.52-4.6.28-1.9c.26-1.72.38-3.07.37-4.04-.2-2.93-.6-5.09-1.2-6.47-1-1.92-2.28-3.07-3.83-3.47a7.8 7.8 0 0 0-5.88.57 8.35 8.35 0 0 0-4.46 3.92 10.05 10.05 0 0 0-.61 5.7c.36 1.83 1.33 3.99 2.89 6.48a63.6 63.6 0 0 0 5.2 5.61l4.73 3.85c.03-.16.27-1.25.74-3.27a39.06 39.06 0 0 0 1.21-4.9c.2-.28.4-.98.56-2.08Z" fill="#FDDFF5"/><path d="m288.31 66.07 2.09 5.38c-.88.52-2.1 1.14-3.66 1.87-.18.13-.53.32-1.05.57-.5.08-.84.2-1.02.33l-2.34 1.1c-.18.13-.6.3-1.29.53-.52.24-.94.42-1.28.53-.34.1-.86.35-1.56.73-.7.38-1.22.62-1.56.73-1.85.53-2.96.93-3.32 1.2-.37.26-.97.57-1.83.93-.84.2-1.43.35-1.76.46a9.1 9.1 0 0 1-1.06.57c-.33.1-.58.15-.74.13l-1.02.33c-.15-.03-.32.03-.5.16-.19.14-.35.2-.51.17a5.3 5.3 0 0 0-2.03.66c-.66.06-1.33.28-2.04.66-1.85.53-4.78 1.3-8.8 2.3-2.5.6-5.57 1.18-9.2 1.76l-2.23.39a9.9 9.9 0 0 1-1.7-.01 54.22 54.22 0 0 1-3.4 8.18c-5.78 11.7-13.89 20.14-24.33 25.34-10.42 5.04-20.21 5.34-29.37.9-9.16-4.43-14.9-12.3-17.23-23.6-2.3-11.46-.56-23.11 5.25-34.97 5.78-11.69 13.88-20.06 24.3-25.1 10.44-5.2 20.25-5.57 29.4-1.14 6.15 3.02 10.8 7.99 13.95 14.9 3.18 6.76 4.46 14.28 3.86 22.57l.71.1c4.06-.2 6.82-.34 8.28-.45 1.29.04 4-.28 8.12-.95a16.9 16.9 0 0 0 2-.43 8.34 8.34 0 0 1 1.95-.19l1.02-.33.47.07c.19-.13.35-.18.51-.16.18-.13.44-.26.78-.37.5-.08.82-.11.98-.1l3.76-.88c1-.17 2.07-.41 3.25-.72 1.35-.44 2.36-.69 3.01-.75 1.35-.44 2.28-.7 2.78-.8a2.6 2.6 0 0 1 1.01-.32 5.3 5.3 0 0 0 1.29-.54l2.23-.38 3.83-1.36Zm-60.28-3.98c-2.85-1.4-6.38-.96-10.59 1.3.22.69.74 1.57 1.54 2.66a13.54 13.54 0 0 0 3.59 3.43 5.7 5.7 0 0 0 2.42 1.58c1.82.75 2.8 1.14 2.97 1.17 1.82.75 3.67 1.27 5.56 1.56-.2-6.16-2.03-10.05-5.5-11.7Zm-25.71 52.19c3.75 1.85 8.16.9 13.23-2.85 5.1-3.9 9.39-9.46 12.89-16.67.91-1.8 1.92-4.22 3.02-7.27-3.2-.16-5.65-.45-7.36-.87l-1.65-.24a7.87 7.87 0 0 0-1.85-.52l-1.35-.69a41.63 41.63 0 0 1-4.78-1.93 27.9 27.9 0 0 1-7.64-5.49c-.85-.77-1.4-1.34-1.67-1.7l-3.25 5.55c-3.5 7.2-5.25 14.03-5.25 20.47.18 6.31 2.07 10.38 5.66 12.2Z" fill="#FDDFF5"/><path d="m431.95 90.3 4.51 2.12a46.2 46.2 0 0 1-2.74 5.39 25.49 25.49 0 0 1-3.65 5 87.51 87.51 0 0 1-5.54 4.73 17.26 17.26 0 0 1-7.29 3.5c-2.64.4-5.83.73-9.57.97-3.56.11-7.45-.8-11.67-2.72-2.16 6.93-4.39 12.63-6.67 17.12-3 6-6.06 10.85-9.2 14.56a56.28 56.28 0 0 1-10.75 10.47 36.57 36.57 0 0 1-8.28 5.28c-4.88 2.49-10.53 4.13-16.93 4.94-4.73.42-8.76-.67-12.07-3.26-3.32-2.59-5.81-6.34-7.49-11.27a88.68 88.68 0 0 1-3.27-15.22c-.64-5.41-.92-11.58-.85-18.5-11.88 20.13-27.76 29.9-47.64 29.33-7.08-.1-12.2-2.96-15.38-8.59-3.16-5.79-4.56-13.08-4.2-21.89.38-8.96 1.17-18.02 2.39-27.18a763.86 763.86 0 0 0 3.57-27c1.16-8.85 1.3-15.1.4-18.79l2.23-.39c1-.17 2.85-.21 5.58-.12 2.9-.05 5.62.11 8.14.5 2.52.37 5.2 1.26 8.06 2.65 3.03 1.26 5.5 3 7.43 5.22 2.07 2.25 3.62 5.38 4.62 9.4 1.17 4.04 1.5 8.76 1.02 14.16-.53 4.6-1.25 11-2.17 19.24-2.27 18.34-2.7 28.75-1.3 31.21 1.53 2.65 5.39.57 11.56-6.23 6.98-7.81 12.55-16 16.74-24.55.59-10.38.87-16.54.84-18.47 1.01-.33 2.27-.63 3.75-.89 1.67-.4 4.52-.6 8.56-.65a26.8 26.8 0 0 1 10.6 1.84c3.2 1.12 6.11 3.73 8.72 7.83 2.63 3.94 3.93 9.2 3.9 15.8.05 20.14.96 33.89 2.76 41.25 2.3-1.43 4.8-3.63 7.51-6.6a58.03 58.03 0 0 0 8.19-11.1 86.8 86.8 0 0 0 6.52-14.48l.14-.95c.23-.44.44-.74.62-.87a183.05 183.05 0 0 1-7.43-5.22 35.76 35.76 0 0 1-6.78-6.34 23.4 23.4 0 0 1-4.9-9.19c-.53-1.85-.79-3.9-.77-6.15.1-1.76.57-3.78 1.4-6.07 1.9-4.07 4.83-7 8.8-8.83a16.3 16.3 0 0 1 12.59-1.73c2.36.35 4.47 1.32 6.33 2.88a14.86 14.86 0 0 1 4.8 5.07c.86 1.74 1.7 3.72 2.49 5.93.28 1.33.55 3.3.8 5.92.19 1.96.15 3.8-.1 5.54.06.65 0 1.61-.2 2.87l-.35 2.36a119.1 119.1 0 0 1-2.66 12.9c.6.24 1.45.53 2.53.85 1.23.35 3.43.76 6.58 1.23 3.33.34 6.32.23 8.99-.34 2.82-.54 5.78-2.03 8.88-4.46 3.1-2.44 5.54-5.77 7.3-10.02Zm-43.52-4.61.29-1.89c.26-1.73.38-3.08.36-4.05-.2-2.93-.6-5.09-1.2-6.46-1-1.93-2.27-3.08-3.83-3.48a7.8 7.8 0 0 0-5.88.57c-1.87.68-3.36 2-4.45 3.92a10.07 10.07 0 0 0-.62 5.7c.37 1.83 1.33 4 2.9 6.48a63.76 63.76 0 0 0 5.2 5.61l4.73 3.85c.02-.15.27-1.24.73-3.27a38.84 38.84 0 0 0 1.22-4.89c.2-.29.39-.99.55-2.09Z" fill="#FDDFF5"/></svg>