<svg width="408" height="251" viewBox="0 0 408 251" fill="none" xmlns="http://www.w3.org/2000/svg">
<path d="M91.9766 120.701L97.9952 123.71C90.1137 137.468 81.659 149.076 72.6312 158.534C63.7466 167.849 55.292 174.298 47.2672 177.88C39.3858 181.606 31.9342 182.753 24.9126 181.32C18.0342 179.887 12.5172 175.802 8.36151 169.067C4.63573 163.621 2.19964 154.091 1.05325 140.477C0.0501548 126.863 -0.236444 114.395 0.193454 103.074C0.766651 91.6093 1.84139 76.2037 3.41769 56.8572C4.99398 37.5107 5.92542 25.4729 6.21202 20.7437C6.49862 14.0083 9.2213 8.92089 14.3801 5.48151C19.6821 2.04213 26.2023 0.25079 33.9404 0.107484C41.6786 -0.179136 49.3451 0.107475 56.9399 0.967318C64.6781 1.68386 71.843 2.54371 78.4348 3.54686C85.0266 4.4067 89.039 4.62166 90.4719 4.19175C90.6152 4.76498 90.6869 5.48151 90.6869 6.34136C90.8302 7.2012 90.9018 8.92089 90.9018 11.5004C91.0451 13.9367 91.0451 16.3012 90.9018 18.5941C90.7585 20.7437 90.257 23.18 89.3972 25.9028C88.5374 28.4824 87.391 30.7036 85.958 32.5666C84.525 34.2863 82.4472 35.6477 79.7245 36.6509C77.1451 37.654 74.0642 37.869 70.4817 37.2958C57.5848 35.4328 48.5569 34.358 43.3982 34.0714C42.2518 46.6824 41.2487 61.2281 40.3889 77.7085C41.5353 78.1384 43.2549 78.64 45.5476 79.2132C45.9775 79.3565 46.4791 79.4998 47.0523 79.6431C47.6255 79.7864 48.127 79.8581 48.5569 79.8581C48.8435 80.0014 49.2734 80.073 49.8466 80.073C49.9899 80.2164 50.2049 80.288 50.4915 80.288C50.7781 80.288 50.993 80.3597 51.1363 80.503C51.4229 80.503 51.8528 80.5746 52.426 80.7179C52.9992 80.7179 53.4291 80.7179 53.7157 80.7179C54.0023 80.8612 54.3605 80.9329 54.7905 80.9329C55.3636 80.9329 55.7219 81.0045 55.8652 81.1479H56.9399H57.7997H59.3044H60.1642H60.3791L61.2389 89.7463H60.809H60.3791C60.0925 89.8896 59.8059 89.9613 59.5193 89.9613H57.7997H56.725H55.4353H54.1456H52.8559C52.5693 89.818 52.0678 89.7463 51.3513 89.7463C50.6348 89.7463 50.1332 89.6746 49.8466 89.5313H48.342C48.0554 89.388 47.5538 89.3164 46.8373 89.3164L43.6131 88.6715C43.1832 88.5282 42.5384 88.3849 41.6786 88.2416C40.9621 88.0983 40.3889 88.0266 39.959 88.0266C38.3827 120.987 38.6693 143.272 40.8188 154.88C42.825 165.484 49.4167 166.487 60.5941 157.889C70.3384 150.437 80.7993 138.041 91.9766 120.701Z" fill="#FDDFF5"/>
<path d="M208.768 97.2699H215.861C215.288 99.2762 214.428 101.927 213.282 105.224C212.135 108.376 209.556 114.109 205.543 122.42C201.531 130.589 197.232 137.898 192.646 144.346C188.061 150.652 181.971 156.384 174.376 161.543C166.781 166.702 158.9 169.282 150.732 169.282C145.429 169.282 141.274 167.419 138.264 163.693C135.398 159.824 133.679 155.238 133.106 149.935C132.532 144.633 132.461 138.113 132.891 130.374C122.86 140.119 112.256 144.06 101.078 142.197C94.0567 140.907 89.5427 137.396 87.5366 131.664C85.5304 125.931 85.9603 119.769 88.8262 113.177C91.8355 106.585 96.4211 101.354 102.583 97.4849C112.757 91.1794 124.293 89.1014 137.19 91.251C137.62 84.6589 137.476 79.8581 136.76 76.8486C137.333 76.7053 138.05 76.562 138.909 76.4187C139.769 76.2754 141.417 76.2038 143.853 76.2038C146.433 76.0604 148.797 76.1321 150.946 76.4187C153.239 76.7053 155.675 77.4219 158.255 78.5683C160.977 79.7148 163.27 81.2912 165.133 83.2975C166.996 85.1605 168.429 87.8833 169.432 91.466C170.578 95.0487 170.937 99.2762 170.507 104.149C168.357 133.957 170.005 148.932 175.451 149.076C177.6 149.219 180.251 147.499 183.404 143.917C189.136 137.468 194.079 130.374 198.235 122.635C202.534 114.753 205.4 108.52 206.833 103.934L208.768 97.2699ZM109.461 118.336C109.175 125.645 112.256 128.224 118.704 126.075C123.863 124.212 129.165 120.342 134.61 114.467C135.184 109.021 135.685 104.937 136.115 102.214C133.822 102.214 131.458 102.429 129.022 102.859C126.729 103.146 123.935 103.79 120.639 104.794C117.486 105.653 114.835 107.301 112.686 109.738C110.679 112.031 109.605 114.897 109.461 118.336Z" fill="#FDDFF5"/>
<path d="M289.068 107.803L289.928 112.962C289.068 112.532 287.85 111.959 286.273 111.242C284.697 110.383 281.688 109.164 277.246 107.588C272.947 106.012 268.863 104.937 264.994 104.364C261.124 103.647 256.897 103.575 252.312 104.149C247.869 104.722 244.215 106.298 241.349 108.878C242.925 111.314 245.147 114.682 248.013 118.981C251.022 123.137 253.386 126.576 255.106 129.299C256.969 131.879 259.118 135.175 261.554 139.187C264.134 143.057 266.068 146.353 267.358 149.076C268.648 151.655 269.937 154.665 271.227 158.104C272.66 161.4 273.377 164.338 273.377 166.917C273.52 169.354 273.305 171.861 272.732 174.441C272.302 177.021 271.155 179.385 269.293 181.535C267.573 183.684 265.28 185.619 262.414 187.339C252.24 192.211 243.642 193.859 236.62 192.283H236.405C235.975 192.283 235.689 192.211 235.546 192.068C233.683 191.781 231.891 191.28 230.172 190.563C228.166 189.99 225.658 188.772 222.649 186.909C219.353 184.759 216.63 182.323 214.481 179.6C211.758 176.161 209.752 172.291 208.462 167.992C208.462 167.706 208.39 167.419 208.247 167.132C208.247 166.702 208.247 166.416 208.247 166.272L208.032 165.843V165.413L207.817 164.553L207.602 163.908V163.048C207.459 162.618 207.387 162.045 207.387 161.328C206.957 159.179 206.742 156.886 206.742 154.45C206.742 149.291 207.316 144.49 208.462 140.047C209.752 135.605 211.615 131.09 214.051 126.505C214.051 126.361 214.122 126.29 214.266 126.29L214.481 125.86C212.188 122.707 209.823 119.268 207.387 115.542C203.375 109.236 200.581 103.432 199.004 98.1298C197.571 92.6841 197.213 88.1699 197.93 84.5872C198.789 81.0045 200.151 77.7801 202.014 74.914C204.02 72.0478 206.384 69.8266 209.107 68.2502C211.83 66.5305 214.337 65.0974 216.63 63.951C219.066 62.8045 221.144 62.088 222.864 61.8013L225.443 61.1565C221.717 70.1848 225.515 83.799 236.835 101.999C241.278 99.5629 246.078 98.1298 251.237 97.6999C256.539 97.1266 261.268 97.3416 265.423 98.3447C269.722 99.3479 273.663 100.566 277.246 101.999C280.971 103.432 283.837 104.794 285.844 106.083L289.068 107.803ZM222.864 172.721C224.153 174.154 226.088 175.731 228.667 177.45L229.957 178.095C234.829 179.815 237.838 178.812 238.985 175.086C240.131 171.217 239.916 167.061 238.34 162.618C236.907 158.032 235.044 154.02 232.751 150.58C230.458 147.141 226.948 142.268 222.219 135.963C221.502 135.103 221.001 134.458 220.714 134.028C219.568 136.465 218.636 139.259 217.92 142.412C217.06 146.568 216.702 150.509 216.845 154.235C216.988 155.381 217.203 157.244 217.49 159.824C217.633 160.254 217.776 160.827 217.92 161.543C218.063 162.26 218.206 162.905 218.35 163.478C218.493 164.051 218.636 164.553 218.78 164.983C219.496 167.706 220.857 170.285 222.864 172.721Z" fill="#FDDFF5"/>
<path d="M403.701 98.3447L408 100.924L371.029 147.786C374.755 163.406 377.047 177.45 377.907 189.918C378.767 202.386 378.552 211.988 377.262 218.723C376.116 225.602 374.253 231.406 371.674 236.135C369.094 241.007 366.873 244.232 365.01 245.808C363.147 247.385 361.428 248.459 359.851 249.033C357.702 250.036 355.123 250.681 352.113 250.967C346.525 251.397 342.011 247.599 338.572 239.574C335.276 231.549 333.198 221.374 332.338 209.05C331.478 196.725 330.833 183.326 330.403 168.852C330.117 154.378 330.26 140.907 330.833 128.439C323.095 150.365 311.273 161.042 295.367 160.469C288.918 160.182 284.046 157.531 280.75 152.515C277.598 147.499 275.878 141.337 275.592 134.028C275.448 126.576 275.735 119.196 276.451 111.887C277.168 104.579 277.956 97.7715 278.816 91.466C279.819 85.1605 280.105 81.2912 279.676 79.8581C280.105 79.7148 280.679 79.6431 281.395 79.6431C282.255 79.4998 283.76 79.4282 285.909 79.4282C288.202 79.2849 290.28 79.3565 292.143 79.6431C294.149 79.7864 296.298 80.288 298.591 81.1479C300.884 81.8644 302.818 82.9392 304.395 84.3723C305.971 85.662 307.117 87.5967 307.834 90.1762C308.694 92.6124 308.909 95.5503 308.479 98.9896C304.753 125.215 304.538 139.689 307.834 142.412C309.84 143.988 313.136 142.412 317.721 137.683C325.746 129.514 329.759 115.828 329.759 96.6251L329.329 88.0266C329.902 87.8833 330.618 87.74 331.478 87.5967C332.338 87.3101 333.986 87.0951 336.422 86.9518C338.858 86.6652 341.223 86.5935 343.515 86.7368C345.808 86.8801 348.316 87.525 351.039 88.6715C353.761 89.6746 356.054 91.1794 357.917 93.1857C359.923 95.192 361.571 98.1298 362.861 101.999C364.294 105.725 364.939 110.239 364.795 115.542C364.795 118.121 364.724 122.707 364.58 129.299C364.58 135.891 364.58 141.05 364.58 144.776C371.745 137.038 378.552 129.299 385 121.561C391.592 113.822 396.393 108.018 399.402 104.149L403.701 98.3447ZM366.73 213.994C369.596 205.109 370.957 195.651 370.814 185.619C370.814 175.587 370.169 167.921 368.879 162.618C367.59 157.316 366.157 152.443 364.58 148.001C364.294 177.092 365.01 199.09 366.73 213.994Z" fill="#FDDFF5"/>
</svg>
