<svg width="1216" height="392" viewBox="0 0 1216 392" fill="#050509" xmlns="http://www.w3.org/2000/svg">

<path d="M1069.44 356.964C1068.75 355.928 1068.06 354.893 1067.37 353.867C1067.5 352.864 1069.58 351.708 1066.98 350.836C1066.72 350.75 1067.05 349.507 1067.11 348.803C1067.94 348.866 1068.97 348.697 1069.56 349.033C1073.32 351.148 1073.2 355.424 1069.44 356.964Z"/>
<path d="M1129.44 348.931L1129.31 348.803C1128.24 350.625 1127.2 352.463 1126.01 354.228C1125.94 354.326 1124.17 353.939 1124.04 353.562C1123.59 352.256 1127.39 349.13 1129.44 348.931Z"/>
<path d="M1177.16 360.14C1175.97 355.388 1175.05 350.742 1173.59 346.277C1172.74 343.695 1170.69 342.071 1167.69 343.706C1164.72 345.329 1161.8 347.049 1158.9 348.793C1158.76 348.873 1159.03 349.585 1159.07 350.007C1159.14 350.802 1159.44 351.687 1159.21 352.383C1157.81 356.51 1155.66 360.484 1154.93 364.712C1153.24 374.551 1155.34 381.615 1167.95 381.049C1168.33 381.032 1168.73 380.941 1169.08 381.024C1171.26 381.535 1172.45 380.535 1172.92 378.503C1174.33 372.453 1175.72 366.396 1177.16 360.14ZM1153.2 340.77L1152.37 339.964C1148.6 343.284 1144.36 346.201 1141.16 349.999C1131.97 360.902 1123.97 372.575 1121.03 386.943C1119.52 394.331 1119.26 401.784 1125.27 407.233C1131.08 412.498 1138.31 411.665 1145.24 409.369C1153.95 406.484 1160.24 400.409 1165.48 393.144C1168.64 388.756 1168.55 388.69 1163.26 387.359C1150.89 384.242 1143.97 376.308 1144.23 364.6C1144.38 357.893 1146.48 351.515 1150.09 345.747C1151.13 344.09 1152.16 342.429 1153.2 340.77ZM1069.26 358.027C1068.42 362.97 1067.46 367.897 1066.8 372.863C1066.09 378.175 1065.5 383.516 1065.2 388.864C1064.92 393.697 1064.95 398.562 1065.14 403.401C1065.21 405.303 1066.29 407.149 1066.51 409.067C1066.76 411.27 1066.27 413.579 1066.65 415.745C1067.09 418.225 1067.95 420.673 1068.94 423.004C1073.87 434.626 1079.41 445.923 1090.04 453.519C1105.27 464.409 1122.02 466.372 1139.41 460.077C1156.6 453.855 1169.37 441.504 1180.88 427.791C1191.6 415.012 1199.06 400.624 1203.47 384.397C1206.07 374.831 1206.9 365.113 1206.33 355.621C1205.83 347.438 1202.67 339.084 1195.13 333.816C1188.26 329.011 1180.53 329.476 1172.74 330.375C1171.41 330.529 1169.97 330.041 1168.7 330.342C1167.26 330.681 1165.72 331.32 1164.66 332.303C1163.69 333.204 1163.51 334.55 1165.69 334.613C1174.6 334.873 1183.95 344.812 1184.67 354.903C1185.04 360.066 1186.05 365.135 1184.22 370.324C1183.71 371.78 1185 373.996 1185.82 375.69C1185.97 375.996 1187.86 375.46 1189.1 375.288C1189.84 378.692 1187.71 381.441 1185.41 383.055C1180.28 386.652 1178.07 392.173 1174.94 397.064C1169.59 405.422 1163.43 412.788 1153.89 416.537C1138.3 422.666 1118.06 416.88 1111.2 400.207C1108.27 393.065 1108.36 385.491 1111.05 378.357C1113.68 371.381 1117.19 364.735 1120.41 357.993C1121.03 356.7 1121.95 354.984 1123.67 357.201C1123.82 357.387 1124.8 357.268 1125.03 356.991C1130.43 350.349 1135.78 343.666 1141.02 336.763C1136.73 340.738 1132.43 344.713 1128.14 348.689L1128.27 348.83C1128.76 347.426 1128.91 345.739 1129.79 344.663C1138.77 333.784 1149.33 325.153 1163.37 321.648C1174.44 318.881 1184.78 320.171 1194.87 325.987C1203.67 331.059 1209.93 337.914 1213.31 347.35C1215 352.057 1215.31 356.967 1215.5 362.063C1215.71 367.359 1216.06 372.622 1215.36 377.855C1212.9 396.301 1205.99 412.931 1194.6 427.677C1190.95 432.406 1187.7 437.511 1183.62 441.819C1179.5 446.16 1174.62 449.792 1169.97 453.606C1167.1 455.951 1164.08 458.111 1161.07 460.257C1143.35 472.856 1124.09 473.644 1104.07 467.376C1083.77 461.023 1070.38 447.409 1062.77 427.665C1056.16 410.528 1054.44 392.905 1057.39 374.92C1058.77 366.558 1061.38 358.399 1063.64 349.304C1065.39 351.776 1066.4 353.208 1067.42 354.628C1068.03 355.754 1068.64 356.89 1069.26 358.027Z"/>
<path d="M1098.36 300.286C1098.08 299.999 1097.81 299.711 1097.53 299.423C1095.37 301.884 1093.22 304.344 1091.07 306.805L1091.79 307.464C1093.98 305.072 1096.17 302.68 1098.36 300.286ZM1073.64 344.872C1072.78 343.452 1072.25 342.572 1071.72 341.692C1071.5 342.587 1071.4 343.534 1071.03 344.36C1070.75 345.002 1070.14 345.493 1069.75 345.963C1065.73 342.668 1068.04 339.672 1069.62 336.415C1080.46 314.198 1096.13 296.257 1115.89 282.064C1126.87 274.18 1138.72 268.345 1152.78 270.424C1155.41 270.815 1157.98 271.784 1160.52 272.667C1161.05 272.851 1161.32 273.836 1161.71 274.451C1160.93 274.654 1160.13 275.076 1159.37 275.019C1156.05 274.779 1152.74 274.19 1149.42 274.111C1140.86 273.908 1133.88 278.195 1127.14 282.86C1121.42 286.819 1115.1 290.31 1110.44 295.349C1101.65 304.841 1093.87 315.312 1085.62 325.329C1084.98 326.106 1083.89 326.472 1083.06 327.112C1082.66 327.422 1082.27 327.877 1082.11 328.349C1081.54 330.049 1081.35 331.946 1080.51 333.475C1078.44 337.252 1076.08 340.868 1073.64 344.872Z"/>
<path d="M1142.61 183.46C1142.48 184.005 1142.34 184.549 1142.21 185.094C1145.13 186.06 1148.04 187.026 1150.96 187.992C1151.13 187.472 1151.3 186.951 1151.46 186.431C1148.51 185.442 1145.56 184.449 1142.61 183.46ZM1118.98 147.992C1118.61 148.336 1118.25 148.68 1117.88 149.024C1121.62 153.13 1125.36 157.234 1129.1 161.341C1129.52 160.956 1129.93 160.569 1130.35 160.185C1126.56 156.12 1122.77 152.056 1118.98 147.992ZM1135.33 105.447C1134.98 105.783 1134.64 106.119 1134.3 106.455C1136.72 114.4 1143.88 117.714 1149.8 122.236C1150.09 121.952 1150.38 121.669 1150.67 121.385C1145.56 116.072 1140.44 110.759 1135.33 105.447ZM1105.88 147.41C1108.69 155.688 1120.85 167.879 1128.9 171.16C1120.59 162.59 1113.23 155 1105.88 147.41ZM1133.26 29.592C1139.6 24.84 1147.02 22.3737 1155.22 21.9028C1161.06 21.5687 1165.82 23.2798 1168.59 28.598C1170.96 33.1191 1172.17 37.7668 1168.2 42.327C1167.18 43.4938 1167.21 45.5264 1166.31 46.8622C1165.66 47.8434 1165.53 51.5925 1162.91 48.2657C1162.3 48.7964 1161.19 49.2972 1161.16 49.8639C1160.79 55.914 1156.92 59.5304 1151.19 60.2351C1147.56 60.6774 1143.77 61.9306 1140.69 63.8567C1138.98 64.9334 1137.7 68.1471 1137.76 70.3582C1138.02 80.5598 1142.02 89.4307 1149 96.83C1167.83 116.825 1189.42 132.117 1217.8 134.271C1226.49 134.93 1235.33 133.446 1244.1 132.996C1248.41 132.773 1252.73 132.371 1257.01 132.6C1261.68 132.853 1264.98 135.456 1266.91 139.842C1269.41 145.477 1268.84 147.363 1263.15 149.687C1260.9 150.602 1259.86 151.377 1261.1 154.049C1261.55 155.032 1260.62 157.235 1259.65 158.197C1250.53 167.22 1239.51 173.492 1227.76 178.138C1215.45 183.006 1202.9 187.612 1190.07 190.755C1177.58 193.813 1164.6 195.941 1151.73 192.061C1139.15 188.274 1128.28 181.468 1118.78 172.473C1105.17 159.576 1094.43 144.799 1089.94 126.248C1089.11 122.828 1089.34 119.108 1089.37 115.529C1089.42 110.812 1089.09 105.946 1090.12 101.416C1091.8 94.0848 1091.02 86.3284 1096.17 79.4818C1099.53 75.0146 1099.5 68.1538 1101.88 62.7541C1108.3 48.1376 1118.59 36.9408 1133.26 29.592Z"/>
<path d="M-76.9114 628.8C-76.8955 628.714 -76.8796 628.628 -76.8644 628.542H-85.0128C-85.0128 628.628 -85.0128 628.714 -85.012 628.8H-76.9114ZM-70.0052 626.921C-66.355 627.574 -64.616 627.239 -63.9938 625.527C-65.6564 628.21 -67.9017 625.698 -70.0052 626.921ZM28.1199 456.202C31.736 454.986 34.9308 453.092 37.9527 450.89C34.6754 452.661 31.3973 454.431 28.1199 456.202ZM134.74 369.549C135.173 370.08 135.27 370.283 135.343 370.274C138.487 369.919 141.632 369.653 144.798 369.966C145.085 369.994 145.369 369.889 145.418 369.565C145.49 369.094 145.119 368.967 144.78 368.985C141.547 369.153 138.315 369.345 134.74 369.549ZM94.5813 678.511C85.3941 678.766 76.5092 676.735 67.591 674.955C76.3372 678.014 85.3229 679.303 94.5813 678.511ZM-107.306 479.082C-115.003 483.21 -122.206 487.972 -127.466 495.155C-121.348 489.041 -114.656 483.655 -107.306 479.082ZM-0.0660248 457.154C9.49176 454.87 18.5805 451.396 27.0721 446.41C18.2243 450.494 9.13106 453.956 -0.0660248 457.154ZM146.861 369.628C155.355 370.416 163.529 372.547 171.473 375.64C163.782 371.583 155.586 369.551 146.861 369.628ZM-30.8872 624.473C-38.2633 622.433 -45.7858 621.456 -53.4044 621.219C-62.531 620.935 -71.6561 621.101 -80.782 621.37C-85.7105 621.516 -90.6444 621.459 -95.5722 621.617C-96.7725 621.655 -98.0228 620.732 -99.3345 621.742C-95.7972 622.311 -92.3615 622.373 -88.9614 622.327C-78.126 622.184 -67.2936 621.684 -56.4559 621.914C-47.8734 622.097 -39.3212 622.769 -30.8872 624.473ZM152.236 376.696C152.21 376.6 152.185 376.504 152.159 376.407C150.174 376.31 148.184 376.084 146.204 376.141C139.75 376.329 133.297 376.291 127.129 378.918C125.512 379.606 123.43 379.439 121.705 380.352C119.343 381.603 116.633 381.735 114.179 383.03C110.395 385.026 106.516 386.927 102.571 388.618C99.956 389.739 97.7691 391.486 95.3798 392.919C93.521 394.033 91.8592 395.575 90.1194 396.904C86.8541 399.398 83.7692 402.082 80.9996 405.056C78.189 408.074 75.489 411.223 72.8391 414.401C70.224 417.537 67.737 420.79 65.053 423.865C61.8946 427.484 58.8953 431.235 56.2477 435.206C54.9246 437.191 52.9741 438.459 51.5881 440.384C50.4431 441.974 49.2292 443.754 47.6409 445.112C44.8121 447.531 41.8705 449.792 38.7158 451.763C28.179 458.345 16.7465 462.884 4.86917 466.344C1.21065 467.411 -2.41985 468.747 -6.34738 468.643C-7.55754 468.611 -8.88138 468.634 -9.96803 469.081C-12.1512 469.977 -14.4192 470.435 -16.7084 470.618C-21.5703 471.007 -26.3352 472.036 -31.1857 472.545C-39.0453 473.369 -46.9057 474.123 -54.7933 474.481C-59.5923 474.7 -64.3132 475.588 -69.1357 475.685C-72.2213 475.748 -75.2903 476.871 -78.3555 477.567C-92.8486 480.86 -106.047 486.735 -116.706 497.374C-118.057 498.722 -119.975 498.632 -121.117 500.184C-126.254 507.164 -131.486 514.075 -137.009 520.765C-142.812 527.794 -145.938 536.398 -150.478 544.174C-151.402 545.755 -151.334 545.785 -153.228 546.621C-153.42 546.705 -153.495 547.074 -153.608 547.318C-155.851 552.191 -158.513 556.875 -160.315 561.946C-161.443 565.117 -162.84 568.244 -162.891 571.682C-163.072 583.662 -158.119 593.258 -149.039 600.809C-143.92 605.065 -138.017 608.072 -131.982 610.803C-119.462 616.468 -106.333 619.377 -92.5872 619.478C-78.9049 619.579 -65.2369 618.715 -51.5387 619.293C-38.0003 619.862 -25.1454 622.793 -12.8809 628.513C1.82671 635.374 15.4689 644.056 29.0452 652.86C38.3536 658.897 47.8614 664.589 58.1307 668.873C72.5731 674.896 87.6195 676.91 103.189 675.685C112.608 674.945 121.94 673.611 131.142 671.594C156.384 666.062 180.326 657.086 202.655 643.96C212.838 637.972 222.248 631.05 229.944 621.981C235.134 615.867 239.852 609.454 242.927 601.972C244.732 597.582 245.882 593.074 245.18 588.281C244.314 582.365 242.441 576.766 239.562 571.532C233.736 560.94 225.631 552.083 217.801 543.011C210.12 534.114 202.616 525.143 198.269 513.922C195.754 507.435 194.083 500.834 193.499 493.979C192 476.43 193.166 458.899 194.225 441.376C194.714 433.281 195.91 425.218 195.303 417.073C194.896 411.611 193.929 406.289 191.438 401.343C187.665 393.854 180.18 385.988 170.507 382.067C170.255 381.965 169.968 381.872 169.783 381.688C167.56 379.485 164.643 379.254 161.787 378.827C161.045 378.716 160.068 378.754 159.629 378.305C158.055 376.691 155.877 378.017 154.072 376.96C153.278 376.495 151.428 377.079 150.043 376.85C150.775 376.798 151.506 376.747 152.236 376.696ZM101.588 686.501C101.977 686.591 102.368 686.682 102.759 686.772C95.6075 687.371 88.4868 687.226 81.4198 686.135C71.3679 684.584 61.7821 681.471 52.6092 677.092C43.6508 672.815 35.1539 667.74 26.8889 662.254C14.8365 654.256 2.69022 646.414 -10.1707 639.736C-20.8652 634.182 -32.1438 630.715 -44.1599 629.636C-48.883 629.211 -53.607 628.867 -58.4681 628.797C-57.924 627.909 -57.1594 628.619 -56.2948 628.119C-57.7179 628.119 -59.1221 627.699 -59.842 628.221C-60.8354 628.943 -61.9448 629.095 -62.6397 628.725C-65.6185 627.142 -68.6753 628.325 -71.6685 628.247C-74.0419 628.185 -76.3372 629.312 -78.7923 629.181C-81.9113 629.014 -85.019 629.574 -88.166 628.618C-89.5717 628.191 -91.3615 628.638 -92.9998 629.08C-94.5131 629.488 -96.4795 629.623 -97.8102 628.978C-100.049 627.894 -102.32 628.604 -104.554 628.201C-110.036 627.212 -115.45 626.071 -120.771 624.439C-128.361 622.109 -135.52 618.811 -142.452 614.96C-153.941 608.579 -161.358 598.747 -166.326 586.876C-171.304 574.986 -171.508 563.093 -166.011 551.246C-163.117 545.008 -160.231 538.767 -156.794 532.807C-154.592 528.989 -151.995 525.425 -148.878 522.299C-146.103 519.514 -144.412 516.062 -142.635 512.667C-137.953 503.711 -132.427 495.367 -125.122 488.313C-117.745 481.186 -109.077 476.041 -99.6485 472.167C-87.1089 467.015 -73.9115 464.866 -60.4936 463.563C-41.1894 461.689 -21.8571 459.863 -3.1113 454.452C10.099 450.639 22.8621 445.766 34.4568 438.195C39.5862 434.845 43.7569 430.5 47.7519 425.906C54.7924 417.809 61.3403 409.284 68.7665 401.525C74.0997 395.951 79.6019 390.538 86.0293 386.2C97.2936 378.6 109.314 372.531 122.655 369.62C136.952 366.501 151.28 365.944 165.373 370.929C178.787 375.673 189.693 383.475 195.934 396.678C199.346 403.899 200.426 411.693 200.467 419.601C200.541 434.124 199.155 448.61 199.28 463.139C199.365 472.984 199.062 482.84 200.615 492.613C202.511 504.556 207.831 514.888 215.389 524.203C220.468 530.463 225.831 536.479 231.025 542.639C237.256 550.026 243.011 557.743 247.154 566.548C254.434 582.022 253.202 597.142 245.253 611.958C240.599 620.632 234.602 628.269 227.586 635.19C224.615 638.12 221.439 640.802 218.31 643.517C215.475 645.976 212.369 648.185 209.041 650.071C206.406 651.563 204.099 653.609 201.453 655.17C191.853 660.832 181.986 665.925 171.713 670.265C165.563 672.863 159.256 675.006 152.941 677.096C147.889 678.768 142.733 680.146 137.505 681.32C133.192 682.286 128.874 683.376 124.522 684.185C122.188 684.618 119.734 684.2 117.323 684.569C112.528 685.302 107.71 685.916 102.841 685.938C102.354 685.94 101.864 685.982 101.611 686.511C98.5242 685.93 95.4537 686.401 92.3787 686.485C95.4507 686.763 98.5219 686.888 101.588 686.501Z"/>
<path d="M-93.4682 39.8628C-93.6434 39.207 -93.9781 38.8537 -94.5958 38.9731C-95.6588 39.1776 -96.2539 39.8315 -96.3146 40.9297C-96.3478 41.5317 -95.9935 41.6481 -95.4924 41.5591C-94.4627 41.376 -93.985 40.5724 -93.4682 39.8628ZM-98.9067 233.23C-97.8565 230.277 -97.1762 227.23 -96.2933 224.236C-98.0238 226.979 -98.9606 229.962 -98.9067 233.23ZM-91.1235 33.7389C-86.7423 29.0152 -82.1703 24.4784 -77.5269 20.0121C-83.1697 23.4957 -87.5283 28.241 -91.1235 33.7389ZM-4.7796 -13.0133C4.26555 -17.1047 11.7887 -23.234 18.9692 -29.839C11.4784 -24.2108 3.99736 -18.5768 -3.9995 -13.6691C-4.2853 -13.4929 -4.52022 -13.2335 -4.7796 -13.0133ZM98.6669 214.304C96.0379 223.287 90.8189 230.904 88.1918 239.623C91.4962 237.293 100.028 217.23 98.6669 214.304ZM-7.42506 303.604C-5.66125 303.604 -3.8808 303.757 -2.13558 303.577C5.01558 302.842 12.0728 301.485 19.129 300.149C29.5983 298.167 39.2552 293.719 49.1627 290.068C53.7337 288.382 58.1061 286.084 61.203 282.03C71.4374 268.629 79.677 254.202 85.5264 238.279C90.1953 225.571 96.2697 213.386 101.26 200.787C104.823 191.793 107.096 182.37 108.115 172.701C108.964 164.645 108.487 156.566 108.545 148.494C108.592 141.856 108.474 135.222 108.892 128.563C109.186 123.872 108.134 118.986 107.732 114.181C107.022 105.72 107.15 97.364 109.721 89.1567C112.094 81.5847 115.31 74.3748 119.304 67.5633C127.388 53.7719 137.522 41.4859 148.151 29.6237C153.861 23.2537 159.461 16.8209 164.181 9.68055C172.868 -3.45797 177.036 -17.9688 176.677 -33.6806C176.396 -45.9636 171.015 -55.5002 160.419 -61.9799C142 -73.242 122.553 -76.846 101.677 -69.9875C85.5087 -64.6755 71.1134 -56.2352 57.9446 -45.5153C49.7314 -38.8291 42.2328 -31.3442 34.0421 -24.6384C22.8866 -15.5032 11.553 -6.64008 -1.58549 -0.428566C-11.7533 4.37933 -22.4409 7.76112 -33.1902 10.9403C-42.3665 13.6545 -51.117 17.3182 -59.384 22.1271C-68.9254 27.6769 -76.983 34.7772 -82.5602 44.4507C-83.2229 45.6028 -83.2483 45.5881 -84.7576 45.6194C-85.2157 45.6292 -85.2441 46.0099 -85.3978 46.3153C-86.7936 49.1 -87.7048 52.0051 -87.742 55.154C-87.7675 57.2809 -86.9463 60.323 -87.6745 61.3469C-90.0129 64.6317 -88.252 67.8139 -87.8213 70.5819C-87.2859 74.0156 -86.3864 77.5784 -85.3342 81.0189C-82.6943 89.6559 -79.661 98.1383 -75.3591 106.072C-71.4146 113.351 -67.5933 120.694 -66.4549 128.937C-66.1261 131.327 -63.2464 134.055 -66.3199 136.606C-66.3208 136.607 -66.1045 136.845 -66.0125 136.987C-64.3808 139.502 -63.5567 142.34 -63.4324 145.256C-63.312 148.042 -62.3165 150.645 -62.1971 153.399C-62.0043 157.843 -60.356 162.162 -61.3084 166.726C-61.741 168.803 -61.6402 171.007 -61.6441 173.153C-61.6529 177.931 -63.2719 182.483 -63.5224 187.272C-63.6164 189.066 -65.1835 191.346 -66.0468 193.401C-69.1418 200.765 -74.6319 206.375 -79.4486 212.52C-83.9805 218.3 -89.0722 223.966 -89.5489 231.89C-89.7408 235.087 -90.6922 238.461 -89.0429 241.461C-84.6059 249.523 -82.2725 258.664 -76.1853 265.892C-71.4478 271.518 -68.2667 278.335 -62.4947 283.223C-56.8499 288.003 -51.4606 293.15 -44.9398 296.681C-41.7391 298.415 -38.4934 300.189 -34.7357 301.018C-25.7072 303.011 -16.6249 303.731 -7.42506 303.604ZM67.2982 -68.4748C67.7964 -68.6256 68.3357 -68.7009 68.7869 -68.9407C80.0579 -74.935 91.8046 -79.6822 104.263 -82.5971C104.713 -82.7028 105.331 -82.6871 105.598 -83.3791C104.755 -83.2587 103.963 -83.1648 103.178 -83.0287C92.8343 -81.2297 83.2459 -77.2821 73.9325 -72.6074C71.6147 -71.4436 69.0777 -70.5401 67.3452 -68.42C64.5683 -68.2262 62.873 -65.883 60.47 -64.9188C60.0491 -64.7505 59.595 -63.985 60.2371 -63.3351C60.4505 -63.1198 60.7451 -62.9808 60.8772 -63.2343C62.2759 -65.9015 65.6685 -66.11 67.2982 -68.4748ZM35.8115 -27.9026C39.0357 -29.9082 41.6012 -32.6479 44.1617 -35.3905C41.4044 -32.8681 38.0726 -30.9761 35.8634 -27.8478C33.5094 -27.0138 32.0049 -25.1022 30.3243 -23.4167C32.4601 -24.5306 34.2934 -26.0223 35.8115 -27.9026ZM106.956 228.578C105.084 233.697 103.292 238.786 99.5042 243.002C97.2148 245.548 95.3893 248.615 93.879 251.704C93.3318 252.826 92.3266 253.164 91.754 254.167C90.4179 256.507 89.9275 259.151 88.2166 261.425C84.3601 266.55 80.5535 271.697 76.5277 276.703C73.8712 280.005 71.385 283.475 68.6248 286.7C63.4812 292.708 56.9163 296.738 49.6291 299.607C41.2084 302.922 32.867 306.519 24.2594 309.269C8.21871 314.392 -8.15379 316.455 -25.0979 314.434C-35.3059 313.216 -45.2476 311.288 -53.9962 306.075C-67.9873 297.736 -79.5215 286.632 -87.6681 272.306C-87.9735 271.77 -88.366 271.282 -88.7331 270.783C-92.063 266.254 -95.0689 261.575 -96.5978 256.06C-97.3554 253.332 -98.4742 250.713 -99.7094 248.138C-103.373 240.505 -102.669 232.816 -99.7104 225.159C-96.7319 217.452 -91.7576 210.908 -86.197 205.107C-78.7669 197.355 -75.2804 188.365 -74.1704 177.974C-73.1378 168.309 -74.834 158.948 -76.5557 149.553C-77.6119 143.788 -78.5564 137.999 -79.6909 132.25C-81.5212 122.981 -85.7849 114.72 -90.1631 106.438C-95.8627 95.6549 -100.219 84.3027 -102.853 72.3319C-105.058 62.3148 -103.971 52.4787 -100.56 43.0342C-98.5946 37.593 -96.0399 32.2527 -91.8995 27.8451C-87.8688 23.553 -83.8019 19.35 -78.9949 15.9223C-67.4421 7.68169 -54.7058 1.90086 -41.2022 -2.30703C-25.785 -7.11102 -10.7701 -12.795 2.40264 -22.4724C12.1633 -29.6432 21.4502 -37.3816 30.3701 -45.5683C42.5161 -56.716 55.2377 -67.0933 69.9393 -74.7681C84.1908 -82.207 99.0755 -87.9977 115.366 -87.8489C139.885 -87.6247 160.878 -78.9603 175.75 -58.793C186.748 -43.876 188.531 -26.7831 184.937 -8.93748C184.288 -5.71524 183.632 -2.49399 182.879 0.70475C180.944 8.92183 177.602 16.4772 172.693 23.4072C169.831 27.4458 166.746 31.313 163.883 35.3085C160.522 39.998 156.779 44.2949 152.91 48.4842C148.429 53.3362 144.459 58.5424 140.686 63.9327C139.371 65.8101 137.287 66.9494 136.016 68.9697C131.209 76.6093 126.211 84.1353 122.779 92.5384C120.926 97.0742 119.037 101.497 118.672 106.609C118.45 109.743 118.641 112.866 118.368 115.981C117.959 120.646 118.763 125.243 119.505 129.803C119.79 131.553 117.668 132.969 118.125 133.091C120.598 133.748 118.859 135.138 118.91 136.148C118.939 136.745 118.561 137.401 118.696 137.949C120.992 147.266 119.999 156.782 120.195 166.193C120.377 174.928 121.141 183.83 118.779 192.392C117.917 195.515 117.288 198.721 116.379 201.843C115.287 205.587 113.274 209.099 112.938 213.005C112.466 218.507 109.685 223.118 107.682 228.037C107.572 228.307 107.166 228.457 106.894 228.672C107.151 225.742 109.55 223.559 109.634 220.546C107.578 224.914 105.012 229.053 103.947 233.868C104.95 232.104 105.953 230.342 106.956 228.578Z"/>
<path d="M16.6531 14.8751C22.3958 11.5051 27.0519 6.88707 31.4106 1.93039C26.5097 6.26748 21.692 10.6976 16.6531 14.8751ZM49.8502 -13.967C49.6593 -14.1706 49.4685 -14.3742 49.2776 -14.5778C44.2456 -9.98029 38.7946 -5.85169 34.4252 -0.512295L49.8502 -13.967ZM-65.8304 229.641C-68.7795 232.569 -70.1225 241.647 -68.1874 243.517C-67.6353 238.919 -67.6206 234.149 -65.8304 229.641ZM-43.5056 46.7485C-50.4248 51.4379 -56.6001 56.8175 -59.5894 65.0042C-54.8314 58.3845 -49.6045 52.1906 -43.5056 46.7485ZM59.2952 -22.3079C70.8638 -31.3697 82.9951 -39.4136 96.5692 -45.122C87.6767 -43.9445 63.0108 -27.6444 59.2952 -22.3079ZM55.2265 193.826C52.4623 199.347 50.7494 205.26 49.1217 211.159C47.4567 217.193 45.2094 223.017 43.2596 228.939C41.4165 234.538 38.7532 239.868 36.451 245.316C46.3037 229.426 49.9781 211.354 55.2265 193.826ZM-43.7504 105.199C-43.7044 104.859 -43.7798 104.37 -43.5859 104.213C-43.2355 103.927 -43.0545 104.362 -42.8215 104.62C-42.1618 105.344 -42.4701 106.437 -41.5657 107.163C-39.8968 108.499 -38.7487 110.18 -37.9177 112.304C-37.209 114.115 -35.2749 115.432 -33.9564 117.027C-33.6618 117.382 -33.2928 117.983 -33.6726 118.488C-34.3783 119.425 -33.8126 119.732 -33.0354 119.953C-32.0752 120.223 -31.5672 120.949 -31.2412 121.786C-30.0647 124.801 -28.4986 127.664 -28.1482 130.985C-27.9221 133.127 -27.5766 135.688 -26.7828 137.251C-24.5726 141.607 -24.4924 146.199 -24.7018 150.562C-24.8917 154.512 -25.6513 158.559 -25.4692 162.516C-25.3126 165.935 -27.0324 168.722 -27.511 171.906C-28.0905 175.76 -30.7626 179.125 -31.2892 183.131C-31.6142 185.591 -34.2119 187.461 -34.1894 189.41C-34.1385 193.915 -38.1291 196.34 -38.8338 200.403C-39.058 201.695 -39.5875 203.63 -40.7112 204.859C-43.0202 207.383 -43.6956 210.875 -46.0868 213.389C-49.0976 216.554 -50.6608 220.792 -53.8713 223.934C-55.7995 225.822 -57.3069 228.258 -58.9943 230.431C-60.5232 232.396 -60.3862 235.444 -60.8913 238.043C-61.6234 241.804 -59.4651 244.734 -58.4912 248.038C-56.1636 255.933 -51.3126 262.46 -45.6336 267.726C-34.5428 278.011 -21.2594 281.391 -6.49014 276.008C-4.99062 275.462 -3.49304 274.912 -1.98078 274.404C6.88721 271.426 14.5483 266.505 21.6643 260.464C30.9766 252.56 35.3861 241.536 40.5454 231.102C42.3504 227.453 43.0522 222.979 44.4147 218.927C45.3475 216.153 46.3517 213.383 46.9938 210.535C47.6408 207.665 48.5227 204.875 49.3821 202.077C50.2395 199.283 51.4474 196.584 52.1267 193.754C52.7316 191.236 53.9698 188.987 54.4915 186.377C55.1884 182.889 56.3267 179.414 57.2742 175.933C60.6805 163.412 63.2283 150.726 64.7631 137.834C65.6137 130.688 66.2332 123.475 67.7132 116.452C72.4937 93.75 82.9473 73.6923 97.3456 55.6657C103.781 47.6091 110.608 39.8628 117.346 32.051C126.993 20.8661 132.227 7.55338 136.171 -6.41224C138.624 -15.0952 138.199 -23.6735 135.012 -32.0531C133.194 -36.8287 130.487 -40.8163 124.775 -41.7589C119.456 -42.6369 114.266 -41.3772 109.237 -40.4473C106.247 -39.8933 102.989 -38.4711 99.9884 -37.0195C92.7893 -33.5359 85.4874 -30.2462 79.2279 -25.176C77.7372 -23.9701 75.8813 -23.8086 74.3916 -22.6037C72.4849 -21.062 71.1527 -18.9801 69.0728 -17.5951C67.8786 -16.8013 66.4476 -16.724 65.3465 -15.706C58.3636 -9.25567 50.4705 -3.83014 44.168 3.40128C41.9804 5.9129 39.2779 7.96938 36.8945 10.3185C27.9453 19.1346 17.5308 25.7308 5.79877 30.0405C-8.58382 35.3241 -22.0062 42.4067 -34.5623 51.0604C-39.3634 54.3687 -44.506 57.4892 -47.9485 62.5193C-49.9443 65.4371 -52.5107 68.4117 -52.822 71.7543C-53.284 76.6983 -53.7871 81.8615 -52.1035 86.7868C-51.6973 87.9751 -52.4216 89.6312 -52.1691 90.0374C-51.1952 91.5967 -50.6079 93.3605 -49.5528 94.8561C-47.2741 98.0891 -44.1321 100.852 -43.7504 105.199ZM-46.4802 200.546C-45.7226 200.26 -45.5346 199.502 -45.2733 198.896C-42.7852 193.135 -40.0954 187.444 -38.4305 181.368C-37.4565 177.812 -35.7475 174.423 -35.8033 170.611C-37.5231 177.354 -40.5202 183.642 -42.6491 190.233C-43.7787 193.731 -45.8919 196.876 -46.4234 200.598C-49.4645 204.609 -50.9572 209.426 -53.416 213.741C-50.8153 209.492 -47.7585 205.477 -46.4802 200.546ZM66.4043 184.517C66.2986 183.868 66.4004 183.291 65.7534 182.965C65.6389 183.964 64.8353 184.917 66.1567 185.792C66.925 186.3 66.2027 187.126 66.0059 187.741C64.2353 193.269 62.5135 198.821 60.8036 204.358C59.1768 209.63 57.2339 214.829 56.0143 220.229C55.4025 222.939 54.088 225.375 53.0925 227.933C52.6345 229.107 52.2488 230.228 52.2488 231.504C52.2478 234.1 52.0677 234.168 49.6677 232.803C49.467 232.69 49.1636 232.758 48.8396 232.738C48.8396 233.026 48.7506 233.312 48.8523 233.484C50.3832 236.025 50.0592 239.072 48.2611 241.52C47.0748 243.135 45.9952 244.768 45.4823 246.89C44.712 250.084 42.5224 252.598 39.9795 254.698C39.7485 254.889 39.2228 254.801 39.1984 255.245C39.0555 257.878 36.9364 259.141 35.338 260.709C33.812 262.206 31.9307 263.299 30.4968 264.942C28.0429 267.757 25.2827 270.088 21.9195 271.962C20.3671 272.828 18.7903 274.471 17.0617 275.148C10.675 277.652 4.41256 280.454 -2.05637 282.787C-12.9867 286.731 -23.7477 285.574 -34.5958 282.942C-40.9776 281.393 -46.7467 278.538 -52.0205 274.617C-54.0369 273.117 -55.6686 271.292 -57.3257 269.439C-63.6576 262.363 -68.0965 254.263 -70.3262 245.054C-71.7543 239.157 -70.8538 233.391 -67.8997 228.082C-67.1226 226.685 -66.5245 224.853 -63.9023 225.17C-62.76 225.308 -61.6266 223.183 -60.7407 221.834C-54.4774 212.299 -49.3846 202.172 -45.2834 191.532C-40.9659 180.332 -37.1985 169.015 -35.744 156.993C-34.6878 148.266 -35.8673 139.896 -37.9942 131.474C-39.6974 124.729 -43.2172 119.09 -47.2361 113.599C-50.2479 109.485 -52.9416 105.14 -55.9152 100.997C-56.9694 99.529 -55.6392 98.5923 -55.327 96.7041C-56.9547 98.9172 -57.2219 98.4729 -57.9149 96.6523C-58.6079 94.8327 -59.8784 93.1335 -60.8817 91.3697C-63.0272 87.5934 -64.2537 83.4765 -64.2948 79.2344C-64.3104 77.6252 -65.1512 76.2823 -64.9339 74.7593C-64.6609 72.8389 -64.5268 70.8695 -63.9835 69.0225C-63.0243 65.7562 -62.4223 62.3128 -59.2295 60.0948C-58.3476 59.4821 -58.8712 57.5812 -57.8689 56.5055C-53.5798 51.9002 -49.5412 46.9925 -44.1774 43.5775C-31.4157 35.4514 -18.0491 28.5303 -4.04726 22.6985C5.70165 18.6375 15.0091 13.5075 22.6928 5.96288C33.9999 -5.13875 45.8934 -15.5885 58.1295 -25.6438C69.7293 -35.1754 82.1582 -43.3553 96.4116 -48.4735C102.396 -50.6219 108.532 -51.8973 114.874 -52.3349C123.926 -52.9593 130.704 -48.8395 135.963 -41.9967C146.063 -28.8543 148.433 -14.0635 144.547 1.8421C141.935 12.5395 138.087 22.7974 132.661 32.3995C130.113 36.9059 127.685 41.4671 123.483 44.8959C121.479 46.5315 120.405 49.2937 118.864 51.5136C113.596 59.1033 106.967 65.6114 101.723 73.247C99.3872 76.6464 97.4129 80.2328 95.2116 83.6938C90.4076 91.2473 87.1276 99.5838 83.5158 107.713C80.3464 114.845 79.2003 122.64 78.058 130.364C76.8286 138.687 75.5268 147.002 74.1095 155.295C73.2912 160.085 72.7206 165.031 71.0164 169.519C69.8331 172.637 69.789 175.958 68.3727 178.981C67.5593 180.714 68.4334 183.089 66.4043 184.517Z"/>
<path d="M36.9203 150.378C37.1865 150.518 37.4537 150.659 37.7199 150.799C38.5754 148.529 41.0068 146.915 39.888 143.816C38.8984 146.003 37.9098 148.191 36.9203 150.378ZM-14.0521 65.0152C-19.603 66.0576 -25.2957 71.2845 -24.7172 74.8258C-22.0294 70.4368 -18.1338 67.6247 -14.0521 65.0152ZM32.9817 31.4661C32.8192 31.2498 32.6557 31.0345 32.4933 30.8201C25.0974 37.2303 17.7006 43.6415 10.3057 50.0527C10.4623 50.2357 10.6199 50.4188 10.7775 50.6028L32.9817 31.4661ZM54.3341 11.0685C61.2866 5.93468 68.4319 1.09839 76.1116 -2.92451C83.8745 -6.99145 91.7275 -10.8587 99.691 -14.4656C83.5114 -7.85769 67.5235 -0.893482 54.3341 11.0685ZM4.37701 218.668C6.24751 215.619 8.51737 212.931 10.0433 209.597C13.4975 202.054 17.5067 194.762 20.7936 187.125C25.6925 175.748 30.8479 164.491 36.892 153.663C37.2698 152.985 37.6212 152.302 36.6179 151.319C24.5962 173.349 16.0493 196.764 4.37701 218.668ZM55.0359 22.8218C51.9018 24.2244 50.3523 27.2558 48.103 29.5687C45.149 31.2855 43.5154 34.3776 40.8863 36.4517C36.3534 40.0273 31.7002 43.4883 27.46 47.3918C18.685 55.4719 8.99578 62.071 -1.74858 67.2645C-5.73722 69.1937 -10.3905 69.6058 -13.7987 72.9416C-15.8835 74.9814 -18.4177 76.6307 -18.6056 79.8255C-18.8846 84.5591 -18.1446 89.133 -15.864 93.3879C-11.6473 101.254 -5.96724 108.13 -1.00274 115.489C4.15656 123.138 8.76674 130.92 9.9413 140.445C11.063 149.556 10.3876 158.586 9.85223 167.632C9.74359 169.465 8.50344 171.212 8.4359 173.334C8.34291 176.298 8.31257 179.592 6.43032 182.021C3.03484 186.404 1.90921 191.75 -0.313656 196.615C-1.04189 198.21 -0.595551 200.561 -1.99622 201.782C-3.86574 203.412 -4.36885 205.557 -5.26348 207.606C-5.61193 208.406 -6.09644 209.209 -6.71016 209.819C-8.73531 211.832 -10.0107 214.491 -11.4212 216.788C-14.1902 221.299 -17.2725 225.293 -21.1622 228.832C-22.283 229.853 -24.0536 229.729 -24.7271 231.32C-25.4005 232.909 -26.6387 234.085 -27.9366 235.18C-29.2619 236.299 -29.9392 237.762 -30.4658 239.474C-29.4938 239.753 -28.8664 239.356 -28.2263 239.121C-24.1995 237.646 -20.756 235.045 -16.8672 233.276C-10.0459 230.173 -4.29153 225.672 0.26482 219.654C3.674 215.151 5.9879 210.057 8.42807 205.032C13.2634 195.072 18.177 185.144 22.7118 175.047C25.2518 169.39 27.8936 163.792 30.7047 158.277C35.3756 149.115 39.5375 139.719 43.5937 130.286C46.8423 122.732 49.5311 114.943 51.291 106.868C52.8258 99.8177 55.5018 93.1354 58.1182 86.4413C63.0993 73.6953 68.1666 61.0002 76.3788 49.8535C83.757 39.8383 91.2302 29.8907 97.8979 19.3686C102.874 11.5146 107.194 3.38563 109.314 -5.74566C109.541 -6.72545 110.267 -8.01062 109.434 -8.73102C108.728 -9.3418 107.577 -8.53918 106.686 -8.18681C97.336 -4.48692 88.3359 -0.0813065 79.6275 4.95857C78.0545 5.86886 76.6568 7.92729 74.2499 6.92108C73.9102 6.77915 73.2006 7.25583 73.4071 7.66399C74.1363 9.10675 72.721 9.08914 72.1787 9.44738C68.7539 11.7114 65.3731 14.0302 62.0324 16.4194C59.419 18.288 57.6033 20.9513 55.0359 22.8218ZM-13.977 207.422C-13.2224 207.369 -13.006 206.757 -12.729 206.214C-9.22491 199.337 -6.62617 192.06 -3.44407 185.044C-1.91811 181.676 -2.43982 177.636 0.123676 174.641C0.56218 174.128 0.424168 173.623 -0.187584 173.36C-0.990208 173.016 -1.42186 173.551 -1.51191 174.207C-1.86037 176.765 -3.08192 179.008 -3.93054 181.389C-6.1172 187.524 -7.99063 193.746 -10.9163 199.629C-12.132 202.075 -13.4798 204.65 -13.9153 207.48C-16.0775 210.345 -17.6211 213.535 -18.828 216.901C-17.3138 213.689 -14.4096 211.19 -13.977 207.422ZM80.9925 58.331C81.9419 59.9382 81.6199 60.9474 80.9817 62.5037C79.4264 66.2985 76.2501 69.2799 75.6501 73.5133C75.4368 75.0246 74.2632 76.1659 73.5447 77.4373C71.7153 80.6733 71.3639 84.4387 69.7186 87.5915C68.1574 90.5827 67.4879 93.8588 65.8963 96.7834C65.0506 98.3358 65.3482 100.269 64.247 101.774C63.5041 102.788 61.6679 109.101 61.4545 110.315C60.9191 113.375 60.2966 116.42 59.6789 119.465C59.5732 119.988 59.3383 120.525 58.6267 120.413C57.8926 120.297 57.5373 120.631 57.8192 121.283C58.8744 123.726 57.6146 125.915 56.676 127.833C53.9461 133.408 51.5754 139.139 49.1783 144.847C48.7036 145.978 46.4983 145.671 47.2843 147.925C47.6807 149.063 46.3995 151.036 45.5127 152.508C44.6494 153.945 44.0689 155.548 43.2869 157.038C37.5266 168.019 32.2332 179.219 27.2178 190.562C24.436 196.854 21.1159 202.905 18.1854 209.134C17.4454 210.708 16.9609 212.474 16.4636 214.158C16.0065 215.705 15.3361 217.923 13.447 218.894C13.0965 219.075 12.8783 219.234 12.7638 219.593C10.4538 226.868 4.24813 230.672 -1.28604 234.933C-5.24825 237.984 -10.0806 239.786 -14.5763 241.894C-17.358 243.198 -19.9166 245.273 -23.1575 245.731C-26.4061 246.191 -29.6333 246.778 -32.9269 246.844C-36.1218 246.909 -39.0758 246.161 -41.7215 244.325C-43.1075 243.364 -43.318 242.142 -42.7131 240.599C-41.2145 236.77 -38.9544 233.566 -35.4738 231.29C-34.1407 230.417 -32.7155 229.661 -31.8277 228.236C-31.1945 227.219 -30.1217 228.5 -28.9452 227.343C-24.7823 223.248 -22.1894 218.269 -19.5193 213.264C-13.989 202.898 -9.87213 191.937 -5.90796 180.916C-4.1931 176.146 -3.30042 171.174 -2.52031 166.174C-2.027 163.017 -1.69518 159.859 -1.48376 156.676C-1.38686 155.2 -0.792721 153.987 1.01905 154.885C2.09965 155.422 2.43245 154.636 2.93947 154.08C3.29967 153.684 3.22626 153.232 2.87976 152.899C2.24746 152.294 1.69835 152.925 1.20405 153.166C-0.824039 154.152 -1.48669 153.564 -1.38392 151.346C-1.09811 145.234 -0.943459 139.121 -2.53108 133.113C-3.32098 130.119 -4.42997 127.246 -5.87566 124.533C-10.1012 116.597 -15.559 109.445 -20.3855 101.89C-23.9161 96.3596 -27.5474 90.8303 -28.2894 84.0805C-28.4626 82.5095 -29.7096 80.595 -27.5367 79.3196C-27.4163 79.2501 -27.3106 79.0269 -27.3203 78.884C-27.7412 72.7097 -27.5504 72.555 -23.3542 68.2277C-20.6312 65.4195 -17.3101 63.4658 -13.9263 61.9105C-1.47593 56.1855 9.0159 47.8558 19.2865 38.9418C31.7888 28.0898 43.1792 15.982 56.168 5.74462C70.3979 -5.46859 86.6744 -13.1522 103.951 -18.4603C113.071 -21.2616 119.828 -14.456 117.84 -4.99191C115.855 4.45749 112.271 13.302 107.511 21.7168C102.047 31.3757 95.7852 40.5265 89.7264 49.7978C88.0643 52.3417 86.6549 55.101 84.6278 57.4481C83.5765 58.6648 82.7964 59.7336 80.9925 58.331Z"/>
<path d="M55.0345 22.8214C53.4635 25.8293 50.991 27.9141 48.1016 29.5683C50.3509 27.2554 51.9003 24.224 55.0345 22.8214Z"/>
<path d="M305.498 316.106C305.601 315.72 305.615 315.41 305.758 315.179C306.372 314.188 307.065 313.241 307.31 312.068C308.106 311.883 307.94 311.046 308.264 310.551C309.987 307.919 311.831 305.365 313.599 302.574C313.107 302.64 312.765 302.686 312.424 302.732C312.024 303.299 312.204 304.064 311.686 304.629C311.214 305.144 310.67 305.604 310.305 306.235C310.15 306.5 309.553 306.565 309.482 306.814C309.06 308.294 307.678 309.167 307.193 310.621C306.921 311.435 306.174 312.062 305.977 312.953C305.769 313.901 304.898 314.579 304.903 315.611C304.903 315.717 304.949 315.823 304.974 315.93C305.083 315.967 305.192 316.003 305.498 316.106ZM375.774 239.948C375.954 239.747 376.119 239.527 376.318 239.346C376.563 239.125 376.824 238.902 377.061 238.698C377.79 238.068 378.103 237.157 378.753 236.5C379.831 235.409 380.614 234.102 381.51 232.875C382.886 230.989 383.941 228.889 385.463 227.092C385.859 226.624 386.575 226.091 386.319 225.189C385.584 225.919 384.934 226.67 384.176 227.29C383.271 228.032 382.853 229.168 381.936 229.881C381.595 231.325 380.499 232.346 379.749 233.541C378.983 234.763 378.167 235.997 377.236 237.14C376.61 237.911 375.927 238.75 375.774 239.948ZM368.434 235.568C369.687 234.199 371.002 233.09 371.897 231.708C373.327 229.497 375.18 227.652 376.75 225.57C377.403 224.704 378.135 223.833 379.008 223.213C379.983 222.52 380.298 221.226 381.455 220.762C383.028 218.991 384.743 217.365 386.571 215.863C386.953 215.549 387.044 215.252 386.915 214.829C386.436 214.572 386.143 214.891 385.879 215.181C385.183 215.948 384.456 216.719 383.716 217.406C382.863 218.196 382.145 219.093 381.322 219.897C380.497 220.702 379.667 221.501 378.849 222.312C376.989 224.158 375.481 226.295 373.832 228.315C372.426 230.038 371.021 231.776 369.561 233.46C369.078 234.016 368.488 234.561 368.434 235.568ZM363.5 228.976C363.59 228.419 363.955 227.985 364.308 227.596C364.855 226.991 365.3 226.183 365.95 225.811C366.736 225.362 366.824 224.281 367.773 224.104C368.865 222.755 369.915 221.371 371.059 220.067C372.744 218.146 374.38 216.156 376.251 214.428C378.353 212.484 380.567 210.658 382.601 208.634C382.975 208.261 383.402 207.939 383.668 207.146C382.782 207.659 382.047 207.923 381.522 208.415C379.252 210.544 376.996 212.693 374.946 215.044C373.442 216.768 371.818 218.391 370.216 220.011C369.103 221.137 367.939 222.257 366.974 223.479C365.662 225.14 364.246 226.713 362.975 228.403C362.921 228.476 362.958 228.619 362.955 228.681C363.027 228.95 363.235 228.89 363.5 228.976ZM302.817 296.256C301.374 296.47 300.976 298.072 299.717 298.545C299.324 299.477 298.471 300.053 297.925 300.85C297.22 301.879 296.606 302.982 295.993 304.065C295.498 304.941 295.409 306.046 295.114 307.148C296.419 306.491 296.79 305.205 297.658 304.343C298.532 303.475 299.24 302.422 299.929 301.389C300.625 300.342 301.61 299.555 302.313 298.51C302.999 297.491 303.604 296.411 304.608 295.429C304.034 295.338 303.823 295.65 303.545 295.763C303.21 295.9 302.892 295.469 302.561 295.751C302.636 295.899 302.711 296.048 302.817 296.256ZM333.954 344.177C335.977 344.863 338.108 344.423 340.202 344.586C341.836 344.713 343.477 344.493 345.123 344.587C346.811 344.683 348.516 344.586 350.202 344.643C351.848 344.699 353.491 344.52 355.147 344.686C356.206 344.793 357.323 344.685 358.614 344.762C357.664 344.052 356.745 344.449 355.982 344.191C355.138 343.905 354.279 344.276 353.468 343.929C352.762 343.626 351.928 344.399 351.14 343.665C350.927 343.824 350.649 344.033 350.382 344.233C349.874 344.097 349.405 343.827 348.982 343.885C347.836 344.044 346.692 343.86 345.548 343.911C344.478 343.958 343.307 343.983 342.266 343.77C341.143 343.54 339.965 343.819 338.902 343.306C338.661 343.189 338.469 343.368 338.257 343.399C337.832 343.461 337.355 343.47 336.967 343.442C336.589 343.416 335.981 343.859 335.701 343.198C335.033 343.735 334.364 342.848 333.75 343.164C332.89 343.606 332.098 343.296 331.314 343.1C330.438 343.79 329.407 343.457 328.402 343.585C329.182 344.39 330.154 343.747 330.879 344.11C331.618 344.479 332.558 343.81 333.154 344.639C333.407 344.492 333.662 344.345 333.954 344.177ZM370.751 207.915C369.128 208.902 367.974 210.394 366.738 211.779C365.498 213.169 363.978 214.338 362.903 216.163C363.79 216.115 364.286 215.897 364.664 215.312C365.134 214.583 365.602 213.82 366.222 213.231C366.714 212.764 367.164 212.353 367.482 211.718C367.772 211.136 368.695 211.117 369.012 210.435C369.052 210.347 369.24 210.331 369.29 210.242C370.085 208.833 371.451 207.938 372.498 206.755C372.981 206.209 373.6 205.618 374.368 205.301C375.111 204.993 375.5 204.07 376.434 204.057C377.772 202.702 379.684 202.043 380.818 200.441C382.295 199.679 383.236 198.174 384.817 197.556C385.083 196.896 386.067 196.849 386.102 195.929C385.799 195.982 385.627 196.236 385.387 196.348C384.373 196.823 383.568 197.784 382.265 197.618C381.986 197.582 381.461 197.881 381.389 198.127C381.157 198.912 380.668 199.212 379.917 199.237C378.47 200.85 376.36 201.709 375.089 203.54C374.721 204.07 374.05 204.385 373.66 204.905C373.488 205.134 372.567 204.377 373.052 205.407C373.166 205.646 372.331 205.745 372.163 206.266C371.957 206.908 371.395 207.197 370.701 207.18C370.63 207.178 370.556 207.286 370.498 207.333C370.57 207.499 370.637 207.653 370.751 207.915ZM450.4 281.285C449.453 281.681 449.232 280.524 448.507 280.603C447.438 279.268 445.8 278.509 444.914 276.96C444.66 276.518 444.19 275.934 443.255 276.098C443.803 276.709 444.292 277.25 444.777 277.796C446.342 279.559 448.305 280.878 450.013 282.484C450.728 283.156 451.733 283.48 452.209 284.462C452.393 284.843 453.011 284.816 453.407 284.997C454.201 285.359 454.458 286.254 455.353 286.532C456.085 286.76 456.725 287.375 457.364 287.895C457.952 288.373 458.581 288.874 459.194 289.239C459.865 289.637 460.45 290.118 461.064 290.568C462.16 291.369 463.224 292.216 464.321 293.016C465.903 294.17 467.308 295.54 468.857 296.742C469.907 297.557 470.906 298.548 471.831 299.557C472.35 300.123 472.331 300.14 473.501 300.276C472.677 299.423 471.915 298.634 471.138 297.83C471.321 297.718 471.512 297.601 471.722 297.472C473.093 298.806 474.457 300.142 475.654 301.648C476.477 302.685 479.19 304.482 480.548 304.884C481.025 305.025 481.182 305.6 481.67 305.568C482.34 305.525 482.522 306.292 483.139 306.357C483.659 306.411 484.158 306.691 484.677 306.731C485.31 306.779 485.535 307.453 486.145 307.526C486.664 307.588 487.172 307.773 487.679 307.923C489.042 308.329 490.422 308.532 491.844 308.338C491.952 308.323 492.077 308.355 492.179 308.4C493.523 308.988 495.06 308.58 496.379 309.183C496.977 309.456 497.48 308.981 498.052 309.219C498.643 309.466 499.289 309.678 499.92 309.704C500.378 309.723 500.824 309.846 501.297 309.822C501.8 309.798 502.35 309.954 502.815 310.171C503.442 310.465 504.358 309.574 504.757 310.668C505.479 310.255 506.032 310.531 506.512 311.099C507.176 310.608 507.537 311.132 507.94 311.523C508.284 311.856 508.793 311.24 509.096 311.71C509.286 312.005 509.637 311.399 509.861 311.921C509.967 312.168 510.57 312.21 510.954 312.328C511.291 312.432 511.635 312.513 511.975 312.605C512.317 312.696 512.653 312.807 512.998 312.875C514.759 313.224 516.249 314.333 518.041 314.632C518.524 314.712 518.968 315.187 519.371 315.547C519.783 315.915 520.159 315.969 520.599 315.647C520.965 316.364 521.641 316.581 522.338 316.873C523.477 317.348 524.732 317.591 525.707 318.454C525.943 318.663 526.372 318.654 526.713 318.746C528.133 319.126 529.55 319.52 530.974 319.88C531.505 320.014 532.039 320.359 532.609 319.988C532.904 320.64 533.578 320.535 534.101 320.716C534.656 320.906 535.234 321.029 535.802 321.181C536.37 321.333 536.95 321.451 537.502 321.648C537.969 321.814 538.566 321.7 538.859 322.296C538.965 322.513 539.232 322.382 539.463 322.344C540.405 322.19 541.163 322.465 541.51 323.456C541.964 323.032 542.64 323.211 542.795 323.462C543.161 324.053 543.713 323.779 544.143 323.961C544.653 324.176 545.366 323.79 545.767 324.348C546.173 324.913 546.834 324.722 547.456 325.12C547.576 325.217 547.177 325.592 547.551 325.798C548.343 325.726 549.164 325.544 549.84 326.33C550.232 326.786 551.141 326.431 551.449 327.17C552.345 327.283 552.804 328.186 553.539 328.429C554.31 328.683 554.864 329.332 555.674 329.421C556.115 329.47 556.303 329.878 556.606 330.089C558.921 331.707 561.262 333.286 563.512 335.005C566.402 337.214 568.903 339.793 571.394 342.403C571.9 342.933 572.33 343.563 572.702 344.143C573.985 346.144 575.539 347.985 576.524 350.164C578.056 353.553 579.337 357.025 579.946 360.723C580.158 362.01 580.42 363.322 580.472 364.592C580.539 366.224 580.947 367.885 580.494 369.527C580.464 369.638 580.396 369.77 580.428 369.863C580.963 371.383 580.261 372.762 579.989 374.201C579.658 375.949 579.542 377.738 578.936 379.43C579.407 380.186 578.596 380.597 578.454 381.19C578.167 382.391 577.825 383.578 577.505 384.77L576.866 387.156C575.95 387.47 576.521 388.75 575.621 389.076C575.385 390.404 574.304 391.236 573.727 392.331C573.122 393.477 572.267 394.379 571.585 395.425C570.068 397.749 567.867 399.418 566.048 401.449C565.75 401.782 565.045 401.838 564.883 402.187C564.522 402.963 563.511 402.903 563.204 403.813C562.98 404.479 561.996 404.644 561.354 405.033C560.854 405.337 560.95 406.088 560.267 406.278C559.774 406.415 559.371 406.86 558.881 407.033C556.781 407.775 554.743 408.672 552.622 409.368C551.049 409.885 549.357 410.007 547.875 410.811C546.794 410.674 545.862 411.276 544.838 411.454C543.819 411.631 542.786 411.664 541.765 411.869C540.66 412.092 539.522 412.253 538.37 412.295C537.009 412.344 535.671 412.588 534.282 412.524C533.449 412.486 532.558 412.68 531.683 412.675C531.083 412.672 530.438 412.868 529.898 412.702C529.385 412.543 528.823 412.887 528.384 412.465C528.345 412.427 528.299 412.326 528.297 412.328C527.15 412.94 525.888 412.338 524.724 412.666C524.171 412.821 523.838 412.651 523.601 412.168C523.307 412.325 523.013 412.481 522.743 412.625C522.623 412.488 522.521 412.372 522.419 412.256C521.653 413.066 520.691 412.369 519.824 412.556C519.344 412.66 518.705 412.545 518.191 412.466C517.563 412.369 516.912 412.747 516.368 412.39C515.894 412.078 515.285 412.623 514.902 412.07C513.702 412.755 512.525 411.891 511.318 412.013C510.175 412.127 508.99 411.995 507.867 411.874C506.871 411.767 505.799 412.008 504.839 411.517C504.362 411.274 503.89 411.789 503.342 411.511C502.926 411.299 502.38 410.99 501.873 411.442C501.677 410.722 501.145 411.341 500.784 411.18C500.33 410.977 499.815 411.058 499.309 411.064C498.433 411.075 497.575 410.513 496.633 410.775C495.288 410.201 493.771 410.604 492.42 410.021C491.682 409.702 490.86 410.123 490.078 409.775C489.388 409.468 488.603 409.163 487.875 409.196C485.957 409.283 484.29 408.284 482.468 408.103C478.726 407.732 475.228 406.405 471.62 405.517C468.023 404.632 464.458 403.624 460.884 402.648C460.34 402.499 459.746 402.485 459.277 402.071C458.893 401.733 458.362 402.181 457.923 401.871C456.668 400.987 455.069 400.967 453.758 400.317C452.657 399.771 451.508 399.512 450.392 399.094C449.829 398.882 449.392 398.418 448.748 398.281C448.218 398.167 447.664 398.137 447.174 397.665C446.762 397.27 445.937 397.347 445.408 397.028C442.712 395.405 439.602 394.572 437.08 392.626C435.904 392.38 434.985 391.625 433.957 391.08C432.454 390.281 431.02 389.372 429.547 388.53C428.833 388.122 427.974 387.867 427.446 387.259C426.87 386.595 426.067 386.339 425.398 385.908C424.063 385.05 422.966 383.884 421.568 383.124C421.046 382.84 420.623 382.365 420.091 382.113C419.021 381.604 418.438 380.552 417.451 379.919C416.088 379.045 414.787 378 413.677 376.823C412.018 375.064 410.157 373.515 408.573 371.675C407.4 370.314 405.974 369.172 404.737 367.86C404.401 367.502 403.98 367.237 403.711 366.756C403.126 365.711 401.852 365.456 400.996 364.696C400.956 364.661 400.847 364.634 400.833 364.652C400.483 365.107 400.233 364.443 399.941 364.569C399.388 364.808 398.921 364.482 398.438 364.354C398.021 364.242 397.521 364.642 397.158 364.052C396.943 363.701 396.359 364.228 396.138 363.978C395.846 363.65 395.634 363.768 395.288 363.75C393.829 363.675 392.461 363.109 391.058 362.733C390.828 362.102 390.205 362.12 389.736 362.074C389.145 362.015 388.977 361.374 388.438 361.328C387.556 361.253 387.02 360.363 386.115 360.34C385.701 359.452 384.433 359.945 384.024 359.049C382.596 358.95 381.737 357.687 380.415 357.298C379.684 357.083 379.081 356.388 378.457 355.865C377.239 354.844 375.817 354.134 374.521 353.232C374.248 353.043 373.805 353.105 373.52 352.925C373.216 352.732 372.938 353.397 372.67 352.866C372.471 352.471 372.257 353.062 371.955 352.92C371.671 352.785 371.338 352.712 370.961 352.743C370.143 352.807 369.305 352.783 368.49 352.676C367.712 352.574 366.979 352.198 366.148 352.416C365.865 352.49 365.601 352.254 365.54 351.886C365.169 352.5 364.563 352.515 364.005 352.564C363.872 352.576 363.709 352.267 363.476 352.015C362.378 352.669 361.148 352.008 359.962 352.246C359.139 352.412 358.318 352.021 357.498 352.29C357.424 352.314 357.264 352.081 357.089 351.915C356.37 352.355 355.508 352.265 354.649 352.286C353.73 352.309 352.838 352.239 351.993 351.913C351.523 352.158 351.15 352.425 350.532 352.303C349.516 352.102 348.454 352.518 347.414 352.25C346.924 352.746 346.854 351.655 346.323 351.982C345.977 352.197 345.487 352.223 345.056 352.249C344.61 352.275 344.19 351.818 343.723 352.087C343.299 352.331 342.804 351.799 342.426 352.249C341.231 351.832 340.004 352.039 338.782 352.018C336.86 351.985 334.943 351.731 333.012 351.906C332.683 351.935 332.333 351.771 331.997 351.682C331.395 351.521 330.802 351.268 330.237 351.662C330.079 351.416 329.987 351.273 329.892 351.127C329.216 351.566 328.515 351.497 327.776 351.292C326.692 350.992 325.626 350.503 324.452 351.066C324.207 351.183 323.789 350.917 323.447 350.858C322.559 350.704 321.729 350.12 320.771 350.502C320.356 349.703 319.59 350.103 319.007 350.058C317.147 349.917 315.262 349.918 313.497 349.25C312.981 349.055 312.626 349.409 312.169 349.313C311.731 349.22 311.314 348.723 311.077 348.805C310.542 348.988 310.154 348.731 309.734 348.619C309.271 348.494 308.914 348.911 308.402 348.683C307.66 348.353 306.825 348.23 306.031 348.013C304.48 347.59 302.846 347.686 301.3 347.139C299.809 346.612 298.225 346.346 296.72 345.851C296.234 345.69 295.605 346.458 295.246 345.533C295.026 344.967 294.305 345.816 293.964 345.26C292.741 345.624 291.95 344.574 290.913 344.322C289.77 344.044 288.646 343.692 287.501 343.427C286.98 343.306 286.8 342.719 286.205 342.67C285.79 342.635 285.277 342.626 284.965 342.167C284.724 341.813 284.36 342.46 284.107 342.132C283.931 341.904 283.81 341.69 283.484 341.593C281.928 341.132 280.543 340.351 279.208 339.414C278.65 339.023 278.017 338.62 277.265 338.432C276.551 338.254 275.9 337.748 275.27 337.315C272.627 335.497 270.027 333.616 267.619 331.494C266.719 330.702 266.039 329.683 265.038 328.964C264.561 328.622 264.359 327.979 264.297 327.35C264.178 327.418 264.076 327.477 263.959 327.545C263.36 326.933 262.808 326.26 262.238 325.626C261.566 324.879 260.924 324.059 260.418 323.143C259.839 322.096 259.362 320.985 258.462 320.099C257.979 319.622 257.924 318.762 257.573 318.1C256.837 316.71 256.173 315.281 255.561 313.821C254.973 312.418 254.527 310.962 254.121 309.541C253.345 306.833 252.598 304.066 252.544 301.217C252.527 300.344 252.237 299.466 252.478 298.592C252.708 297.761 252.421 296.943 252.45 296.137C252.484 295.195 252.745 294.251 252.872 293.298C253.011 292.239 252.857 291.141 253.266 290.093C253.648 289.112 253.843 288.059 254.11 287.034C254.754 284.567 256.198 282.539 257.618 280.484C258.608 279.052 259.756 277.739 260.677 276.253C261.223 275.373 262.196 274.852 262.87 274.037C264.47 272.105 266.466 270.597 268.421 269.043C269.06 268.534 269.95 268.301 270.322 267.462C270.362 267.372 270.487 267.312 270.584 267.255C271.04 266.987 271.477 266.667 271.964 266.476C272.47 266.278 272.992 266.166 273.092 265.517C273.739 265.717 273.867 265.022 274.284 264.819C274.758 264.587 275.224 264.326 275.659 264.028C278.937 261.785 282.395 259.842 285.842 257.882C286.928 257.264 288.099 256.797 289.201 256.205C290.393 255.566 291.496 254.739 292.731 254.213C294.682 253.382 296.491 252.26 298.452 251.483C300.177 250.798 301.887 250.06 303.561 249.289C305.164 248.551 306.815 247.921 308.422 247.197C309.89 246.535 311.369 245.849 312.926 245.36C313.779 245.093 314.571 244.589 315.395 244.206C316.642 243.627 317.89 243 319.14 242.454C321.828 241.282 324.286 239.726 326.773 238.231C330.018 236.282 332.997 233.947 335.865 231.465C338.488 229.194 340.805 226.62 343.308 224.239C346.961 220.766 350.076 216.817 353.553 213.197C355.371 211.304 356.979 209.208 359.013 207.513C359.406 207.186 359.702 206.682 360.101 206.298C360.243 206.162 360.433 205.969 360.511 205.803C360.914 204.959 362.232 205.015 362.335 203.909C363.029 203.442 363.591 202.811 364.236 202.307C364.548 202.063 364.827 201.91 365.111 201.558C365.614 200.934 366.067 200.172 366.886 199.832C367.091 199.748 367.355 199.614 367.427 199.436C367.957 198.132 369.208 197.508 370.108 196.56C370.984 195.638 371.92 194.78 372.935 193.986C373.855 193.266 374.711 192.464 375.687 191.793C377.17 190.776 378.424 189.45 380.218 188.86C380.889 188.639 381.465 188.096 382.177 187.779C384.96 186.54 388.388 185.004 392.297 184.831C393.926 184.122 395.818 184.564 397.403 183.662C398.609 183.777 399.757 183.311 401.005 183.464C402.91 183.698 404.819 183.786 406.7 184.277C408.331 184.705 408.658 184.805 409.839 185.649C410.99 186.472 412.211 187.205 413.404 187.97C415.281 189.173 417.14 190.397 418.565 192.232C420.312 194.481 420.693 196.318 421.876 199.355C422.372 200.629 422.723 201.973 423.005 203.313C423.262 204.531 423.309 205.792 423.498 207.027C423.703 208.372 423.935 209.702 423.992 211.077C424.02 211.782 423.573 212.565 424.047 213.189C424.549 213.846 423.651 214.556 424.237 215.148C423.535 216.814 424.195 218.641 423.613 220.341C423.432 220.868 423.661 221.527 423.672 222.126C423.705 223.83 423.735 225.532 423.576 227.239C423.432 228.77 423.392 230.32 423.442 231.857C423.468 232.602 423.546 233.411 423.961 234.084C424.868 235.553 425.032 237.204 425.181 238.858C425.23 239.396 425.855 239.634 425.798 240.199C427.044 241.31 426.908 241.381 427.512 242.564C428.516 244.529 428.495 246.745 429.25 248.758C429.717 250.005 430.109 251.279 430.574 252.527C431.218 254.255 431.969 255.947 432.534 257.7C432.813 258.565 433.28 259.336 433.613 260.165C434.297 261.869 434.927 263.681 436.136 265.088C437.584 266.773 438.195 269.051 440.039 270.428C441.208 272.499 443.043 273.966 444.709 275.585C444.932 276.532 446.271 276.668 446.29 277.763C447.08 277.383 446.962 278.452 447.434 278.493C448.108 278.551 448.142 279.188 448.504 279.521C448.904 279.889 449.286 280.309 449.753 280.561C450.113 280.755 450.105 281.083 450.4 281.285Z"/>
<path d="M455.97 8.28454C454.835 7.93204 453.822 8.60601 453.153 7.69994C452.455 6.7529 451.869 5.78725 451.886 4.50013C451.942 0.443899 451.956 -3.61357 451.871 -7.66856C451.853 -8.61684 452.21 -9.31936 452.578 -10.0963C453.573 -12.2002 454.635 -14.263 456.151 -16.0504C456.858 -16.8857 457.676 -17.5746 458.73 -17.9817C459.291 -18.1976 459.773 -17.4964 460.5 -18.1629C461.081 -18.6941 461.785 -17.1935 462.656 -17.2531C463.187 -15.9138 462.085 -15.2957 461.365 -14.4629C462.286 -14.0409 463.253 -14.0744 464.117 -13.558C464.963 -13.0516 465.627 -12.5912 465.428 -11.5721C465.182 -10.3123 466.206 -9.84438 466.782 -9.09222C466.53 -8.75585 465.948 -8.5374 466.138 -8.01982C467.678 -3.80348 466.556 -0.915213 465.207 2.54028C464.833 3.50097 464.281 4.64163 464.226 5.46578C464.093 7.4939 462.714 8.95478 462.383 10.8414C462.138 12.2365 461.23 13.0842 459.63 13.0011C459.33 12.985 459.075 13.6775 458.277 13.5174C458.06 13.2853 457.367 12.8807 457.383 12.5034C457.433 11.2547 457.267 10.2767 455.993 9.69081C455.826 9.61386 455.97 8.86045 455.97 8.28454Z"/>
<path d="M388.653 109.664C390.041 110.016 391.776 108.965 392.902 110.608C392.433 111.543 391.974 112.459 391.539 113.326C392.137 113.938 392.506 113.653 393.068 113.435C395.15 112.62 395.64 112.888 396.374 114.967C396.48 115.268 396.428 115.718 396.766 115.786C399.139 116.256 398.595 118.637 399.582 120.007C398.566 121.209 400.268 122.414 399.71 123.384C399.079 124.482 399.282 126.011 397.985 126.741C397.601 126.957 397.796 127.343 397.745 127.657C397.301 130.393 396.125 132.558 393.289 133.49C392.914 133.614 392.742 134.221 391.944 133.986C391.585 133.251 391.141 132.341 390.695 131.43C389.984 131.204 388.723 131.851 388.913 130.148H385.039C384.797 128.305 385.063 126.355 383.582 124.967C383.465 124.858 383.454 124.492 383.545 124.328C384.422 122.746 383.846 120.876 384.508 119.315C384.843 118.524 385.082 117.944 384.605 117.218C383.451 115.466 384.616 114.11 385.522 112.865C386.372 111.695 387.554 110.764 388.653 109.664Z"/>
<path d="M421.955 22.8378C421.468 23.9313 420.451 23.6508 419.388 23.8929C419.606 25.3078 418.899 26.832 420.033 28.1849C418.969 28.2222 418.969 28.2222 418.407 27.8014C417.646 28.2445 417.393 29.06 416.836 29.8605C417.01 27.3992 416.009 25.6256 414.254 24.4551C413.457 24.2987 413.338 24.8957 412.946 25.0472C411.615 22.5933 411.582 21.3683 412.639 14.9265C413.189 11.5876 414.913 8.8359 417.352 6.06058C418.087 5.90047 419.29 8.02292 420.403 5.99728C421.482 7.91245 419.498 8.96871 419.39 10.8131C420.466 10.3278 421.51 9.93808 422.6 10.3229C423.172 10.8169 422.43 11.6274 423.055 12.1586C424.043 12.9976 424.922 13.9124 423.567 15.1735C425.031 16.2583 423.206 17.2053 423.428 18.3013C423.641 19.3588 423.474 20.4945 423.474 21.6302C422.406 21.4192 422.209 20.1606 421.06 20.3617C420.073 21.655 421.811 21.8647 421.955 22.8378Z"/>
<path d="M297.77 93.2795C297.341 92.4678 296.241 92.9469 295.529 92.639V91.126C295.447 91.0342 295.345 90.8679 295.303 90.8815C293.438 91.5046 292.467 89.5522 290.836 89.3499C289.275 89.1562 288.382 87.9808 288.075 86.4256C287.954 85.8 288.228 85.3445 288.784 85.0454C286.112 82.8063 287.785 80.5796 288.65 78.3082C289.759 75.3976 292.043 75.0525 294.624 75.194C295.141 76.6462 294.851 77.8502 293.869 78.7538C295.9 80.0794 296.503 78.1009 297.789 77.7323C298.207 78.5304 298.581 79.2428 298.912 79.8733C298.895 80.6205 297.802 80.8837 298.331 81.719C299.243 82.8075 299.559 81.0525 300.508 81.3392C301.785 82.4885 301.635 84.2423 301.603 85.8274C302.128 85.9639 302.433 86.0446 302.906 86.1674C302.735 87.0115 301.556 87.2547 301.591 88.1608C301.587 89.1451 302.632 88.3979 302.934 89.1265C301.326 90.4521 300.233 92.4404 297.77 93.2795Z"/>
<path d="M376.378 46.0912H379.152C379.721 46.6597 379.573 48.1838 378.811 49.7837C380.412 51.092 381.035 49.1917 381.914 48.7846C382.948 48.7362 383.008 49.6323 383.464 49.7415C383.756 50.7271 382.571 50.9356 382.953 51.9546C383.663 52.3741 385.193 51.9794 385.501 53.1908C385.721 54.0572 385.931 55.1916 384.84 55.9637C385.286 56.1201 385.677 56.2566 386.07 56.3931C385.982 57.3538 384.688 58.0737 385.459 59.3199C384.003 61.2611 381.534 62.0443 379.639 63.5908C379.295 63.8713 378.57 64.8457 377.611 64.2002C377.224 63.6802 378.117 63.6814 378.037 63.2135C377.086 62.6152 375.896 63.3376 374.872 62.8089C374.554 62.0555 375.052 60.9508 373.843 60.4866C372.41 61.1742 370.967 61.4498 369.706 59.4738C371.357 58.3927 373.578 58.0241 373.947 55.5503C372.572 55.5106 371.72 56.7307 370.411 56.9169C370.139 56.6711 369.816 56.3807 369.378 55.986C369.284 55.9177 369.453 55.8309 369.579 55.5888C370.345 54.1329 372.731 54.3303 372.899 52.3021C374.41 51.7051 374.294 50.0221 374.569 48.9695C374.885 47.7519 375.526 47.0643 376.378 46.0912Z"/>
<path d="M319.072 123.392C319.46 122.492 320.239 122.29 319.605 121.246C319.18 120.797 318.181 121.528 317.301 121.044C317.253 120.81 317.191 120.503 317.108 120.089C317.008 119.927 316.816 119.848 316.697 120.025C316.328 120.575 315.789 120.56 315.222 120.548C313.565 120.517 313.21 120.04 313.074 118.349C313.014 117.604 313.616 117.272 313.676 116.551C313.123 116.511 312.591 116.472 311.864 116.42C311.327 113.916 312.79 111.71 313.26 109.399C313.499 108.226 315.308 107.657 316.763 107.67C317.293 107.911 317.126 108.427 317.202 108.632C317.446 109.108 317.532 109.019 317.779 108.808C318.53 108.165 319.434 108.006 320.037 108.891C320.656 109.8 321.536 109.662 322.36 109.807C322.831 110.291 322.48 110.883 322.604 111.405C323.017 111.979 323.634 111.626 324.252 111.813C325.524 112.668 324.916 114.539 325.985 115.611C322.425 121.251 321.572 122.249 319.072 123.392Z"/>
<path d="M429.504 76.8066C429.009 76.3797 428.669 75.8844 427.861 75.8186C425.807 75.6511 425.813 75.5716 425.323 73.304C423.818 72.8013 422.407 73.294 421.146 73.8811C420.506 73.2345 420.949 72.6387 420.684 72.0764C421.152 71.9151 421.544 71.7798 422.031 71.6122V67.7285C421.357 67.9432 420.727 68.1443 419.778 68.4447C419.415 68.4732 419.314 67.7 418.792 67.5399C419.545 65.5788 421.115 64.3711 422.48 62.9946C424.146 63.3608 425.952 61.5002 427.449 63.4588C427.387 63.5755 427.29 65.8134 427.424 66.2676C427.096 66.3061 426.784 66.3496 426.47 66.3793C426.25 66.4004 426.029 66.4042 425.808 66.4166C425.261 66.9205 425.686 67.8229 424.927 68.3231C426.628 67.7285 428.108 67.0024 429.22 65.683C429.69 66.2391 430.155 66.6934 431.019 66.4637C429.537 67.664 431.525 69.1795 429.771 70.2879C431.099 70.3437 431.237 69.4749 431.764 69.2912C432.258 69.1199 432.812 69.1199 433.302 69.0504C433.906 70.2978 434.738 71.3801 434.078 72.9962C433.219 73.7421 431.17 73.5746 430.835 75.6958C432.368 75.3979 433.378 74.5328 434.134 73.7732C435.092 73.9494 435.004 74.4173 434.973 74.8567C433.26 74.7351 433.425 76.8687 431.98 77.2882C430.821 77.6246 429.853 78.6237 428.403 79.5968C428.549 78.2923 429.043 77.5514 429.504 76.8066Z"/>
<path d="M351.213 11.693C350.745 12.4402 350.02 12.1758 349.437 12.2168C347.819 10.767 348.858 8.4671 347.648 6.89822C349.656 2.97108 349.656 2.97108 353.081 1.38855C353.771 1.55983 354.168 2.03645 354.419 2.66698C354.611 3.41046 353.32 3.57678 353.753 4.43196C354.396 5.17296 354.877 4.69758 355.351 4.18C357.298 4.94458 356.817 7.46421 358.512 8.49316C358.321 9.88578 358.744 11.3318 358.292 12.7467L355.479 16.2395C355.036 16.2581 354.592 16.2779 354.157 16.2978C353.765 15.6164 352.947 13.4282 353.068 13.1923C352.49 12.7244 351.889 12.2391 351.213 11.693Z"/>
<path d="M314.192 12.9088C313.517 13.193 314.155 14.1363 313.631 14.181C312.654 14.3932 312.282 13.8707 312.01 13.4425C311.44 12.5439 312.163 11.3262 311.687 10.5579C311.087 9.58485 310.856 8.95928 311.577 7.94647C312.176 7.10618 311.844 5.96303 312.344 4.8956C313.541 2.33626 313.474 2.13146 316.256 2.1538C316.336 2.23324 316.48 2.30895 316.485 2.39335C316.506 2.84018 316.495 3.28949 316.495 3.82817C317.399 4.34948 318.785 3.95726 319.287 5.50875C319.666 6.67672 320.881 7.49839 320.604 9.02631C320.394 10.1918 320.684 11.3486 319.555 12.3577C318.993 12.8616 318.442 13.8335 318.486 14.927C318.515 15.7164 317.85 16.2017 316.941 16.3084C316.101 16.4065 315.639 15.9075 315.309 15.3788C314.835 14.6154 314.552 13.7317 314.192 12.9088Z"/>
<path d="M335.736 36.5922C336.698 36.5922 337.594 36.5922 338.493 36.5922C339.209 37.0489 338.596 37.8545 338.967 38.4031C339.44 38.8487 340.032 38.4999 340.571 38.6389C341.346 40.209 342.346 41.7245 342.852 43.3914C343.402 45.1937 342.581 46.9773 341.982 48.6727C340.61 49.2375 339.974 48.1837 339.199 47.4303C338.302 47.4291 337.408 47.4291 336.491 47.4291C336.03 46.1357 335.389 45.0633 333.742 45.4096C332.971 44.5023 334.025 43.0787 332.79 42.3799C333.4 41.5309 333.975 40.6856 334.126 39.5934C334.275 38.5272 334.83 37.6199 335.736 36.5922Z"/>
<path d="M265.128 47.0454C266.358 45.3921 268.162 44.8584 270.113 44.6896C271.434 46.2994 269.183 46.6147 269.003 47.6523C270.451 49.0226 271.643 46.7239 273.012 47.5927C273.818 48.3337 272.728 48.6403 272.556 49.1728C273.04 49.8145 273.86 49.1492 274.347 49.5563C274.902 50.9589 273.973 52.5215 275.142 53.8682C274.04 54.8649 274.252 56.7888 272.665 57.5806C271.193 57.3188 270.289 56.2178 269.19 55.3564C268.216 54.5956 266.645 54.7445 265.833 52.8691C266.346 51.2034 264.511 49.3019 265.128 47.0454Z"/>
<path d="M469.008 41.4729C467.868 40.8014 466.744 40.614 466.004 39.3393C466.482 39.0501 467.032 38.7175 467.581 38.3848C466.054 37.9132 464.809 39.3467 463.462 38.329C464.202 37.0269 465.802 37.0418 466.795 36.1631C466.901 35.3774 466.431 35.3774 465.834 35.1875C464.852 34.8759 464.662 36.4113 463.721 35.8875C463.358 35.5549 463.194 35.0001 463.597 34.768C465.776 33.5119 467.558 31.7618 469.471 30.1793C470.606 29.2409 470.977 28.9865 472.772 28.6563C472.636 29.3501 471.969 29.6021 471.584 30.1284C472.485 31.1114 473.24 30.2773 474.042 29.9285C474.159 31.3199 475.284 32.478 474.739 34.3844C472.623 36.1345 471.481 39.2214 469.008 41.4729Z"/>
<path d="M599.555 136.568C599.434 138.041 599.852 139.396 600.384 140.925C602.091 138.935 599.207 138.084 599.555 136.568ZM692.356 10.3193C694.196 8.5613 695.577 6.51607 696.388 4.11848C695.044 6.18492 693.7 8.25213 692.356 10.3193ZM675.356 15.2609C678.772 12.3071 681.978 9.17522 683.951 5.00747C681.114 8.44927 678.139 11.7736 675.356 15.2609ZM615.533 63.6472C604.917 75.5806 596.934 109.283 598.858 125.007C599.891 114.158 600.916 103.602 603.479 93.2829C606.074 82.8378 609.696 72.795 615.533 63.6472ZM610.013 99.2335C608.511 101.934 608.129 104.985 607.668 107.927C606.445 115.729 605.582 123.592 606.066 131.512C606.47 138.102 606.662 144.713 607.716 151.253C608.087 153.555 608.032 153.559 605.793 153.859C605.629 153.881 605.47 154.027 605.331 154.142C604.059 155.212 602.319 154.743 601.674 153.106C599.75 148.233 598.718 143.124 597.788 137.996C596.146 128.942 596.154 119.818 597.107 110.716C597.684 105.208 598.602 99.7253 599.894 94.3178C602.03 85.3897 604.432 76.5624 609.058 68.527C615.193 57.8719 623.072 48.7628 632.847 41.2449C641.933 34.2552 652.175 29.0523 661.522 22.5241C680.257 9.44042 691.04 -8.027 689.009 -31.7362C688.587 -36.6579 687.513 -41.5221 686.802 -46.4211C686.518 -48.3754 686.929 -50.1289 688.793 -51.2496C690.43 -52.2339 692.718 -51.6361 694.937 -49.8265C697.404 -47.8139 698.64 -45.0601 699.573 -42.1935C701.599 -35.9691 702.954 -29.6 703.348 -23.0347C704.231 -8.27176 699.782 4.51187 689.803 15.5253C681.483 24.7073 671.582 31.5265 660.52 36.9173C652.722 40.7167 645.723 45.8287 638.751 50.9573C633.405 54.8894 629.025 59.7937 624.848 64.848C622.605 67.5623 620.694 70.6268 619.387 73.9792C619.241 74.349 618.942 74.6581 618.726 74.9809C617.997 74.7627 618.868 74.2429 618.417 73.9746C616.002 77.2649 615.041 81.2258 613.379 84.8593C613.054 85.5693 612.991 85.2874 612.023 85.6466C611.117 85.983 610.599 87.0977 610.961 88.4072C611.618 87.8843 611.406 86.9727 612.475 86.568C612.47 88.536 611.764 90.1978 611.391 91.905C610.894 94.1715 609.87 96.3327 610.024 98.7295C610.021 98.8978 610.017 99.066 610.013 99.2335Z"/>
<path d="M613.883 11.7377C612.098 11.7377 610.311 11.7809 608.527 11.7218C607.393 11.6847 606.409 11.1254 605.54 10.4351C604.989 9.99636 604.642 9.37423 604.836 8.61266C605.094 7.61013 605.673 8.30425 606.207 8.28606C616.541 7.93825 626.747 6.36435 636.976 4.9996C639.346 4.68361 641.764 4.65406 644.16 4.65482C644.91 4.65558 646.092 4.49796 646.157 5.87862C646.212 7.05241 645.389 7.39341 644.492 7.63665C639.836 8.89834 635.044 9.40151 630.296 10.1297C624.861 10.964 619.373 11.3308 613.883 11.7377Z"/>
<path d="M1014.25 9.79883L1013.43 9.29794C1012.22 11.9949 1011.02 14.6925 1009.81 17.3894C1011.64 15.01 1013.56 12.6981 1014.25 9.79883ZM1017.05 -0.366623C1018.69 -3.73189 1020.18 -7.38283 1019.96 -11.4657C1018.99 -7.7655 1018.02 -4.06606 1017.05 -0.366623ZM852.065 -94.8953C852.532 -95.4212 853.014 -95.9365 853.465 -96.4768C862.784 -107.606 873.15 -117.656 884.465 -126.749C890.841 -131.872 898.39 -135.391 904.562 -140.597C911.42 -146.384 918.274 -151.812 926.711 -155.016C926.776 -155.041 926.719 -155.389 926.719 -155.954C909.272 -154.506 893.964 -147.848 880.793 -136.716C867.545 -125.516 856.648 -112.385 852.065 -94.8953ZM1055.84 -65.3785C1055.62 -88.6648 1048.09 -109.076 1031.22 -125.521C1016.24 -140.118 999.403 -151.375 977.781 -153.435C1016.39 -135.156 1042.38 -105.899 1055.84 -65.3785ZM982.271 -142.363C984.476 -139.324 987.819 -137.761 990.555 -135.431C1006.27 -122.043 1016.93 -105.351 1024 -86.0401C1030.98 -66.9996 1032.32 -47.3589 1030.82 -27.481C1029.88 -15.0285 1026.8 -2.87762 1022.3 8.84814C1021.95 9.76353 1020.82 10.9297 1022.13 11.755C1023.23 12.4415 1023.76 11.0374 1024.44 10.4599C1031.53 4.39775 1037.23 -2.88672 1041.87 -10.8903C1046.12 -18.2225 1049.74 -25.6964 1049.22 -34.8299C1046.92 -75.6397 1030.08 -108.626 997.315 -133.274C992.623 -136.804 987.689 -140.005 982.271 -142.363ZM1040.43 10.3757C1038.78 10.2787 1037.84 10.8956 1037.19 11.7041C1033.66 16.1121 1029.1 19.1106 1024.41 22.1735C1021.72 23.9368 1018.99 25.6714 1016.22 27.3529C1011.73 30.0809 1009.33 34.6692 1006.17 38.6376C996.778 50.4407 985.97 60.7502 973.148 68.9228C957.846 78.6776 941.63 85.0292 923.197 85.837C913.341 86.2697 904.054 85.3551 894.628 82.396C879.408 77.6182 867.136 68.6864 856.686 57.1008C841.052 39.766 833.064 18.7719 828.623 -3.79536C828.287 -5.50337 827.776 -7.17654 827.347 -8.86562C826.16 -4.64558 826.338 -0.538452 826.267 3.5611C825.972 20.6815 830.509 36.7932 838.97 51.2924C847.213 65.4173 859.21 76.3186 874.4 83.2591C888.134 89.5342 902.496 92.5774 917.582 91.7916C934.164 90.9277 949.94 86.6744 965.091 79.9802C990.788 68.6272 1013.09 52.8838 1029.63 29.7793C1033.91 23.7959 1037.61 17.4488 1040.43 10.3757ZM890.744 -118.312C889.928 -117.971 889.45 -117.888 889.125 -117.619C879.565 -109.716 871.135 -100.682 863.171 -91.223C857.053 -83.956 851.844 -75.9926 847.085 -67.7972C843.85 -62.2238 840.746 -56.4678 840.027 -49.8168C838.28 -33.6604 838.596 -17.6016 841.853 -1.62854C846.498 21.1546 855.038 41.9957 871.383 59.0986C879.703 67.8054 889.622 74.0199 901.034 77.5049C919.518 83.1503 936.841 78.4233 953.553 70.4015C964.365 65.2115 973.869 57.9938 982.727 50.022C986.762 46.3915 990.637 42.3927 993.825 37.1581C988.134 37.8075 983.205 39.0676 978.142 39.6019C960.911 41.4198 944.747 37.9333 929.638 29.8978C909.081 18.9662 895.296 1.99286 887.523 -19.8249C877.618 -47.6231 878.335 -75.6887 886.071 -103.816C887.379 -108.572 889.09 -113.217 890.744 -118.312ZM935.281 -143.418C928.381 -142.275 923.076 -140.115 918.434 -136.36C913.737 -132.561 910.902 -127.454 907.854 -122.326C903.673 -115.292 900.792 -107.69 898.575 -100.069C896.614 -93.3358 895.268 -86.2393 894.472 -79.0912C892.586 -62.1694 892.306 -45.4756 897.148 -28.9138C902.199 -11.6366 910.524 3.51437 924.204 15.4986C946.37 34.9165 973.908 38.2082 999.934 26.5363C1001.63 25.7777 1003.19 24.8464 1004.16 23.2028C1010.54 12.4803 1015.09 0.919754 1017.91 -11.1296C1021.74 -27.446 1022.31 -44.0662 1020.11 -60.7463C1016.96 -84.6366 1008.34 -106.111 991.775 -123.904C983.19 -133.123 973.844 -141.485 960.813 -143.965C956.925 -144.704 952.592 -146.178 949.443 -142.95C945.999 -139.42 942.744 -135.438 940.449 -131.1C930.71 -112.686 928.666 -93.2903 934.588 -73.2639C936.89 -65.4778 941.821 -59.4664 948.71 -55.0675C950.02 -54.2309 952.718 -53.6763 951.814 -51.7598C951.018 -50.0693 948.484 -50.5512 946.634 -51.0816C945.945 -51.2794 945.286 -51.6432 944.672 -52.0251C936.959 -56.8271 930.628 -62.9923 927.18 -71.5066C919.861 -89.5795 920.687 -107.867 926.384 -126.175C928.229 -132.107 931.267 -137.478 935.281 -143.418ZM850.53 -116.817C849.492 -116.792 849.114 -115.935 848.708 -115.238C844.876 -108.649 841.373 -101.875 839.018 -94.6226C838.211 -92.1393 835.998 -90.0085 836.618 -86.9486C838.073 -87.7086 838.716 -88.7513 838.783 -90.2131C838.896 -92.7122 840.163 -94.8181 841.185 -97.005C844.279 -103.629 847.365 -110.256 850.452 -116.883C854.854 -122.656 859.258 -128.428 863.66 -134.2C860.663 -131.517 857.743 -128.802 855.508 -125.448C853.659 -122.675 850.972 -120.398 850.53 -116.817ZM814 1.01366C814.272 -11.6298 816.006 -24.0974 820.388 -35.902C824.989 -48.2954 827.323 -61.1366 830.187 -73.9346C835.396 -97.2263 844.337 -118.893 861.1 -136.542C875.116 -151.299 892.081 -160.856 912.298 -163.845C927.054 -166.027 941.756 -165.196 956.115 -160.68C957.605 -160.212 959.142 -159.789 960.751 -160.06C974.742 -162.417 988.042 -159.932 1000.92 -154.39C1016.65 -147.623 1030.57 -138.255 1042.16 -125.586C1051.05 -115.862 1058.07 -104.857 1062.2 -92.3591C1066.88 -78.1448 1068.94 -63.5395 1066.05 -48.5311C1065.37 -45.0036 1065.64 -41.0776 1064.62 -37.8161C1063.36 -33.8007 1062.81 -29.6474 1061.5 -25.7062C1059.26 -18.9688 1058.49 -11.9443 1056.95 -5.07202C1055.02 3.57492 1051.74 11.749 1047.89 19.67C1042.53 30.6774 1035.77 40.9096 1027.07 49.4512C1019.32 57.0562 1011.32 64.4385 1001.68 70.0134C994.788 73.9978 988.194 78.549 981.035 82.1355C957.917 93.7166 933.563 99.7992 907.605 98.2116C887.548 96.9848 869.074 90.8446 852.793 78.8862C830.051 62.1826 817.577 39.5661 814.726 11.574C814.369 8.06549 814.237 4.53426 814 1.01366Z"/>
<path d="M801.806 308.021C803.588 306.786 805.351 302.177 804.883 300.233C804.798 299.884 804.693 299.48 804.288 299.58C804.009 299.65 803.573 300.057 803.606 300.243C804.103 303.05 802.33 305.345 801.806 308.021ZM865.804 222.064C868.232 220.339 869.614 217.991 870.372 215.275C870.573 214.558 871.586 213.394 870.255 213.12C869.021 212.867 869.861 214.305 869.518 214.891C869.344 215.19 869.141 215.486 869.036 215.809C868.294 218.079 866.417 219.754 865.804 222.064ZM801.666 242.68C799.953 243.542 795.954 250.238 796.213 251.646C796.253 251.868 796.415 252.187 796.591 252.243C797.231 252.447 797.565 251.951 797.772 251.49C799.07 248.608 800.331 245.711 801.666 242.68ZM726.671 335.563C725.462 336.347 725.303 337.024 725.14 337.703C723.712 343.708 722.662 349.74 722.467 355.954C722.207 364.346 722.502 372.758 721.671 381.139C721.534 382.536 720.502 383.971 721.504 385.877C722.569 382.863 723.025 380.165 723.06 377.392C723.14 371.136 723.122 364.879 723.297 358.628C723.512 350.973 724.697 343.434 726.671 335.563ZM663.579 396.196C664.442 393.45 665.608 393.003 667.757 394.927C671.274 398.079 674.427 401.6 676.588 405.841C677.145 406.933 678.153 406.738 678.884 407.257C680.496 408.403 681.828 409.855 683.408 411.044C688.611 414.96 693.734 413.434 698.996 411.521C710.016 407.513 714.743 398.645 717.535 388.065C719.595 380.26 719.207 372.358 719.185 364.454C719.161 355.744 719.772 347.099 721.733 338.599C725.046 324.238 736.851 315.222 752.145 315.046C760.003 314.957 767.621 316.426 774.94 318.922C782.753 321.585 788.776 319.053 794.01 313.663C801.041 306.421 802.277 297.59 800.441 288.003C799.033 280.652 796.512 273.615 794.563 266.42C790.337 250.817 795.193 241.625 807.015 231.814C811.348 228.219 816.083 228.26 821.063 229.543C825.529 230.692 829.954 232.003 834.397 233.245C835.405 233.526 836.407 233.861 837.468 233.511C845.753 230.772 853.98 227.88 860.74 222.075C867.699 216.099 871.338 203.992 866.476 194.006C862.857 186.572 859.361 179.078 855.791 171.621C855.262 170.514 854.749 169.379 854.808 168.158C854.864 166.986 855.438 166.069 856.642 165.54C857.789 165.036 858.235 165.536 858.596 166.481C858.728 166.828 859.049 167.059 859.423 166.952C863.611 165.755 865.761 168.789 867.733 171.378C872.132 177.156 874.757 183.974 878.073 190.381C879.625 193.378 881.118 196.401 882.211 199.634C884.638 206.818 883.97 213.672 880.382 220.676C880.141 218.71 881.648 217.445 881.343 215.782C879.79 218.856 878.309 221.949 876.459 224.873C877.309 225.206 877.244 223.839 878.323 224.399C876.479 226.767 875.009 229.392 871.83 230.154C871.302 230.282 871.305 230.505 871.071 230.853C869.544 233.114 867.021 234.112 864.815 235.492C863.902 236.063 863.05 235.635 862.497 234.409C862.522 236.862 860.947 237.481 859.196 238.107C856.502 239.071 853.901 240.292 851.22 241.295C845.205 243.542 839.083 243.292 832.976 241.77C829.597 240.928 826.258 239.908 822.934 238.869C821.445 238.403 820.273 238.725 819.037 239.592C810.309 245.708 807.212 253.445 809.357 263.843C810.662 270.164 812.934 276.209 814.608 282.423C816.548 289.629 817.847 296.88 815.725 304.278C814.894 307.18 813.255 309.695 811.835 312.336C809.716 316.274 807.051 319.245 803.471 321.616C793.091 328.493 782.018 330.567 769.964 326.667C765.762 325.308 761.399 324.44 757.109 323.355C749.638 321.462 742.544 326.206 739.213 332.016C735.412 338.648 734.497 346.015 733.962 353.396C733.363 361.637 733.621 369.952 732.789 378.162C731.798 387.954 728.745 397.26 722.359 404.94C719.161 408.785 715.277 412.05 710.342 414.034C707.593 415.142 704.921 416.611 702.136 417.786C697.975 419.541 693.613 420.449 689.202 420.63C680.986 420.967 674.122 417.881 668.895 411.404C666.203 408.067 664.285 404.297 662.599 400.384C662.071 399.157 661.867 397.874 661.748 396.588C661.694 396.014 661.474 395.014 662.472 394.906C663.316 394.815 662.5 396.139 663.579 396.196Z"/>
<path d="M730.182 117.521C727.68 117.424 725.424 118.052 723.537 119.787L730.182 117.521ZM745.875 168.25C748.912 167.999 751.547 166.846 753.867 164.934C751.203 166.039 748.539 167.144 745.875 168.25ZM737.983 177.717C727.178 178.158 717.882 172.637 710.246 163.919C705.019 157.953 703.87 150.688 704.592 143.006C705.437 134.014 709.709 126.764 716.343 120.959C722.755 115.347 730.266 113.408 738.657 115.71C741.515 116.495 743.285 118.486 744.491 121.058C744.846 121.815 745.042 122.693 744.355 123.381C743.701 124.038 743.1 123.35 742.478 123.157C739.039 122.093 735.814 123.144 732.671 124.336C726.961 126.502 722.677 130.442 719.069 135.313C715.022 140.778 713.299 146.869 713.293 153.574C713.291 156.892 714.72 159.326 717.369 161.244C725.448 167.093 734.511 167.914 743.795 165.759C753.338 163.543 761.276 158.251 767.118 150.371C773.11 142.29 773.619 133.623 768.161 124.961C767.237 123.494 767.708 122.089 767.593 120.676C767.523 119.82 768.374 119.385 769.395 119.493C771.654 119.73 773.109 121.041 774.354 122.8C777.196 126.82 778.627 131.365 779.42 136.148C780.847 144.742 779.458 152.777 774.548 160.086C774.21 160.587 773.917 161.084 773.285 161.378C772.238 161.866 771.545 162.609 771.139 163.868C770.817 164.865 769.694 165.658 768.817 166.413C760.323 173.735 750.614 177.904 737.983 177.717Z"/>
<path d="M933.649 290.133C932.481 288.682 929.505 289.582 929.954 286.89C930.501 283.6 933.307 282.857 935.952 282.586C940.42 282.128 944.927 282.013 949.424 281.88C955.14 281.711 960.863 281.703 966.582 281.558C971.089 281.443 971.053 281.404 970.176 276.795C968.306 266.953 967.245 257.037 967.629 247.002C967.797 242.613 968.288 238.259 969.446 234.005C970.122 231.525 971.088 229.161 972.504 227.002C976.418 221.035 981.687 220.512 987.323 224.871C990.089 227.011 992.29 229.178 993.523 232.479C994.405 234.844 993.612 236.399 991.645 237.259C988.989 238.421 988.336 240.539 987.968 243.064C986.618 252.318 987.604 261.532 988.359 270.75C988.527 272.803 988.971 274.846 988.983 276.895C989.004 279.909 990.597 280.488 993.198 280.285C999.618 279.783 1006.08 279.692 1012.35 277.952C1013.01 277.767 1013.76 277.417 1014.33 278.211C1014.58 279.563 1012.85 279.637 1012.55 280.621C1013.51 281.437 1014.29 280.727 1015.08 280.719C1016.3 280.707 1018.89 278.374 1017.9 282.303C1020 282.623 1020.9 283.903 1021.23 285.947C1021.54 287.843 1021.48 289.381 1019.39 290.094C1011.39 292.817 1003.05 293.89 994.747 295.078C992.264 295.433 991.948 296.274 992.471 298.312C994.228 305.161 995.709 312.134 1001.94 316.692C1003.09 317.532 1003.1 319.062 1003.67 320.252C1004.55 322.061 1003.04 322.927 1002.17 323.998C1001.29 325.101 1000.25 324.42 999.187 324.113C988.011 320.894 981.69 312.888 977.531 302.57C975.375 297.222 975.229 297.519 969.242 298.222C963.341 298.914 957.378 299.04 951.445 299.485C946.383 299.863 941.88 298.369 937.734 295.598C936.727 294.925 935.779 294.031 934.515 294.108C933.003 294.2 932.218 293.435 931.804 292.184C931.324 290.729 933.032 290.764 933.649 290.133Z"/>
<path d="M838.078 400.784C839.359 397.88 839.939 394.882 842.2 392.765C842.546 392.441 842.848 392.018 843.257 391.82C844.23 391.35 845.467 390.586 846.31 391.312C847.04 391.943 846.92 393.275 846.548 394.359C846.369 394.879 845.704 395.594 846.467 395.978C847.112 396.302 847.481 395.466 847.894 395.036C848.131 394.788 848.309 394.479 848.558 394.247C849.023 393.812 849.248 392.872 850.124 393.219C850.824 393.495 851.441 393.999 851.544 394.857C851.639 395.654 851.632 396.395 852.871 395.855C853.502 395.581 853.944 396.399 854.285 396.862C858.061 401.968 858.843 407.25 853.935 412.454C852.434 414.044 850.892 415.595 849.371 417.167C848.535 418.031 847.52 418.019 846.506 417.659C845.362 417.253 846.595 416.325 846.085 415.582C844.921 417.453 843.801 417.204 842.312 415.854C841.389 415.019 840.282 413.974 838.546 414.673C837.906 414.931 836.689 414.22 835.943 413.671C832.202 410.918 829.949 407.273 829.861 402.531C829.825 400.651 830.443 398.983 832.345 398.135C832.709 397.973 833.445 397.787 833.473 397.85C834.345 399.812 836.888 399.028 838.078 400.784Z"/>
</svg>
