<svg width="168" height="23" viewBox="0 0 168 23" fill="#ff76d9" xmlns="http://www.w3.org/2000/svg">
<path fill-rule="evenodd" clip-rule="evenodd" d="M165.933 6.42729C164.155 7.67676 162.251 8.71665 160.299 9.65595C150.171 14.5294 139.415 17.3822 128.4 19.3318C117.639 21.2368 106.781 22.1839 95.8549 22.3536C91.4202 22.4223 86.997 22.2088 82.5718 21.9952C81.4482 21.941 80.3244 21.8868 79.2003 21.8371C73.4888 21.585 67.7895 21.2547 62.1218 20.5337C57.5965 19.9579 53.0926 19.2239 48.59 18.4901C48.0709 18.4055 47.5518 18.3209 47.0327 18.2365C41.4187 17.3252 35.8214 16.3416 30.2746 15.1389L24.2885 12.2849C27.5275 12.9711 30.7744 13.6191 34.0211 14.2671C36.463 14.7544 38.9049 15.2417 41.3433 15.7453C44.4956 16.3963 47.6923 16.8277 50.8899 17.2593C52.8841 17.5284 54.8786 17.7976 56.8629 18.1201C63.6401 19.223 70.4764 19.7541 77.3092 20.2501C81.3957 20.5468 85.5142 20.7109 89.622 20.3636C89.9101 20.339 90.1636 20.2786 90.2358 19.9587C90.2414 19.9594 90.2469 19.9601 90.2525 19.9608C90.2627 19.9604 90.2729 19.9601 90.2831 19.9597C90.7867 20.4152 91.3803 20.3662 91.964 20.3181C92.1486 20.3029 92.3321 20.2877 92.5116 20.2886C98.4452 20.3179 104.368 20.0555 110.289 19.6764C112.497 19.5348 114.696 19.3015 116.894 19.0683C118.396 18.9089 119.898 18.7496 121.403 18.6195C125.304 18.2827 129.178 17.4407 133.008 16.5767C133.301 16.5109 133.62 16.4897 133.946 16.4681C134.811 16.4108 135.718 16.3507 136.265 15.4393C136.28 15.4388 136.295 15.4383 136.309 15.4376C136.327 15.4289 136.345 15.4202 136.363 15.4116C137.691 15.8706 138.794 15.3278 139.897 14.7854C140.171 14.6504 140.446 14.5153 140.724 14.3958C140.651 14.4052 140.577 14.4145 140.504 14.4238C139.089 14.6037 137.674 14.7837 136.363 15.4116C136.341 15.4038 136.318 15.3958 136.296 15.3875C136.286 15.4051 136.276 15.4223 136.265 15.4393C136.155 15.4431 136.045 15.443 135.934 15.4429C135.665 15.4427 135.397 15.4425 135.139 15.4966C123.974 17.8655 112.677 19.1484 101.278 19.5825C98.7777 19.678 96.2774 19.7605 93.7769 19.8431C92.6123 19.8815 91.4477 19.92 90.2831 19.9597C90.2697 19.9476 90.2563 19.9351 90.2431 19.9223C90.2409 19.9348 90.2385 19.9469 90.2358 19.9587C87.6279 19.6319 85.0067 19.539 82.3856 19.4461C80.9512 19.3953 79.5168 19.3445 78.0845 19.2553C77.7866 19.2368 77.4887 19.2184 77.1908 19.2C71.6741 18.8591 66.1567 18.5181 60.6782 17.6805C59.106 17.4398 57.5247 17.2786 55.942 17.1174C53.9538 16.9148 51.9633 16.712 49.9857 16.3508C47.8488 15.9603 45.7096 15.5849 43.5705 15.2095C37.418 14.1298 31.2666 13.0503 25.1748 11.6134C23.6744 11.2594 22.173 10.9098 20.6716 10.5606L0.130066 0.767118C5.35672 2.20731 10.5872 3.63073 15.9081 4.72657C16.999 4.95124 18.0886 5.18686 19.1783 5.4225C22.6838 6.18058 26.1902 6.93885 29.7446 7.33324C30.8444 7.45559 31.9123 7.7184 32.9772 7.98049C34.4133 8.33392 35.8441 8.68606 37.3411 8.69078C37.5263 8.69143 37.7088 8.72493 37.8909 8.75835C38.3384 8.84051 38.7836 8.92224 39.2619 8.5147C39.5117 8.3022 40.5473 7.96768 40.5459 9.14766C40.5458 9.33869 40.8182 9.35299 41.0714 9.36628C41.1482 9.37031 41.2232 9.37425 41.2883 9.383C42.2403 9.51107 43.1924 9.67546 44.1444 9.83982C46.2144 10.1972 48.2837 10.5545 50.35 10.538C52.0292 10.5246 53.6758 10.715 55.3203 10.9052C56.5516 11.0476 57.7816 11.1898 59.0232 11.2463C59.9721 11.2897 60.8949 11.5473 61.8248 11.8069C62.9028 12.1078 63.9904 12.4114 65.1394 12.3871C65.4177 12.3814 65.6965 12.3964 65.9752 12.4114C66.581 12.444 67.1867 12.4766 67.7878 12.2971C67.9515 12.3231 68.1152 12.349 68.2789 12.3748C68.4426 12.4007 68.6063 12.4265 68.7701 12.4526C70.9817 12.9541 73.21 13.2215 75.477 12.9101C77.7995 13.4424 80.1424 13.5799 82.5088 13.2798C82.7027 13.3043 82.8965 13.3294 83.0902 13.3544C85.3879 13.6514 87.6706 13.9465 90.0055 13.3189C90.6761 13.1388 91.4015 13.1733 92.13 13.2078C92.544 13.2275 92.959 13.2472 93.3655 13.2276C95.0542 13.1464 96.7423 13.0571 98.4304 12.9678C100.562 12.8551 102.694 12.7424 104.826 12.6459C104.98 12.6389 105.137 12.6205 105.296 12.6019C105.863 12.5354 106.443 12.4674 106.943 12.9182C108.901 13.2584 110.824 13.0145 112.734 12.5726C114.048 12.2154 115.394 12.2051 116.737 12.1948C117.353 12.1901 117.968 12.1854 118.58 12.1473L118.677 12.1412C121.149 11.9866 123.548 11.8367 125.936 10.9595C127.126 10.5224 128.404 10.4326 129.693 10.3421C130.56 10.2813 131.431 10.2202 132.284 10.0528C133.14 9.88437 134.001 9.7241 134.863 9.56368C138.663 8.85624 142.481 8.14561 146.008 6.71669C148.064 5.88385 150.193 5.29927 152.319 4.71563C155.06 3.96315 157.795 3.21223 160.36 1.93285C160.757 1.73466 161.134 1.50207 161.512 1.26929C162.239 0.82117 162.968 0.372308 163.84 0.166647C165.19 -0.151087 167.244 0.620071 167.914 2.15548C167.923 2.176 167.932 2.19653 167.94 2.21706L165.933 6.42729ZM155.079 9.95321C155.014 9.96656 154.949 9.9799 154.885 9.9934C155.492 9.29684 156.303 9.10713 157.117 8.91695C157.321 8.86932 157.525 8.82167 157.726 8.76602C157.023 9.55231 156.046 9.75371 155.079 9.95321Z" />
</svg>
