<svg width="67" height="64" viewBox="0 0 67 64" fill="#050509" xmlns="http://www.w3.org/2000/svg">
<path fill-rule="evenodd" clip-rule="evenodd" d="M64.0462 36.3602C65.2212 36.5809 66.3674 35.8366 66.5217 34.6768C66.6892 33.4182 66.7755 32.1355 66.7755 30.8337C66.7755 29.5319 66.6892 28.2493 66.5217 26.9906C66.3674 25.8308 65.2212 25.0866 64.0462 25.3073L52.7874 27.4223C51.5939 27.6465 50.8331 28.7819 50.9016 29.9679C50.9182 30.2534 50.9266 30.5421 50.9266 30.8337C50.9266 31.1254 50.9182 31.414 50.9016 31.6995C50.8331 32.8856 51.5939 34.021 52.7874 34.2452L64.0462 36.3602ZM59.5103 15.1613C60.5404 14.5064 60.8206 13.1448 60.0524 12.2072C58.3878 10.1757 56.4572 8.35036 54.3104 6.77838C53.3635 6.08503 52.0331 6.34732 51.3618 7.29956L45.0237 16.2892C44.3264 17.2782 44.6129 18.6251 45.5407 19.4127C46.0204 19.8198 46.4745 20.2537 46.9003 20.7118C47.6959 21.5678 49.0107 21.8361 50.0025 21.2056L59.5103 15.1613ZM40.6034 3.16767C40.8459 2.0036 40.0697 0.862709 38.8635 0.717584C37.5342 0.557648 36.1794 0.47522 34.8044 0.47522C33.4294 0.47522 32.0746 0.557648 30.7453 0.717584C29.5391 0.86271 28.7629 2.0036 29.0054 3.16767L31.2097 13.748C31.4485 14.8941 32.5876 15.6244 33.7819 15.5545C34.1186 15.5348 34.4595 15.5247 34.8044 15.5247C35.1493 15.5247 35.4902 15.5348 35.8269 15.5545C37.0212 15.6244 38.1603 14.8941 38.3991 13.748L40.6034 3.16767ZM13.9674 49.7352V63.9034H0.483398L0.483398 26.5366H13.9674L13.9674 39.615H16.9815L25.3099 26.5366H40.3803L28.0067 44.9086L41.1735 63.9034H26.1824L16.8229 49.7352H13.9674Z" />
</svg>
