<svg width="375" height="700" viewBox="0 0 375 700" fill="none" xmlns="http://www.w3.org/2000/svg">
<g clip-path="url(#clip0_975_241)">
<path d="M0 32C0 14.3269 14.3269 0 32 0H343C360.673 0 375 14.3269 375 32V700H0V32Z" fill="white"/>
<g clip-path="url(#clip1_975_241)">
<rect width="375" height="44" fill="white"/>
<path d="M106 -2H270V-2C268.396 -1.36663 267.327 0.165139 267.286 1.88899L267.242 3.74719V3.74719C267.242 17.6939 255.936 29 241.989 29H134.011C120.064 29 108.758 17.6939 108.758 3.74719V3.74719L108.714 1.88899C108.673 0.165139 107.604 -1.36663 106 -2V-2Z" fill="black"/>
<path opacity="0.35" d="M334.667 17.8333H351.333C352.53 17.8333 353.5 18.8033 353.5 19.9999V25.9999C353.5 27.1965 352.53 28.1666 351.333 28.1666H334.667C333.47 28.1666 332.5 27.1965 332.5 25.9999V19.9999C332.5 18.8033 333.47 17.8333 334.667 17.8333Z" stroke="black"/>
<path opacity="0.4" d="M355 20.9999V24.9999C355.805 24.6611 356.328 23.873 356.328 22.9999C356.328 22.1267 355.805 21.3387 355 20.9999" fill="black"/>
<path d="M334 20.4333C334 19.8257 334.492 19.3333 335.1 19.3333H350.9C351.508 19.3333 352 19.8257 352 20.4333V25.5666C352 26.1741 351.508 26.6666 350.9 26.6666H335.1C334.492 26.6666 334 26.1741 334 25.5666V20.4333Z" fill="black"/>
<path fill-rule="evenodd" clip-rule="evenodd" d="M319.33 19.6079C321.546 19.608 323.677 20.4594 325.283 21.9862C325.404 22.1041 325.597 22.1026 325.716 21.9829L326.872 20.8162C326.933 20.7555 326.966 20.6733 326.966 20.5877C326.965 20.5021 326.931 20.4202 326.87 20.3602C322.655 16.3207 316.005 16.3207 311.79 20.3602C311.729 20.4202 311.694 20.502 311.693 20.5876C311.693 20.6732 311.726 20.7555 311.787 20.8162L312.943 21.9829C313.062 22.1028 313.255 22.1043 313.376 21.9862C314.982 20.4593 317.114 19.6079 319.33 19.6079ZM319.33 23.4036C320.547 23.4035 321.721 23.856 322.624 24.6732C322.746 24.7892 322.938 24.7867 323.057 24.6676L324.212 23.5009C324.273 23.4397 324.307 23.3567 324.306 23.2704C324.305 23.1842 324.269 23.1018 324.207 23.0419C321.459 20.4855 317.203 20.4855 314.455 23.0419C314.393 23.1018 314.357 23.1842 314.357 23.2705C314.356 23.3568 314.39 23.4398 314.451 23.5009L315.605 24.6676C315.724 24.7867 315.916 24.7892 316.038 24.6732C316.94 23.8566 318.113 23.4041 319.33 23.4036ZM321.643 25.9574C321.645 26.0439 321.611 26.1273 321.549 26.1879L319.552 28.2036C319.493 28.2628 319.413 28.2961 319.33 28.2961C319.247 28.2961 319.167 28.2628 319.108 28.2036L317.111 26.1879C317.049 26.1272 317.015 26.0438 317.017 25.9573C317.019 25.8708 317.056 25.7889 317.12 25.7309C318.396 24.652 320.264 24.652 321.54 25.7309C321.604 25.7889 321.641 25.8709 321.643 25.9574Z" fill="black"/>
<path fill-rule="evenodd" clip-rule="evenodd" d="M305.666 17.6665H304.666C304.114 17.6665 303.666 18.1142 303.666 18.6665V27.3332C303.666 27.8855 304.114 28.3332 304.666 28.3332H305.666C306.218 28.3332 306.666 27.8855 306.666 27.3332V18.6665C306.666 18.1142 306.218 17.6665 305.666 17.6665ZM299.999 19.9998H300.999C301.552 19.9998 301.999 20.4476 301.999 20.9998V27.3332C301.999 27.8855 301.552 28.3332 300.999 28.3332H299.999C299.447 28.3332 298.999 27.8855 298.999 27.3332V20.9998C298.999 20.4476 299.447 19.9998 299.999 19.9998ZM296.333 22.3332H295.333C294.78 22.3332 294.333 22.7809 294.333 23.3332V27.3332C294.333 27.8855 294.78 28.3332 295.333 28.3332H296.333C296.885 28.3332 297.333 27.8855 297.333 27.3332V23.3332C297.333 22.7809 296.885 22.3332 296.333 22.3332ZM291.666 24.3332H290.666C290.114 24.3332 289.666 24.7809 289.666 25.3332V27.3332C289.666 27.8855 290.114 28.3332 290.666 28.3332H291.666C292.218 28.3332 292.666 27.8855 292.666 27.3332V25.3332C292.666 24.7809 292.218 24.3332 291.666 24.3332Z" fill="black"/>
<circle cx="297" cy="11" r="3" fill="#34C759"/>
<path d="M35.1489 25.5391L36.394 25.4146C36.4771 26.0151 36.6479 26.4424 36.9067 26.6963C37.1655 26.9502 37.4731 27.0771 37.8296 27.0771C38.3374 27.0771 38.8086 26.8574 39.2432 26.418C39.8828 25.7734 40.354 24.8481 40.6567 23.6421C40.2124 23.9741 39.8169 24.2109 39.4702 24.3525C39.1284 24.4941 38.7769 24.5649 38.4155 24.5649C37.7612 24.5649 37.1753 24.3452 36.6577 23.9058C35.9741 23.3345 35.6323 22.5142 35.6323 21.4448C35.6323 20.2339 36.0278 19.1963 36.8188 18.332C37.4976 17.5898 38.3301 17.2188 39.3164 17.2188C40.2051 17.2188 40.9424 17.5483 41.5283 18.2075C42.1143 18.8618 42.4072 19.7896 42.4072 20.9907C42.4072 22.1577 42.2119 23.3101 41.8213 24.4478C41.3574 25.7856 40.73 26.772 39.939 27.4067C39.2944 27.9243 38.5693 28.1831 37.7637 28.1831C37.0215 28.1831 36.4136 27.9536 35.9399 27.4946C35.4712 27.0308 35.2075 26.3789 35.1489 25.5391ZM36.9141 21.291C36.9141 21.9648 37.0923 22.502 37.4487 22.9023C37.8101 23.3027 38.2373 23.5029 38.7305 23.5029C39.0967 23.5029 39.4604 23.3784 39.8218 23.1294C40.1831 22.8804 40.4932 22.5093 40.752 22.0161C41.0107 21.5181 41.1401 21.0078 41.1401 20.4854C41.1401 20.0752 41.0547 19.6943 40.8838 19.3428C40.7129 18.9912 40.4785 18.7275 40.1807 18.5518C39.8877 18.3711 39.5898 18.2808 39.2871 18.2808C38.9941 18.2808 38.7061 18.3589 38.4229 18.5151C38.1396 18.6714 37.876 18.9009 37.6318 19.2036C37.3926 19.5063 37.2119 19.8555 37.0898 20.251C36.9727 20.6416 36.9141 20.9883 36.9141 21.291ZM44.1558 21.7231L44.4707 20.2217H45.9648L45.6572 21.7231H44.1558ZM42.8447 28L43.1597 26.4985H44.6611L44.3389 28H42.8447ZM50.145 28L50.7236 25.2607H46.3438L46.6221 23.9497L52.6353 17.2627H53.7192L52.291 24.0889H53.7998L53.5581 25.2607H52.0493L51.4707 28H50.145ZM50.9653 24.0889L51.9028 19.6064L47.9038 24.0889H50.9653ZM57.123 28L58.8223 19.8921C58.0898 20.4683 57.0596 20.9297 55.7314 21.2764L55.9805 20.0752C56.6396 19.8115 57.2891 19.4673 57.9287 19.0425C58.5732 18.6177 59.0566 18.2466 59.3789 17.9292C59.5742 17.7339 59.7598 17.4971 59.9355 17.2188H60.7046L58.4561 28H57.123Z" fill="black"/>
</g>
<g filter="url(#filter0_d_975_241)">
<path d="M26 700C26 699.071 26 698.607 26.0308 698.215C26.4168 693.312 30.3116 689.417 35.2154 689.031C35.6071 689 36.0714 689 37 689H338C338.929 689 339.393 689 339.785 689.031C344.688 689.417 348.583 693.312 348.969 698.215C349 698.607 349 699.071 349 700V700H26V700Z" fill="white"/>
</g>
</g>
<defs>
<filter id="filter0_d_975_241" x="6" y="673" width="363" height="51" filterUnits="userSpaceOnUse" color-interpolation-filters="sRGB">
<feFlood flood-opacity="0" result="BackgroundImageFix"/>
<feColorMatrix in="SourceAlpha" type="matrix" values="0 0 0 0 0 0 0 0 0 0 0 0 0 0 0 0 0 0 127 0" result="hardAlpha"/>
<feOffset dy="4"/>
<feGaussianBlur stdDeviation="10"/>
<feColorMatrix type="matrix" values="0 0 0 0 0 0 0 0 0 0 0 0 0 0 0 0 0 0 0.1 0"/>
<feBlend mode="normal" in2="BackgroundImageFix" result="effect1_dropShadow_975_241"/>
<feBlend mode="normal" in="SourceGraphic" in2="effect1_dropShadow_975_241" result="shape"/>
</filter>
<clipPath id="clip0_975_241">
<path d="M0 32C0 14.3269 14.3269 0 32 0H343C360.673 0 375 14.3269 375 32V700H0V32Z" fill="white"/>
</clipPath>
<clipPath id="clip1_975_241">
<rect width="375" height="44" fill="white"/>
</clipPath>
</defs>
</svg>
