<svg width="213" height="192" viewBox="0 0 213 192" fill="#050509" xmlns="http://www.w3.org/2000/svg">
<path fill-rule="evenodd" clip-rule="evenodd" d="M82.2978 166.967C82.7674 166.368 82.1919 165.509 82.9702 165.13C83.9168 164.666 83.9307 163.638 84.4381 162.912C84.991 162.12 85.4314 161.252 85.9363 160.425C87.5629 157.763 90.2541 155.886 91.4768 152.917C91.5721 152.683 91.8841 152.54 92.0906 152.35C93.9526 150.615 95.0167 148.17 97.145 146.673C98.5011 143.964 101.179 142.347 102.795 139.827C103.408 138.87 104.476 138.252 105.12 137.179C105.752 136.132 107.016 135.59 107.654 134.34C108.294 133.084 109.89 132.617 110.656 131.156C111.327 129.876 112.811 129.012 113.8 127.768C114.984 126.282 116.705 125.286 117.857 123.643C118.78 122.326 120.36 121.576 121.273 120.078C121.929 119.004 123.171 118.204 124.297 117.52C125.478 116.802 125.64 115.327 126.791 114.629C127.434 114.239 127.972 113.675 128.557 113.189C129.216 112.643 129.83 112.026 130.546 111.57C131.169 111.174 131.474 110.058 131.797 110.097C133.215 110.264 132.637 108.86 133.323 108.418C134.673 107.55 135.708 106.123 137.122 105.445C138.644 104.715 138.519 102.514 140.368 102.296C141.232 101.023 142.491 100.165 143.64 99.1921C144.438 98.5151 145.255 97.8614 146.051 97.1843C146.853 96.5024 147.63 95.7862 148.679 95.4893C148.727 94.2715 150.288 94.2569 150.529 93.1885C150.105 92.9395 149.319 93.2654 149.366 92.3343C149.418 91.2989 148.83 90.84 147.824 90.8238C147.463 90.8177 147.057 90.8557 146.843 90.462C146.309 89.9614 148.228 88.9577 146.47 88.6998C146.499 89.4693 145.953 89.9892 145.749 90.6435C145.588 90.5489 145.441 90.4476 145.283 90.3727C143.287 89.4344 141.984 88.3674 140.638 86.56C138.776 86.3742 138.776 86.3742 137.509 87.0351C136.872 86.7656 136.662 85.8306 135.787 85.9328C135.799 85.8388 135.81 85.7462 135.823 85.6463L136.811 84.8258C135.312 85.2926 135.271 84.1662 134.504 83.8979C134.133 84.1384 133.754 84.384 133.373 84.6309C132.868 84.4458 132.42 84.1708 131.896 84.0084C130.986 83.7261 130.15 83.1921 129.308 82.7192C128.973 82.5321 129.669 81.7809 128.815 81.7513C128.283 81.7338 127.893 81.2867 127.322 81.1786C126.02 80.9319 124.892 80.1196 123.682 79.6594C122.572 79.2374 122.172 78.102 121.075 77.7934C118.33 77.0225 116.165 75.1969 113.713 73.8803C114.004 73.3946 114.184 73.0926 114.36 72.7984C113.406 72.3048 112.554 73.167 111.652 72.8766C110.509 71.7493 109.766 71.2975 108.253 70.7474C108.146 70.7078 108.124 70.4338 108.062 70.269C108.229 69.5311 108.969 69.9721 109.374 69.6168C109.274 69.2523 109.11 68.9547 108.655 68.9465C108.138 69.3324 107.625 69.7156 107.035 70.1549L105.125 67.8537C104.344 67.6146 103.584 67.9853 103.081 67.2051C102.901 67.022 103.438 66.5689 102.924 66.3762C102.662 66.5004 102.397 66.7418 102.186 66.7007C101.722 66.6114 95.7126 62.7142 95.4968 62.4541C95.4555 62.4027 95.4546 62.3164 95.4345 62.2447C95.6155 61.945 95.7951 61.6437 95.9849 61.3284C95.1856 61.0141 94.9837 62.2028 94.2477 61.9189C94.3515 61.2509 95.1042 60.7391 94.72 59.9484C94.2754 60.0155 93.7936 59.6431 93.2954 60.134C93.2231 60.368 93.1227 60.6893 93.0213 61.0209C91.9788 60.6609 91.9978 59.4501 91.3471 58.8806C90.5803 58.2089 89.6513 57.612 88.75 57.396C88.1491 57.4976 88.0173 58.1563 87.4325 58.0678C87.2045 57.6914 87.5919 57.1374 86.7235 56.6792C86.7095 56.6787 86.3238 56.6465 85.9589 56.7196C85.5751 56.7961 85.8469 57.6283 85.581 57.4357C84.8007 56.869 84.3523 57.4559 83.7092 57.5804C82.8935 57.7378 82.2477 58.0196 81.8242 58.5776C81.3652 59.1828 80.4091 58.8138 80.0822 59.8601C79.8458 60.6205 78.7722 61.1946 77.9737 61.6955C75.6419 63.1586 74.1392 65.4717 72.2509 67.3677C71.2411 68.3824 70.3291 69.5607 69.1891 70.4727C67.9062 71.5007 68.01 71.5504 67.1884 72.7952C66.8622 73.2902 67.1381 74.1829 66.2441 74.3361C65.0088 74.5482 64.8543 76.0496 63.7765 76.4695C62.5924 79.5745 59.81 81.5137 58.1306 84.2234C57.3685 85.4514 56.0133 86.0729 55.4652 87.2769C54.55 89.2886 52.7482 90.6057 51.7364 92.465C51.0357 93.7522 49.6174 94.35 49.04 95.5089C47.7474 98.103 45.2461 99.783 44.1001 102.439C42.6773 103.228 42.1623 104.836 40.9633 105.88C39.7852 106.906 39.1261 108.512 38.0051 109.629C37.4433 110.189 37.6208 111.037 36.8626 111.455C36.2281 111.806 35.417 112.354 35.2727 112.956C35.0584 113.854 34.424 114.187 33.8616 114.602C33.2212 115.073 33.433 115.983 32.681 116.391C31.0981 117.249 30.7066 119.309 29.0462 120.121C28.7421 121.546 27.1981 121.944 26.5831 122.997C25.8492 124.258 24.7233 125.003 23.7932 125.999C22.7138 127.156 21.6311 128.388 21.9271 130.206C22.6967 130.048 23.0208 130.606 23.2902 131.065C24.5492 133.203 26.7271 134.425 28.4024 136.146C29.1173 136.88 30.2444 137.376 30.7694 138.323C31.4039 139.466 32.7201 139.638 33.4861 140.591C34.5568 141.925 36.008 142.86 37.4336 143.806C38.5596 144.553 39.0414 146.06 40.5101 146.463C40.7832 146.538 40.2586 147.138 40.7152 147.349C41.0664 147.217 41.3944 147.093 41.7348 146.964C41.7291 147.298 41.6663 147.789 41.7272 147.805C43.189 148.186 44.1364 149.296 45.2808 150.143C45.6986 150.451 46.2857 150.371 46.2543 151.164C46.2255 151.841 47.0533 151.753 47.4035 151.942C49.8361 153.261 52.1519 154.743 54.1358 156.66C54.8039 157.306 55.5076 157.114 56.1989 157.295C56.1911 157.387 56.165 157.483 56.1758 157.575C56.2003 157.791 55.9626 158.086 56.4569 158.14C57.3567 158.236 57.7977 159.311 58.8956 159.202C59.8571 159.106 59.9305 160.81 61.1203 160.584C63.5724 162.685 66.5788 163.803 69.4354 165.15C72.7946 166.732 76.1214 168.449 78.9901 169.081C81.1627 169.074 80.7129 166.935 82.2978 166.967ZM91.8233 168.103C91.1459 169.529 91.1163 171.222 89.132 171.307C88.7469 171.324 88.9852 171.734 88.8819 171.942C87.9419 173.829 86.205 174.944 84.7113 176.305C83.9588 176.989 83.0424 176.896 82.1948 177.118C81.5617 177.286 81.443 176.869 81.5839 176.336C80.9438 176.42 80.5943 175.576 79.9663 175.784C79.5043 176.03 79.5527 176.429 79.5163 176.797C78.9746 177.093 78.8686 176.323 78.3789 176.355C77.5692 176.408 77.4775 175.469 76.9384 175.153C75.7002 174.43 74.7103 172.937 72.9036 173.812C72.6547 173.932 72.1434 173.917 71.8596 173.485C71.3206 172.937 72.2478 172.786 72.229 172.349C72.2609 172.158 72.1137 172.015 71.888 172.133C70.1503 173.041 70.1547 173.049 68.4925 171.403C68.1634 171.523 67.8328 171.642 67.5628 171.741C66.7122 171.444 67.37 170.658 66.9607 170.257C63.3502 169.155 62.0752 169.179 59.1186 165.632C59.0703 165.92 59.0272 166.176 58.9847 166.432C58.5354 166.27 57.5386 166.841 57.8588 165.603C57.1945 165.38 56.4985 165.217 55.8704 164.916C54.443 164.23 53.1678 163.376 53.2045 161.567C52.312 161.377 51.5199 162.216 50.7812 161.482C50.4005 161.174 50.7007 160.774 50.558 160.254C49.9258 159.997 49.2984 159.361 48.3179 159.734C47.7239 159.96 47.5537 159.337 47.2661 159.019C46.9509 158.668 47.4317 158.076 46.9003 157.734C45.2908 157.368 43.4874 157.216 42.9855 155.319C42.251 155.251 41.4694 155.178 40.6878 155.106C39.8848 154.12 39.6642 152.984 38.4402 152.723C37.56 152.536 37.4241 150.898 36.1163 150.962C35.384 149.48 33.6218 149.109 32.7203 147.785C31.5214 146.023 29.9365 144.673 28.0195 143.721C27.8625 143.644 27.7013 143.523 27.6077 143.379C26.122 141.082 23.5898 139.819 21.9919 137.593C20.8782 136.041 19.7678 134.423 17.9473 133.448C17.1716 133.033 16.1672 132 16.2167 131.316C16.3043 130.102 14.2128 130.388 14.9866 129.075C14.4015 128.335 13.5651 127.67 13.3234 126.833C13.1699 126.302 12.595 125.621 13.0157 125.012C13.6524 124.093 13.0754 123.131 13.2625 122.198C13.7506 122.078 14.247 122.101 14.6967 121.685C15.8093 120.651 17.5015 119.936 18.0564 118.691C18.6478 117.366 20.3556 117.035 20.4277 115.444C20.439 115.187 20.9475 114.912 21.27 114.721C23.3148 113.507 24.2051 111.124 26.2059 109.871C28.2529 106.7 31.3595 104.375 33.2392 101.07C35.6115 99.4259 36.7919 96.7114 38.875 94.7667C39.6839 94.0097 40.6982 93.1299 41.1698 92.1498C41.7307 90.9841 43.1426 90.5113 43.3674 89.46C43.656 88.1152 45.5365 88.1006 45.3458 86.6027C46.7023 85.7518 47.6168 84.4585 48.4788 83.1871C49.8891 81.1099 52.2522 79.8205 53.1524 77.3073C53.3737 76.6859 54.1556 76.188 54.7857 75.8119C55.5033 75.3823 55.338 74.5392 55.9445 74.0019C57.9813 72.1947 59.3035 69.7066 61.4705 68.0008C61.7635 66.2484 63.7933 65.9549 64.4219 64.4924C65.0567 63.0111 66.5292 62.3983 67.6537 61.453C68.396 60.8287 68.4212 59.8072 69.2567 59.2838C69.9755 58.8342 70.6435 58.2662 71.2263 57.648C71.6906 57.1539 72.6477 57.2815 72.7547 56.8895C72.9308 56.2498 73.3393 55.972 73.7322 55.5984C73.0723 53.1548 73.9026 51.2176 75.6731 49.5173C77.2591 47.9944 79.1751 46.9116 81.2694 47.1941C84.1938 47.5886 87.2241 47.6735 89.9927 48.9682C93.8192 50.7596 97.5262 52.7412 101.145 54.9442C104.066 56.7227 107.075 58.3853 110.004 60.1638C115.42 63.4538 120.812 66.7818 126.224 70.0789C129.981 72.366 133.761 74.616 137.514 76.9103C138.718 77.6471 139.847 78.5078 141.049 79.2496C143.142 80.5455 145.3 81.7418 147.369 83.0748C150.189 84.8922 152.978 86.7632 155.722 88.6939C156.484 89.2307 157.223 89.6025 158.137 89.7863C159.505 90.0629 159.492 90.1285 159.55 91.9076C159.281 91.8959 159.013 91.8844 158.704 91.8698C158.852 92.854 159.299 92.9416 159.932 92.3592C160.591 92.3737 160.661 92.982 161.014 93.2355C161.137 93.6958 160.698 93.8608 160.552 94.1451C160.614 94.9081 161.365 95.1778 161.58 95.8279C161.111 96.381 161.04 97.026 161.453 97.7331L156.165 102.122C155.66 102.089 155.108 102.053 154.557 102.017C154.433 103.931 153.87 105.52 151.754 106.017C151.896 106.823 150.676 106.478 150.665 107.378C150.66 107.809 149.785 108.351 149.202 108.624C148.433 108.984 148.847 110.095 147.997 110.322C147.399 110.172 147.976 109.689 147.695 109.466C146.183 109.566 147.452 110.531 147.237 111.03C146.965 111.018 146.696 111.005 146.444 110.993C146.396 111.265 146.351 111.517 146.308 111.764C145.788 111.717 145.315 111.673 144.839 111.629C144.201 112.893 143.692 114.304 142.387 115.024C141.169 115.697 140.97 117.119 139.91 117.932C138.924 118.686 137.558 119.188 137.314 120.721C137.269 121.002 136.748 121.195 136.475 121.458C135.831 122.075 134.886 122.201 134.361 123.122C133.921 123.895 133.021 124.479 132.211 124.95C131.179 125.549 131.126 126.809 130.175 127.501C129.335 128.113 128.043 128.504 128.041 129.925C128.041 129.986 127.911 130.057 127.832 130.105C125.478 131.531 124.198 134.066 122.034 135.703C121.186 136.343 120.255 136.895 119.845 138.123C119.568 138.951 118.166 139.003 117.588 139.994C117.285 140.512 117.052 141.135 116.643 141.575C116.284 141.963 115.897 142.591 115.303 142.492C114.236 142.312 114.99 143.713 114.178 143.663C113.926 144.908 112.46 145.073 111.985 146.186C111.522 147.275 110.447 147.987 109.772 148.902C108.057 151.231 105.652 152.956 104.193 155.481C102.681 155.804 102.368 157.427 101.22 158.227C100.078 159.024 98.9669 160.223 98.4826 161.491C98.1303 162.412 97.1354 162.076 97.0947 162.642C97.0365 163.435 96.0936 163.459 96.0655 164.216C96.0337 165.094 95.0903 165.274 94.6156 165.825C94.3226 166.163 93.8583 166.315 93.793 166.888C93.666 168.006 92.637 167.83 91.8233 168.103Z" />
<path fill-rule="evenodd" clip-rule="evenodd" d="M96.089 96.8693C96.8446 96.7777 97.0451 95.7634 97.8637 96.0455C98.8607 96.3872 99.5978 95.6698 100.47 95.5155C101.421 95.3464 102.346 95.0437 103.288 94.816C106.32 94.084 109.55 94.6597 112.514 93.4252C112.747 93.3271 113.069 93.4464 113.35 93.4577C115.893 93.5481 118.374 92.5715 120.937 93.0179C123.812 92.0611 126.849 92.811 129.774 92.172C130.884 91.9295 132.076 92.2474 133.29 91.9441C134.477 91.65 135.754 92.1606 137.09 91.7279C138.43 91.2925 139.889 92.0912 141.463 91.5998C142.843 91.169 144.503 91.6071 146.082 91.4271C147.97 91.2129 149.892 91.7257 151.867 91.3787C153.451 91.1005 155.099 91.6866 156.804 91.2735C158.028 90.9775 159.472 91.2904 160.751 91.6027C162.094 91.9304 163.251 91.0019 164.559 91.3221C165.289 91.5014 166.069 91.4825 166.826 91.5529C167.678 91.6322 168.548 91.6311 169.377 91.8143C170.098 91.9748 171.102 91.401 171.303 91.6572C172.188 92.7776 172.772 91.3766 173.57 91.5495C175.138 91.8898 176.879 91.6134 178.358 92.1335C179.951 92.6935 181.418 91.0488 182.88 92.2019C184.392 91.9127 185.888 92.1958 187.389 92.3206C188.431 92.4061 189.471 92.5217 190.513 92.606C191.563 92.6909 192.618 92.7334 193.57 93.2653C194.465 92.4386 195.579 93.5321 196.505 92.9467C196.381 92.4707 195.595 92.1454 196.287 91.5204C197.055 90.8248 196.964 90.0849 196.265 89.362C196.013 89.1023 195.699 88.8419 195.826 88.4123C195.803 87.6809 197.87 88.3281 196.809 86.9022C196.285 87.4672 195.531 87.4486 194.925 87.7674C194.878 87.5864 194.846 87.4111 194.786 87.2459C194.039 85.1714 193.872 83.4956 194.198 81.2657C193.013 79.8178 193.013 79.8178 191.65 79.3894C191.39 78.7484 191.903 77.9386 191.211 77.392C191.286 77.3338 191.36 77.2766 191.439 77.2146L192.719 77.3336C191.328 76.6032 192.096 75.7783 191.743 75.0456C191.311 74.954 190.869 74.8593 190.425 74.7644C190.199 74.2768 190.077 73.7652 189.821 73.2802C189.377 72.4371 189.164 71.4684 188.902 70.5383C188.798 70.1692 189.821 70.1298 189.238 69.505C188.875 69.1171 188.915 68.525 188.588 68.0449C187.842 66.9499 187.618 65.5778 187.088 64.3967C186.601 63.3133 187.122 62.2278 186.564 61.2334C185.168 58.7477 184.928 55.926 184.125 53.261C184.674 53.1229 185.015 53.037 185.348 52.9533C185.022 51.9301 183.81 51.9371 183.378 51.0941C183.366 49.4885 183.16 48.6434 182.479 47.1846C182.432 47.0814 182.61 46.872 182.683 46.7117C183.323 46.3078 183.534 47.1429 184.072 47.1782C184.259 46.8499 184.353 46.5234 184.037 46.1956C183.399 46.1026 182.765 46.0111 182.037 45.9045L182.314 42.9271C181.93 42.2052 181.131 41.9302 181.327 41.0226C181.33 40.7665 182.029 40.8252 181.803 40.326C181.529 40.2281 181.171 40.2116 181.051 40.0334C180.786 39.642 179.293 32.6371 179.324 32.3006C179.331 32.235 179.391 32.1734 179.428 32.1085C179.768 32.0245 180.108 31.9384 180.465 31.8497C180.122 31.0623 179.139 31.7601 178.819 31.0389C179.365 30.6399 180.259 30.8103 180.546 29.9795C180.185 29.7126 180.107 29.1085 179.408 29.1034C179.191 29.2178 178.893 29.3739 178.587 29.5367C178.104 28.545 178.974 27.7022 178.916 26.8394C178.849 25.8223 178.614 24.7433 178.13 23.9533C177.633 23.6002 177.074 23.9728 176.723 23.4967C176.828 23.0693 177.494 22.9515 177.204 22.0135C177.194 22.0032 176.944 21.7077 176.634 21.5014C176.309 21.284 175.913 22.0647 175.861 21.7405C175.71 20.788 174.978 20.886 174.435 20.5192C173.747 20.0538 173.091 19.7963 172.397 19.8915C171.644 19.9949 171.229 19.0579 170.258 19.5666C169.553 19.9371 168.388 19.5839 167.47 19.3734C164.786 18.7593 162.088 19.3322 159.412 19.3377C157.981 19.3412 156.502 19.5295 155.052 19.3683C153.417 19.188 153.456 19.2966 151.995 19.5958C151.414 19.7152 150.978 20.5415 150.237 20.0177C149.214 19.2941 148.043 20.2465 146.984 19.7813C143.951 21.1396 140.612 20.5433 137.509 21.2719C136.102 21.6013 134.704 21.0826 133.465 21.5463C131.395 22.3217 129.19 21.979 127.16 22.5783C125.754 22.9929 124.328 22.4127 123.101 22.824C120.352 23.7443 117.396 23.1635 114.707 24.2313C113.143 23.7832 111.642 24.5557 110.056 24.4461C108.497 24.339 106.896 25.0086 105.313 25.0054C104.52 25.0042 104.046 25.7293 103.214 25.489C102.517 25.2887 101.556 25.1026 101.029 25.4256C100.242 25.9094 99.558 25.6965 98.8668 25.5923C98.0815 25.472 97.5873 26.2657 96.7672 26.0223C95.0411 25.5098 93.3079 26.6895 91.5594 26.0897C90.3372 26.8819 88.9634 26.0721 87.784 26.3817C86.3739 26.754 85.0507 26.4849 83.6887 26.5316C82.1074 26.5863 80.4709 26.6916 79.3946 28.1866C80.05 28.6196 79.8848 29.2431 79.7508 29.7581C79.1291 32.1603 79.8051 34.5644 79.773 36.9656C79.7597 37.99 80.2057 39.138 79.9072 40.1789C79.5475 41.4359 80.3565 42.4883 80.2246 43.7034C80.0381 45.4042 80.4035 47.0911 80.7425 48.7682C81.0102 50.0929 80.2857 51.4988 81.039 52.8225C81.179 53.0688 80.3838 53.122 80.5575 53.5942C80.8993 53.7489 81.219 53.8932 81.5508 54.0428C81.3106 54.2747 80.9189 54.5777 80.9506 54.6322C81.7153 55.9348 81.6 57.39 81.8106 58.7977C81.8879 59.3114 82.36 59.6695 81.7772 60.2079C81.2774 60.6669 81.9255 61.1895 82.0392 61.571C82.8265 64.224 83.4164 66.909 83.4636 69.6676C83.4791 70.5969 84.1128 70.9585 84.4736 71.5752C84.4029 71.6349 84.3163 71.6846 84.2592 71.7571C84.1236 71.9273 83.7467 71.9679 84.0585 72.3552C84.6267 73.0596 84.1781 74.1317 85.0315 74.8311C85.7795 75.4428 84.6266 76.6996 85.6277 77.3811C85.8757 80.6008 87.2113 83.517 88.2789 86.4892C89.5354 89.9833 90.6739 93.5495 92.2553 96.0252C93.7963 97.5566 94.9911 95.7258 96.089 96.8693ZM102.022 104.408C100.534 104.938 99.3162 106.114 97.8533 104.77C97.5685 104.51 97.4471 104.969 97.2269 105.043C95.228 105.712 93.2114 105.273 91.1931 105.179C90.1772 105.13 89.5953 104.416 88.8388 103.974C88.2726 103.645 88.4833 103.266 88.9599 102.989C88.4479 102.596 88.7975 101.752 88.2061 101.455C87.7054 101.303 87.4575 101.619 87.1719 101.853C86.5797 101.679 87.0492 101.06 86.6799 100.736C86.0698 100.202 86.6693 99.4723 86.5111 98.8681C86.1473 97.4808 86.5028 95.7254 84.6064 95.0667C84.3459 94.9753 83.9948 94.6032 84.0997 94.097C84.106 93.3284 84.8683 93.8774 85.1642 93.555C85.3217 93.4425 85.3187 93.2373 85.0757 93.1611C83.2052 92.5742 83.2023 92.5834 83.1907 90.2443C82.8735 90.096 82.5553 89.9466 82.2944 89.8257C81.9033 89.0138 82.9236 88.9238 82.9181 88.3506C81.1442 85.0184 80.2261 84.1334 80.6432 79.5349C80.4057 79.7041 80.1942 79.8547 79.9826 80.0063C79.7801 79.5734 78.671 79.2728 79.7727 78.6239C79.4612 77.9959 79.0837 77.3892 78.8527 76.732C78.3286 75.2373 78.0304 73.7321 79.3354 72.479C78.8392 71.7131 77.6854 71.7466 77.6824 70.7049C77.631 70.2178 78.1262 70.1473 78.3925 69.6792C78.1274 69.0503 78.1337 68.1567 77.1765 67.7272C76.5964 67.4673 76.9165 66.9065 76.9385 66.4777C76.9634 66.0071 77.722 65.9285 77.5882 65.3108C76.7094 63.9134 75.5412 62.5312 76.5281 60.8345C76.0564 60.2673 75.5557 59.6628 75.0539 59.0592C75.183 57.7945 75.8302 56.8353 75.1492 55.7853C74.6593 55.0304 75.7217 53.7758 74.7516 52.8964C75.2818 51.3306 74.2977 49.8226 74.5964 48.2489C74.995 46.155 74.8285 44.0799 74.146 42.0514C74.09 41.8854 74.0612 41.6862 74.0968 41.5183C74.6703 38.8437 73.7734 36.1595 74.2171 33.456C74.5269 31.5713 74.886 29.6418 74.288 27.6653C74.0332 26.823 74.0537 25.3821 74.5725 24.9333C75.4924 24.1373 73.8111 22.8607 75.2872 22.4789C75.3964 21.5423 75.2755 20.4802 75.6964 19.7176C75.9631 19.2338 76.0383 18.3455 76.7663 18.2125C77.8661 18.0132 78.1386 16.9246 78.9306 16.3972C79.3603 16.6579 79.695 17.0252 80.3076 17.0486C81.825 17.1046 83.5271 17.7956 84.7999 17.3076C86.1554 16.7885 87.5969 17.7621 88.7728 16.6883C88.9623 16.5146 89.5165 16.6797 89.8799 16.7723C92.1844 17.3596 94.4987 16.3044 96.7991 16.8335C100.489 16.0386 104.33 16.5912 107.996 15.5829C110.836 16.0981 113.59 15.0134 116.438 15.1112C117.545 15.1479 118.885 15.2431 119.911 14.8835C121.132 14.4559 122.465 15.1199 123.367 14.5355C124.522 13.7886 125.862 15.108 126.787 13.914C128.347 14.2714 129.909 14.0037 131.417 13.7141C133.883 13.2426 136.466 14.0018 138.879 12.8613C139.475 12.5783 140.38 12.7791 141.092 12.9588C141.903 13.1624 142.382 12.4493 143.191 12.4983C145.909 12.6606 148.603 11.8362 151.342 12.1623C152.788 11.1304 154.431 12.3581 155.91 11.7685C157.406 11.1699 158.881 11.7778 160.344 11.9045C161.31 11.988 162.051 11.2834 163.012 11.5041C163.838 11.6945 164.712 11.7652 165.561 11.7402C166.239 11.7191 166.825 12.4861 167.178 12.2846C167.755 11.9568 168.24 12.0492 168.782 12.0628C170.043 9.86831 172 9.08563 174.455 9.13521C176.653 9.17991 178.773 9.76904 180.055 11.4497C181.843 13.7965 183.926 15.9993 184.968 18.8725C186.407 22.8449 187.627 26.8674 188.628 30.9841C189.436 34.3073 190.388 37.6102 191.202 40.9392C192.705 47.0949 194.165 53.2613 195.66 59.4194C196.699 63.693 197.781 67.9569 198.813 72.233C199.143 73.6056 199.333 75.0124 199.658 76.3866C200.222 78.7835 200.902 81.1554 201.423 83.5607C202.132 86.84 202.78 90.1348 203.356 93.4405C203.515 94.3591 203.774 95.144 204.29 95.9202C205.063 97.0838 205.007 97.1206 203.79 98.4198C203.608 98.221 203.427 98.0234 203.219 97.795C202.627 98.5954 202.881 98.9731 203.741 99.0089C204.196 99.4853 203.816 99.9647 203.886 100.394C203.648 100.807 203.221 100.612 202.916 100.71C202.421 101.294 202.761 102.016 202.453 102.627C201.731 102.687 201.225 103.093 201.016 103.885L194.174 103.248C193.84 102.868 193.475 102.453 193.11 102.038C191.67 103.303 190.148 104.029 188.3 102.884C187.831 103.554 187.212 102.447 186.568 103.076C186.26 103.377 185.258 103.142 184.652 102.923C183.854 102.633 183.361 103.712 182.6 103.271C182.283 102.743 183.033 102.809 182.991 102.452C181.852 101.454 182.066 103.033 181.562 103.235C181.378 103.034 181.197 102.835 181.027 102.648C180.801 102.807 180.591 102.953 180.385 103.097C180.052 102.696 179.748 102.33 179.442 101.962C178.098 102.405 176.74 103.043 175.308 102.63C173.971 102.244 172.825 103.108 171.5 102.934C170.27 102.77 168.949 102.159 167.693 103.07C167.462 103.238 166.957 103.006 166.578 102.998C165.686 102.979 164.929 102.4 163.906 102.68C163.049 102.916 162 102.692 161.094 102.452C159.941 102.147 159.012 103 157.85 102.817C156.824 102.655 155.634 102.018 154.627 103.022C154.585 103.065 154.442 103.023 154.352 103.001C151.68 102.345 148.982 103.232 146.294 102.859C145.242 102.713 144.193 102.444 143.035 103.023C142.254 103.413 141.225 102.459 140.116 102.75C139.535 102.902 138.931 103.178 138.33 103.2C137.801 103.22 137.084 103.391 136.734 102.9C136.107 102.019 135.65 103.543 135.111 102.933C134.052 103.636 132.899 102.715 131.776 103.167C130.678 103.609 129.415 103.353 128.291 103.522C125.431 103.956 122.51 103.476 119.693 104.23C118.396 103.389 117.027 104.315 115.65 104.069C114.278 103.825 112.645 103.887 111.406 104.442C110.506 104.843 110.039 103.903 109.611 104.274C109.009 104.794 108.325 104.144 107.77 104.659C107.127 105.257 106.332 104.718 105.607 104.771C105.161 104.803 104.725 104.582 104.274 104.942C103.393 105.643 102.79 104.79 102.022 104.408Z" />
</svg>
