<svg width="198" height="173" viewBox="0 0 198 173" fill="#582ef5" xmlns="http://www.w3.org/2000/svg">
<path fill-rule="evenodd" clip-rule="evenodd" d="M153.536 143.53C153.612 143.816 153.687 144.103 153.764 144.389C155.344 143.914 156.924 143.439 158.504 142.963C158.448 142.756 158.393 142.548 158.337 142.341C156.737 142.737 155.136 143.133 153.536 143.53ZM331.818 -37.8354C331.83 -38.0631 331.841 -38.2907 331.854 -38.5174C323.316 -38.9438 314.779 -39.3713 306.243 -39.7988C306.229 -39.5248 306.216 -39.2508 306.202 -38.9768C314.741 -38.5967 323.279 -38.2155 331.818 -37.8354ZM192.25 104.147C228.929 98.2795 265.008 90.111 299.523 75.9423C264.464 88.0272 228.669 97.2834 192.25 104.147ZM180.33 91.8191C180.386 92.0612 180.443 92.3032 180.5 92.5453C188.905 90.9827 197.33 89.5159 205.712 87.8368C227.846 83.4024 249.92 78.6836 271.604 72.3404C280.38 69.7724 289.075 66.9201 297.771 64.0822C302.183 62.6422 306.513 60.9446 310.882 59.3697C312.562 58.765 314.247 58.1778 315.93 57.5825C315.829 57.2848 315.728 56.9871 315.629 56.6894C271.6 72.5206 226.296 83.4425 180.33 91.8191ZM298.414 91.2463C298.251 90.9888 298.087 90.7312 297.924 90.4737C294.565 92.2846 291.28 94.252 287.834 95.8775C279.867 99.6373 271.9 103.409 263.792 106.845C254.159 110.927 244.404 114.728 234.636 118.478C233.121 119.06 231.381 120.786 229.516 118.881C229.472 118.836 228.877 119.33 228.539 119.573C227.465 120.347 226.498 121.467 225.299 121.844C206.942 127.628 188.555 133.32 170.17 139.016C167.486 139.847 164.773 140.589 162.074 141.372C163.646 141.588 165.1 141.346 166.5 140.923C186.065 135.008 205.629 129.087 225.173 123.104C227.107 122.512 227.969 122.652 227.69 124.959C227.597 125.72 228.122 126.555 228.364 127.358C228.79 126.637 229.286 125.946 229.629 125.186C230.405 123.463 230.033 121.375 232.648 120.423C242.554 116.821 252.393 113.018 262.144 109.015C268.594 106.367 274.861 103.268 281.192 100.334C285.314 98.4228 289.441 96.5182 293.492 94.4653C295.23 93.5835 296.779 92.3309 298.414 91.2463ZM39.935 73.8059C40.0492 74.0078 40.1644 74.2087 40.2775 74.4095C44.0119 72.0053 47.6888 69.5064 51.4901 67.2145C64.9407 59.1026 78.8932 51.9353 93.5842 46.3894C106.506 41.511 119.456 36.5233 132.739 32.8316C149.423 28.1952 166.415 24.6188 183.364 21.0156C190.479 19.5024 197.826 19.0697 205.072 18.1921C209.308 17.6781 213.554 17.2414 217.797 16.7943C222.074 16.3442 226.352 15.9239 230.63 15.4892C227.314 15.1143 224.013 14.7939 220.796 15.174C210.976 16.3328 201.173 17.6647 191.39 19.1048C165.791 22.8697 140.528 28.2261 116.119 36.9045C101.658 42.0466 87.4328 47.9098 73.3023 53.9224C61.3204 59.0212 50.0955 65.5756 39.935 73.8059ZM256.013 -40.4467C217.326 -41.003 156.052 -32.1175 85.688 3.71262C67.8273 12.8082 50.8716 23.5282 35.3033 36.2733C101.812 -10.9629 175.47 -37.3668 256.013 -40.4467ZM358.559 -26.6223C358.114 -26.1887 357.614 -25.3347 357.231 -25.3842C353.469 -25.8663 349.728 -26.5152 345.974 -27.0735C345.268 -27.1786 344.533 -27.0931 343.812 -27.0962C344.288 -26.5657 344.679 -25.9054 345.254 -25.5274C348.574 -23.3426 352.032 -21.3566 355.269 -19.0595C366.198 -11.303 372.911 -0.806572 374.808 12.5144C375.323 16.1279 374.886 19.8784 374.886 24.2953C382.819 18.4064 389.283 12.2836 393.001 3.92044C394.812 -0.153507 395.144 -4.7394 392.184 -8.64648C386.202 -16.543 377.157 -19.3727 368.423 -22.6761C365.075 -23.9431 360.976 -23.3539 358.559 -26.6223ZM201.316 26.1724C201.822 25.5606 202.329 24.9466 202.951 24.1936C202.225 24.0979 201.645 23.8599 201.169 23.9918C200.1 24.2853 199.084 24.7643 198.047 25.1681C199.172 25.473 200.297 25.7789 201.422 26.0838C200.722 26.6081 200.062 27.4899 199.311 27.5795C197.879 27.7495 196.328 27.1541 194.947 27.4456C192.954 27.8648 191.121 29.0453 189.128 29.4615C173.772 32.6619 158.35 35.5533 143.047 38.9845C137.016 40.337 131.171 42.6423 125.359 44.8261C115.48 48.5374 105.022 50.5966 95.5215 55.3782C94.7223 55.7799 93.6794 55.6769 92.8567 56.0457C89.7588 57.4332 86.6703 58.8485 83.6475 60.3905C80.8572 61.813 78.2233 63.5549 75.396 64.8909C72.6653 66.1816 69.7393 67.0489 66.9623 68.249C59.5027 71.4741 53.4716 76.8707 47.17 81.7821C43.6876 84.4974 40.7512 87.9574 37.784 91.2753C36.2259 93.0171 35.0462 95.1247 33.8531 97.1611C32.5644 99.3614 33.669 100.519 35.87 100.771C42.3485 101.51 48.8352 102.749 55.3198 102.752C85.7652 102.766 115.836 98.459 145.851 93.9483C162.639 91.4257 179.345 88.3241 196.031 85.1824C223.636 79.9846 251.029 73.8258 278.014 65.9447C297.005 60.3977 315.783 54.2451 334.089 46.6884C336.416 45.7284 336.175 44.8508 334.802 43.3325C330.234 38.2768 324.257 35.0713 318.151 32.8957C310.303 30.0991 301.917 28.829 293.782 26.8224C293.201 26.6792 292.824 25.8232 292.276 25.3978C291.623 24.89 290.887 24.4883 290.187 24.0412C289.91 24.378 289.633 24.7149 289.356 25.0517C290.107 25.1908 290.86 25.3288 291.611 25.4679C291.433 25.7027 291.255 25.9365 291.077 26.1714C289.629 25.917 288.126 25.2835 286.743 25.4792C282.395 26.0952 278.226 24.6974 273.92 24.6871C266.592 24.6695 259.267 24.0227 251.942 23.6189C250.019 23.5128 248.1 23.2213 246.18 23.2089C244.457 23.1976 242.735 23.4479 241.012 23.5911C239.73 23.6982 238.448 23.8022 237.168 23.9361C235.972 24.0618 234.448 24.7653 233.648 24.2719C231.279 22.8113 229.117 23.7219 226.937 24.3131C225.047 24.8251 223.302 25.6481 222.155 23.1399C221.971 22.7361 221.108 22.6176 220.537 22.4477C220.464 22.426 220.056 22.9977 220.124 23.1275C221.278 25.3515 219.322 24.3286 218.648 24.5119C217.742 24.7581 216.795 24.8632 215.862 25.0033C214.266 25.2423 212.669 25.4761 211.069 25.6831C209.13 25.9355 206.893 25.6388 205.324 26.5309C203.578 27.5249 202.594 26.8615 201.316 26.1724ZM78.3533 27.3054C75.094 28.7712 71.7144 30.0238 68.5909 31.7409C54.2969 39.5973 41.2042 49.1708 29.5802 60.6047C25.5485 64.5704 22.4723 69.5055 18.8963 73.9452C14.5488 79.3397 12.1237 85.5129 11.7873 92.3794C11.6886 94.3829 12.1494 96.9581 13.3825 98.3724C16.1996 101.606 20.0801 103.467 24.6352 104.616C21.5292 98.9379 20.2189 93.2879 23.4669 87.7987C25.7244 83.9843 28.5363 80.344 31.7174 77.2651C41.411 67.8842 53.0586 61.2917 64.912 55.1102C83.5092 45.4121 103.028 37.9584 123.002 31.6688C148.888 23.5168 175.282 17.7041 202.281 14.8291C211.628 13.8341 221.008 13.0739 230.388 12.4486C249.471 11.1775 268.491 12.0232 287.396 14.8847C297.675 16.4391 307.791 18.5559 317.568 22.4331C327.514 26.3794 336.54 31.0786 341.402 41.2712C341.994 42.5114 342.677 42.9337 344.028 42.2281C347.256 40.5419 350.599 39.072 353.788 37.3208C356.387 35.8931 359.381 34.6591 361.234 32.5052C365.372 27.6979 367.974 21.9799 368.358 15.475C368.657 10.3936 367.828 5.29988 364.891 1.3001C361.371 -3.4949 357.708 -8.6082 352.1 -11.1731C349.39 -12.4112 348.325 -16.0969 344.716 -15.7415C344.423 -15.7116 344.057 -16.6562 343.688 -17.1197C342.545 -18.5526 340.103 -18.0252 339.321 -20.0101C339.156 -19.9308 338.997 -19.8082 338.823 -19.7804C338.058 -19.6609 337.189 -19.2818 336.535 -19.5085C328.688 -22.2351 320.919 -25.1687 312.73 -26.8251C305.224 -28.3424 297.762 -29.2272 290.037 -28.7359C285.236 -28.431 280.361 -26.823 275.432 -28.6071C274.483 -28.9501 273.021 -27.5091 271.738 -27.3504C263.303 -26.3028 254.867 -25.1728 246.398 -24.4786C238.151 -23.8008 230.222 -20.6529 221.723 -21.6407C219.775 -21.8673 217.167 -21.8818 215.306 -19.5713C214.473 -18.5381 212.114 -19.904 210.17 -18.9079C208.094 -17.8439 205.283 -18.2219 202.792 -17.9644C202.707 -17.9561 202.633 -17.8573 202.547 -17.8356C197.07 -16.5346 191.784 -14.5167 186.421 -12.986C166.114 -7.18979 145.89 -1.21741 126.169 6.37116C121.725 8.08109 117.375 10.0928 112.835 11.4752C106.767 13.3221 100.54 14.518 95.2052 18.3695C93.2109 19.8095 90.542 20.2937 88.2258 21.3165C87.329 21.7131 86.5576 22.393 85.7286 22.9451C83.2706 24.3985 80.8125 25.852 78.3533 27.3054ZM259.701 100.501C258.952 100.969 258.261 101.675 257.448 101.871C243.482 105.236 229.591 109.013 215.499 111.735C197.546 115.201 179.439 117.868 161.373 120.726C156.795 121.451 152.116 121.507 147.504 122.04C144.591 122.378 141.733 123.209 138.819 123.51C131.223 124.298 123.611 124.961 115.997 125.56C114.67 125.665 113.297 125.055 111.954 125.093C111.132 125.116 110.335 126.03 109.513 126.055C102.367 126.275 95.2155 126.559 88.0695 126.482C78.3523 126.377 68.5971 126.441 58.9344 125.585C44.1951 124.279 29.5731 121.951 17.0059 113.191C8.77594 107.456 1.62793 100.882 0.247696 89.9968C-0.74994 82.1291 1.32144 75.0937 5.46215 68.6722C8.58876 63.8226 12.3962 59.417 15.7861 54.7312C16.7252 53.4343 17.1314 51.7604 18.0087 50.4069C19.3684 48.3097 20.6602 46.0662 22.4364 44.3604C32.4467 34.7436 43.5852 26.538 55.2946 19.1595C63.9627 13.6971 72.7573 8.37569 81.8163 3.60128C110.778 -11.6634 140.862 -24.1397 172.731 -32.0074C194.027 -37.2639 215.57 -41.2565 237.458 -42.5801C250.671 -43.3805 263.971 -42.8016 277.233 -42.7418C287.971 -42.6934 298.709 -42.4864 309.447 -42.3648C329.134 -42.1413 348.578 -40.0286 367.47 -34.2519C376.919 -31.3636 385.762 -27.2258 392.816 -19.939C400.926 -11.5614 403.515 3.33243 398.279 13.7867C394.019 22.2889 387.902 29.28 380.062 34.723C375.951 37.5763 371.686 40.2565 367.864 43.4611C364.605 46.1929 362.084 49.7981 358.87 52.5938C353.846 56.9633 348.431 60.8797 343.357 65.1947C341.731 66.576 340.766 68.7062 339.311 70.3265C335.361 74.726 331.749 79.5807 327.199 83.255C320.218 88.8895 312.641 93.7978 305.172 98.7957C301.182 101.466 296.887 103.678 292.73 106.096C289.712 106.272 287.142 107.323 285.351 109.891C280.506 112.086 275.667 114.294 270.813 116.467C269.768 116.934 268.664 117.27 267.6 117.656C263.703 119.208 259.795 120.769 255.886 122.33C254.596 123.199 253.413 124.352 251.998 124.893C223.523 135.765 194.476 144.808 164.826 151.865C146.146 156.311 127.537 161.124 108.714 164.858C92.203 168.132 75.4458 170.173 58.7822 172.658C56.1194 173.056 53.3744 172.871 50.6736 173.054C47.5624 173.264 44.8976 172.334 42.6133 170.227C42.35 169.983 42.025 169.791 41.7021 169.625C40.8494 169.184 39.9814 168.771 39.1195 168.348C39.8724 167.794 40.6273 167.241 41.4717 166.621C41.2639 166.447 41.0983 166.248 40.8865 166.14C40.0554 165.719 39.21 165.325 38.3697 164.92C39.3262 164.343 40.2519 163.319 41.2413 163.252C74.6117 160.972 106.729 152.224 138.944 144.122C176.624 134.645 213.805 123.461 250.043 109.333C258.388 106.08 266.638 102.558 274.802 98.872C280.763 96.1824 286.514 93.0242 292.127 89.489C289.194 90.482 286.276 91.5234 283.323 92.4577C277.104 94.4261 270.857 96.3102 264.646 98.3054C263.811 98.5732 263.118 99.2861 262.362 99.7928C261.475 100.029 260.589 100.265 259.701 100.501Z" />
</svg>
