<svg width="198" height="173" viewBox="0 0 198 173" fill="#ff76d9" xmlns="http://www.w3.org/2000/svg">
<path fill-rule="evenodd" clip-rule="evenodd" d="M112 71.7336C111.645 71.0084 111.293 70.2805 110.938 69.5526C99.7455 73.5546 88.5554 77.5567 77.3627 81.5561C77.5751 82.1156 77.7875 82.6751 77.9973 83.232C89.3325 79.3984 100.668 75.5673 112 71.7336ZM167.158 52.4457C167.366 53.0104 167.573 53.5751 167.78 54.1398C221.609 40.7842 275.441 27.426 329.273 14.0703C329.143 13.5393 329.011 13.0083 328.882 12.4773C274.975 25.7992 221.065 39.1238 167.158 52.4457ZM121.41 31.3758C121.14 30.837 120.871 30.2982 120.599 29.762C84.0393 42.18 47.7335 55.1911 13.4119 76.1001C50.2254 60.8535 85.8188 46.1146 121.41 31.3758ZM125.353 167.393C123.387 169.01 121.421 170.623 119.685 172.048C115.292 171.255 111.086 170.499 106.879 169.74C106.827 169.157 106.773 168.572 106.718 167.986C105.079 169.458 103.439 170.932 101.499 172.672C95.0594 166.961 89.1613 161.666 92.0003 151.266C97.5617 130.891 102.286 110.292 107.33 89.7798C108.438 85.2779 109.433 80.7526 110.827 74.7483C102.418 77.5795 95.0905 79.6207 88.1278 82.5399C83.3642 84.5397 79.1264 87.7827 74.6219 90.4145C73.4304 91.1113 72.1663 91.7407 70.8608 92.1759C58.6863 96.2297 46.5274 100.317 34.3038 104.21C29.4159 105.767 24.3829 106.863 19.4173 108.171C19.596 107.306 19.7747 106.441 19.9535 105.576C16.2934 102.889 12.8897 99.7137 8.91875 97.6129C-0.807855 92.4634 -3.43961 78.9731 5.35708 72.1709C15.322 64.4648 25.9138 56.9581 37.3526 51.8966C63.9602 40.1185 91.1766 29.7003 118.305 19.1344C123.221 17.2202 125.656 14.92 127.089 9.66423C130.352 -2.32113 134.215 -14.2132 138.903 -25.709C140.688 -30.0815 145.298 -33.3634 148.858 -36.9017C149.697 -37.7358 151.766 -38.2409 152.8 -37.8006C156.973 -36.021 160.97 -33.8244 165.021 -31.76C175.134 -26.5949 178.144 -17.9251 177.211 -7.23494C176.993 -4.75601 177.18 -2.24083 177.18 1.05923C194.245 -2.96352 210.287 -7.42403 226.59 -10.4676C274.881 -19.4819 323.229 -28.1983 371.658 -36.4355C383.653 -38.474 396.025 -38.3808 408.238 -38.9869C411.077 -39.1268 413.975 -38.1088 416.846 -37.6244C416.998 -36.7126 417.154 -35.7983 417.307 -34.8865C411.3 -33.138 405.371 -30.2369 399.273 -29.8276C360.706 -27.2399 322.929 -19.7202 285.271 -11.7317C250.778 -4.4115 216.54 4.09507 182.203 12.125C179.825 12.6819 177.543 13.6326 175.214 14.4019C175.354 15.0262 175.491 15.653 175.631 16.2799C177.431 16.0053 179.252 15.8292 181.029 15.4432C232.022 4.2997 282.862 -7.60794 334.059 -17.7153C360.522 -22.9374 387.606 -25.0303 414.434 -28.3434C416.947 -28.6516 419.633 -27.5507 422.239 -27.1052C420.98 -25.0148 419.721 -22.9218 418.286 -20.5362C431.245 -23.0229 422.801 -12.4933 424.658 -7.6727C423.021 -6.82308 420.443 -5.48648 417.13 -3.76652C419.247 -3.25882 420.521 -2.95316 421.798 -2.64491C421.85 -2.28486 421.902 -1.92481 421.956 -1.56216C411.336 0.494541 400.713 2.54866 390.093 4.60277C389.932 4.06139 389.772 3.52002 389.611 2.97865C393.051 2.14716 396.491 1.31567 399.928 0.484177C399.791 -0.0131607 399.654 -0.513088 399.516 -1.01043L351.829 8.03233C351.873 8.57112 351.919 9.10731 351.964 9.64351C356.458 9.05033 360.949 8.45456 365.444 7.86137C365.565 8.3639 365.687 8.86641 365.806 9.36893C360.872 10.5346 355.922 11.6536 351 12.871C290.711 27.7808 230.426 42.7217 170.127 57.5979C165.622 58.7091 162.415 60.4964 161.957 65.7962C161.825 67.3115 159.519 68.6248 158.247 70.0676C157.657 70.7385 156.535 71.8679 156.709 72.1476C162.729 82.0555 153.297 89.6296 152.74 98.5195C152.611 100.571 152.064 103.024 150.782 104.464C149.306 106.127 151.632 112.336 145.749 109.161C144.731 112.227 143.713 115.3 142.695 118.369C137.908 130.152 132.93 141.866 128.438 153.76C126.809 158.078 126.348 162.837 125.353 167.393Z" />
</svg>
